<svg width="129" height="43" viewBox="0 0 129 43" fill="none" xmlns="http://www.w3.org/2000/svg">
<path d="M65.28 32.0667L67.52 32.6267V33H59.8667V32.6267L62.1067 32.0667V8.36H58.3733V7.8L65.28 6.30667V32.0667Z" fill="#004BEF"/>
<path d="M127.335 21.3333C127.335 23.6952 125.9 26.1575 122.813 28.59C119.742 31.0107 115.214 33.249 109.501 35.1534C98.0887 38.9575 82.2376 41.3333 64.668 41.3333C47.0983 41.3333 31.2473 38.9575 19.8348 35.1534C14.1216 33.249 9.59428 31.0107 6.5227 28.59C3.43609 26.1575 2.0013 23.6952 2.0013 21.3333C2.0013 18.9715 3.43609 16.5092 6.5227 14.0767C9.59428 11.656 14.1216 9.4177 19.8348 7.5133C31.2473 3.70914 47.0983 1.33333 64.668 1.33333C82.2376 1.33333 98.0887 3.70914 109.501 7.5133C115.214 9.4177 119.742 11.656 122.813 14.0767C125.9 16.5092 127.335 18.9715 127.335 21.3333Z" stroke="#004BEF" stroke-width="2.66667"/>
</svg>
