<svg width="664" height="229" viewBox="0 0 664 229" fill="none" xmlns="http://www.w3.org/2000/svg">
<rect x="1" y="1" width="662" height="227" rx="9" fill="white" stroke="#004BEF" stroke-width="2"/>
<path d="M137.732 91.967C138.887 93.2583 140.178 94.2438 141.606 94.9235C143.101 95.5352 144.528 95.841 145.888 95.841C147.587 95.841 149.082 95.5692 150.373 95.0254C151.733 94.4817 152.956 93.802 154.044 92.9864L154.349 93.3942C153.806 94.2098 153.058 95.0254 152.107 95.841C151.155 96.6566 150.135 97.4042 149.048 98.0839C147.961 98.7636 146.839 99.3073 145.684 99.7151C144.528 100.123 143.441 100.327 142.421 100.327C140.858 100.327 139.499 100.089 138.343 99.6131C137.188 99.1374 135.761 98.5257 134.062 97.7781L116.526 115.313L116.73 115.517C118.089 114.973 119.415 114.532 120.706 114.192C122.066 113.784 123.663 113.58 125.498 113.58C129.576 113.58 132.77 114.566 135.081 116.537C137.392 118.44 138.547 121.328 138.547 125.202C138.547 127.921 137.8 130.606 136.304 133.256C134.877 135.839 132.94 138.15 130.493 140.189C128.114 142.16 125.396 143.757 122.337 144.981C119.347 146.204 116.254 146.816 113.06 146.816C110.953 146.816 108.88 146.544 106.841 146C104.87 145.456 103.069 144.641 101.438 143.553C99.8746 142.398 98.6172 140.971 97.6657 139.271C96.7142 137.572 96.2384 135.601 96.2384 133.358C96.2384 130.572 97.088 128.227 98.7871 126.324C100.486 124.353 102.729 123.367 105.516 123.367C107.827 123.367 109.798 124.251 111.429 126.018L111.327 126.426C110.987 126.358 110.647 126.324 110.307 126.324C110.036 126.256 109.73 126.222 109.39 126.222C107.147 126.222 105.312 127.071 103.885 128.771C102.457 130.402 101.744 132.475 101.744 134.989C101.744 138.32 102.729 140.937 104.7 142.84C106.739 144.675 109.458 145.592 112.856 145.592C115.779 145.592 118.429 145.014 120.808 143.859C123.255 142.704 125.328 141.14 127.027 139.169C128.726 137.198 130.052 134.956 131.003 132.441C131.955 129.858 132.43 127.207 132.43 124.489C132.43 121.634 131.683 119.391 130.187 117.76C128.76 116.061 126.551 115.211 123.561 115.211C121.59 115.211 119.687 115.551 117.852 116.231C116.017 116.843 114.249 117.624 112.55 118.576L112.041 118.168L137.732 91.967ZM164.035 129.892L165.258 127.037H267.207L265.984 129.892H164.035ZM329.396 91.1514C325.794 96.6566 322.056 102.06 318.182 107.361C314.308 112.663 310.603 118.1 307.069 123.673L307.273 123.877C308.293 122.518 309.482 121.056 310.841 119.493C312.201 117.862 313.662 116.367 315.225 115.007C316.788 113.58 318.487 112.425 320.323 111.541C322.158 110.59 324.027 110.114 325.93 110.114C328.105 110.114 329.94 110.692 331.435 111.847C332.93 113.002 333.678 115.007 333.678 117.862C333.678 119.629 333.44 121.328 332.964 122.959C332.488 124.523 331.843 126.018 331.027 127.445C330.28 128.805 329.396 130.096 328.377 131.319C327.425 132.475 326.44 133.562 325.42 134.582L325.624 134.786C330.517 133.902 334.935 132.237 338.877 129.79C342.887 127.343 346.863 123.673 350.805 118.78L351.621 119.187C348.562 122.926 345.708 125.848 343.057 127.955C340.407 130.062 337.96 131.659 335.717 132.747C333.474 133.766 331.401 134.48 329.498 134.888C327.595 135.295 325.794 135.703 324.095 136.111C322.939 136.994 321.614 138.048 320.119 139.271C318.691 140.495 317.162 141.684 315.531 142.84C313.9 143.927 312.201 144.879 310.434 145.694C308.666 146.442 306.865 146.816 305.03 146.816C304.079 146.816 303.127 146.544 302.176 146C301.292 145.524 300.85 144.709 300.85 143.553C300.85 142.126 301.53 140.937 302.889 139.985C304.317 139.033 306.016 138.286 307.987 137.742C310.026 137.13 312.133 136.689 314.308 136.417C316.482 136.077 318.318 135.839 319.813 135.703C320.696 134.684 321.58 133.46 322.464 132.033C323.415 130.538 324.265 128.974 325.012 127.343C325.76 125.712 326.372 124.047 326.847 122.348C327.323 120.581 327.561 118.949 327.561 117.454C327.561 115.075 327.221 113.546 326.541 112.867C325.862 112.119 325.046 111.745 324.095 111.745C322.531 111.745 320.866 112.323 319.099 113.478C317.4 114.566 315.667 116.027 313.9 117.862C312.133 119.629 310.366 121.634 308.598 123.877C306.899 126.052 305.302 128.227 303.807 130.402C302.312 132.577 300.952 134.616 299.729 136.519C298.505 138.354 297.486 139.815 296.67 140.903C296.059 141.786 295.175 143.077 294.02 144.777C292.864 146.476 291.573 148.413 290.146 150.588C288.718 152.763 287.223 155.107 285.66 157.622C284.029 160.137 282.431 162.652 280.868 165.166C279.305 167.749 277.81 170.23 276.382 172.609C274.955 174.988 273.698 177.128 272.61 179.032H266.29C275.465 164.283 284.81 149.67 294.326 135.193C303.909 120.649 313.356 105.968 322.667 91.1514H329.396ZM306.457 145.592C307.477 145.592 308.598 145.252 309.822 144.573C311.113 143.893 312.337 143.077 313.492 142.126C314.715 141.174 315.803 140.223 316.754 139.271C317.706 138.32 318.386 137.606 318.793 137.13L318.589 136.927C317.434 137.13 315.973 137.368 314.206 137.64C312.506 137.844 310.841 138.15 309.21 138.558C307.647 138.966 306.288 139.543 305.132 140.291C304.045 140.971 303.501 141.922 303.501 143.145C303.501 143.961 303.807 144.573 304.419 144.981C305.03 145.388 305.71 145.592 306.457 145.592ZM368.783 114.192C368.783 113.24 368.511 112.527 367.967 112.051C367.491 111.575 366.88 111.337 366.132 111.337C364.705 111.337 363.141 111.915 361.442 113.07C359.811 114.158 358.18 115.551 356.549 117.25C354.918 118.882 353.422 120.649 352.063 122.552C350.772 124.455 349.786 126.154 349.106 127.649C350.602 127.377 352.471 126.868 354.714 126.12C356.957 125.304 359.097 124.319 361.136 123.163C363.243 122.008 365.045 120.683 366.54 119.187C368.035 117.624 368.783 115.959 368.783 114.192ZM385.298 119.595C384.279 121.294 382.988 123.163 381.424 125.202C379.929 127.241 378.196 129.28 376.225 131.319C374.322 133.29 372.249 135.227 370.006 137.13C367.831 138.966 365.554 140.631 363.175 142.126C360.797 143.553 358.384 144.709 355.937 145.592C353.558 146.408 351.213 146.816 348.903 146.816C346.048 146.816 343.839 146.102 342.276 144.675C340.713 143.179 339.931 141.072 339.931 138.354C339.931 135.363 340.815 132.237 342.582 128.974C344.417 125.644 346.728 122.586 349.514 119.799C352.301 117.012 355.359 114.702 358.69 112.867C362.02 111.031 365.214 110.114 368.273 110.114C369.972 110.114 371.297 110.488 372.249 111.235C373.2 111.915 373.676 112.934 373.676 114.294C373.676 115.925 372.793 117.522 371.026 119.085C369.258 120.581 367.083 121.974 364.501 123.265C361.986 124.489 359.267 125.61 356.345 126.63C353.422 127.581 350.84 128.295 348.597 128.771C347.849 130.13 347.237 131.659 346.762 133.358C346.286 135.057 346.048 136.757 346.048 138.456C346.048 139.271 346.116 140.087 346.252 140.903C346.456 141.65 346.728 142.364 347.067 143.043C347.475 143.655 347.985 144.165 348.597 144.573C349.276 144.981 350.092 145.184 351.043 145.184C353.286 145.184 355.903 144.471 358.894 143.043C361.952 141.548 365.045 139.577 368.171 137.13C371.297 134.684 374.288 131.897 377.142 128.771C379.997 125.644 382.444 122.416 384.483 119.085L385.298 119.595ZM421.491 119.289C419.112 122.959 416.835 126.188 414.661 128.974C412.486 131.693 410.413 134.106 408.442 136.213C404.771 140.087 401.407 142.84 398.349 144.471C395.358 146.034 392.64 146.816 390.193 146.816C387.406 146.816 385.163 146.034 383.464 144.471C381.765 142.84 380.915 140.801 380.915 138.354C380.915 136.247 381.527 134.242 382.75 132.339C384.042 130.436 385.809 128.533 388.052 126.63C390.295 124.659 392.945 122.654 396.004 120.615C399.13 118.508 402.529 116.231 406.199 113.784L406.097 113.58C404.805 114.328 403.344 114.973 401.713 115.517C400.15 115.993 398.756 116.231 397.533 116.231C395.766 116.231 394.407 115.993 393.455 115.517C392.843 115.245 392.232 114.804 391.62 114.192C391.008 113.512 390.635 112.697 390.499 111.745C389.479 113.172 388.494 114.6 387.542 116.027C386.591 117.386 385.741 118.542 384.993 119.493L384.178 118.882C384.857 117.93 385.775 116.673 386.93 115.109C388.086 113.478 389.241 111.745 390.397 109.91C390.329 109.094 390.465 108.313 390.804 107.565C391.212 106.75 391.654 106.104 392.13 105.628C392.606 105.084 393.149 104.711 393.761 104.507C394.373 104.235 394.95 104.099 395.494 104.099C396.174 104.099 396.514 104.371 396.514 104.914C396.514 105.254 396.446 105.628 396.31 106.036C396.242 106.444 395.664 106.953 394.577 107.565C394.577 108.313 394.78 109.094 395.188 109.91C395.664 110.658 396.208 111.337 396.819 111.949C397.499 112.493 398.247 112.934 399.062 113.274C399.946 113.614 400.829 113.75 401.713 113.682C403.412 113.546 404.805 113.206 405.893 112.663C406.98 112.119 407.898 111.507 408.646 110.828C409.325 110.216 409.869 109.672 410.277 109.196C410.753 108.721 411.194 108.483 411.602 108.483C412.078 108.483 412.316 108.721 412.316 109.196C412.316 109.468 412.044 109.876 411.5 110.42C410.956 110.896 410.243 111.473 409.359 112.153C408.612 112.697 407.728 113.376 406.709 114.192C405.689 115.007 404.771 115.721 403.956 116.333C401.577 118.236 399.47 120.003 397.635 121.634C395.868 123.265 394.339 124.761 393.047 126.12C391.688 127.547 390.601 128.873 389.785 130.096C388.969 131.319 388.358 132.475 387.95 133.562C387.542 134.65 387.27 135.669 387.134 136.621C386.998 137.504 386.93 138.354 386.93 139.169C386.93 140.665 387.406 141.956 388.358 143.043C389.309 144.063 390.567 144.573 392.13 144.573C393.013 144.573 393.965 144.471 394.984 144.267C396.072 143.995 397.261 143.519 398.553 142.84C399.844 142.092 401.271 141.14 402.834 139.985C404.398 138.762 406.097 137.164 407.932 135.193C409.903 133.222 411.942 130.878 414.049 128.159C416.156 125.44 418.399 122.314 420.778 118.78L421.491 119.289ZM438.773 114.192C438.773 113.24 438.501 112.527 437.958 112.051C437.482 111.575 436.87 111.337 436.122 111.337C434.695 111.337 433.132 111.915 431.433 113.07C429.802 114.158 428.17 115.551 426.539 117.25C424.908 118.882 423.413 120.649 422.053 122.552C420.762 124.455 419.777 126.154 419.097 127.649C420.592 127.377 422.461 126.868 424.704 126.12C426.947 125.304 429.088 124.319 431.127 123.163C433.234 122.008 435.035 120.683 436.53 119.187C438.025 117.624 438.773 115.959 438.773 114.192ZM455.289 119.595C454.269 121.294 452.978 123.163 451.415 125.202C449.92 127.241 448.186 129.28 446.215 131.319C444.312 133.29 442.239 135.227 439.997 137.13C437.822 138.966 435.545 140.631 433.166 142.126C430.787 143.553 428.374 144.709 425.928 145.592C423.549 146.408 421.204 146.816 418.893 146.816C416.038 146.816 413.83 146.102 412.266 144.675C410.703 143.179 409.922 141.072 409.922 138.354C409.922 135.363 410.805 132.237 412.572 128.974C414.407 125.644 416.718 122.586 419.505 119.799C422.291 117.012 425.35 114.702 428.68 112.867C432.01 111.031 435.205 110.114 438.263 110.114C439.963 110.114 441.288 110.488 442.239 111.235C443.191 111.915 443.667 112.934 443.667 114.294C443.667 115.925 442.783 117.522 441.016 119.085C439.249 120.581 437.074 121.974 434.491 123.265C431.977 124.489 429.258 125.61 426.335 126.63C423.413 127.581 420.83 128.295 418.587 128.771C417.84 130.13 417.228 131.659 416.752 133.358C416.276 135.057 416.038 136.757 416.038 138.456C416.038 139.271 416.106 140.087 416.242 140.903C416.446 141.65 416.718 142.364 417.058 143.043C417.466 143.655 417.976 144.165 418.587 144.573C419.267 144.981 420.082 145.184 421.034 145.184C423.277 145.184 425.894 144.471 428.884 143.043C431.943 141.548 435.035 139.577 438.161 137.13C441.288 134.684 444.278 131.897 447.133 128.771C449.988 125.644 452.434 122.416 454.473 119.085L455.289 119.595ZM453.251 124.285C450.668 128.363 448.697 131.693 447.338 134.276C446.046 136.859 445.401 138.999 445.401 140.699C445.401 142.262 445.774 143.485 446.522 144.369C447.338 145.184 448.527 145.592 450.09 145.592C451.993 145.592 454.474 144.607 457.533 142.636C460.659 140.597 463.717 137.572 466.708 133.562C467.66 132.271 468.577 130.946 469.461 129.586C470.344 128.159 471.092 126.8 471.703 125.508C472.383 124.149 472.893 122.858 473.233 121.634C473.641 120.411 473.844 119.289 473.844 118.27C473.844 117.182 473.675 116.367 473.335 115.823C472.995 115.211 472.825 114.362 472.825 113.274C472.825 112.119 473.097 111.303 473.641 110.828C474.252 110.352 474.898 110.114 475.578 110.114C476.733 110.114 477.651 110.692 478.33 111.847C479.01 113.002 479.35 114.668 479.35 116.843C479.35 117.726 479.316 118.508 479.248 119.187C479.18 119.799 479.078 120.479 478.942 121.226C479.35 121.77 480.199 122.484 481.491 123.367C482.85 124.251 484.617 124.693 486.792 124.693C488.967 124.693 490.836 124.149 492.399 123.061C494.03 121.974 495.39 120.751 496.477 119.391L497.191 120.105C496.035 121.396 494.608 122.654 492.909 123.877C491.21 125.1 489.137 125.712 486.69 125.712C485.059 125.712 483.53 125.406 482.102 124.795C480.743 124.183 479.554 123.435 478.534 122.552C477.583 125.338 476.291 127.921 474.66 130.3C473.097 132.611 471.228 134.786 469.053 136.825C464.975 140.631 461.271 143.247 457.94 144.675C454.61 146.102 451.586 146.816 448.867 146.816C446.488 146.816 444.483 146.068 442.852 144.573C441.289 143.145 440.507 141.174 440.507 138.66C440.507 137.436 440.847 135.975 441.527 134.276C442.206 132.509 443.022 130.708 443.973 128.873C444.993 127.037 446.012 125.236 447.032 123.469C448.119 121.702 449.071 120.207 449.886 118.983L465.281 95.2293C467.048 92.5787 468.951 90.1319 470.99 87.889C473.029 85.5781 475.544 83.3013 478.534 81.0584C481.185 79.0194 483.801 77.5242 486.384 76.5726C488.967 75.5531 491.346 75.0434 493.521 75.0434C495.831 75.0434 497.361 75.3832 498.108 76.0629C498.924 76.7426 499.332 77.762 499.332 79.1214C499.332 80.9565 498.55 82.9954 496.987 85.2383C495.492 87.4812 493.317 89.86 490.462 92.3748C488.287 94.3458 485.874 96.3168 483.224 98.2878C480.641 100.259 477.99 102.162 475.272 103.997L459.368 114.804L453.251 124.285ZM474.252 103.487C476.631 101.856 479.044 99.987 481.491 97.88C484.005 95.7051 486.146 93.5302 487.913 91.3553C489.681 89.1804 491.108 87.0394 492.195 84.9325C493.283 82.7576 493.826 80.7865 493.826 79.0194C493.826 77.9999 493.589 77.2863 493.113 76.8785C492.705 76.4707 492.093 76.2668 491.278 76.2668C489.986 76.2668 488.559 76.7765 486.996 77.796C485.433 78.7476 483.869 80.0049 482.306 81.5681C480.811 83.0634 479.35 84.7626 477.922 86.6656C476.563 88.5007 475.374 90.2678 474.354 91.967L460.693 112.765L474.252 103.487ZM542.56 120.207C540.929 122.042 539.093 123.503 537.054 124.591C535.015 125.678 533.01 126.222 531.039 126.222C529.136 126.222 527.505 125.814 526.146 124.998C524.787 124.115 523.733 123.095 522.985 121.94H522.782C522.102 124.523 520.845 127.275 519.009 130.198C517.174 133.12 514.965 135.805 512.383 138.252C509.868 140.699 507.081 142.738 504.023 144.369C500.964 146 497.838 146.816 494.644 146.816C491.721 146.816 489.512 145.966 488.017 144.267C486.522 142.568 485.774 140.291 485.774 137.436C485.774 135.941 486.148 134.208 486.895 132.237C487.643 130.266 488.663 128.295 489.954 126.324C491.313 124.285 492.877 122.314 494.644 120.411C496.479 118.44 498.45 116.707 500.557 115.211C502.664 113.648 504.873 112.425 507.183 111.541C509.562 110.59 511.941 110.114 514.32 110.114C517.106 110.114 519.247 110.929 520.743 112.561C522.306 114.192 523.155 116.299 523.291 118.882C523.427 120.445 524.141 121.906 525.432 123.265C526.792 124.557 528.627 125.202 530.938 125.202C532.976 125.202 534.88 124.693 536.647 123.673C538.482 122.654 540.181 121.328 541.744 119.697L542.56 120.207ZM491.279 139.883C491.279 141.65 491.619 143.043 492.299 144.063C492.978 145.082 493.998 145.592 495.357 145.592C497.192 145.592 498.993 145.116 500.761 144.165C502.596 143.145 504.329 141.854 505.96 140.291C507.659 138.66 509.222 136.825 510.65 134.786C512.077 132.747 513.3 130.64 514.32 128.465C515.407 126.29 516.257 124.183 516.869 122.144C517.48 120.037 517.786 118.134 517.786 116.435C517.786 115.007 517.412 113.818 516.665 112.867C515.985 111.847 514.898 111.337 513.402 111.337C511.975 111.337 510.446 111.813 508.815 112.765C507.183 113.648 505.518 114.838 503.819 116.333C502.188 117.828 500.625 119.561 499.129 121.532C497.634 123.503 496.275 125.542 495.051 127.649C493.896 129.756 492.978 131.863 492.299 133.97C491.619 136.077 491.279 138.048 491.279 139.883ZM575.626 110.929C573.179 114.192 571.004 117.114 569.101 119.697C567.266 122.28 565.634 124.591 564.207 126.63C562.576 129.008 561.183 131.047 560.027 132.747C558.94 134.378 558.056 135.805 557.377 137.028C556.765 138.252 556.323 139.305 556.051 140.189C555.779 141.004 555.643 141.786 555.643 142.534C555.643 144.573 556.595 145.592 558.498 145.592C559.857 145.592 561.76 144.913 564.207 143.553C566.654 142.126 569.848 139.373 573.79 135.295C577.461 131.557 581.946 126.154 587.248 119.085L588.267 119.391C585.82 122.858 583.408 126.018 581.029 128.873C578.718 131.659 576.509 134.14 574.402 136.315C570.936 139.917 567.775 142.568 564.921 144.267C562.134 145.966 559.755 146.816 557.784 146.816C555.813 146.816 554.284 146.306 553.197 145.286C552.109 144.199 551.566 142.772 551.566 141.004C551.566 138.898 552.109 136.757 553.197 134.582L552.993 134.48C550.002 137.946 547.012 140.767 544.021 142.942C540.419 145.524 537.123 146.816 534.132 146.816C530.19 146.816 528.219 145.048 528.219 141.514C528.219 140.767 528.389 139.747 528.729 138.456C529.069 137.164 530.054 135.125 531.685 132.339C532.365 131.251 533.147 130.062 534.03 128.771C534.914 127.479 535.967 125.984 537.191 124.285L546.774 110.929H553.503L542.084 126.324C540.929 127.887 539.739 129.552 538.516 131.319C537.293 133.086 536.375 134.514 535.763 135.601C535.016 136.961 534.438 138.048 534.03 138.864C533.69 139.611 533.453 140.223 533.317 140.699C533.181 141.174 533.113 141.548 533.113 141.82C533.113 142.024 533.113 142.228 533.113 142.432C533.113 143.247 533.385 143.927 533.928 144.471C534.472 144.947 535.118 145.184 535.865 145.184C538.924 145.184 542.968 142.84 547.997 138.15C548.813 137.402 549.696 136.519 550.648 135.499C551.667 134.412 552.653 133.324 553.604 132.237C554.624 131.081 555.576 129.96 556.459 128.873C557.343 127.717 558.124 126.664 558.804 125.712C559.28 125.032 559.891 124.115 560.639 122.959C561.455 121.736 562.304 120.445 563.188 119.085C564.139 117.658 565.057 116.231 565.94 114.804C566.892 113.376 567.775 112.085 568.591 110.929H575.626ZM580.417 91.5592C579.466 92.9185 578.446 94.2778 577.359 95.6371C576.339 96.9285 575.014 98.1179 573.383 99.2053C572.023 100.089 570.562 100.803 568.999 101.346C567.436 101.89 565.567 102.162 563.392 102.162C559.925 102.162 557.377 101.652 555.745 100.633C554.182 99.6131 553.401 98.2538 553.401 96.5547C553.401 94.9235 554.284 93.5981 556.051 92.5787C557.818 91.5592 559.959 91.0494 562.474 91.0494C563.562 91.0494 564.649 91.1853 565.736 91.4572L565.533 92.3748C565.193 92.3068 564.717 92.2728 564.105 92.2728C562.542 92.2728 561.217 92.6806 560.129 93.4962C559.042 94.2438 558.498 95.2633 558.498 96.5547C558.498 97.846 558.974 98.8995 559.925 99.7151C560.945 100.531 562.27 100.938 563.901 100.938C565.804 100.938 567.47 100.701 568.897 100.225C570.392 99.7491 571.717 99.1034 572.873 98.2878C574.232 97.3363 575.422 96.2828 576.441 95.1274C577.461 93.904 578.446 92.5447 579.398 91.0494L580.417 91.5592Z" fill="#004BEF"/>
</svg>
