<svg width="664" height="229" viewBox="0 0 664 229" fill="none" xmlns="http://www.w3.org/2000/svg">
<rect x="1" y="1" width="662" height="227" rx="9" fill="white" stroke="#004BEF" stroke-width="2"/>
<path d="M102.712 115.415C102.712 114.328 102.644 113.24 102.508 112.153C102.372 111.065 102.067 110.08 101.591 109.196C101.115 108.313 100.469 107.599 99.6537 107.055C98.8381 106.512 97.7507 106.24 96.3913 106.24C94.2844 106.24 91.9396 107.089 89.3569 108.789C86.8421 110.488 84.4633 112.731 82.2204 115.517C80.0455 118.236 78.2104 121.396 76.7152 124.998C75.2199 128.533 74.4723 132.169 74.4723 135.907C74.4723 136.994 74.5403 138.116 74.6762 139.271C74.8801 140.427 75.1859 141.48 75.5937 142.432C76.0695 143.315 76.7152 144.063 77.5308 144.675C78.4143 145.286 79.5697 145.592 80.997 145.592C83.6477 145.592 86.2644 144.607 88.8471 142.636C91.4298 140.665 93.7407 138.184 95.7797 135.193C97.8186 132.203 99.4838 128.941 100.775 125.406C102.067 121.872 102.712 118.542 102.712 115.415ZM80.5892 115.313C81.6767 114.022 82.8661 112.731 84.1575 111.439C85.4488 110.148 86.8421 108.992 88.3374 107.973C89.8326 106.953 91.4298 106.138 93.129 105.526C94.8281 104.915 96.5952 104.609 98.4303 104.609C101.897 104.609 104.479 105.594 106.178 107.565C107.946 109.468 108.829 112.187 108.829 115.721C108.829 118.848 107.946 122.212 106.178 125.814C104.411 129.416 102.134 132.781 99.3479 135.907C96.5613 139.033 93.4348 141.65 89.9686 143.757C86.5702 145.796 83.2399 146.816 79.9775 146.816C78.0745 146.816 76.4093 146.442 74.982 145.694C73.6227 144.879 72.4673 143.825 71.5158 142.534C70.6322 141.242 69.9865 139.781 69.5787 138.15C69.1709 136.451 68.967 134.752 68.967 133.052C68.967 128.907 69.8506 124.625 71.6177 120.207C73.3848 115.789 75.7636 111.473 78.7541 107.259C81.7447 103.045 85.1769 99.0694 89.051 95.3313C92.993 91.5252 97.139 88.1948 101.489 85.3403C105.839 82.4857 110.222 80.2428 114.64 78.6116C119.126 76.9125 123.408 76.0629 127.486 76.0629C129.865 76.0629 131.904 76.3348 133.603 76.8785C135.302 77.3543 136.661 77.9999 137.681 78.8155C138.768 79.6311 139.55 80.5826 140.026 81.6701C140.569 82.7576 140.841 83.879 140.841 85.0344C140.841 86.5297 140.467 87.821 139.72 88.9085C138.972 89.928 138.19 90.7436 137.375 91.3553C137.443 90.8115 137.477 90.4037 137.477 90.1319C137.545 89.86 137.579 89.4522 137.579 88.9085C137.579 87.889 137.375 86.7336 136.967 85.4422C136.627 84.0829 135.982 82.8595 135.03 81.772C134.147 80.6166 132.957 79.6651 131.462 78.9175C129.967 78.1019 128.064 77.6941 125.753 77.6941C120.791 77.6941 116 78.9854 111.378 81.5681C106.756 84.0829 102.474 87.2433 98.5323 91.0494C94.6582 94.7876 91.158 98.8655 88.0315 103.283C84.973 107.633 82.4243 111.643 80.3853 115.313H80.5892ZM130.035 129.892L131.258 127.037H233.207L231.984 129.892H130.035ZM315.276 120.003C312.897 122.586 310.518 124.998 308.14 127.241C305.761 129.416 303.28 131.421 300.697 133.256C295.124 137.13 288.803 140.155 281.735 142.33C279.56 143.893 277.317 145.048 275.006 145.796C272.695 146.476 270.554 146.816 268.583 146.816C266.001 146.816 263.928 146.034 262.365 144.471C260.869 142.84 260.122 140.563 260.122 137.64C260.122 135.737 260.529 133.8 261.345 131.829C262.161 129.858 263.146 127.989 264.302 126.222C265.525 124.455 266.782 122.858 268.074 121.43C269.365 120.003 270.486 118.848 271.438 117.964C274.496 115.177 277.487 113.172 280.41 111.949C283.4 110.726 285.881 110.114 287.852 110.114C288.396 110.114 289.007 110.182 289.687 110.318C290.367 110.454 291.012 110.76 291.624 111.235C292.236 111.643 292.779 112.255 293.255 113.07C293.799 113.818 294.139 114.804 294.275 116.027H294.58C296.416 111.541 298.081 106.852 299.576 101.958C301.071 97.0644 301.819 92.0349 301.819 86.8695C301.819 82.9275 301.037 80.2088 299.474 78.7136C298.251 77.5581 296.517 76.9804 294.275 76.9804C293.255 76.9804 292.134 77.1843 290.91 77.5921C289.687 77.9999 288.497 78.5437 287.342 79.2233C285.983 80.1069 284.725 80.9565 283.57 81.772L283.06 80.8545C284.759 79.4952 286.492 78.3398 288.26 77.3882C289.755 76.6406 291.216 76.0629 292.643 75.6551C294.139 75.2473 295.77 75.0434 297.537 75.0434C300.052 75.0434 302.023 75.6551 303.45 76.8785C305.761 78.7815 306.916 82.3498 306.916 87.5831C306.916 89.2143 306.78 90.9475 306.508 92.7826C306.305 94.6176 305.999 96.4867 305.591 98.3898C305.183 100.293 304.707 102.162 304.164 103.997C303.62 105.832 303.076 107.565 302.532 109.196C301.921 110.896 301.207 112.765 300.392 114.804C299.576 116.843 298.692 118.916 297.741 121.022C296.789 123.061 295.804 125.066 294.784 127.037C293.765 128.941 292.745 130.606 291.726 132.033C290.706 133.528 289.551 134.989 288.26 136.417C287.036 137.776 285.541 139.203 283.774 140.699C286.9 139.679 289.789 138.49 292.44 137.13C295.158 135.703 297.775 134.106 300.29 132.339C302.736 130.572 305.115 128.635 307.426 126.528C309.805 124.421 312.184 122.076 314.562 119.493L315.276 120.003ZM287.342 111.337C285.711 111.337 283.706 112.153 281.327 113.784C279.016 115.415 276.807 117.488 274.7 120.003C272.118 123.061 269.943 126.392 268.176 129.994C266.476 133.528 265.627 136.791 265.627 139.781C265.627 141.888 266.001 143.383 266.748 144.267C267.496 145.15 268.481 145.592 269.705 145.592C271.676 145.592 273.817 144.913 276.128 143.553C278.439 142.194 280.783 140.053 283.162 137.13C284.657 135.227 285.983 133.29 287.138 131.319C288.294 129.348 289.211 127.479 289.891 125.712C290.638 123.945 291.182 122.314 291.522 120.819C291.93 119.255 292.134 117.964 292.134 116.944C292.134 113.206 290.536 111.337 287.342 111.337ZM339.103 91.1514C335.501 96.6566 331.762 102.06 327.888 107.361C324.014 112.663 320.31 118.1 316.776 123.673L316.98 123.877C317.999 122.518 319.189 121.056 320.548 119.493C321.907 117.862 323.369 116.367 324.932 115.007C326.495 113.58 328.194 112.425 330.029 111.541C331.864 110.59 333.733 110.114 335.636 110.114C337.811 110.114 339.646 110.692 341.142 111.847C342.637 113.002 343.385 115.007 343.385 117.862C343.385 119.629 343.147 121.328 342.671 122.959C342.195 124.523 341.55 126.018 340.734 127.445C339.986 128.805 339.103 130.096 338.083 131.319C337.132 132.475 336.146 133.562 335.127 134.582L335.331 134.786C340.224 133.902 344.642 132.237 348.584 129.79C352.594 127.343 356.57 123.673 360.512 118.78L361.328 119.187C358.269 122.926 355.415 125.848 352.764 127.955C350.113 130.062 347.666 131.659 345.424 132.747C343.181 133.766 341.108 134.48 339.205 134.888C337.302 135.295 335.501 135.703 333.801 136.111C332.646 136.994 331.321 138.048 329.825 139.271C328.398 140.495 326.869 141.684 325.238 142.84C323.606 143.927 321.907 144.879 320.14 145.694C318.373 146.442 316.572 146.816 314.737 146.816C313.785 146.816 312.834 146.544 311.882 146C310.999 145.524 310.557 144.709 310.557 143.553C310.557 142.126 311.237 140.937 312.596 139.985C314.023 139.033 315.722 138.286 317.693 137.742C319.732 137.13 321.839 136.689 324.014 136.417C326.189 136.077 328.024 135.839 329.52 135.703C330.403 134.684 331.287 133.46 332.17 132.033C333.122 130.538 333.971 128.974 334.719 127.343C335.467 125.712 336.078 124.047 336.554 122.348C337.03 120.581 337.268 118.949 337.268 117.454C337.268 115.075 336.928 113.546 336.248 112.867C335.569 112.119 334.753 111.745 333.801 111.745C332.238 111.745 330.573 112.323 328.806 113.478C327.107 114.566 325.374 116.027 323.606 117.862C321.839 119.629 320.072 121.634 318.305 123.877C316.606 126.052 315.009 128.227 313.514 130.402C312.018 132.577 310.659 134.616 309.436 136.519C308.212 138.354 307.193 139.815 306.377 140.903C305.765 141.786 304.882 143.077 303.726 144.777C302.571 146.476 301.28 148.413 299.852 150.588C298.425 152.763 296.93 155.107 295.367 157.622C293.735 160.137 292.138 162.652 290.575 165.166C289.012 167.749 287.516 170.23 286.089 172.609C284.662 174.988 283.405 177.128 282.317 179.032H275.996C285.172 164.283 294.517 149.67 304.032 135.193C313.615 120.649 323.063 105.968 332.374 91.1514H339.103ZM316.164 145.592C317.184 145.592 318.305 145.252 319.529 144.573C320.82 143.893 322.043 143.077 323.199 142.126C324.422 141.174 325.51 140.223 326.461 139.271C327.413 138.32 328.092 137.606 328.5 137.13L328.296 136.927C327.141 137.13 325.679 137.368 323.912 137.64C322.213 137.844 320.548 138.15 318.917 138.558C317.354 138.966 315.994 139.543 314.839 140.291C313.751 140.971 313.208 141.922 313.208 143.145C313.208 143.961 313.514 144.573 314.125 144.981C314.737 145.388 315.417 145.592 316.164 145.592ZM378.489 114.192C378.489 113.24 378.218 112.527 377.674 112.051C377.198 111.575 376.586 111.337 375.839 111.337C374.411 111.337 372.848 111.915 371.149 113.07C369.518 114.158 367.887 115.551 366.255 117.25C364.624 118.882 363.129 120.649 361.77 122.552C360.478 124.455 359.493 126.154 358.813 127.649C360.308 127.377 362.178 126.868 364.42 126.12C366.663 125.304 368.804 124.319 370.843 123.163C372.95 122.008 374.751 120.683 376.246 119.187C377.742 117.624 378.489 115.959 378.489 114.192ZM395.005 119.595C393.986 121.294 392.694 123.163 391.131 125.202C389.636 127.241 387.903 129.28 385.932 131.319C384.029 133.29 381.956 135.227 379.713 137.13C377.538 138.966 375.261 140.631 372.882 142.126C370.503 143.553 368.091 144.709 365.644 145.592C363.265 146.408 360.92 146.816 358.609 146.816C355.755 146.816 353.546 146.102 351.983 144.675C350.419 143.179 349.638 141.072 349.638 138.354C349.638 135.363 350.521 132.237 352.288 128.974C354.124 125.644 356.434 122.586 359.221 119.799C362.008 117.012 365.066 114.702 368.396 112.867C371.727 111.031 374.921 110.114 377.98 110.114C379.679 110.114 381.004 110.488 381.956 111.235C382.907 111.915 383.383 112.934 383.383 114.294C383.383 115.925 382.499 117.522 380.732 119.085C378.965 120.581 376.79 121.974 374.208 123.265C371.693 124.489 368.974 125.61 366.052 126.63C363.129 127.581 360.546 128.295 358.303 128.771C357.556 130.13 356.944 131.659 356.468 133.358C355.993 135.057 355.755 136.757 355.755 138.456C355.755 139.271 355.823 140.087 355.959 140.903C356.163 141.65 356.434 142.364 356.774 143.043C357.182 143.655 357.692 144.165 358.303 144.573C358.983 144.981 359.799 145.184 360.75 145.184C362.993 145.184 365.61 144.471 368.6 143.043C371.659 141.548 374.751 139.577 377.878 137.13C381.004 134.684 383.995 131.897 386.849 128.771C389.704 125.644 392.151 122.416 394.19 119.085L395.005 119.595ZM428.241 120.411C426.678 122.926 424.605 125.644 422.022 128.567C419.508 131.421 416.755 134.106 413.765 136.621C410.094 139.679 406.424 142.16 402.754 144.063C399.084 145.898 395.482 146.816 391.947 146.816C389.433 146.816 387.326 146.17 385.627 144.879C383.927 143.519 383.078 141.548 383.078 138.966C383.078 135.703 383.995 132.373 385.831 128.974C387.734 125.576 390.078 122.484 392.865 119.697C395.72 116.843 398.812 114.532 402.142 112.765C405.541 110.997 408.735 110.114 411.726 110.114C413.697 110.114 415.396 110.488 416.823 111.235C418.318 111.915 419.066 113.138 419.066 114.906C419.066 115.721 418.828 116.401 418.352 116.944C417.944 117.488 417.401 117.93 416.721 118.27C416.109 118.61 415.396 118.882 414.58 119.085C413.833 119.221 413.153 119.323 412.541 119.391C412.813 118.712 413.051 118.032 413.255 117.352C413.459 116.605 413.561 115.857 413.561 115.109C413.561 112.595 412.371 111.337 409.992 111.337C408.225 111.337 406.118 112.221 403.672 113.988C401.293 115.687 399.016 117.862 396.841 120.513C394.734 123.163 392.933 126.086 391.438 129.28C389.942 132.475 389.195 135.567 389.195 138.558C389.195 140.393 389.603 141.956 390.418 143.247C391.302 144.539 392.627 145.184 394.394 145.184C396.773 145.184 399.492 144.403 402.55 142.84C405.677 141.276 408.701 139.339 411.624 137.028C414.682 134.65 417.605 131.931 420.391 128.873C423.246 125.746 425.625 122.722 427.528 119.799L428.241 120.411ZM462.191 120.411C460.628 122.926 458.555 125.644 455.972 128.567C453.458 131.421 450.705 134.106 447.714 136.621C444.044 139.679 440.374 142.16 436.704 144.063C433.034 145.898 429.432 146.816 425.897 146.816C423.383 146.816 421.276 146.17 419.576 144.879C417.877 143.519 417.028 141.548 417.028 138.966C417.028 135.703 417.945 132.373 419.78 128.974C421.683 125.576 424.028 122.484 426.815 119.697C429.669 116.843 432.762 114.532 436.092 112.765C439.491 110.997 442.685 110.114 445.675 110.114C447.646 110.114 449.346 110.488 450.773 111.235C452.268 111.915 453.016 113.138 453.016 114.906C453.016 115.721 452.778 116.401 452.302 116.944C451.894 117.488 451.351 117.93 450.671 118.27C450.059 118.61 449.346 118.882 448.53 119.085C447.782 119.221 447.103 119.323 446.491 119.391C446.763 118.712 447.001 118.032 447.205 117.352C447.409 116.605 447.511 115.857 447.511 115.109C447.511 112.595 446.321 111.337 443.942 111.337C442.175 111.337 440.068 112.221 437.621 113.988C435.243 115.687 432.966 117.862 430.791 120.513C428.684 123.163 426.883 126.086 425.388 129.28C423.892 132.475 423.145 135.567 423.145 138.558C423.145 140.393 423.552 141.956 424.368 143.247C425.252 144.539 426.577 145.184 428.344 145.184C430.723 145.184 433.442 144.403 436.5 142.84C439.626 141.276 442.651 139.339 445.573 137.028C448.632 134.65 451.554 131.931 454.341 128.873C457.196 125.746 459.574 122.722 461.478 119.799L462.191 120.411ZM491.757 111.235L498.384 110.929C495.461 115.007 493.049 118.406 491.146 121.124C489.242 123.843 487.917 125.712 487.17 126.732L487.373 126.936C489.344 124.761 491.213 122.79 492.981 121.022C494.816 119.187 496.583 117.59 498.282 116.231C503.176 112.153 507.797 110.114 512.147 110.114C514.05 110.114 515.579 110.556 516.735 111.439C517.958 112.255 518.57 113.546 518.57 115.313C518.57 116.265 518.332 117.114 517.856 117.862C517.448 118.542 516.871 119.119 516.123 119.595C515.443 120.071 514.662 120.445 513.778 120.717C512.895 120.921 512.045 121.022 511.229 121.022C511.773 120.071 512.215 119.085 512.555 118.066C512.895 116.978 513.065 115.959 513.065 115.007C513.065 113.784 512.759 112.901 512.147 112.357C511.603 111.745 510.856 111.439 509.904 111.439C508.681 111.439 507.152 111.881 505.316 112.765C503.549 113.648 501.272 115.279 498.486 117.658C495.02 120.581 491.281 124.387 487.271 129.076C483.329 133.766 479.557 139.407 475.955 146H469.634L491.757 111.235ZM533.251 119.799C529.376 125.236 525.842 129.722 522.648 133.256C519.521 136.723 516.667 139.475 514.084 141.514C511.569 143.485 509.292 144.879 507.253 145.694C505.214 146.442 503.379 146.816 501.748 146.816C499.573 146.816 497.976 146.34 496.957 145.388C496.005 144.437 495.529 143.077 495.529 141.31C495.529 140.359 495.733 139.407 496.141 138.456C496.549 137.436 497.093 136.247 497.772 134.888C498.452 133.528 498.996 132.441 499.403 131.625C499.879 130.81 500.117 130.028 500.117 129.28C500.117 128.601 499.845 128.159 499.301 127.955C498.826 127.751 498.316 127.649 497.772 127.649C497.161 127.649 496.481 127.717 495.733 127.853C495.054 127.989 494.34 128.057 493.592 128.057C492.641 128.057 492.097 127.955 491.961 127.751C491.893 127.479 491.859 127.275 491.859 127.139C491.859 126.528 492.505 126.222 493.796 126.222C494 126.222 494.34 126.256 494.816 126.324C495.291 126.324 495.801 126.358 496.345 126.426C496.889 126.494 497.5 126.562 498.18 126.63C498.86 126.698 499.471 126.8 500.015 126.936C502.734 127.751 504.093 129.45 504.093 132.033C504.093 133.12 503.923 134.174 503.583 135.193C503.311 136.213 502.972 137.232 502.564 138.252C502.156 139.203 501.782 140.121 501.442 141.004C501.171 141.888 501.035 142.738 501.035 143.553C501.035 144.301 501.171 144.845 501.442 145.184C501.714 145.456 502.292 145.592 503.176 145.592C504.263 145.592 505.724 145.15 507.559 144.267C509.462 143.383 511.637 141.922 514.084 139.883C516.599 137.844 519.385 135.159 522.444 131.829C525.502 128.431 528.799 124.217 532.333 119.187L533.251 119.799ZM578.451 120.207C576.819 122.042 574.984 123.503 572.945 124.591C570.906 125.678 568.901 126.222 566.93 126.222C565.027 126.222 563.396 125.814 562.037 124.998C560.677 124.115 559.624 123.095 558.876 121.94H558.672C557.993 124.523 556.735 127.275 554.9 130.198C553.065 133.12 550.856 135.805 548.274 138.252C545.759 140.699 542.972 142.738 539.914 144.369C536.855 146 533.729 146.816 530.535 146.816C527.612 146.816 525.403 145.966 523.908 144.267C522.413 142.568 521.665 140.291 521.665 137.436C521.665 135.941 522.039 134.208 522.786 132.237C523.534 130.266 524.554 128.295 525.845 126.324C527.204 124.285 528.767 122.314 530.535 120.411C532.37 118.44 534.341 116.707 536.448 115.211C538.555 113.648 540.763 112.425 543.074 111.541C545.453 110.59 547.832 110.114 550.211 110.114C552.997 110.114 555.138 110.929 556.634 112.561C558.197 114.192 559.046 116.299 559.182 118.882C559.318 120.445 560.032 121.906 561.323 123.265C562.682 124.557 564.518 125.202 566.828 125.202C568.867 125.202 570.77 124.693 572.538 123.673C574.373 122.654 576.072 121.328 577.635 119.697L578.451 120.207ZM527.17 139.883C527.17 141.65 527.51 143.043 528.19 144.063C528.869 145.082 529.889 145.592 531.248 145.592C533.083 145.592 534.884 145.116 536.651 144.165C538.487 143.145 540.22 141.854 541.851 140.291C543.55 138.66 545.113 136.825 546.541 134.786C547.968 132.747 549.191 130.64 550.211 128.465C551.298 126.29 552.148 124.183 552.759 122.144C553.371 120.037 553.677 118.134 553.677 116.435C553.677 115.007 553.303 113.818 552.556 112.867C551.876 111.847 550.788 111.337 549.293 111.337C547.866 111.337 546.337 111.813 544.705 112.765C543.074 113.648 541.409 114.838 539.71 116.333C538.079 117.828 536.516 119.561 535.02 121.532C533.525 123.503 532.166 125.542 530.942 127.649C529.787 129.756 528.869 131.863 528.19 133.97C527.51 136.077 527.17 138.048 527.17 139.883ZM622.119 120.003C619.74 122.586 617.361 124.998 614.983 127.241C612.604 129.416 610.123 131.421 607.54 133.256C601.967 137.13 595.646 140.155 588.578 142.33C586.403 143.893 584.16 145.048 581.849 145.796C579.538 146.476 577.397 146.816 575.426 146.816C572.844 146.816 570.771 146.034 569.208 144.471C567.712 142.84 566.965 140.563 566.965 137.64C566.965 135.737 567.372 133.8 568.188 131.829C569.004 129.858 569.989 127.989 571.145 126.222C572.368 124.455 573.625 122.858 574.917 121.43C576.208 120.003 577.329 118.848 578.281 117.964C581.339 115.177 584.33 113.172 587.253 111.949C590.243 110.726 592.724 110.114 594.695 110.114C595.239 110.114 595.85 110.182 596.53 110.318C597.21 110.454 597.855 110.76 598.467 111.235C599.079 111.643 599.622 112.255 600.098 113.07C600.642 113.818 600.982 114.804 601.118 116.027H601.423C603.259 111.541 604.924 106.852 606.419 101.958C607.914 97.0644 608.662 92.0349 608.662 86.8695C608.662 82.9275 607.88 80.2088 606.317 78.7136C605.094 77.5581 603.36 76.9804 601.118 76.9804C600.098 76.9804 598.977 77.1843 597.753 77.5921C596.53 77.9999 595.34 78.5437 594.185 79.2233C592.826 80.1069 591.568 80.9565 590.413 81.772L589.903 80.8545C591.602 79.4952 593.335 78.3398 595.103 77.3882C596.598 76.6406 598.059 76.0629 599.486 75.6551C600.982 75.2473 602.613 75.0434 604.38 75.0434C606.895 75.0434 608.866 75.6551 610.293 76.8785C612.604 78.7815 613.759 82.3498 613.759 87.5831C613.759 89.2143 613.623 90.9475 613.351 92.7826C613.148 94.6176 612.842 96.4867 612.434 98.3898C612.026 100.293 611.55 102.162 611.007 103.997C610.463 105.832 609.919 107.565 609.375 109.196C608.764 110.896 608.05 112.765 607.235 114.804C606.419 116.843 605.535 118.916 604.584 121.022C603.632 123.061 602.647 125.066 601.627 127.037C600.608 128.941 599.588 130.606 598.569 132.033C597.549 133.528 596.394 134.989 595.103 136.417C593.879 137.776 592.384 139.203 590.617 140.699C593.743 139.679 596.632 138.49 599.283 137.13C602.001 135.703 604.618 134.106 607.133 132.339C609.579 130.572 611.958 128.635 614.269 126.528C616.648 124.421 619.027 122.076 621.405 119.493L622.119 120.003ZM594.185 111.337C592.554 111.337 590.549 112.153 588.17 113.784C585.859 115.415 583.65 117.488 581.543 120.003C578.961 123.061 576.786 126.392 575.019 129.994C573.319 133.528 572.47 136.791 572.47 139.781C572.47 141.888 572.844 143.383 573.591 144.267C574.339 145.15 575.324 145.592 576.548 145.592C578.519 145.592 580.66 144.913 582.971 143.553C585.281 142.194 587.626 140.053 590.005 137.13C591.5 135.227 592.826 133.29 593.981 131.319C595.137 129.348 596.054 127.479 596.734 125.712C597.481 123.945 598.025 122.314 598.365 120.819C598.773 119.255 598.977 117.964 598.977 116.944C598.977 113.206 597.379 111.337 594.185 111.337Z" fill="#004BEF"/>
</svg>
