<svg width="68" height="69" viewBox="0 0 68 69" fill="none" xmlns="http://www.w3.org/2000/svg">
<path d="M15.4058 50.4715C12.421 47.1708 11.5813 42.37 12.812 37.1503C14.0416 31.9351 17.3259 26.4031 22.4159 21.8381C27.5058 17.2732 33.3731 14.5976 38.7096 13.924C44.0508 13.2497 48.7574 14.5824 51.7422 17.8832C54.727 21.1839 55.5667 25.9846 54.336 31.2044C53.1064 36.4196 49.8221 41.9516 44.7321 46.5165C39.6422 51.0815 33.7749 53.7571 28.4383 54.4307C23.0972 55.105 18.3906 53.7723 15.4058 50.4715Z" fill="#004BEF" stroke="#204BF1" stroke-width="1.99852"/>
<path fill-rule="evenodd" clip-rule="evenodd" d="M41.8414 40.1375C47.0278 35.141 48.6886 28.3764 45.4653 24.3278C41.9798 19.95 34.0859 20.3838 27.7192 25.2575L28.4673 26.1488C31.4374 23.8859 34.718 22.6696 37.6198 22.4879C40.6179 22.3001 43.0923 23.2109 44.5542 25.047C46.016 26.883 46.342 29.4895 45.4743 32.3531C44.7136 34.8637 43.0519 37.4818 40.5975 39.7089L40.353 35.5802L39.1917 35.6494L39.5357 41.4558L40.234 41.4141L40.2352 41.43L46.0161 40.9781L45.926 39.8182L41.8414 40.1375ZM26.2507 26.3663L26.2488 26.35L20.4883 27.0142L20.6207 28.17L24.9471 27.6712C19.7224 32.6722 18.041 39.4665 21.2745 43.5277C24.76 47.9055 32.6539 47.4717 39.0205 42.598L38.2725 41.7068C35.3024 43.9696 32.0218 45.1859 29.12 45.3676C26.1218 45.5554 23.6475 44.6447 22.1856 42.8086C20.7238 40.9725 20.3978 38.366 21.2655 35.5024C22.0083 33.0509 23.6102 30.4968 25.9704 28.3044L26.3445 32.2008L27.5023 32.089L26.9465 26.2991L26.2507 26.3663Z" fill="white"/>
</svg>
