<svg width="334" height="63" viewBox="0 0 334 63" fill="none" xmlns="http://www.w3.org/2000/svg">
<path d="M9.02421 1.61043V9.89062H7.93104V2.56405H4.87248L4.70967 7.22747C4.65152 8.89049 4.04679 10.0651 2.79081 10.0651C2.55822 10.0651 2.20933 9.98366 2 9.90225V8.9719C2.15118 9.06493 2.46518 9.08819 2.5931 9.08819C3.18621 9.08819 3.6165 8.76256 3.67465 6.65763L3.82583 1.61043H9.02421ZM13.9966 6.35526L11.2637 9.89062H9.91469L12.6825 6.32037C11.3916 6.14593 10.6241 5.36675 10.6241 3.98284C10.6241 2.42449 11.6242 1.61043 13.2407 1.61043H16.7993V9.89062H15.7062V6.35526H13.9966ZM15.7062 5.4249V2.54079H13.6129C12.4034 2.54079 11.7289 2.97108 11.7289 3.98284C11.7289 5.00624 12.3918 5.4249 13.6129 5.4249H15.7062ZM24.5678 9.89062H23.4746V6.20408C23.0675 6.29711 21.9627 6.49481 21.1719 6.49481C18.6367 6.49481 18.2646 4.88994 18.2646 3.97122V1.61043H19.3577V3.87818C19.3577 4.55269 19.5089 5.52957 21.1719 5.52957C22.207 5.52957 23.0559 5.34349 23.4746 5.25046V1.61043H24.5678V9.89062ZM6.39595 13.6104L9.62894 21.8906H8.40785L7.48912 19.3554H4.0119L3.06991 21.8906H1.90696L5.16322 13.6104H6.39595ZM7.16349 18.4832L5.75633 14.6571L4.3259 18.4832H7.16349ZM17.0188 13.6104V21.8906H15.9256V18.018H11.5529V21.8906H10.4597V13.6104H11.5529V17.0644H15.9256V13.6104H17.0188ZM22.3297 13.6104L25.5627 21.8906H24.3416L23.4229 19.3554H19.9457L19.0037 21.8906H17.8407L21.097 13.6104H22.3297ZM23.0973 18.4832L21.6901 14.6571L20.2597 18.4832H23.0973ZM33.4061 18.7623C33.22 20.8672 31.871 22.0883 29.8242 22.0883C27.4634 22.0883 25.9865 20.4137 25.9865 17.7622C25.9865 15.3897 27.3587 13.4244 29.9056 13.4244C31.5337 13.4244 33.1735 14.3315 33.3363 16.0991H32.2431C31.9989 15.0176 31.1151 14.3663 29.8823 14.3663C27.917 14.3663 27.0913 16.0061 27.0913 17.7505C27.0913 19.8555 28.1495 21.1463 29.8707 21.1463C31.2779 21.1463 32.1385 20.309 32.3129 18.7623H33.4061ZM40.3268 13.6104V14.564H37.5474V21.8906H36.4542V14.564H33.6747V13.6104H40.3268ZM43.6694 13.6104L46.9024 21.8906H45.6813L44.7625 19.3554H41.2853L40.3433 21.8906H39.1804L42.4366 13.6104H43.6694ZM44.4369 18.4832L43.0297 14.6571L41.5993 18.4832H44.4369ZM54.7457 18.7623C54.5597 20.8672 53.2106 22.0883 51.1638 22.0883C48.8031 22.0883 47.3261 20.4137 47.3261 17.7622C47.3261 15.3897 48.6984 13.4244 51.2453 13.4244C52.8734 13.4244 54.5131 14.3315 54.676 16.0991H53.5828C53.3386 15.0176 52.4547 14.3663 51.222 14.3663C49.2566 14.3663 48.4309 16.0061 48.4309 17.7505C48.4309 19.8555 49.4892 21.1463 51.2104 21.1463C52.6175 21.1463 53.4781 20.309 53.6526 18.7623H54.7457ZM56.1259 21.8906V13.6104H57.2191V20.623H57.2423L61.301 13.6104H62.6849V21.8906H61.5918V14.8548H61.5685L57.4982 21.8906H56.1259ZM67.6354 18.3553L64.9025 21.8906H63.5534L66.3212 18.3204C65.0304 18.1459 64.2628 17.3668 64.2628 15.9828C64.2628 14.4245 65.263 13.6104 66.8795 13.6104H70.4381V21.8906H69.3449V18.3553H67.6354ZM69.3449 17.4249V14.5408H67.2516C66.0421 14.5408 65.3676 14.9711 65.3676 15.9828C65.3676 17.0062 66.0305 17.4249 67.2516 17.4249H69.3449Z" fill="white"/>
<path d="M140.883 7.47169C140.883 8.49509 139.988 10.0767 137.662 10.0767C135.685 10.0767 134.231 9.15797 134.231 7.15769H135.289C135.336 8.6579 136.429 9.18123 137.755 9.18123C138.894 9.18123 139.79 8.50672 139.79 7.44843C139.79 6.23897 138.801 5.99475 137.697 5.99475C137.464 5.99475 137.127 6.00638 136.952 6.01801V5.1109C137.138 5.13416 137.511 5.13416 137.697 5.13416C138.743 5.13416 139.499 4.77365 139.499 3.64559C139.499 2.62219 138.65 2.31983 137.72 2.31983C136.499 2.31983 135.789 2.80827 135.661 4.0061H134.603C134.673 2.22679 135.999 1.41273 137.755 1.41273C139.348 1.41273 140.592 2.08724 140.592 3.64559C140.592 4.5178 139.918 5.23883 139.22 5.44816V5.48305C140.313 5.69238 140.883 6.56459 140.883 7.47169ZM147.994 1.61043V2.56405H143.354V5.15742H147.691V6.07615H143.354V8.93701H148.052V9.89062H142.261V1.61043H147.994ZM155.475 1.61043V9.89062H154.382V2.56405H151.324L151.161 7.22747C151.103 8.89049 150.498 10.0651 149.242 10.0651C149.009 10.0651 148.661 9.98366 148.451 9.90225V8.9719C148.602 9.06493 148.916 9.08819 149.044 9.08819C149.637 9.08819 150.068 8.76256 150.126 6.65763L150.277 1.61043H155.475ZM163.064 1.61043V2.56405H158.424V5.15742H162.762V6.07615H158.424V8.93701H163.123V9.89062H157.331V1.61043H163.064ZM171 1.61043V9.89062H169.906V6.01801H165.534V9.89062H164.441V1.61043H165.534V5.06439H169.906V1.61043H171ZM179.555 1.61043L176.066 4.93646L179.695 9.89062H178.299L175.299 5.68075L173.927 6.98325V9.89062H172.833V1.61043H173.927V5.71564L178.125 1.61043H179.555ZM183.875 1.41273C186.445 1.41273 187.852 3.2153 187.852 5.68075C187.852 8.11131 186.514 10.0883 183.886 10.0883C181.235 10.0883 179.921 8.0648 179.921 5.65749C179.921 3.07574 181.467 1.41273 183.875 1.41273ZM183.875 2.36635C181.921 2.36635 181.014 3.97122 181.014 5.7389C181.014 7.80895 182.142 9.14634 183.898 9.14634C185.631 9.14634 186.759 7.79732 186.759 5.7389C186.759 3.69211 185.631 2.36635 183.875 2.36635ZM189.221 1.61043H192.757C194.129 1.61043 195.397 2.15701 195.397 3.68048C195.397 4.49454 194.92 5.19231 194.176 5.45979C195.199 5.69238 195.769 6.45993 195.769 7.5531C195.769 9.46033 194.21 9.89062 192.629 9.89062H189.221V1.61043ZM190.291 2.54079V5.15742H192.257C193.187 5.15742 194.303 5.08765 194.303 3.84329C194.303 2.59894 193.338 2.54079 192.361 2.54079H190.291ZM190.291 6.01801V8.9719H192.478C193.582 8.9719 194.664 8.90212 194.664 7.44843C194.664 6.00638 193.396 6.01801 192.292 6.01801H190.291ZM200.66 1.61043L203.893 9.89062H202.672L201.753 7.3554H198.276L197.334 9.89062H196.171L199.427 1.61043H200.66ZM201.427 6.48318L200.02 2.65708L198.59 6.48318H201.427ZM138.197 13.6104L141.43 21.8906H140.209L139.29 19.3554H135.813L134.871 21.8906H133.708L136.964 13.6104H138.197ZM138.964 18.4832L137.557 14.6571L136.127 18.4832H138.964ZM148.366 13.6104V21.8906H147.273V14.564H144.214L144.051 19.2275C143.993 20.8905 143.389 22.0651 142.133 22.0651C141.9 22.0651 141.551 21.9837 141.342 21.9023V20.9719C141.493 21.0649 141.807 21.0882 141.935 21.0882C142.528 21.0882 142.958 20.7626 143.016 18.6576L143.168 13.6104H148.366ZM155.955 13.6104V14.564H151.315V17.1574H155.653V18.0762H151.315V20.937H156.013V21.8906H150.222V13.6104H155.955ZM164.053 13.6104L160.564 16.9365L164.193 21.8906H162.797L159.797 17.6807L158.424 18.9833V21.8906H157.331V13.6104H158.424V17.7156L162.623 13.6104H164.053ZM171.896 18.7623C171.71 20.8672 170.361 22.0883 168.314 22.0883C165.953 22.0883 164.476 20.4137 164.476 17.7622C164.476 15.3897 165.849 13.4244 168.396 13.4244C170.024 13.4244 171.663 14.3315 171.826 16.0991H170.733C170.489 15.0176 169.605 14.3663 168.372 14.3663C166.407 14.3663 165.581 16.0061 165.581 17.7505C165.581 19.8555 166.64 21.1463 168.361 21.1463C169.768 21.1463 170.628 20.309 170.803 18.7623H171.896ZM176.753 13.6104L179.986 21.8906H178.765L177.847 19.3554H174.369L173.427 21.8906H172.265L175.521 13.6104H176.753ZM177.521 18.4832L176.114 14.6571L174.683 18.4832H177.521ZM187.376 13.6104V21.8906H186.283V18.018H181.91V21.8906H180.817V13.6104H181.91V17.0644H186.283V13.6104H187.376ZM196.502 23.949H195.443V21.8906H189.454V23.949H188.396V20.937H189.21C189.838 19.8206 190.292 17.4947 190.292 15.2153V13.6104H195.583V20.937H196.502V23.949ZM194.49 20.937V14.564H191.361V15.6921C191.361 17.7505 190.931 19.902 190.419 20.937H194.49ZM197.649 13.6104H201.057C202.638 13.6104 203.813 14.2733 203.813 15.9945C203.813 17.8668 202.603 18.4948 200.987 18.4948H198.742V21.8906H197.649V13.6104ZM198.742 14.5524V17.5761H200.847C201.906 17.5761 202.72 17.2853 202.72 16.0643C202.72 14.7385 201.778 14.5524 200.696 14.5524H198.742ZM207.758 13.6104L210.991 21.8906H209.77L208.851 19.3554H205.374L204.432 21.8906H203.269L206.525 13.6104H207.758ZM208.525 18.4832L207.118 14.6571L205.688 18.4832H208.525Z" fill="white"/>
<path d="M8.60932 39.4054L5.12048 42.7314L8.74888 47.6855H7.35334L4.35293 43.4757L2.98065 44.7782V47.6855H1.88748V39.4054H2.98065V43.5106L7.1789 39.4054H8.60932ZM13.1215 39.4054L16.3545 47.6855H15.1334L14.2146 45.1503H10.7374L9.79544 47.6855H8.63249L11.8887 39.4054H13.1215ZM13.889 44.2781L12.4819 40.452L11.0514 44.2781H13.889ZM22.9186 39.4054V40.359H18.2784V42.9523H22.6162V43.8711H18.2784V46.7319H22.9767V47.6855H17.1853V39.4054H22.9186ZM24.3063 39.4054H25.8182L28.4813 46.4179L31.0514 39.4054H32.5749V47.6855H31.5399V40.7776L28.9465 47.6855H27.9929L25.353 40.7776V47.6855H24.3063V39.4054ZM8.90006 56.5572C8.71399 58.6622 7.36497 59.8832 5.31818 59.8832C2.95739 59.8832 1.48045 58.2086 1.48045 55.5571C1.48045 53.1847 2.85273 51.2193 5.39959 51.2193C7.02771 51.2193 8.66747 52.1264 8.83029 53.8941H7.73711C7.49289 52.8125 6.60905 52.1613 5.37633 52.1613C3.41094 52.1613 2.58525 53.801 2.58525 55.5454C2.58525 57.6504 3.64353 58.9413 5.3647 58.9413C6.77187 58.9413 7.63245 58.1039 7.80689 56.5572H8.90006ZM13.7691 51.2076C16.3392 51.2076 17.7464 53.0102 17.7464 55.4757C17.7464 57.9062 16.409 59.8832 13.7807 59.8832C11.1292 59.8832 9.81507 57.8597 9.81507 55.4524C9.81507 52.8707 11.3618 51.2076 13.7691 51.2076ZM13.7691 52.1613C11.8153 52.1613 10.9082 53.7661 10.9082 55.5338C10.9082 57.6039 12.0363 58.9413 13.7924 58.9413C15.5251 58.9413 16.6532 57.5922 16.6532 55.5338C16.6532 53.487 15.5251 52.1613 13.7691 52.1613ZM26.8728 55.5106C26.8728 57.6736 25.14 58.6854 23.256 58.6854V59.6855H22.1629V58.6854C20.2789 58.6854 18.5461 57.6155 18.5461 55.5106C18.5461 53.4173 20.2789 52.2776 22.1629 52.2776V51.4054H23.256V52.2776C25.1749 52.2776 26.8728 53.4056 26.8728 55.5106ZM25.768 55.5106C25.768 53.9755 24.6748 53.2428 23.256 53.173V57.7899C24.6748 57.6853 25.768 57.0457 25.768 55.5106ZM22.1629 57.7899V53.173C20.7441 53.2428 19.6509 53.9755 19.6509 55.5106C19.6509 57.0457 20.7441 57.6853 22.1629 57.7899ZM34.3427 57.2317C34.3427 58.7901 33.4123 59.6855 31.7958 59.6855H28.1674V51.4054H29.2606V54.7663H31.7958C33.4239 54.7663 34.3427 55.6617 34.3427 57.2317ZM33.2379 57.2317C33.2379 56.2083 32.6448 55.7083 31.4237 55.7083H29.2606V58.7319H31.4237C32.6331 58.7319 33.2379 58.2435 33.2379 57.2317ZM38.8251 56.1502L36.0922 59.6855H34.7431L37.511 56.1153C36.2201 55.9409 35.4525 55.1617 35.4525 53.7778C35.4525 52.2194 36.4527 51.4054 38.0692 51.4054H41.6278V59.6855H40.5346V56.1502H38.8251ZM40.5346 55.2198V52.3357H38.4413C37.2319 52.3357 36.5573 52.766 36.5573 53.7778C36.5573 54.8012 37.2202 55.2198 38.4413 55.2198H40.5346Z" fill="white"/>
<path d="M97.6145 10.8172C97.5796 11.5847 97.3703 12.3174 97.0447 12.864L98.6495 14.7363H97.3703L96.4865 13.6897C95.905 14.5154 95.0909 14.9108 94.0675 14.9108C92.6836 14.9108 91.5439 14.0386 91.5439 12.5732C91.5439 11.4103 92.4859 10.5265 93.4861 10.0845C92.8464 9.30536 92.5906 8.75877 92.5906 8.16567C92.5906 7.13064 93.3814 6.40961 94.5211 6.40961C95.6375 6.40961 96.4167 7.11901 96.4167 8.13078C96.4167 9.13091 95.7305 9.84031 94.8932 10.2822L96.4051 12.1313C96.5562 11.7592 96.6493 11.2824 96.6725 10.8172H97.6145ZM94.3699 9.64261C94.8932 9.32862 95.4631 8.87507 95.4631 8.21218C95.4631 7.64234 95.056 7.22368 94.5094 7.22368C93.9629 7.22368 93.5442 7.61908 93.5442 8.13078C93.5442 8.65411 94.0559 9.24721 94.3699 9.64261ZM94.021 10.7242C93.3349 11.073 92.579 11.6778 92.579 12.5267C92.579 13.3757 93.2884 14.0618 94.1722 14.0618C94.8816 14.0618 95.4863 13.7129 95.9282 13.0268L94.021 10.7242Z" fill="white"/>
<path d="M236.2 8.87969C236.166 9.64724 235.956 10.3799 235.631 10.9265L237.235 12.7988H235.956L235.072 11.7522C234.491 12.5779 233.677 12.9733 232.653 12.9733C231.27 12.9733 230.13 12.1011 230.13 10.6357C230.13 9.47279 231.072 8.58895 232.072 8.14703C231.432 7.36786 231.177 6.82127 231.177 6.22817C231.177 5.19314 231.967 4.47211 233.107 4.47211C234.223 4.47211 235.003 5.18151 235.003 6.19328C235.003 7.19341 234.316 7.90281 233.479 8.34473L234.991 10.1938C235.142 9.82168 235.235 9.34487 235.258 8.87969H236.2ZM232.956 7.70511C233.479 7.39112 234.049 6.93757 234.049 6.27468C234.049 5.70484 233.642 5.28618 233.095 5.28618C232.549 5.28618 232.13 5.68158 232.13 6.19328C232.13 6.71661 232.642 7.30971 232.956 7.70511ZM232.607 8.78665C231.921 9.13554 231.165 9.74027 231.165 10.5892C231.165 11.4382 231.874 12.1243 232.758 12.1243C233.468 12.1243 234.072 11.7754 234.514 11.0893L232.607 8.78665Z" fill="white"/>
<path d="M97.6145 47.6434C97.5796 48.4109 97.3703 49.1436 97.0447 49.6902L98.6495 51.5625H97.3703L96.4865 50.5158C95.905 51.3415 95.0909 51.7369 94.0675 51.7369C92.6836 51.7369 91.5439 50.8647 91.5439 49.3994C91.5439 48.2365 92.4859 47.3526 93.4861 46.9107C92.8464 46.1315 92.5906 45.5849 92.5906 44.9918C92.5906 43.9568 93.3814 43.2358 94.5211 43.2358C95.6375 43.2358 96.4167 43.9452 96.4167 44.957C96.4167 45.9571 95.7305 46.6665 94.8932 47.1084L96.4051 48.9575C96.5562 48.5854 96.6493 48.1085 96.6725 47.6434H97.6145ZM94.3699 46.4688C94.8932 46.1548 95.4631 45.7012 95.4631 45.0384C95.4631 44.4685 95.056 44.0498 94.5094 44.0498C93.9629 44.0498 93.5442 44.4453 93.5442 44.957C93.5442 45.4803 94.0559 46.0734 94.3699 46.4688ZM94.021 47.5503C93.3349 47.8992 92.579 48.5039 92.579 49.3529C92.579 50.2018 93.2884 50.888 94.1722 50.888C94.8816 50.888 95.4863 50.5391 95.9282 49.853L94.021 47.5503Z" fill="white"/>
<path d="M141.441 39.4054L137.953 42.7314L141.581 47.6855H140.185L137.185 43.4757L135.813 44.7782V47.6855H134.72V39.4054H135.813V43.5106L140.011 39.4054H141.441ZM145.761 39.2076C148.331 39.2076 149.738 41.0102 149.738 43.4757C149.738 45.9062 148.401 47.8832 145.772 47.8832C143.121 47.8832 141.807 45.8597 141.807 43.4524C141.807 40.8707 143.353 39.2076 145.761 39.2076ZM145.761 40.1613C143.807 40.1613 142.9 41.7661 142.9 43.5338C142.9 45.6039 144.028 46.9413 145.784 46.9413C147.517 46.9413 148.645 45.5922 148.645 43.5338C148.645 41.487 147.517 40.1613 145.761 40.1613ZM151.119 39.4054H152.631L155.294 46.4179L157.864 39.4054H159.388V47.6855H158.353V40.7776L155.759 47.6855H154.806L152.166 40.7776V47.6855H151.119V39.4054ZM167.96 39.4054L164.471 42.7314L168.099 47.6855H166.704L163.703 43.4757L162.331 44.7782V47.6855H161.238V39.4054H162.331V43.5106L166.529 39.4054H167.96ZM172.279 39.2076C174.849 39.2076 176.256 41.0102 176.256 43.4757C176.256 45.9062 174.919 47.8832 172.291 47.8832C169.639 47.8832 168.325 45.8597 168.325 43.4524C168.325 40.8707 169.872 39.2076 172.279 39.2076ZM172.279 40.1613C170.325 40.1613 169.418 41.7661 169.418 43.5338C169.418 45.6039 170.546 46.9413 172.302 46.9413C174.035 46.9413 175.163 45.5922 175.163 43.5338C175.163 41.487 174.035 40.1613 172.279 40.1613ZM177.626 39.4054H181.161C182.534 39.4054 183.801 39.9519 183.801 41.4754C183.801 42.2895 183.324 42.9872 182.58 43.2547C183.604 43.4873 184.173 44.2548 184.173 45.348C184.173 47.2553 182.615 47.6855 181.033 47.6855H177.626V39.4054ZM178.696 40.3357V42.9523H180.661C181.592 42.9523 182.708 42.8826 182.708 41.6382C182.708 40.3939 181.743 40.3357 180.766 40.3357H178.696ZM178.696 43.8129V46.7668H180.882C181.987 46.7668 183.069 46.697 183.069 45.2434C183.069 43.8013 181.801 43.8129 180.696 43.8129H178.696ZM189.064 39.4054L192.297 47.6855H191.076L190.158 45.1503H186.68L185.738 47.6855H184.575L187.832 39.4054H189.064ZM189.832 44.2781L188.425 40.452L186.994 44.2781H189.832ZM138.197 51.4054L141.43 59.6855H140.209L139.29 57.1503H135.813L134.871 59.6855H133.708L136.964 51.4054H138.197ZM138.964 56.2781L137.557 52.452L136.127 56.2781H138.964ZM148.82 51.4054V59.6855H147.726V55.8129H143.354V59.6855H142.261V51.4054H143.354V54.8593H147.726V51.4054H148.82ZM157.212 51.4054V59.6855H156.119V55.8129H151.746V59.6855H150.653V51.4054H151.746V54.8593H156.119V51.4054H157.212ZM162.523 51.4054L165.756 59.6855H164.535L163.616 57.1503H160.139L159.197 59.6855H158.034L161.291 51.4054H162.523ZM163.291 56.2781L161.884 52.452L160.453 56.2781H163.291Z" fill="white"/>
<path d="M280.532 1.61043V9.89062H279.439V2.56405H276.38L276.217 7.22747C276.159 8.89049 275.555 10.0651 274.299 10.0651C274.066 10.0651 273.717 9.98366 273.508 9.90225V8.9719C273.659 9.06493 273.973 9.08819 274.101 9.08819C274.694 9.08819 275.124 8.76256 275.182 6.65763L275.334 1.61043H280.532ZM285.039 6.01801H283.481V9.89062H282.388V1.61043H283.481V5.06439H285.063C285.272 2.8199 286.702 1.41273 288.83 1.41273C291.296 1.41273 292.645 3.2153 292.645 5.68075C292.645 8.11131 291.366 10.0883 288.842 10.0883C286.423 10.0883 285.167 8.2625 285.039 6.01801ZM291.552 5.7389C291.552 3.69211 290.482 2.36635 288.83 2.36635C286.993 2.36635 286.132 3.97122 286.132 5.7389C286.132 7.80895 287.202 9.14634 288.854 9.14634C290.482 9.14634 291.552 7.79732 291.552 5.7389ZM295.11 4.95972H297.878C299.506 4.95972 300.425 5.86682 300.425 7.4368C300.425 8.99515 299.495 9.89062 297.878 9.89062H294.017V1.61043H299.692V2.56405H295.11V4.95972ZM299.332 7.4368C299.332 6.41341 298.739 5.91334 297.518 5.91334H295.11V8.93701H297.518C298.727 8.93701 299.332 8.44857 299.332 7.4368ZM301.978 9.89062V1.61043H303.072V8.62301H303.095L307.154 1.61043H308.537V9.89062H307.444V2.85478H307.421L303.351 9.89062H301.978ZM310.371 1.61043H313.907C315.279 1.61043 316.546 2.15701 316.546 3.68048C316.546 4.49454 316.07 5.19231 315.325 5.45979C316.349 5.69238 316.919 6.45993 316.919 7.5531C316.919 9.46033 315.36 9.89062 313.779 9.89062H310.371V1.61043ZM311.441 2.54079V5.15742H313.406C314.337 5.15742 315.453 5.08765 315.453 3.84329C315.453 2.59894 314.488 2.54079 313.511 2.54079H311.441ZM311.441 6.01801V8.9719H313.627C314.732 8.9719 315.814 8.90212 315.814 7.44843C315.814 6.00638 314.546 6.01801 313.441 6.01801H311.441ZM321.81 1.61043L325.043 9.89062H323.822L322.903 7.3554H319.426L318.484 9.89062H317.321L320.577 1.61043H321.81ZM322.577 6.48318L321.17 2.65708L319.74 6.48318H322.577ZM328.99 6.35526L326.257 9.89062H324.908L327.676 6.32037C326.385 6.14593 325.618 5.36675 325.618 3.98284C325.618 2.42449 326.618 1.61043 328.234 1.61043H331.793V9.89062H330.7V6.35526H328.99ZM330.7 5.4249V2.54079H328.606C327.397 2.54079 326.722 2.97108 326.722 3.98284C326.722 5.00624 327.385 5.4249 328.606 5.4249H330.7ZM281.718 23.949H280.66V21.8906H274.671V23.949H273.612V20.937H274.427C275.055 19.8206 275.508 17.4947 275.508 15.2153V13.6104H280.8V20.937H281.718V23.949ZM279.706 20.937V14.564H276.578V15.6921C276.578 17.7505 276.148 19.902 275.636 20.937H279.706ZM286.297 13.6104L289.53 21.8906H288.308L287.39 19.3554H283.912L282.97 21.8906H281.808L285.064 13.6104H286.297ZM287.064 18.4832L285.657 14.6571L284.226 18.4832H287.064ZM290.407 13.6104H293.814C295.396 13.6104 296.57 14.2733 296.57 15.9945C296.57 17.8668 295.361 18.4948 293.744 18.4948H291.5V21.8906H290.407V13.6104ZM291.5 14.5524V17.5761H293.605C294.663 17.5761 295.477 17.2853 295.477 16.0643C295.477 14.7385 294.535 14.5524 293.454 14.5524H291.5ZM304.077 19.4368C304.077 20.9952 303.146 21.8906 301.53 21.8906H297.901V13.6104H298.994V16.9714H301.53C303.158 16.9714 304.077 17.8668 304.077 19.4368ZM302.972 19.4368C302.972 18.4134 302.379 17.9133 301.158 17.9133H298.994V20.937H301.158C302.367 20.937 302.972 20.4486 302.972 19.4368ZM308.559 18.3553L305.826 21.8906H304.477L307.245 18.3204C305.954 18.1459 305.186 17.3668 305.186 15.9828C305.186 14.4245 306.187 13.6104 307.803 13.6104H311.362V21.8906H310.269V18.3553H308.559ZM310.269 17.4249V14.5408H308.175C306.966 14.5408 306.291 14.9711 306.291 15.9828C306.291 17.0062 306.954 17.4249 308.175 17.4249H310.269Z" fill="white"/>
</svg>
