<svg width="1410" height="508" viewBox="0 0 1410 508" fill="none" xmlns="http://www.w3.org/2000/svg">
<path d="M1090.83 500H1087.38L1081.36 491.872L1078.77 494.4V500H1076.05V483.488H1078.77V491.36L1086.32 483.488H1089.97L1083.31 489.984L1090.83 500ZM1095.2 483.488V485.824C1096.48 483.776 1098.34 482.976 1100.77 482.976C1105.38 482.976 1108.29 486.304 1108.29 491.648C1108.29 496.992 1105.41 500.416 1100.9 500.416C1098.47 500.416 1096.77 499.616 1095.36 497.696V506.368H1092.64V483.488H1095.2ZM1100.35 485.248C1097.19 485.248 1095.27 487.68 1095.27 491.68C1095.27 495.68 1097.25 498.112 1100.45 498.112C1103.55 498.112 1105.47 495.648 1105.47 491.68C1105.47 487.68 1103.55 485.248 1100.35 485.248ZM1126.23 497.824V499.936C1125.66 500.16 1124.99 500.256 1124.38 500.256C1122.84 500.256 1122.01 499.392 1121.98 497.824C1120.35 499.648 1118.55 500.448 1115.99 500.448C1112.73 500.448 1110.71 498.656 1110.71 495.776C1110.71 492.832 1112.67 491.104 1116.57 490.624C1120.51 490.144 1121.85 490.24 1121.85 488C1121.85 486.24 1120.54 485.28 1118.11 485.28C1115.58 485.28 1114.27 486.208 1114.01 488.64H1111.35C1111.45 485.12 1114.01 483.04 1118.27 483.04C1120.47 483.04 1122.36 483.616 1123.45 484.64C1124.6 485.76 1124.57 487.456 1124.57 488.928C1124.57 491.392 1124.44 493.824 1124.44 496.288C1124.44 497.504 1124.73 497.92 1125.56 497.92C1125.82 497.92 1125.95 497.888 1126.23 497.824ZM1121.85 491.424C1120.83 492.192 1119.42 492.256 1118.2 492.416C1116.22 492.672 1113.53 492.896 1113.53 495.552C1113.53 497.248 1114.78 498.304 1116.83 498.304C1119.39 498.304 1121.85 496.544 1121.85 494.432V491.424ZM1141.44 485.888H1135.52V500H1132.8V485.888H1126.88V483.488H1141.44V485.888ZM1158.39 500H1154.94L1148.92 491.872L1146.33 494.4V500H1143.61V483.488H1146.33V491.36L1153.88 483.488H1157.53L1150.87 489.984L1158.39 500ZM1174.83 497.824V499.936C1174.25 500.16 1173.58 500.256 1172.97 500.256C1171.44 500.256 1170.6 499.392 1170.57 497.824C1168.94 499.648 1167.15 500.448 1164.59 500.448C1161.32 500.448 1159.31 498.656 1159.31 495.776C1159.31 492.832 1161.26 491.104 1165.16 490.624C1169.1 490.144 1170.44 490.24 1170.44 488C1170.44 486.24 1169.13 485.28 1166.7 485.28C1164.17 485.28 1162.86 486.208 1162.6 488.64H1159.95C1160.04 485.12 1162.6 483.04 1166.86 483.04C1169.07 483.04 1170.96 483.616 1172.04 484.64C1173.2 485.76 1173.16 487.456 1173.16 488.928C1173.16 491.392 1173.04 493.824 1173.04 496.288C1173.04 497.504 1173.32 497.92 1174.16 497.92C1174.41 497.92 1174.54 497.888 1174.83 497.824ZM1170.44 491.424C1169.42 492.192 1168.01 492.256 1166.8 492.416C1164.81 492.672 1162.12 492.896 1162.12 495.552C1162.12 497.248 1163.37 498.304 1165.42 498.304C1167.98 498.304 1170.44 496.544 1170.44 494.432V491.424ZM1190.45 500H1187.73V493.248H1184.11L1178.9 500H1175.28L1180.98 493.152C1178.64 492.8 1176.88 491.072 1176.88 488.352C1176.88 485.248 1178.86 483.488 1182.06 483.488H1190.45V500ZM1187.73 485.888H1182.93C1180.69 485.888 1179.66 486.688 1179.66 488.352C1179.66 490.048 1180.66 490.848 1182.93 490.848H1187.73V485.888ZM1203.42 500V483.488H1211.07C1213.95 483.488 1216.73 484.128 1216.73 487.488C1216.73 489.248 1215.84 490.336 1214.3 491.04V491.072C1216.22 491.456 1217.44 492.928 1217.44 495.136C1217.44 497.952 1215.36 500 1212.41 500H1203.42ZM1210.78 490.144C1213.12 490.144 1213.92 489.344 1213.92 487.936C1213.92 486.56 1213.18 485.824 1210.78 485.824H1206.08V490.144H1210.78ZM1206.08 492.448V497.664H1211.9C1213.63 497.664 1214.62 496.48 1214.62 494.912C1214.62 493.408 1213.66 492.448 1211.42 492.448H1206.08ZM1234.78 494.784C1233.95 498.592 1231.49 500.544 1227.59 500.544C1222.72 500.544 1219.81 497.344 1219.81 491.968C1219.81 486.624 1222.91 483.008 1227.49 483.008C1232.93 483.008 1234.98 487.328 1234.98 492.096V492.48H1222.56L1222.53 492.672C1222.53 496.192 1224.48 498.304 1227.68 498.304C1230.05 498.304 1231.36 497.28 1232.13 494.784H1234.78ZM1232.16 490.272C1231.91 487.136 1230.15 485.248 1227.43 485.248C1224.77 485.248 1222.91 487.168 1222.56 490.272H1232.16ZM1240.42 483.488V485.824C1241.7 483.776 1243.56 482.976 1245.99 482.976C1250.6 482.976 1253.51 486.304 1253.51 491.648C1253.51 496.992 1250.63 500.416 1246.12 500.416C1243.68 500.416 1241.99 499.616 1240.58 497.696V506.368H1237.86V483.488H1240.42ZM1245.57 485.248C1242.4 485.248 1240.48 487.68 1240.48 491.68C1240.48 495.68 1242.47 498.112 1245.67 498.112C1248.77 498.112 1250.69 495.648 1250.69 491.68C1250.69 487.68 1248.77 485.248 1245.57 485.248ZM1271.04 493.984C1270.56 497.92 1267.93 500.48 1263.84 500.48C1258.72 500.48 1256 496.992 1256 491.968C1256 486.464 1259.07 483.008 1263.93 483.008C1267.97 483.008 1270.49 485.12 1270.94 488.864H1268.13C1267.65 486.528 1266.21 485.28 1263.97 485.28C1260.83 485.28 1258.85 487.776 1258.85 491.744C1258.85 495.776 1260.7 498.208 1263.77 498.208C1266.24 498.208 1267.87 496.704 1268.29 493.984H1271.04ZM1277.5 500H1274.02V483.488H1276.74V496.96H1276.8L1284.22 483.488H1287.71V500H1284.99V486.528H1284.93L1277.5 500ZM1304.85 500H1302.13V493.248H1298.52L1293.3 500H1289.69L1295.38 493.152C1293.05 492.8 1291.29 491.072 1291.29 488.352C1291.29 485.248 1293.27 483.488 1296.47 483.488H1304.85V500ZM1302.13 485.888H1297.33C1295.09 485.888 1294.07 486.688 1294.07 488.352C1294.07 490.048 1295.06 490.848 1297.33 490.848H1302.13V485.888Z" fill="#004BEF"/>
<path d="M4.768 500H2.048V483.488H15.744V500H13.024V485.888H4.768V500ZM27.0613 483.008C32.0533 483.008 34.9653 486.176 34.9653 491.648C34.9653 497.248 32.0533 500.512 27.0293 500.512C21.9733 500.512 18.9653 497.248 18.9653 491.808C18.9653 486.368 22.0693 483.008 27.0613 483.008ZM26.9973 485.28C23.7973 485.28 21.7812 487.808 21.7812 491.744C21.7812 495.808 23.7333 498.208 27.0613 498.208C30.2613 498.208 32.1813 495.776 32.1813 491.712C32.1813 487.776 30.1973 485.28 26.9973 485.28ZM51.183 483.488V500H48.463V485.888H42.575L42.351 493.184C42.191 498.592 40.079 500.352 37.775 500.352C36.975 500.352 36.175 500.16 35.823 500V497.792C36.175 497.984 36.911 498.016 37.263 498.016C38.351 498.016 39.567 497.056 39.663 493.472L39.951 483.488H51.183ZM57.9243 500H55.2043V483.488H57.9243V490.048H66.1803V483.488H68.9003V500H66.1803V492.448H57.9243V500ZM88.7295 483.488H91.4495V500H88.7295V483.488ZM86.1055 494.848C86.1055 497.952 84.0895 500 80.8575 500H72.8895V483.488H75.6095V489.792H80.7295C83.9615 489.792 86.1055 491.712 86.1055 494.848ZM79.8655 492.128H75.6095V497.6H79.8655C82.1055 497.6 83.2895 496.608 83.2895 494.848C83.2895 493.088 82.1375 492.128 79.8655 492.128ZM107.197 477.216C106.781 479.776 105.181 481.632 102.397 481.632C99.7408 481.632 97.8528 479.776 97.5328 477.216H99.1648C99.6128 478.752 100.733 479.712 102.365 479.712C104.029 479.712 105.053 478.752 105.565 477.216H107.197ZM99.0048 500H95.5168V483.488H98.2368V496.96H98.3008L105.725 483.488H109.213V500H106.493V486.528H106.429L99.0048 500ZM135.964 483.488V500H133.244V485.888H127.356L127.132 493.184C126.972 498.592 124.86 500.352 122.556 500.352C121.756 500.352 120.956 500.16 120.604 500V497.792C120.956 497.984 121.692 498.016 122.044 498.016C123.132 498.016 124.348 497.056 124.444 493.472L124.732 483.488H135.964ZM147.218 483.008C152.21 483.008 155.122 486.176 155.122 491.648C155.122 497.248 152.21 500.512 147.186 500.512C142.13 500.512 139.122 497.248 139.122 491.808C139.122 486.368 142.226 483.008 147.218 483.008ZM147.154 485.28C143.954 485.28 141.938 487.808 141.938 491.744C141.938 495.808 143.89 498.208 147.218 498.208C150.418 498.208 152.338 495.776 152.338 491.712C152.338 487.776 150.354 485.28 147.154 485.28ZM169.753 485.888H161.145V500H158.424V483.488H169.753V485.888ZM178.249 483.008C183.241 483.008 186.153 486.176 186.153 491.648C186.153 497.248 183.241 500.512 178.217 500.512C173.161 500.512 170.153 497.248 170.153 491.808C170.153 486.368 173.257 483.008 178.249 483.008ZM178.185 485.28C174.985 485.28 172.969 487.808 172.969 491.744C172.969 495.808 174.921 498.208 178.249 498.208C181.449 498.208 183.369 495.776 183.369 491.712C183.369 487.776 181.385 485.28 178.185 485.28ZM201.469 485.888H195.549V500H192.829V485.888H186.909V483.488H201.469V485.888ZM207.13 500H203.642V483.488H206.362V496.96H206.426L213.85 483.488H217.338V500H214.618V486.528H214.554L207.13 500ZM224.143 500H221.423V483.488H235.119V500H232.399V485.888H224.143V500Z" fill="#004BEF"/>
<path fill-rule="evenodd" clip-rule="evenodd" d="M1199.72 155.889C1155.39 182.558 1120.37 214.84 1099.51 245.302C1078.43 276.101 1072.73 303.554 1083.64 321.773C1084.1 322.55 1084.6 323.309 1085.12 324.049C1096.93 338.907 1119.71 343.572 1136.51 343.392C1136.51 343.392 1158.57 340.873 1169.06 335.833C1179.55 330.793 1189.69 324.15 1199.46 315.903C1209 307.656 1218.18 298.264 1227 287.727C1235.82 277.418 1244.17 266.651 1252.04 255.427C1259.9 244.431 1267.18 233.664 1273.85 223.127C1280.77 212.36 1287.09 202.739 1292.81 194.263L1292.09 193.576C1288.28 197.928 1283.63 203.082 1278.15 209.038C1272.66 214.765 1266.58 220.263 1259.9 225.532C1253.47 230.801 1246.55 235.268 1239.16 238.933C1231.77 242.598 1224.14 244.431 1216.27 244.431C1208.64 244.431 1203.16 242.942 1199.82 239.964C1196.48 236.986 1194.81 232.977 1194.81 227.937C1194.81 223.356 1196.12 218.545 1198.75 213.505C1201.13 208.237 1205.06 201.708 1210.55 193.919C1216.03 186.131 1222.95 176.624 1231.29 165.399C1239.41 154.781 1249.02 141.704 1260.13 126.167C1240.44 133.743 1220.02 143.676 1199.72 155.889ZM1291.49 115.905C1282.73 128.024 1268.42 147.385 1260.26 157.839C1251.68 168.835 1243.93 178.915 1237.01 188.078C1230.34 197.241 1224.85 205.373 1220.56 212.474C1216.27 219.347 1214.13 224.845 1214.13 228.968C1214.13 235.611 1217.46 238.933 1224.14 238.933C1231.05 238.933 1239.04 235.726 1248.1 229.312C1257.4 222.897 1267.18 214.422 1277.43 203.884C1287.68 193.117 1298.05 180.862 1308.55 167.117C1317.01 156.091 1330.3 135.259 1340.34 119.534C1343.02 115.33 1345.47 111.49 1347.53 108.301H1349.01C1341.76 108.036 1333.92 108.363 1325.57 109.302C1314.85 110.508 1303.41 112.716 1291.49 115.905ZM1363.13 109.686L1366.32 110.469C1356.14 123.891 1343.93 144.419 1333.35 162.206C1329.31 169.009 1325.5 175.411 1322.14 180.862C1309.98 200.333 1297.22 219.69 1283.87 238.933L1281.36 243.056C1272.06 255.197 1262.53 267.453 1252.75 279.823C1243.21 292.423 1232.6 303.647 1220.92 313.498C1209.48 323.577 1196.84 331.709 1183.01 337.895C1180.47 339.072 1177.87 340.141 1175.22 341.102C1208.34 334.66 1246.51 319.831 1284.28 297.111C1328.61 270.442 1363.63 238.16 1384.49 207.698C1405.57 176.899 1411.27 149.446 1400.36 131.227C1393.61 119.945 1380.74 112.631 1363.13 109.686ZM1197.56 152.273C1108.1 206.089 1055.48 282.948 1080.03 323.942C1104.57 364.937 1196.99 354.543 1286.44 300.727C1375.9 246.911 1428.52 170.052 1403.97 129.057C1379.43 88.0632 1287.01 98.4572 1197.56 152.273Z" fill="#004BEF"/>
<path fill-rule="evenodd" clip-rule="evenodd" d="M355.513 54.2429C442.793 18.3473 528.223 1.67908 595.746 3.6857C629.51 4.68908 658.712 10.3593 681.413 20.5598C704.101 30.7551 720.2 45.4275 728.004 64.4209C742.157 98.8698 726.862 142.506 689.036 186.949V137.651L701.716 134.48V132.365H658.392V134.48L671.072 137.651V200.027H627.748V137.651L640.428 134.48V132.365H597.104V134.48L609.784 137.651V257.797C597.035 266.881 583.468 275.763 569.166 284.356C539.2 302.36 506.01 319.092 470.352 333.757C383.072 369.653 297.642 386.321 230.119 384.314C196.355 383.311 167.153 377.641 144.453 367.44C121.764 357.245 105.665 342.573 97.8611 323.579C84.7473 291.661 96.8999 251.857 128.909 210.77V272.976L115.172 278.262V280.376H146.872V278.262L133.135 272.976V150.338L183.856 283.548H187.027L232.464 150.338V275.09L219.784 278.262V280.376H263.108V278.262L250.428 275.09V137.651L263.108 134.48V132.365H233.521L192.099 253.946L161.901 174.62C208.475 130.113 275.813 87.0212 355.513 54.2429ZM160.542 171.049C207.449 126.547 274.76 83.644 354.174 50.9835C441.802 14.9446 527.727 -1.86127 595.851 0.163174C629.91 1.17533 659.605 6.89696 682.856 17.3451C706.118 27.7984 723.024 43.0315 731.262 63.081C746.539 100.266 729.032 146.56 689.036 192.342V275.09L701.716 278.262V280.376H658.392V278.262L671.072 275.09V204.256H627.748V275.09L640.428 278.262V280.376H597.104V278.262L609.784 275.09V262.117C597.554 270.752 584.596 279.196 570.979 287.377C540.857 305.475 507.508 322.286 471.691 337.017C384.063 373.055 298.138 389.861 230.014 387.837C195.955 386.825 166.26 381.103 143.009 370.655C119.747 360.202 102.841 344.968 94.6033 324.919C80.3682 290.271 94.6126 247.712 128.909 205.095V138.708L115.172 134.48V132.365H145.816L160.542 171.049ZM92.9318 139.766L66.3033 227.092L32.7006 137.651L45.3809 134.48V132.365H1V134.48L13.6802 137.651L57.6385 255.003C55.666 260.924 52.5664 265.575 48.3396 268.958C44.1129 272.342 37.4909 274.033 28.4739 274.033H26.1492L24.0358 273.61C23.3313 273.469 22.6973 273.258 22.1338 272.976L25.3038 287.777C25.8674 288.059 26.5014 288.27 27.2059 288.411C27.9103 288.552 28.6148 288.623 29.3192 288.623C30.0237 288.764 30.7986 288.834 31.6439 288.834C35.0253 288.834 38.125 288.27 40.9428 287.143C43.9015 286.015 46.5785 284.112 48.9736 281.434C51.3688 278.755 53.623 275.302 55.7364 271.073C57.8498 266.703 59.8927 261.346 61.8652 255.003L97.1586 139.766L110.896 134.48V132.365H79.1949V134.48L92.9318 139.766ZM358.666 259.655C356.27 264.73 355.073 270.227 355.073 276.148H312.805V204.256H332.882L342.393 223.286H344.506V180.997H342.393L332.882 200.027H312.805V136.594H352.96C352.96 142.514 354.157 148.012 356.552 153.087C358.947 158.161 361.977 162.531 365.64 166.196H367.753C367.471 164.364 367.26 162.461 367.119 160.487C366.978 158.796 366.837 157.034 366.696 155.201V149.281V142.303C366.837 140.189 366.978 138.356 367.119 136.805C367.26 135.114 367.471 133.634 367.753 132.365H282.161V134.48L294.842 137.651V275.09L282.161 278.262V280.376H369.866C369.585 279.108 369.373 277.628 369.232 275.936C369.092 274.386 368.951 272.624 368.81 270.65V263.461V257.752C368.951 255.778 369.092 253.946 369.232 252.254C369.373 250.281 369.585 248.378 369.866 246.545H367.753C364.09 250.21 361.061 254.58 358.666 259.655ZM427.96 136.805C431.764 134.55 435.638 133.422 439.583 133.422C445.923 133.422 451.77 136.524 457.124 142.726C462.619 148.787 466.987 157.668 470.227 169.368H473.397C473.115 167.253 472.904 165.069 472.763 162.813C472.622 160.84 472.481 158.725 472.34 156.47V149.281V142.937C472.481 140.682 472.622 138.567 472.763 136.594C472.904 134.48 473.115 132.365 473.397 130.251H470.227C468.114 130.815 466.071 132.083 464.098 134.057C462.267 135.889 460.787 137.863 459.66 139.977C457.969 138.004 455.997 136.242 453.743 134.691C451.77 133.281 449.375 132.013 446.557 130.885C443.88 129.757 440.851 129.193 437.47 129.193C431.411 129.193 425.423 130.815 419.506 134.057C413.589 137.158 408.235 141.951 403.444 148.435C398.795 154.778 394.991 162.813 392.032 172.54C389.214 182.125 387.805 193.402 387.805 206.371C387.805 219.339 389.214 230.687 392.032 240.413C394.991 249.999 398.865 258.034 403.656 264.518C408.587 270.861 414.152 275.654 420.351 278.896C426.551 281.998 432.961 283.548 439.583 283.548C444.655 283.548 449.445 282.491 453.954 280.376C458.463 278.262 462.408 275.302 465.789 271.496C469.311 267.549 472.199 262.968 474.454 257.752C476.708 252.395 478.117 246.545 478.681 240.202H475.51C474.947 245.7 473.538 250.845 471.284 255.637C469.17 260.43 466.493 264.589 463.253 268.113C460.153 271.637 456.701 274.386 452.897 276.359C449.093 278.332 445.36 279.319 441.696 279.319C437.188 279.319 432.891 278.192 428.805 275.936C424.719 273.681 421.126 269.804 418.027 264.307C414.927 258.668 412.461 251.197 410.63 241.894C408.798 232.449 407.882 220.608 407.882 206.371C407.882 192.133 408.798 180.363 410.63 171.06C412.461 161.615 414.857 154.144 417.815 148.646C420.774 143.008 424.155 139.061 427.96 136.805ZM556.925 278.262L544.245 275.09V136.594H566.435C566.435 142.514 567.633 148.012 570.028 153.087C572.423 158.161 575.452 162.531 579.115 166.196H581.229C580.947 164.364 580.736 162.461 580.595 160.487C580.454 158.796 580.313 157.034 580.172 155.201V149.281V142.303C580.313 140.189 580.454 138.356 580.595 136.805C580.736 135.114 580.947 133.634 581.229 132.365H489.297C489.438 133.634 489.579 135.114 489.72 136.805C489.861 138.356 490.001 140.189 490.142 142.303C490.283 144.276 490.354 146.602 490.354 149.281C490.354 151.254 490.283 153.228 490.142 155.201C490.001 157.034 489.861 158.796 489.72 160.487C489.579 162.461 489.438 164.364 489.297 166.196H491.41C495.074 162.531 498.103 158.161 500.498 153.087C502.893 148.012 504.091 142.514 504.091 136.594H526.281V275.09L513.601 278.262V280.376H556.925V278.262ZM814.562 240.413C817.521 230.687 819 219.339 819 206.371C819 193.402 817.521 182.125 814.562 172.54C811.744 162.813 807.94 154.778 803.15 148.435C798.5 141.951 793.217 137.158 787.299 134.057C781.382 130.815 775.394 129.193 769.336 129.193C763.277 129.193 757.289 130.815 751.372 134.057C745.454 137.158 740.101 141.951 735.31 148.435C730.661 154.778 726.857 162.813 723.898 172.54C721.08 182.125 719.671 193.402 719.671 206.371C719.671 219.339 721.08 230.687 723.898 240.413C726.857 249.999 730.661 258.034 735.31 264.518C740.101 270.861 745.454 275.654 751.372 278.896C757.289 281.998 763.277 283.548 769.336 283.548C775.394 283.548 781.382 281.998 787.299 278.896C793.217 275.654 798.5 270.861 803.15 264.518C807.94 258.034 811.744 249.999 814.562 240.413ZM796.175 170.425C798.007 179.87 798.923 191.852 798.923 206.371C798.923 220.89 798.007 232.942 796.175 242.528C794.485 251.972 792.16 259.514 789.201 265.152C786.384 270.791 783.213 274.738 779.691 276.993C776.169 279.249 772.717 280.376 769.336 280.376C765.954 280.376 762.502 279.249 758.98 276.993C755.458 274.738 752.217 270.791 749.259 265.152C746.441 259.514 744.116 251.972 742.284 242.528C740.594 232.942 739.748 220.89 739.748 206.371C739.748 191.852 740.594 179.87 742.284 170.425C744.116 160.84 746.441 153.228 749.259 147.589C752.217 141.951 755.458 138.004 758.98 135.748C762.502 133.493 765.954 132.365 769.336 132.365C772.717 132.365 776.169 133.493 779.691 135.748C783.213 138.004 786.384 141.951 789.201 147.589C792.16 153.228 794.485 160.84 796.175 170.425Z" fill="#1F4AF1"/>
</svg>
