<svg width="61" height="56" viewBox="0 0 61 56" fill="none" xmlns="http://www.w3.org/2000/svg">
<path d="M14.1731 44.4454C10.7782 41.8195 9.34555 37.6088 9.9309 32.7916C10.5159 27.9775 13.1168 22.6474 17.6449 17.9812C22.173 13.3149 27.7117 10.2571 32.9655 9.05433C38.2228 7.85071 43.0952 8.51682 46.49 11.1426C49.8849 13.7685 51.3175 17.9792 50.7322 22.7964C50.1472 27.6105 47.5463 32.9405 43.0182 37.6068C38.4901 42.2731 32.9514 45.3308 27.6976 46.5337C22.4403 47.7373 17.5679 47.0712 14.1731 44.4454Z" fill="#004BEF" stroke="#004BEF" stroke-width="2"/>
<path d="M33.2594 30.1262C33.2594 29.2499 33.1667 28.4915 32.9813 27.8511C32.8128 27.2107 32.5853 26.6883 32.2988 26.2838C32.0291 25.8625 31.7089 25.5592 31.3382 25.3738C30.9674 25.1716 30.5967 25.0705 30.2259 25.0705C29.872 25.0705 29.5181 25.1716 29.1642 25.3738C28.8272 25.5592 28.5154 25.8457 28.2289 26.2333C27.9593 26.6209 27.7402 27.118 27.5717 27.7247C27.4031 28.3314 27.3189 29.0392 27.3189 29.8481C27.3189 30.9267 27.4031 31.8367 27.5717 32.5782C27.757 33.3197 27.993 33.9264 28.2795 34.3983C28.566 34.8533 28.903 35.1819 29.2906 35.3842C29.6782 35.5864 30.0742 35.6875 30.4787 35.6875C30.7989 35.6875 31.1191 35.5864 31.4393 35.3842C31.7763 35.1819 32.0797 34.8617 32.3493 34.4236C32.619 33.9854 32.8381 33.4124 33.0066 32.7046C33.1751 31.9968 33.2594 31.1373 33.2594 30.1262ZM24.9174 26.84C24.9174 25.2221 25.0775 23.8318 25.3977 22.669C25.7179 21.5062 26.1392 20.554 26.6616 19.8125C27.2009 19.0541 27.8076 18.498 28.4817 18.1441C29.1726 17.7902 29.8804 17.6132 30.6051 17.6132C31.2961 17.6132 31.9112 17.7144 32.4504 17.9166C33.0066 18.102 33.47 18.3548 33.8408 18.6749C34.2284 18.9951 34.5233 19.3743 34.7255 19.8125C34.9278 20.2338 35.0289 20.6804 35.0289 21.1523C35.0289 21.3376 35.012 21.5062 34.9783 21.6578C34.9615 21.8095 34.9362 21.9275 34.9025 22.0117C34.8519 22.1297 34.8098 22.2224 34.7761 22.2898L32.6274 21.7842L32.7538 21.405C32.7875 21.2871 32.8128 21.1691 32.8296 21.0511C32.8633 20.9163 32.8802 20.7815 32.8802 20.6467C32.8802 19.7535 32.678 19.0878 32.2735 18.6497C31.869 18.2115 31.3129 17.9924 30.6051 17.9924C30.2175 17.9924 29.8215 18.1272 29.417 18.3969C29.0294 18.6497 28.6671 19.0794 28.33 19.6861C27.993 20.2928 27.7149 21.1017 27.4958 22.1128C27.2936 23.1071 27.1925 24.3458 27.1925 25.8288V27.0927C27.1925 27.0927 27.243 26.9664 27.3442 26.7136C27.4621 26.4439 27.6559 26.149 27.9256 25.8288C28.1952 25.5086 28.5322 25.2221 28.9367 24.9693C29.358 24.6997 29.872 24.5649 30.4787 24.5649C31.2034 24.5649 31.8775 24.6997 32.501 24.9693C33.1414 25.239 33.6891 25.6182 34.1441 26.1069C34.616 26.5956 34.9867 27.1854 35.2564 27.8764C35.526 28.5505 35.6608 29.3004 35.6608 30.1262C35.6608 31.0362 35.526 31.862 35.2564 32.6035C34.9867 33.3282 34.616 33.9517 34.1441 34.4741C33.6891 34.9797 33.1414 35.3757 32.501 35.6622C31.8775 35.9319 31.2034 36.0667 30.4787 36.0667C29.6529 36.0667 28.8946 35.915 28.2036 35.6117C27.5295 35.3083 26.9481 34.8112 26.4594 34.1202C25.9707 33.4293 25.5915 32.5361 25.3219 31.4407C25.0522 30.3284 24.9174 28.9634 24.9174 27.3455V26.84Z" fill="white"/>
</svg>
