<svg width="61" height="56" viewBox="0 0 61 56" fill="none" xmlns="http://www.w3.org/2000/svg">
<path d="M14.174 44.4449C10.7792 41.819 9.34653 37.6083 9.93187 32.7911C10.5168 27.977 13.1178 22.647 17.6459 17.9807C22.174 13.3145 27.7127 10.2567 32.9665 9.05384C38.2238 7.85023 43.0962 8.51633 46.491 11.1421C49.8858 13.768 51.3185 17.9787 50.7332 22.7959C50.1482 27.61 47.5473 32.9401 43.0192 37.6063C38.491 42.2726 32.9523 45.3304 27.6985 46.5332C22.4413 47.7368 17.5689 47.0707 14.174 44.4449Z" fill="#004BEF" stroke="#204BF1" stroke-width="2"/>
<path d="M29.7092 36.5611C30.2148 36.5611 30.7035 36.4431 31.1754 36.2072C31.6472 35.9713 32.0601 35.6174 32.414 35.1455C32.7848 34.6736 33.0797 34.0838 33.2988 33.376C33.5179 32.6513 33.6274 31.8171 33.6274 30.8734C33.6274 30.0139 33.501 29.2556 33.2482 28.5983C33.0123 27.9242 32.6752 27.3512 32.2371 26.8794C31.8158 26.4075 31.3018 26.0536 30.6951 25.8177C30.0884 25.5649 29.4227 25.4385 28.6981 25.4385C28.4116 25.4385 28.1419 25.4638 27.8891 25.5143C27.6363 25.5649 27.4088 25.6239 27.2066 25.6913C26.9707 25.7587 26.7516 25.8429 26.5494 25.9441L27.9397 18.9671C27.9397 18.9671 28.024 18.984 28.1925 19.0177C28.361 19.0514 28.5801 19.0851 28.8497 19.1188C29.1362 19.1525 29.448 19.1862 29.785 19.2199C30.1389 19.2368 30.4928 19.2452 30.8467 19.2452C31.386 19.2452 31.9 19.2199 32.3887 19.1694C32.8943 19.1188 33.3409 19.0598 33.7285 18.9924C34.1835 18.925 34.6133 18.8408 35.0177 18.7396L34.9924 18.9924C34.3521 19.7002 33.4673 20.2395 32.3382 20.6103C31.2091 20.9642 29.785 21.1411 28.0661 21.1411L27.3077 24.9329C27.4762 24.8992 27.6616 24.8571 27.8639 24.8065C28.0492 24.7728 28.2683 24.7475 28.5211 24.7307C28.7907 24.697 29.1025 24.6801 29.4564 24.6801C30.4676 24.6801 31.3776 24.8318 32.1865 25.1351C32.9954 25.4385 33.6864 25.8598 34.2594 26.3991C34.8323 26.9384 35.2705 27.5956 35.5739 28.3708C35.8772 29.1292 36.0289 29.9634 36.0289 30.8734C36.0289 31.7834 35.8772 32.6261 35.5739 33.4013C35.2705 34.1596 34.8492 34.8085 34.3099 35.3477C33.7875 35.887 33.1471 36.3083 32.3887 36.6117C31.6472 36.915 30.8383 37.0667 29.962 37.0667C29.3047 37.0667 28.6981 36.9571 28.1419 36.7381C27.5858 36.519 27.1055 36.2156 26.701 35.828C26.2966 35.4404 25.9764 34.9854 25.7404 34.463C25.5214 33.9405 25.4118 33.376 25.4118 32.7693C25.4118 31.5728 25.6562 30.688 26.1449 30.115C26.6505 29.5252 27.2487 29.2303 27.9397 29.2303C28.024 29.2303 28.1082 29.2387 28.1925 29.2556C28.2936 29.2724 28.3863 29.2893 28.4705 29.3061C28.5548 29.323 28.6306 29.3398 28.6981 29.3567L28.1925 31.379C27.4341 31.379 26.8611 31.5559 26.4735 31.9098C26.1028 32.2469 25.9174 32.7019 25.9174 33.2749C25.9174 33.6793 26.0101 34.0838 26.1955 34.4883C26.3977 34.8759 26.6673 35.2298 27.0044 35.55C27.3414 35.8533 27.7375 36.0977 28.1925 36.283C28.6643 36.4684 29.1699 36.5611 29.7092 36.5611Z" fill="white"/>
</svg>
