<svg width="61" height="56" viewBox="0 0 61 56" fill="none" xmlns="http://www.w3.org/2000/svg">
<path d="M14.174 44.4449C10.7792 41.819 9.34653 37.6083 9.93187 32.7911C10.5168 27.977 13.1178 22.647 17.6459 17.9807C22.174 13.3145 27.7127 10.2567 32.9665 9.05384C38.2238 7.85023 43.0962 8.51633 46.491 11.1421C49.8858 13.768 51.3185 17.9787 50.7332 22.7959C50.1482 27.61 47.5473 32.9401 43.0192 37.6063C38.491 42.2726 32.9523 45.3304 27.6985 46.5332C22.4413 47.7368 17.5689 47.0707 14.174 44.4449Z" fill="#004BEF" stroke="#204BF1" stroke-width="2"/>
<path d="M31.8375 36.0553L33.3543 36.4345V36.6873H28.1721V36.4345L29.6889 36.0553V20.0033H27.161V19.6241L31.8375 18.613V36.0553Z" fill="white"/>
</svg>
