<svg width="1512" height="173" viewBox="0 0 1512 173" fill="none" xmlns="http://www.w3.org/2000/svg">
<rect width="525" height="173" fill="white"/>
<path d="M42.1564 108.479L42.1564 109.527L38.1432 109.527L37.5559 112.478C38.0407 111.956 38.7072 111.695 39.5555 111.695C40.4878 111.695 41.2428 111.998 41.8208 112.604C42.3988 113.2 42.6878 113.979 42.6878 114.939C42.6878 115.946 42.3708 116.775 41.7369 117.428C41.103 118.08 40.278 118.407 39.2619 118.407C38.3203 118.407 37.5559 118.146 36.9686 117.624C36.3907 117.102 36.0877 116.407 36.0597 115.54L37.2623 115.54C37.3089 116.09 37.5186 116.538 37.8915 116.883C38.2644 117.227 38.7259 117.4 39.2759 117.4C39.8911 117.4 40.4039 117.176 40.814 116.729C41.2242 116.281 41.4293 115.727 41.4293 115.065C41.4293 114.375 41.2289 113.816 40.828 113.387C40.4272 112.949 39.9051 112.73 39.2619 112.73C38.4415 112.73 37.8076 113.051 37.3602 113.694L36.3394 113.624L37.2623 108.479L42.1564 108.479ZM47.2137 108.297C47.8103 108.297 48.3183 108.409 48.7378 108.632C49.1666 108.847 49.4929 109.113 49.7167 109.429C49.9404 109.746 50.1175 110.161 50.248 110.674C50.3785 111.177 50.4578 111.634 50.4857 112.044C50.5137 112.445 50.5277 112.93 50.5277 113.499C50.5277 114.021 50.5044 114.491 50.4578 114.911C50.4205 115.33 50.3319 115.769 50.1921 116.225C50.0616 116.682 49.8798 117.064 49.6467 117.372C49.4137 117.67 49.0967 117.917 48.6959 118.113C48.295 118.309 47.8196 118.407 47.2696 118.407C46.6916 118.407 46.1882 118.309 45.7594 118.113C45.3399 117.908 45.0136 117.656 44.7806 117.358C44.5475 117.06 44.3611 116.682 44.2212 116.225C44.0907 115.759 44.0068 115.321 43.9695 114.911C43.9323 114.491 43.9136 114.011 43.9136 113.471C43.9136 113.005 43.9229 112.599 43.9416 112.254C43.9695 111.909 44.0162 111.522 44.0814 111.093C44.156 110.655 44.2679 110.287 44.417 109.989C44.5662 109.681 44.7573 109.392 44.9903 109.122C45.2234 108.851 45.5263 108.646 45.8992 108.507C46.2814 108.367 46.7196 108.297 47.2137 108.297ZM47.9827 109.527C47.759 109.415 47.5026 109.36 47.2137 109.36C46.9247 109.36 46.6683 109.415 46.4446 109.527C46.2208 109.63 46.0391 109.751 45.8992 109.891C45.7594 110.031 45.6382 110.24 45.5357 110.52C45.4331 110.79 45.3585 111.019 45.3119 111.205C45.2746 111.392 45.242 111.662 45.214 112.016C45.1861 112.361 45.1721 112.608 45.1721 112.757C45.1721 112.897 45.1721 113.135 45.1721 113.471C45.1721 113.797 45.1768 114.067 45.1861 114.282C45.1954 114.496 45.2187 114.776 45.256 115.121C45.2933 115.466 45.3585 115.755 45.4518 115.988C45.545 116.211 45.6615 116.44 45.8013 116.673C45.9412 116.897 46.1323 117.069 46.3747 117.19C46.6264 117.302 46.9153 117.358 47.2416 117.358C47.5213 117.358 47.7683 117.307 47.9827 117.204C48.2065 117.102 48.3882 116.98 48.5281 116.841C48.6679 116.701 48.7844 116.505 48.8777 116.253C48.9802 115.992 49.0548 115.769 49.1014 115.582C49.148 115.386 49.1806 115.13 49.1993 114.813C49.2272 114.487 49.2412 114.249 49.2412 114.1C49.2505 113.941 49.2552 113.713 49.2552 113.415C49.2552 113.088 49.2552 112.855 49.2552 112.716C49.2552 112.576 49.2412 112.333 49.2133 111.988C49.1853 111.643 49.148 111.378 49.1014 111.191C49.0641 111.005 48.9942 110.777 48.8916 110.506C48.7891 110.236 48.6679 110.031 48.5281 109.891C48.3882 109.751 48.2065 109.63 47.9827 109.527ZM61.2761 107.989L55.6968 118.686L54.7459 118.686L60.3532 107.989L61.2761 107.989ZM54.718 108.269C55.4264 108.269 55.9671 108.497 56.34 108.954C56.7222 109.411 56.9133 110.073 56.9133 110.94C56.9133 111.891 56.7222 112.618 56.34 113.121C55.9578 113.624 55.3985 113.876 54.662 113.876C53.1612 113.876 52.4107 112.935 52.4107 111.052C52.4107 110.166 52.6111 109.481 53.012 108.996C53.4129 108.511 53.9815 108.269 54.718 108.269ZM55.8646 110.996C55.8646 109.718 55.4637 109.08 54.662 109.08C53.8603 109.08 53.4595 109.76 53.4595 111.121C53.4595 112.427 53.8603 113.079 54.662 113.079C55.4637 113.079 55.8646 112.385 55.8646 110.996ZM61.6816 112.813C62.3901 112.813 62.9308 113.042 63.3037 113.499C63.6859 113.955 63.877 114.617 63.877 115.484C63.877 116.435 63.6859 117.162 63.3037 117.666C62.9215 118.169 62.3621 118.421 61.6257 118.421C60.1248 118.421 59.3744 117.479 59.3744 115.596C59.3744 114.71 59.5748 114.025 59.9757 113.541C60.3765 113.056 60.9452 112.813 61.6816 112.813ZM62.8282 115.54C62.8282 114.263 62.4274 113.624 61.6257 113.624C60.824 113.624 60.4231 114.305 60.4231 115.666C60.4231 116.971 60.824 117.624 61.6257 117.624C62.4274 117.624 62.8282 116.929 62.8282 115.54Z" fill="black"/>
<rect x="525.526" y="0.526444" width="374.947" height="171.947" fill="#004BEF" stroke="white" stroke-width="1.05289"/>
<path d="M901 0H1269V173H901V0Z" fill="#D9D8FF"/>
<path d="M1269 0H1512V173H1269V0Z" fill="#EDEDED"/>
<path d="M38.6842 138.422L37.4257 138.422L38.2001 134.337L36.1091 134.337L36.1091 133.252L38.3938 133.252L39.0133 130.077L36.9223 130.077L36.9029 129.012L39.2069 129.012L39.9814 124.946L41.2399 124.946L40.4654 129.012L42.9824 129.012L43.7762 124.946L45.0154 124.946L44.2409 129.012L46.3319 129.012L46.3319 130.077L44.0473 130.077L43.4277 133.252L45.5187 133.252L45.5381 134.337L43.2341 134.337L42.4596 138.422L41.2205 138.422L41.9756 134.337L39.4586 134.337L38.6842 138.422ZM42.1886 133.252L42.7888 130.077L40.2524 130.077L39.6522 133.252L42.1886 133.252ZM57.2065 124.637L57.2065 126.224L49.9654 126.224L49.9654 130.522L56.3546 130.522L56.3546 132.052L49.9654 132.052L49.9654 138.422L48.1454 138.422L48.1454 124.637L57.2065 124.637ZM68.3242 124.637L68.3242 126.224L61.0831 126.224L61.0831 130.522L67.4723 130.522L67.4723 132.052L61.0831 132.052L61.0831 138.422L59.2631 138.422L59.2631 124.637L68.3242 124.637ZM79.4419 124.637L79.4419 126.224L72.2007 126.224L72.2007 130.522L78.59 130.522L78.59 132.052L72.2007 132.052L72.2007 138.422L70.3808 138.422L70.3808 124.637L79.4419 124.637ZM90.5596 124.637L90.5596 126.224L83.3184 126.224L83.3184 130.522L89.7077 130.522L89.7077 132.052L83.3184 132.052L83.3184 138.422L81.4984 138.422L81.4984 124.637L90.5596 124.637ZM101.677 124.637L101.677 126.224L94.4361 126.224L94.4361 130.522L100.825 130.522L100.825 132.052L94.4361 132.052L94.4361 138.422L92.6161 138.422L92.6161 124.637L101.677 124.637ZM112.795 124.637L112.795 126.224L105.554 126.224L105.554 130.522L111.943 130.522L111.943 132.052L105.554 132.052L105.554 138.422L103.734 138.422L103.734 124.637L112.795 124.637Z" fill="black"/>
<path d="M564.022 134.523L562.763 134.523L563.538 130.438L561.447 130.438L561.447 129.354L563.731 129.354L564.351 126.179L562.26 126.179L562.241 125.114L564.545 125.114L565.319 121.048L566.578 121.048L565.803 125.114L568.32 125.114L569.114 121.048L570.353 121.048L569.579 125.114L571.67 125.114L571.67 126.179L569.385 126.179L568.765 129.354L570.856 129.354L570.876 130.438L568.572 130.438L567.797 134.523L566.558 134.523L567.313 130.438L564.796 130.438L564.022 134.523ZM567.526 129.354L568.126 126.179L565.59 126.179L564.99 129.354L567.526 129.354ZM581.363 133.033L581.363 134.523L572.418 134.523C572.592 131.368 574.122 130.245 576.503 128.754C577.975 127.824 579.776 126.818 579.776 124.823C579.776 123.294 578.691 122.229 577.123 122.229C575.071 122.229 574.49 123.971 574.451 125.675L572.786 125.675L572.786 125.307C572.786 122.597 574.548 120.796 577.2 120.796C579.795 120.796 581.479 122.364 581.479 124.785C581.479 127.457 579.388 128.734 577.375 129.954C576.116 130.709 574.684 131.484 574.316 133.033L581.363 133.033ZM588.056 120.796C592.335 120.796 592.644 124.727 592.644 127.999C592.644 131.232 592.064 134.794 588.133 134.794C583.97 134.794 583.486 131.232 583.486 127.96C583.486 124.688 583.816 120.796 588.056 120.796ZM588.056 122.268C585.171 122.268 585.229 125.869 585.229 127.96C585.229 129.993 585.287 133.342 588.094 133.342C590.902 133.342 590.883 129.857 590.883 127.882C590.883 125.85 590.941 122.268 588.056 122.268ZM603.422 129.819L603.422 131.213L601.563 131.213L601.563 134.523L600.015 134.523L600.015 131.213L593.993 131.213L593.993 129.664L600.228 120.796L601.563 120.796L601.563 129.819L603.422 129.819ZM600.015 129.819L600.015 123.216L595.445 129.819L600.015 129.819ZM605.739 120.738L611.625 120.738C613.91 120.738 616.02 121.648 616.02 124.184C616.02 125.54 615.226 126.701 613.987 127.147C615.691 127.534 616.64 128.812 616.64 130.632C616.64 133.807 614.045 134.523 611.412 134.523L605.739 134.523L605.739 120.738ZM607.52 122.287L607.52 126.643L610.792 126.643C612.341 126.643 614.2 126.527 614.2 124.455C614.2 122.384 612.593 122.287 610.967 122.287L607.52 122.287ZM607.52 128.076L607.52 132.994L611.16 132.994C613 132.994 614.8 132.878 614.8 130.458C614.8 128.057 612.69 128.076 610.85 128.076L607.52 128.076ZM628.074 120.738L628.074 122.326L620.833 122.326L620.833 126.624L627.222 126.624L627.222 128.154L620.833 128.154L620.833 134.523L619.013 134.523L619.013 120.738L628.074 120.738ZM635.513 120.816L635.513 134.523L633.712 134.523L633.712 124.591L630.266 124.591L630.266 123.352C632.299 123.352 633.751 122.868 634.216 120.816L635.513 120.816Z" fill="white"/>
<path d="M938.521 132.914L937.262 132.914L938.037 128.829L935.946 128.829L935.946 127.745L938.23 127.745L938.85 124.569L936.759 124.569L936.74 123.504L939.044 123.504L939.818 119.439L941.077 119.439L940.302 123.504L942.819 123.504L943.613 119.439L944.852 119.439L944.078 123.504L946.169 123.504L946.169 124.569L943.884 124.569L943.264 127.745L945.355 127.745L945.375 128.829L943.071 128.829L942.296 132.914L941.057 132.914L941.812 128.829L939.295 128.829L938.521 132.914ZM942.025 127.745L942.626 124.569L940.089 124.569L939.489 127.745L942.025 127.745ZM947.963 119.129L952.455 119.129C957.101 119.129 959.289 121.181 959.289 125.905C959.289 130.397 957.45 132.914 952.784 132.914L947.963 132.914L947.963 119.129ZM949.783 120.697L949.783 131.346L952.551 131.346C956.036 131.346 957.489 129.661 957.489 126.118C957.489 122.44 956.211 120.697 952.474 120.697L949.783 120.697ZM961.034 129.603L962.66 129.603C962.834 130.939 963.783 131.752 965.177 131.752C967.539 131.752 968.081 129.158 968.236 127.28C968.275 126.873 968.275 126.738 968.275 126.37C967.5 127.628 966.455 128.248 964.925 128.248C962.428 128.248 960.724 126.447 960.724 123.795C960.724 121.046 962.563 119.187 965.254 119.187C969.224 119.187 969.979 122.749 969.979 125.886C969.979 129.003 969.069 133.185 965.119 133.185C962.834 133.185 961.189 131.869 961.034 129.603ZM965.177 120.658C963.57 120.658 962.466 121.878 962.466 123.737C962.466 125.402 963.376 126.776 965.177 126.776C966.861 126.776 967.984 125.576 967.984 123.775C967.984 121.878 966.861 120.658 965.177 120.658ZM972.354 119.129L976.845 119.129C981.492 119.129 983.68 121.181 983.68 125.905C983.68 130.397 981.841 132.914 977.175 132.914L972.354 132.914L972.354 119.129ZM974.174 120.697L974.174 131.346L976.942 131.346C980.427 131.346 981.879 129.661 981.879 126.118C981.879 122.44 980.602 120.697 976.865 120.697L974.174 120.697ZM987.651 125.576C986.451 125.073 985.754 124.027 985.754 122.691C985.754 120.62 987.438 119.187 989.839 119.187C992.201 119.187 993.885 120.6 993.885 122.614C993.885 123.969 993.247 124.995 992.007 125.576C993.614 126.138 994.428 127.28 994.428 128.926C994.428 131.539 992.627 133.185 989.781 133.185C987.051 133.185 985.231 131.539 985.231 129.042C985.231 127.377 986.102 126.138 987.651 125.576ZM989.839 120.658C988.406 120.658 987.438 121.51 987.438 122.807C987.438 124.105 988.406 124.957 989.839 124.957C991.272 124.957 992.201 124.105 992.201 122.807C992.201 121.491 991.272 120.658 989.839 120.658ZM989.781 126.292C988.135 126.292 986.954 127.435 986.954 129.003C986.954 130.629 988.154 131.791 989.82 131.791C991.523 131.791 992.704 130.649 992.704 129.022C992.704 127.396 991.523 126.292 989.781 126.292ZM1005.82 119.129L1005.82 120.716L998.584 120.716L998.584 125.015L1004.97 125.015L1004.97 126.544L998.584 126.544L998.584 132.914L996.764 132.914L996.764 119.129L1005.82 119.129ZM1016.94 119.129L1016.94 120.716L1009.7 120.716L1009.7 125.015L1016.09 125.015L1016.09 126.544L1009.7 126.544L1009.7 132.914L1007.88 132.914L1007.88 119.129L1016.94 119.129Z" fill="#004BEF"/>
<path d="M1315.02 124.68L1313.47 124.68L1314.42 119.656L1311.85 119.656L1311.85 118.323L1314.66 118.323L1315.42 114.418L1312.85 114.418L1312.83 113.109L1315.66 113.109L1316.61 108.109L1318.16 108.109L1317.21 113.109L1320.3 113.109L1321.28 108.109L1322.8 108.109L1321.85 113.109L1324.42 113.109L1324.42 114.418L1321.61 114.418L1320.85 118.323L1323.42 118.323L1323.45 119.656L1320.61 119.656L1319.66 124.68L1318.14 124.68L1319.06 119.656L1315.97 119.656L1315.02 124.68ZM1319.33 118.323L1320.06 114.418L1316.95 114.418L1316.21 118.323L1319.33 118.323ZM1338.37 107.728L1338.37 109.68L1328.87 109.68L1328.87 114.99L1337.75 114.99L1337.75 116.871L1328.87 116.871L1328.87 122.727L1338.48 122.727L1338.48 124.68L1326.63 124.68L1326.63 107.728L1338.37 107.728ZM1341.18 107.728L1346.71 107.728C1352.42 107.728 1355.11 110.252 1355.11 116.061C1355.11 121.585 1352.85 124.68 1347.11 124.68L1341.18 124.68L1341.18 107.728ZM1343.42 109.657L1343.42 122.751L1346.82 122.751C1351.11 122.751 1352.9 120.68 1352.9 116.323C1352.9 111.799 1351.32 109.657 1346.73 109.657L1343.42 109.657ZM1369.68 107.728L1369.68 109.68L1360.18 109.68L1360.18 114.99L1369.06 114.99L1369.06 116.871L1360.18 116.871L1360.18 122.727L1369.8 122.727L1369.8 124.68L1357.95 124.68L1357.95 107.728L1369.68 107.728ZM1372.5 107.728L1378.02 107.728C1383.74 107.728 1386.43 110.252 1386.43 116.061C1386.43 121.585 1384.17 124.68 1378.43 124.68L1372.5 124.68L1372.5 107.728ZM1374.74 109.657L1374.74 122.751L1378.14 122.751C1382.43 122.751 1384.21 120.68 1384.21 116.323C1384.21 111.799 1382.64 109.657 1378.05 109.657L1374.74 109.657ZM1401 107.728L1401 109.68L1391.5 109.68L1391.5 114.99L1400.38 114.99L1400.38 116.871L1391.5 116.871L1391.5 122.727L1401.12 122.727L1401.12 124.68L1389.26 124.68L1389.26 107.728L1401 107.728ZM1403.82 107.728L1409.34 107.728C1415.06 107.728 1417.75 110.252 1417.75 116.061C1417.75 121.585 1415.49 124.68 1409.75 124.68L1403.82 124.68L1403.82 107.728ZM1406.06 109.657L1406.06 122.751L1409.46 122.751C1413.75 122.751 1415.53 120.68 1415.53 116.323C1415.53 111.799 1413.96 109.657 1409.37 109.657L1406.06 109.657Z" fill="#004BEF"/>
<path d="M568.638 105.173L568.638 106.25L562.178 106.25C562.304 103.971 563.408 103.16 565.128 102.083C566.191 101.412 567.491 100.685 567.491 99.2444C567.491 98.1397 566.708 97.3706 565.576 97.3706C564.093 97.3706 563.674 98.6291 563.646 99.8597L562.443 99.8597L562.443 99.594C562.443 97.6363 563.716 96.3359 565.632 96.3359C567.505 96.3359 568.722 97.4685 568.722 99.2164C568.722 101.146 567.212 102.069 565.757 102.95C564.849 103.495 563.814 104.055 563.548 105.173L568.638 105.173ZM573.471 96.3359C576.562 96.3359 576.785 99.1745 576.785 101.538C576.785 103.873 576.366 106.446 573.527 106.446C570.521 106.446 570.171 103.873 570.171 101.51C570.171 99.1465 570.409 96.3359 573.471 96.3359ZM573.471 97.3986C571.388 97.3986 571.43 99.9995 571.43 101.51C571.43 102.978 571.472 105.397 573.499 105.397C575.527 105.397 575.513 102.88 575.513 101.454C575.513 99.9855 575.555 97.3986 573.471 97.3986ZM587.534 96.0282L581.955 106.725L581.004 106.725L586.611 96.0282L587.534 96.0282ZM580.976 96.3079C582.402 96.3079 583.171 97.2448 583.171 98.9787C583.171 100.88 582.388 101.915 580.92 101.915C579.438 101.915 578.669 100.95 578.669 99.0906C578.669 97.3147 579.494 96.3079 580.976 96.3079ZM580.92 97.1189C580.123 97.1189 579.717 97.8041 579.717 99.1605C579.717 100.475 580.123 101.118 580.92 101.118C581.997 101.118 582.122 99.8597 582.122 99.0346C582.122 97.7482 581.731 97.1189 580.92 97.1189ZM587.939 100.852C589.366 100.852 590.135 101.789 590.135 103.523C590.135 105.425 589.352 106.46 587.883 106.46C586.401 106.46 585.632 105.495 585.632 103.635C585.632 101.859 586.457 100.852 587.939 100.852ZM587.883 101.663C587.086 101.663 586.681 102.349 586.681 103.705C586.681 105.019 587.086 105.663 587.883 105.663C588.96 105.663 589.086 104.404 589.086 103.579C589.086 102.293 588.695 101.663 587.883 101.663Z" fill="white"/>
<path d="M945.064 103.556L945.064 104.633L938.603 104.633C938.729 102.354 939.834 101.543 941.554 100.466C942.617 99.7946 943.917 99.0675 943.917 97.6272C943.917 96.5225 943.134 95.7535 942.001 95.7535C940.519 95.7535 940.1 97.0119 940.072 98.2425L938.869 98.2425L938.869 97.9768C938.869 96.0191 940.142 94.7187 942.057 94.7187C943.931 94.7187 945.148 95.8513 945.148 97.5992C945.148 99.5289 943.637 100.452 942.183 101.333C941.274 101.878 940.24 102.437 939.974 103.556L945.064 103.556ZM949.897 94.7187C952.988 94.7187 953.211 97.5573 953.211 99.9205C953.211 102.256 952.792 104.829 949.953 104.829C946.947 104.829 946.597 102.256 946.597 99.8925C946.597 97.5293 946.835 94.7187 949.897 94.7187ZM949.897 95.7814C947.814 95.7814 947.856 98.3823 947.856 99.8925C947.856 101.361 947.898 103.78 949.925 103.78C951.953 103.78 951.939 101.263 951.939 99.8366C951.939 98.3683 951.981 95.7814 949.897 95.7814ZM963.96 94.4111L958.38 105.108L957.43 105.108L963.037 94.4111L963.96 94.4111ZM957.402 94.6907C958.828 94.6907 959.597 95.6276 959.597 97.3615C959.597 99.2632 958.814 100.298 957.346 100.298C955.863 100.298 955.094 99.3332 955.094 97.4734C955.094 95.6975 955.919 94.6907 957.402 94.6907ZM957.346 95.5018C956.549 95.5018 956.143 96.1869 956.143 97.5433C956.143 98.8577 956.549 99.501 957.346 99.501C958.422 99.501 958.548 98.2425 958.548 97.4175C958.548 96.131 958.157 95.5018 957.346 95.5018ZM964.365 99.2353C965.791 99.2353 966.561 100.172 966.561 101.906C966.561 103.808 965.778 104.843 964.309 104.843C962.827 104.843 962.058 103.878 962.058 102.018C962.058 100.242 962.883 99.2353 964.365 99.2353ZM964.309 100.046C963.512 100.046 963.107 100.731 963.107 102.088C963.107 103.402 963.512 104.046 964.309 104.046C965.386 104.046 965.512 102.787 965.512 101.962C965.512 100.676 965.12 100.046 964.309 100.046Z" fill="#004BEF"/>
<path d="M1323.87 76.4197L1323.87 88.5937L1322.28 88.5937L1322.28 79.7727L1319.21 79.7727L1319.21 78.6722C1321.02 78.6722 1322.31 78.2424 1322.72 76.4197L1323.87 76.4197ZM1332.04 76.4025C1335.84 76.4025 1336.11 79.8931 1336.11 82.799C1336.11 85.6706 1335.6 88.8345 1332.11 88.8345C1328.41 88.8345 1327.98 85.6706 1327.98 82.7647C1327.98 79.8587 1328.27 76.4025 1332.04 76.4025ZM1332.04 77.7093C1329.47 77.7093 1329.53 80.9076 1329.53 82.7647C1329.53 84.5701 1329.58 87.5449 1332.07 87.5449C1334.56 87.5449 1334.55 84.4498 1334.55 82.6959C1334.55 80.8904 1334.6 77.7093 1332.04 77.7093ZM1349.33 76.0242L1342.47 89.1784L1341.3 89.1784L1348.19 76.0242L1349.33 76.0242ZM1341.26 76.3681C1343.02 76.3681 1343.96 77.5202 1343.96 79.6524C1343.96 81.9909 1343 83.2633 1341.2 83.2633C1339.37 83.2633 1338.43 82.0769 1338.43 79.7899C1338.43 77.6062 1339.44 76.3681 1341.26 76.3681ZM1341.2 77.3654C1340.22 77.3654 1339.72 78.208 1339.72 79.8759C1339.72 81.4922 1340.22 82.2832 1341.2 82.2832C1342.52 82.2832 1342.67 80.7356 1342.67 79.7211C1342.67 78.1392 1342.19 77.3654 1341.2 77.3654ZM1349.83 81.9565C1351.58 81.9565 1352.53 83.1085 1352.53 85.2407C1352.53 87.5792 1351.56 88.8517 1349.76 88.8517C1347.94 88.8517 1346.99 87.6652 1346.99 85.3783C1346.99 83.1945 1348 81.9565 1349.83 81.9565ZM1349.76 82.9538C1348.78 82.9538 1348.28 83.7963 1348.28 85.4643C1348.28 87.0806 1348.78 87.8716 1349.76 87.8716C1351.08 87.8716 1351.24 86.324 1351.24 85.3095C1351.24 83.7276 1350.76 82.9538 1349.76 82.9538Z" fill="#004BEF"/>
</svg>
