<svg width="458" height="128" viewBox="0 0 458 128" fill="none" xmlns="http://www.w3.org/2000/svg">
<path d="M456.63 23.5691C457.178 26.6487 456.291 30.0038 453.909 33.6243C451.525 37.2501 447.686 41.0703 442.481 45.016C432.074 52.9056 416.386 61.1638 396.547 69.2955C356.886 85.5527 300.838 101.223 237.812 112.434C174.785 123.646 116.772 128.266 73.9372 126.684C52.5114 125.893 34.9383 123.551 22.4486 119.735C16.2023 117.826 11.2813 115.564 7.79249 112.983C4.30877 110.406 2.31879 107.563 1.77096 104.483C1.22313 101.404 2.1105 98.0486 4.49171 94.4281C6.87639 90.8022 10.7155 86.9821 15.9204 83.0363C26.3276 75.1467 42.0153 66.8886 61.8537 58.7568C101.515 42.4996 157.563 26.8296 220.589 15.6179C283.616 4.40621 341.629 -0.213877 384.464 1.36815C405.89 2.15947 423.463 4.50091 435.952 8.31743C442.199 10.2262 447.12 12.488 450.609 15.069C454.092 17.6462 456.082 20.4894 456.63 23.5691Z" stroke="#004BEF" stroke-width="2"/>
</svg>
