<svg width="191" height="76" viewBox="0 0 191 76" fill="none" xmlns="http://www.w3.org/2000/svg">
<g clip-path="url(#clip0_1456_2701)">
<path d="M9.45288 0.324219V15.0896H5.63288V0.324219H0V37.1409H5.63288V20.957H9.45288V37.1409H15.021V0.324219H9.45288Z" fill="black"/>
<path d="M24.6024 37.5259H23.5017C19.0343 37.5259 16.6387 35.0758 16.6387 30.5624V23.2119H22.2068V29.6597C22.2068 31.3361 22.7248 32.2388 24.0197 32.2388C25.3794 32.2388 25.8326 31.3361 25.8326 29.0794V28.2412C25.8326 25.5976 25.5736 24.6949 23.5665 22.0513L20.0702 17.4734C17.6746 14.3785 16.9624 12.0573 16.9624 8.38208V7.22149C16.9624 2.25672 19.4875 0 23.8902 0H24.9261C29.5231 0 31.336 1.9988 31.336 6.38328V12.4442H25.8973V7.09253C25.8973 5.86746 25.6383 4.9003 24.2787 4.9003C22.919 4.9003 22.66 5.7385 22.66 7.4794V8.18865C22.66 10.2519 23.0485 11.4125 24.9261 13.7982L28.4871 18.3761C31.0122 21.6645 31.7892 23.5343 31.7892 27.6609V28.8215C31.8539 34.3021 29.5231 37.5259 24.6024 37.5259Z" fill="black"/>
<path d="M46.2295 0.324219V5.67586H39.1075V15.3475H44.6756V20.8926H39.1075V31.5314H46.5533V37.1409H33.4746V0.324219H46.2295Z" fill="black"/>
<path d="M61.7027 30.2418H57.6237L56.8468 37.1409H51.8613L56.3935 0.324219H63.0623L67.8535 37.1409H62.4149L61.7027 30.2418ZM61.0552 24.7612L59.5661 11.1564L58.1417 24.7612H61.0552V24.7612Z" fill="black"/>
<path d="M74.3282 37.1409H68.6953V0.324219H77.7597C81.515 0.324219 83.3926 1.93616 83.3926 5.99824V12.5105C83.3926 15.6054 81.9682 16.766 80.9323 17.2173C82.1624 17.7332 83.3926 18.7648 83.3926 21.2149V34.1105C83.3926 35.5934 83.7163 36.3027 83.9106 36.8185V37.0764H78.3424C78.0834 36.6896 77.8245 36.0448 77.8245 34.046V23.0203C77.8245 21.4084 77.5007 20.6991 75.7526 20.6991H74.3282V37.1409ZM74.3282 15.4764H75.8173C77.3712 15.4764 77.8245 14.5093 77.8245 12.8329V7.67466C77.8245 6.06272 77.5007 5.28899 75.8173 5.28899H74.3282V15.4764Z" fill="black"/>
<path d="M94.7887 5.67586V37.1409H89.2206V5.67586H84.4941V0.324219H99.4504V5.67586H94.7887Z" fill="black"/>
<path d="M114.601 30.2418H110.522L109.745 37.1409H104.76L109.292 0.324219H115.896L120.687 37.1409H115.249L114.601 30.2418ZM113.954 24.7612L112.465 11.1564L111.04 24.7612H113.954Z" fill="black"/>
<path d="M126.707 0.324219L131.498 20.0544V0.324219H136.613V37.1409H132.081L126.707 15.9923V37.1409H121.592V0.324219H126.707Z" fill="black"/>
<path d="M138.686 0.324219H147.297C152.088 0.324219 153.577 3.03228 153.577 7.41675V29.7905C153.577 34.3039 151.894 37.1409 147.297 37.1409H138.686V0.324219ZM144.318 31.7893H145.678C147.361 31.7893 147.879 30.8866 147.879 28.9523V8.19048C147.879 6.06272 147.361 5.35347 145.937 5.35347H144.318V31.7893Z" fill="black"/>
<path d="M0 37.9141H8.61119C13.4024 37.9141 14.8915 40.6221 14.8915 45.0066V67.3803C14.8915 71.8938 13.2081 74.7308 8.61119 74.7308H0V37.9141ZM5.63288 69.3146H6.99254C8.67593 69.3146 9.1939 68.412 9.1939 66.4776V45.7803C9.1939 43.6526 8.67593 42.9433 7.25153 42.9433H5.63288V69.3146Z" fill="black"/>
<path d="M29.6533 37.9141V43.2012H22.4666V52.8729H28.0995V58.4824H22.4666V69.1212H29.9771V74.6663H16.8984V37.9141H29.6533Z" fill="black"/>
<path d="M38.911 75.0513H37.8103C33.3429 75.0513 30.9473 72.6012 30.9473 68.0877V60.7373H36.5154V67.1851C36.5154 68.8615 37.0334 69.7642 38.3283 69.7642C39.6879 69.7642 40.1412 68.8615 40.1412 66.6048V65.7665C40.1412 63.123 39.8822 62.2203 37.8751 59.5767L34.314 54.9988C31.9185 51.9039 31.2062 49.5827 31.2062 45.9075V44.7469C31.2062 39.8466 33.6666 37.5898 38.134 37.5898H39.17C43.7669 37.5898 45.5798 39.5886 45.5798 43.9731V50.034H40.1412V44.7469C40.1412 43.5218 39.8822 42.5546 38.5225 42.5546C37.1629 42.5546 36.9039 43.3928 36.9039 45.1337V45.7785C36.9039 47.8418 37.2923 49.0024 39.17 51.388L42.731 55.966C45.2561 59.2543 46.033 61.1242 46.033 65.2507V66.4113C46.1625 71.8919 43.8317 75.0513 38.911 75.0513Z" fill="black"/>
<path d="M53.3497 37.9141H47.7168V74.7308H53.3497V37.9141Z" fill="black"/>
<path d="M60.6649 75.1823C57.3629 75.1823 55.291 72.2808 55.291 68.4766V45.4581C55.291 41.3315 56.9097 37.5273 62.2188 37.5273H63.3195C69.3408 37.5273 70.053 41.4605 70.053 45.7805V49.5202H64.6144V45.3936C64.6144 43.7817 64.2259 42.879 62.8015 42.879C61.6361 42.879 61.0534 43.7817 61.0534 45.3936V66.9291C61.0534 68.67 61.7656 69.5727 62.8663 69.5727C64.2907 69.5727 64.9381 68.6055 64.9381 67.187V57.9667H62.413V52.3572H70.2473V74.7309H67.0747C67.01 74.5375 66.5568 72.7321 66.1035 71.1202C65.7151 72.3452 63.8374 75.2467 60.9886 75.2467H60.6649V75.1823Z" fill="black"/>
<path d="M77.2416 37.9141L82.0328 57.6442V37.9141H87.1477V74.6663H82.6155L77.2416 53.5176V74.6663H72.1914V37.9141H77.2416Z" fill="black"/>
<path d="M101.778 75.0513H100.678C96.2101 75.0513 93.8145 72.6012 93.8145 68.0877V60.7373H99.3826V67.1851C99.3826 68.8615 99.9006 69.7642 101.195 69.7642C102.555 69.7642 103.008 68.8615 103.008 66.6048V65.7665C103.008 63.123 102.749 62.2203 100.742 59.5767L97.1812 54.9988C94.7856 51.9039 94.0734 49.5827 94.0734 45.9075V44.7469C94.0734 39.8466 96.5338 37.5898 101.001 37.5898H102.037C106.634 37.5898 108.447 39.5886 108.447 43.9731V50.034H103.008V44.7469C103.008 43.5218 102.749 42.5546 101.39 42.5546C100.03 42.5546 99.7711 43.3928 99.7711 45.1337V45.7785C99.7711 47.8418 100.16 49.0024 102.037 51.388L105.598 55.966C108.123 59.2543 108.9 61.1242 108.9 65.2507V66.4113C109.03 71.8919 106.699 75.0513 101.778 75.0513Z" fill="black"/>
<path d="M119.845 67.185V58.674H125.349V67.185C125.349 71.1182 124.054 75.1158 118.615 75.1158H117.385C111.752 75.1158 110.457 71.0537 110.457 67.3785V44.9403C110.457 41.2006 112.076 37.5898 117.191 37.5898H118.486C124.636 37.5898 125.349 41.6519 125.349 45.2627V51.8394H119.845V45.3916C119.845 43.7797 119.327 42.9415 117.968 42.9415C116.608 42.9415 116.219 43.7152 116.219 45.3916V67.2495C116.219 68.8615 116.737 69.7641 118.032 69.7641C119.327 69.6997 119.845 68.668 119.845 67.185Z" fill="black"/>
<path d="M136.548 58.4824H132.728V74.6663H127.16V37.9141H132.728V52.615H136.548V37.9141H142.181V74.6663H136.548V58.4824Z" fill="black"/>
<path d="M159.468 66.4778C159.468 71.636 157.72 75.1178 152.346 75.1178H151.375C146.001 75.1178 144.123 71.636 144.123 66.4778V45.9739C144.123 40.8802 146.065 37.5273 151.31 37.5273H152.281C157.72 37.5273 159.468 40.8802 159.468 45.9094V66.4778ZM153.77 45.716C153.77 43.7817 153.123 42.879 151.828 42.879C150.403 42.879 149.821 43.8461 149.821 45.716V66.8646C149.821 68.4766 150.274 69.7016 151.828 69.7016C153.317 69.7016 153.705 68.4766 153.705 66.8646V45.716H153.77Z" fill="black"/>
<path d="M176.626 66.4778C176.626 71.636 174.878 75.1178 169.504 75.1178H168.533C163.159 75.1178 161.281 71.636 161.281 66.4778V45.9739C161.281 40.8802 163.224 37.5273 168.468 37.5273H169.439C174.878 37.5273 176.626 40.8802 176.626 45.9094V66.4778V66.4778ZM170.864 45.716C170.864 43.7817 170.216 42.879 168.921 42.879C167.497 42.879 166.914 43.8461 166.914 45.716V66.8646C166.914 68.4766 167.367 69.7016 168.921 69.7016C170.41 69.7016 170.799 68.4766 170.799 66.8646V45.716H170.864Z" fill="black"/>
<path d="M184.137 37.9141V68.9923H191V74.6663H178.504V37.9141H184.137Z" fill="black"/>
</g>
<defs>
<clipPath id="clip0_1456_2701">
<rect width="191" height="75.1808" fill="white"/>
</clipPath>
</defs>
</svg>
