<svg width="346" height="127" viewBox="0 0 346 127" fill="none" xmlns="http://www.w3.org/2000/svg">
<path d="M344.642 22.7506C346.104 28.9229 343.076 36.0877 335.784 43.8672C328.523 51.6126 317.223 59.7558 302.691 67.8053C273.638 83.8972 231.873 99.5018 184.287 110.777C136.7 122.052 92.3739 126.846 59.1895 125.501C42.5901 124.828 28.8376 122.621 18.8737 118.957C8.86591 115.276 2.9452 110.232 1.48273 104.06C0.0202703 97.8875 3.04806 90.7226 10.3405 82.9432C17.601 75.1977 28.9011 67.0545 43.4338 59.005C72.4864 42.9131 114.251 27.3085 161.838 16.0333C209.424 4.75803 253.75 -0.0361424 286.935 1.30918C303.534 1.98214 317.287 4.18933 327.251 7.85354C337.258 11.5339 343.179 16.5784 344.642 22.7506Z" stroke="#004BEF" stroke-width="2"/>
</svg>
