<svg width="133" height="97" viewBox="0 0 133 97" fill="none" xmlns="http://www.w3.org/2000/svg">
<path fill-rule="evenodd" clip-rule="evenodd" d="M49.7653 20.5437C32.2177 31.1027 18.3538 43.8835 10.0986 55.9441C1.75199 68.1381 -0.50371 79.0071 3.81406 86.2202C3.99838 86.5281 4.19421 86.8286 4.40135 87.1215C9.07553 93.004 18.0953 94.851 24.7453 94.7799C24.7453 94.7799 33.4756 93.7822 37.6283 91.7869C41.781 89.7916 45.7922 87.1614 49.6618 83.8963C53.437 80.6313 57.0707 76.9127 60.5628 72.7407C64.0549 68.6594 67.3582 64.3967 70.4727 59.9526C73.5873 55.5991 76.4659 51.3364 79.1086 47.1644C81.8456 42.9017 84.3467 39.0924 86.6118 35.7367L86.3287 35.4646C84.8186 37.1878 82.9782 39.2285 80.8074 41.5866C78.6367 43.854 76.23 46.0307 73.5873 48.1167C71.039 50.2027 68.302 51.9713 65.3762 53.4224C62.4504 54.8736 59.4302 55.5991 56.3157 55.5991C53.2955 55.5991 51.1247 55.0096 49.8034 53.8306C48.4821 52.6515 47.8214 51.0643 47.8214 49.069C47.8214 47.2551 48.3405 45.3505 49.3787 43.3552C50.3225 41.2692 51.8798 38.6843 54.0505 35.6006C56.2213 32.517 58.9583 28.7531 62.2616 24.309C65.4755 20.1052 69.2806 14.9277 73.6768 8.77637C65.8833 11.7757 57.801 15.7084 49.7653 20.5437ZM86.091 4.71336C82.6212 9.51148 76.9593 17.1769 73.7289 21.316C70.3312 25.6694 67.2638 29.66 64.5268 33.2879C61.8841 36.9157 59.7134 40.1355 58.0145 42.947C56.3157 45.6679 55.4662 47.8446 55.4662 49.4772C55.4662 52.1073 56.7876 53.4224 59.4302 53.4224C62.1672 53.4224 65.329 52.1527 68.9155 49.6132C72.5963 47.0737 76.4659 43.718 80.5243 39.5459C84.5826 35.2832 88.6882 30.431 92.8409 24.9892C96.1921 20.6238 101.453 12.3762 105.425 6.15011C106.486 4.48559 107.456 2.96556 108.272 1.70282H108.856C105.987 1.59775 102.887 1.72729 99.5818 2.09911C95.3362 2.57672 90.81 3.45081 86.091 4.71336ZM114.446 2.25106L115.709 2.56122C111.681 7.87516 106.848 16.0025 102.661 23.0448C101.059 25.7383 99.5523 28.2731 98.2206 30.431C93.4072 38.1401 88.3579 45.804 83.0725 53.4224L82.0816 55.055C78.4007 59.8619 74.6255 64.7141 70.7559 69.6117C66.9807 74.6 62.7807 79.0441 58.1561 82.944C53.6258 86.9346 48.6236 90.1544 43.1496 92.6032C42.1451 93.0692 41.1168 93.4924 40.0646 93.8729C53.1759 91.3226 68.2862 85.4513 83.2347 76.4563C100.782 65.8973 114.646 53.1165 122.901 41.0559C131.248 28.8619 133.504 17.9929 129.186 10.7798C126.512 6.31294 121.418 3.41703 114.446 2.25106ZM48.9084 19.1123C13.4995 40.419 -7.3292 70.8489 2.38634 87.0793C12.1019 103.31 48.6826 99.1945 84.0916 77.8877C119.501 56.581 140.329 26.1511 130.614 9.92072C120.898 -6.30968 84.3175 -2.19448 48.9084 19.1123Z" fill="white"/>
</svg>
