<svg width="69" height="57" viewBox="0 0 69 57" fill="none" xmlns="http://www.w3.org/2000/svg">
<path d="M42.918 9.79138C41.4961 11.7599 38.9486 15.2053 37.5267 17.0224C36.1048 18.8395 34.8211 20.5052 33.6757 22.0194C32.5698 23.5337 31.6614 24.8776 30.9504 26.0511C30.2395 27.1868 29.884 28.0953 29.884 28.7767C29.884 29.8746 30.437 30.4235 31.5429 30.4235C32.6883 30.4235 34.0114 29.8935 35.5123 28.8335C37.0527 27.7736 38.6721 26.3729 40.3704 24.6315C42.0688 22.8523 43.7869 20.8269 45.5248 18.5556C47.3022 16.2463 50.3632 11.3344 51.9826 8.83594L55.0947 9.19423C52.7644 12.2606 49.7905 17.5713 47.7761 20.8269C45.7618 24.0447 43.6487 27.2436 41.4369 30.4235L41.0222 31.1049C39.4818 33.1113 37.9019 35.1366 36.2825 37.1808C34.7026 39.2629 32.945 41.1179 31.0097 42.7457C29.1138 44.4113 27.0205 45.7552 24.7297 46.7774C22.4388 47.8373 19.8518 48.3673 16.9685 48.3673C15.6651 48.3673 14.4407 48.197 13.2953 47.8563C12.1104 47.5534 11.0835 47.1181 10.2145 46.5502C9.34561 45.9824 8.65441 45.301 8.14095 44.506C7.62749 43.711 7.03906 42.8713 7.03906 41.9628C7.03906 39.9943 7.48075 37.6563 7.48075 37.6563C7.48075 37.6563 8.27919 33.0185 10.2145 33.0185L8.14095 39.3126V43.067C8.14095 44.0134 10.4622 45.8276 10.4622 45.8276C10.8571 46.5847 12.3394 46.8214 12.3394 46.8214C12.9713 47.3135 14.5478 47.4839 14.5478 47.4839C15.3378 47.7489 16.1588 47.6859 17.0278 47.6859C18.8841 47.6859 20.6812 47.2695 22.4191 46.4366C24.157 45.6038 25.8356 44.506 27.455 43.1432C29.0348 41.7803 30.5555 40.2282 32.0169 38.4868C33.4782 36.7833 34.8606 35.0041 36.164 33.1491C37.4674 31.332 38.6721 29.5528 39.778 27.8114C40.9234 26.0322 41.9701 24.4422 42.918 23.0415L42.7995 22.928C42.1676 23.6472 41.3974 24.499 40.4889 25.4833C39.5805 26.4297 38.5733 27.3382 37.4674 28.2089C36.401 29.0796 35.2556 29.8178 34.0312 30.4235C32.8068 31.0292 31.5429 31.332 30.2395 31.332C28.9756 31.332 28.0672 31.086 27.5142 30.5938C26.9612 30.1017 26.6848 29.4392 26.6848 28.6064C26.6848 27.8493 26.902 27.0543 27.3365 26.2214C27.7314 25.3508 28.3831 24.2719 29.2916 22.9847C30.2 21.6976 31.3454 20.1266 32.7278 18.2716C34.1497 16.4167 35.8481 14.1075 37.8229 11.344L42.918 9.79138Z" fill="#204BF1"/>
<path d="M27.5349 16.7642C20.1986 21.1672 14.4057 26.4949 10.9585 31.518C7.46889 36.6029 6.54881 41.1033 8.33104 44.0728C10.1133 47.0424 14.5175 48.3473 20.6462 47.6596C26.7004 46.9803 34.1267 44.3743 41.463 39.9713C48.7993 35.5683 54.5921 30.2407 58.0393 25.2176C61.529 20.1326 62.4491 15.6323 60.6668 12.6627C58.8846 9.69314 54.4804 8.38823 48.3517 9.0759C42.2975 9.7552 34.8712 12.3612 27.5349 16.7642Z" stroke="#204BF1" stroke-width="1.54592"/>
</svg>
