<svg width="99" height="72" viewBox="0 0 99 72" fill="none" xmlns="http://www.w3.org/2000/svg">
<path fill-rule="evenodd" clip-rule="evenodd" d="M38.0144 17.0242C25.2103 24.7087 15.1573 33.9759 9.21287 42.6379C7.08308 45.7413 5.55079 48.6515 4.57425 51.317L4.0347 52.9547C2.80217 57.1849 3.06199 60.7185 4.62599 63.3245C7.33466 67.8377 14.3389 70.2077 25.0388 69.0071C25.6845 68.9347 26.3397 68.8495 27.0037 68.7515C27.4458 68.5716 27.8859 68.3768 28.3237 68.1669C31.3866 66.6991 34.3451 64.7643 37.1991 62.3624C39.9835 59.9605 42.6635 57.225 45.2391 54.156C47.8147 51.1536 50.2511 48.0178 52.5483 44.7486C54.8454 41.5461 56.9685 38.4103 58.9176 35.3412C60.9363 32.2054 62.781 29.4032 64.4517 26.9346L64.2428 26.7345C63.1291 28.0021 61.7717 29.5033 60.1706 31.238C58.5696 32.906 56.7945 34.5072 54.8454 36.0418C52.9659 37.5763 50.9472 38.8773 48.7893 39.9448C46.6313 41.0123 44.4038 41.5461 42.1067 41.5461C39.8791 41.5461 38.2781 41.1124 37.3035 40.245C36.329 39.3777 35.8417 38.2101 35.8417 36.7423C35.8417 35.4079 36.2245 34.0068 36.9903 32.539C37.6864 31.0045 38.8349 29.103 40.436 26.8345C42.037 24.5661 44.0557 21.7973 46.4921 18.528C48.4659 15.953 50.7421 12.8814 53.3205 9.31301C48.3128 11.3647 43.1553 13.9388 38.0144 17.0242ZM62.671 6.02903C60.1679 9.44785 56.9358 13.7883 54.9498 16.3263C52.4438 19.5288 50.1815 22.4644 48.1628 25.1332C46.2137 27.802 44.6126 30.1705 43.3596 32.2388C42.1067 34.2403 41.4802 35.8416 41.4802 37.0425C41.4802 38.9774 42.4547 39.9448 44.4038 39.9448C46.4225 39.9448 48.7545 39.0108 51.3997 37.1426C54.1145 35.2745 56.9685 32.8059 59.9618 29.7368C62.955 26.601 65.9831 23.0316 69.046 19.0284C71.5177 15.8171 75.3978 9.74997 78.327 5.16988C78.737 4.5288 79.1284 3.91685 79.4946 3.34595C77.8361 3.34271 76.0585 3.44335 74.1651 3.65579C70.5888 4.05707 66.723 4.85041 62.671 6.02903ZM84.9779 3.79851C82.2133 7.66029 79.0595 12.9504 76.2888 17.5981C75.1076 19.5795 73.996 21.4442 73.0138 23.0316C69.4637 28.7027 65.7395 34.3404 61.8413 39.9448L61.1104 41.1458C58.3955 44.6819 55.6111 48.2513 52.7571 51.8541C49.9727 55.5237 46.875 58.7929 43.4641 61.6618C41.3187 63.5467 39.0299 65.1978 36.5976 66.6151C44.3563 64.3515 52.795 60.6769 61.1895 55.6388C73.9936 47.9542 84.0466 38.687 89.9911 30.025C96.0835 21.1474 97.2866 13.8517 94.5779 9.33844C92.9275 6.58846 89.6823 4.63418 84.9779 3.79851ZM36.6273 14.7129C10.5112 30.3868 -4.85099 52.772 2.31474 64.7116C9.48047 76.6512 36.4607 73.6239 62.5767 57.95C88.6927 42.2761 104.055 19.8909 96.8892 7.95131C89.7235 -3.98828 62.7433 -0.961007 36.6273 14.7129Z" fill="#204BF1"/>
<svg width="96" height="97" viewBox="0 0 96 97" fill="none" xmlns="http://www.w3.org/2000/svg">
<path d="M59.8363 16.6031C57.8402 19.9423 54.2639 25.7866 52.2678 28.8689C50.2717 31.9513 48.4697 34.7767 46.8618 37.3453C45.3093 39.9139 44.034 42.1935 43.036 44.1842C42.0379 46.1106 41.5389 47.6517 41.5389 48.8076C41.5389 50.6698 42.3152 51.6009 43.8677 51.6009C45.4756 51.6009 47.3331 50.7019 49.44 48.9039C51.6025 47.1059 53.8758 44.73 56.26 41.7761C58.6442 38.758 61.0561 35.3225 63.4957 31.4696C65.9908 27.5525 70.2879 19.2206 72.5612 14.9824L76.9301 15.5902C73.6588 20.7916 69.484 29.8001 66.6562 35.3225C63.8284 40.7808 60.862 46.2069 57.757 51.6009L57.1748 52.7568C55.0124 56.1602 52.7946 59.5957 50.5212 63.0633C48.3034 66.5951 45.836 69.7416 43.1191 72.5028C40.4577 75.3283 37.519 77.6079 34.3031 79.3417C31.0872 81.1397 27.4555 82.0387 23.4079 82.0387C21.5782 82.0387 19.8593 81.7497 18.2514 81.1718C16.588 80.6581 15.1464 79.9196 13.9265 78.9564C12.7067 77.9932 11.7364 76.8373 11.0156 75.4888C10.2948 74.1403 9.46875 72.716 9.46875 71.1748C9.46875 67.8357 10.0888 63.8698 10.0888 63.8698C10.0888 63.8698 11.2097 56.0029 13.9265 56.0029L11.0156 66.6794V73.0479C11.0156 74.6533 14.2742 77.7306 14.2742 77.7306C14.8286 79.0149 16.9094 79.4164 16.9094 79.4164C17.7965 80.2512 20.0097 80.5402 20.0097 80.5402C21.1186 80.9897 22.2712 80.8828 23.4911 80.8828C26.0971 80.8828 28.6199 80.1765 31.0595 78.7638C33.4992 77.351 35.8556 75.4888 38.1289 73.1771C40.3468 70.8654 42.4815 68.2325 44.533 65.2787C46.5845 62.389 48.5252 59.3709 50.3549 56.2244C52.1846 53.1421 53.8758 50.124 55.4283 47.1701C57.0362 44.152 58.5055 41.455 59.8363 39.0791L59.6699 38.8864C58.7828 40.1065 57.7016 41.5514 56.4263 43.2209C55.151 44.8263 53.7371 46.3674 52.1846 47.8444C50.6876 49.3213 49.0796 50.5735 47.3608 51.6009C45.6419 52.6284 43.8677 53.1421 42.0379 53.1421C40.2636 53.1421 38.9884 52.7247 38.2121 51.8899C37.4359 51.0551 37.0477 49.9314 37.0477 48.5186C37.0477 47.2343 37.3527 45.8858 37.9626 44.4731C38.5171 42.9962 39.4319 41.1661 40.7072 38.9828C41.9825 36.7995 43.5904 34.1346 45.5311 30.988C47.5271 27.8415 49.9113 23.9244 52.6837 19.2367L59.8363 16.6031Z" fill="#204BF1"/>
<path d="M38.2424 28.4758C27.9689 35.9261 19.8636 44.9363 15.0443 53.422C10.179 61.9884 8.86765 69.6067 11.3848 74.6744C13.9019 79.7422 20.0824 81.9274 28.6271 80.7689C37.0913 79.6213 47.4841 75.2168 57.7576 67.7664C68.0311 60.3161 76.1363 51.3058 80.9557 42.8202C85.821 34.2538 87.1323 26.6355 84.6152 21.5677C82.0981 16.4999 75.9176 14.3148 67.3729 15.4733C58.9087 16.6209 48.5159 21.0254 38.2424 28.4758Z" stroke="#204BF1" stroke-width="2.59437"/>
<svg width="69" height="57" viewBox="0 0 69 57" fill="none" xmlns="http://www.w3.org/2000/svg">
<path d="M42.918 9.79138C41.4961 11.7599 38.9486 15.2053 37.5267 17.0224C36.1048 18.8395 34.8211 20.5052 33.6757 22.0194C32.5698 23.5337 31.6614 24.8776 30.9504 26.0511C30.2395 27.1868 29.884 28.0953 29.884 28.7767C29.884 29.8746 30.437 30.4235 31.5429 30.4235C32.6883 30.4235 34.0114 29.8935 35.5123 28.8335C37.0527 27.7736 38.6721 26.3729 40.3704 24.6315C42.0688 22.8523 43.7869 20.8269 45.5248 18.5556C47.3022 16.2463 50.3632 11.3344 51.9826 8.83594L55.0947 9.19423C52.7644 12.2606 49.7905 17.5713 47.7761 20.8269C45.7618 24.0447 43.6487 27.2436 41.4369 30.4235L41.0222 31.1049C39.4818 33.1113 37.9019 35.1366 36.2825 37.1808C34.7026 39.2629 32.945 41.1179 31.0097 42.7457C29.1138 44.4113 27.0205 45.7552 24.7297 46.7774C22.4388 47.8373 19.8518 48.3673 16.9685 48.3673C15.6651 48.3673 14.4407 48.197 13.2953 47.8563C12.1104 47.5534 11.0835 47.1181 10.2145 46.5502C9.34561 45.9824 8.65441 45.301 8.14095 44.506C7.62749 43.711 7.03906 42.8713 7.03906 41.9628C7.03906 39.9943 7.48075 37.6563 7.48075 37.6563C7.48075 37.6563 8.27919 33.0185 10.2145 33.0185L8.14095 39.3126V43.067C8.14095 44.0134 10.4622 45.8276 10.4622 45.8276C10.8571 46.5847 12.3394 46.8214 12.3394 46.8214C12.9713 47.3135 14.5478 47.4839 14.5478 47.4839C15.3378 47.7489 16.1588 47.6859 17.0278 47.6859C18.8841 47.6859 20.6812 47.2695 22.4191 46.4366C24.157 45.6038 25.8356 44.506 27.455 43.1432C29.0348 41.7803 30.5555 40.2282 32.0169 38.4868C33.4782 36.7833 34.8606 35.0041 36.164 33.1491C37.4674 31.332 38.6721 29.5528 39.778 27.8114C40.9234 26.0322 41.9701 24.4422 42.918 23.0415L42.7995 22.928C42.1676 23.6472 41.3974 24.499 40.4889 25.4833C39.5805 26.4297 38.5733 27.3382 37.4674 28.2089C36.401 29.0796 35.2556 29.8178 34.0312 30.4235C32.8068 31.0292 31.5429 31.332 30.2395 31.332C28.9756 31.332 28.0672 31.086 27.5142 30.5938C26.9612 30.1017 26.6848 29.4392 26.6848 28.6064C26.6848 27.8493 26.902 27.0543 27.3365 26.2214C27.7314 25.3508 28.3831 24.2719 29.2916 22.9847C30.2 21.6976 31.3454 20.1266 32.7278 18.2716C34.1497 16.4167 35.8481 14.1075 37.8229 11.344L42.918 9.79138Z" fill="#204BF1"/>
<path d="M27.5349 16.7642C20.1986 21.1672 14.4057 26.4949 10.9585 31.518C7.46889 36.6029 6.54881 41.1033 8.33104 44.0728C10.1133 47.0424 14.5175 48.3473 20.6462 47.6596C26.7004 46.9803 34.1267 44.3743 41.463 39.9713C48.7993 35.5683 54.5921 30.2407 58.0393 25.2176C61.529 20.1326 62.4491 15.6323 60.6668 12.6627C58.8846 9.69314 54.4804 8.38823 48.3517 9.0759C42.2975 9.7552 34.8712 12.3612 27.5349 16.7642Z" stroke="#204BF1" stroke-width="1.54592"/>
</svg>
