<svg width="96" height="97" viewBox="0 0 96 97" fill="none" xmlns="http://www.w3.org/2000/svg">
<path d="M59.8363 16.6031C57.8402 19.9423 54.2639 25.7866 52.2678 28.8689C50.2717 31.9513 48.4697 34.7767 46.8618 37.3453C45.3093 39.9139 44.034 42.1935 43.036 44.1842C42.0379 46.1106 41.5389 47.6517 41.5389 48.8076C41.5389 50.6698 42.3152 51.6009 43.8677 51.6009C45.4756 51.6009 47.3331 50.7019 49.44 48.9039C51.6025 47.1059 53.8758 44.73 56.26 41.7761C58.6442 38.758 61.0561 35.3225 63.4957 31.4696C65.9908 27.5525 70.2879 19.2206 72.5612 14.9824L76.9301 15.5902C73.6588 20.7916 69.484 29.8001 66.6562 35.3225C63.8284 40.7808 60.862 46.2069 57.757 51.6009L57.1748 52.7568C55.0124 56.1602 52.7946 59.5957 50.5212 63.0633C48.3034 66.5951 45.836 69.7416 43.1191 72.5028C40.4577 75.3283 37.519 77.6079 34.3031 79.3417C31.0872 81.1397 27.4555 82.0387 23.4079 82.0387C21.5782 82.0387 19.8593 81.7497 18.2514 81.1718C16.588 80.6581 15.1464 79.9196 13.9265 78.9564C12.7067 77.9932 11.7364 76.8373 11.0156 75.4888C10.2948 74.1403 9.46875 72.716 9.46875 71.1748C9.46875 67.8357 10.0888 63.8698 10.0888 63.8698C10.0888 63.8698 11.2097 56.0029 13.9265 56.0029L11.0156 66.6794V73.0479C11.0156 74.6533 14.2742 77.7306 14.2742 77.7306C14.8286 79.0149 16.9094 79.4164 16.9094 79.4164C17.7965 80.2512 20.0097 80.5402 20.0097 80.5402C21.1186 80.9897 22.2712 80.8828 23.4911 80.8828C26.0971 80.8828 28.6199 80.1765 31.0595 78.7638C33.4992 77.351 35.8556 75.4888 38.1289 73.1771C40.3468 70.8654 42.4815 68.2325 44.533 65.2787C46.5845 62.389 48.5252 59.3709 50.3549 56.2244C52.1846 53.1421 53.8758 50.124 55.4283 47.1701C57.0362 44.152 58.5055 41.455 59.8363 39.0791L59.6699 38.8864C58.7828 40.1065 57.7016 41.5514 56.4263 43.2209C55.151 44.8263 53.7371 46.3674 52.1846 47.8444C50.6876 49.3213 49.0796 50.5735 47.3608 51.6009C45.6419 52.6284 43.8677 53.1421 42.0379 53.1421C40.2636 53.1421 38.9884 52.7247 38.2121 51.8899C37.4359 51.0551 37.0477 49.9314 37.0477 48.5186C37.0477 47.2343 37.3527 45.8858 37.9626 44.4731C38.5171 42.9962 39.4319 41.1661 40.7072 38.9828C41.9825 36.7995 43.5904 34.1346 45.5311 30.988C47.5271 27.8415 49.9113 23.9244 52.6837 19.2367L59.8363 16.6031Z" fill="#204BF1"/>
<path d="M38.2424 28.4758C27.9689 35.9261 19.8636 44.9363 15.0443 53.422C10.179 61.9884 8.86765 69.6067 11.3848 74.6744C13.9019 79.7422 20.0824 81.9274 28.6271 80.7689C37.0913 79.6213 47.4841 75.2168 57.7576 67.7664C68.0311 60.3161 76.1363 51.3058 80.9557 42.8202C85.821 34.2538 87.1323 26.6355 84.6152 21.5677C82.0981 16.4999 75.9176 14.3148 67.3729 15.4733C58.9087 16.6209 48.5159 21.0254 38.2424 28.4758Z" stroke="#204BF1" stroke-width="2.59437"/>
</svg>
