<svg width="99" height="72" viewBox="0 0 99 72" fill="none" xmlns="http://www.w3.org/2000/svg">
<path fill-rule="evenodd" clip-rule="evenodd" d="M38.0144 17.0242C25.2103 24.7087 15.1573 33.9759 9.21287 42.6379C7.08308 45.7413 5.55079 48.6515 4.57425 51.317L4.0347 52.9547C2.80217 57.1849 3.06199 60.7185 4.62599 63.3245C7.33466 67.8377 14.3389 70.2077 25.0388 69.0071C25.6845 68.9347 26.3397 68.8495 27.0037 68.7515C27.4458 68.5716 27.8859 68.3768 28.3237 68.1669C31.3866 66.6991 34.3451 64.7643 37.1991 62.3624C39.9835 59.9605 42.6635 57.225 45.2391 54.156C47.8147 51.1536 50.2511 48.0178 52.5483 44.7486C54.8454 41.5461 56.9685 38.4103 58.9176 35.3412C60.9363 32.2054 62.781 29.4032 64.4517 26.9346L64.2428 26.7345C63.1291 28.0021 61.7717 29.5033 60.1706 31.238C58.5696 32.906 56.7945 34.5072 54.8454 36.0418C52.9659 37.5763 50.9472 38.8773 48.7893 39.9448C46.6313 41.0123 44.4038 41.5461 42.1067 41.5461C39.8791 41.5461 38.2781 41.1124 37.3035 40.245C36.329 39.3777 35.8417 38.2101 35.8417 36.7423C35.8417 35.4079 36.2245 34.0068 36.9903 32.539C37.6864 31.0045 38.8349 29.103 40.436 26.8345C42.037 24.5661 44.0557 21.7973 46.4921 18.528C48.4659 15.953 50.7421 12.8814 53.3205 9.31301C48.3128 11.3647 43.1553 13.9388 38.0144 17.0242ZM62.671 6.02903C60.1679 9.44785 56.9358 13.7883 54.9498 16.3263C52.4438 19.5288 50.1815 22.4644 48.1628 25.1332C46.2137 27.802 44.6126 30.1705 43.3596 32.2388C42.1067 34.2403 41.4802 35.8416 41.4802 37.0425C41.4802 38.9774 42.4547 39.9448 44.4038 39.9448C46.4225 39.9448 48.7545 39.0108 51.3997 37.1426C54.1145 35.2745 56.9685 32.8059 59.9618 29.7368C62.955 26.601 65.9831 23.0316 69.046 19.0284C71.5177 15.8171 75.3978 9.74997 78.327 5.16988C78.737 4.5288 79.1284 3.91685 79.4946 3.34595C77.8361 3.34271 76.0585 3.44335 74.1651 3.65579C70.5888 4.05707 66.723 4.85041 62.671 6.02903ZM84.9779 3.79851C82.2133 7.66029 79.0595 12.9504 76.2888 17.5981C75.1076 19.5795 73.996 21.4442 73.0138 23.0316C69.4637 28.7027 65.7395 34.3404 61.8413 39.9448L61.1104 41.1458C58.3955 44.6819 55.6111 48.2513 52.7571 51.8541C49.9727 55.5237 46.875 58.7929 43.4641 61.6618C41.3187 63.5467 39.0299 65.1978 36.5976 66.6151C44.3563 64.3515 52.795 60.6769 61.1895 55.6388C73.9936 47.9542 84.0466 38.687 89.9911 30.025C96.0835 21.1474 97.2866 13.8517 94.5779 9.33844C92.9275 6.58846 89.6823 4.63418 84.9779 3.79851ZM36.6273 14.7129C10.5112 30.3868 -4.85099 52.772 2.31474 64.7116C9.48047 76.6512 36.4607 73.6239 62.5767 57.95C88.6927 42.2761 104.055 19.8909 96.8892 7.95131C89.7235 -3.98828 62.7433 -0.961007 36.6273 14.7129Z" fill="#204BF1"/>
</svg>
