<svg width="270" height="128" viewBox="0 0 270 128" fill="none" xmlns="http://www.w3.org/2000/svg">
<path fill-rule="evenodd" clip-rule="evenodd" d="M117.015 17.8946C145.824 6.0527 174.022 0.553925 196.31 1.2159C207.454 1.54691 217.093 3.41749 224.586 6.78261C232.075 10.146 237.389 14.9864 239.965 21.2522C244.636 32.6168 239.588 47.0123 227.102 61.6737V45.4107L231.288 44.3644V43.6668H216.987V44.3644L221.173 45.4107V65.9884H206.873V45.4107L211.058 44.3644V43.6668H196.758V44.3644L200.943 45.4107V85.0464C196.735 88.0432 192.257 90.9733 187.536 93.8082C177.645 99.7475 166.69 105.267 154.921 110.105C126.112 121.947 97.9138 127.446 75.6261 126.784C64.4815 126.453 54.8426 124.583 47.3499 121.217C39.861 117.854 34.547 113.014 31.9713 106.748C27.6428 96.218 31.654 83.0869 42.2193 69.5323V90.0539L37.6851 91.7978V92.4953H48.1486V91.7978L43.6144 90.0539V49.596L60.356 93.5416H61.4024L76.4001 49.596V90.7514L72.2147 91.7978V92.4953H86.5149V91.7978L82.3295 90.7514V45.4107L86.5149 44.3644V43.6668H76.7489L63.0766 83.7759L53.1091 57.6064C68.482 42.924 90.7083 28.708 117.015 17.8946ZM52.6605 56.4285C68.1433 41.7476 90.3609 27.5939 116.573 16.8193C145.497 4.93017 173.859 -0.614029 196.344 0.0538306C207.586 0.387737 217.388 2.27528 225.062 5.72208C232.741 9.1706 238.321 14.196 241.04 20.8102C246.083 33.0773 240.304 48.3496 227.102 63.4531V90.7514L231.288 91.7978V92.4953H216.987V91.7978L221.173 90.7514V67.3835H206.873V90.7514L211.058 91.7978V92.4953H196.758V91.7978L200.943 90.7514V86.4715C196.907 89.3201 192.629 92.1059 188.135 94.8048C178.192 100.775 167.185 106.321 155.363 111.181C126.439 123.07 98.0773 128.614 75.5916 127.946C64.3494 127.612 54.5481 125.725 46.8735 122.278C39.1951 118.829 33.6149 113.804 30.896 107.19C26.1973 95.7596 30.899 81.7195 42.2193 67.6603V45.7595L37.6851 44.3644V43.6668H47.7998L52.6605 56.4285ZM30.3442 46.1083L21.5549 74.9171L10.4635 45.4107L14.6489 44.3644V43.6668H0V44.3644L4.18541 45.4107L18.6948 84.1247C18.0438 86.0779 17.0207 87.6125 15.6255 88.7286C14.2304 89.8446 12.0447 90.4027 9.06839 90.4027H8.30107L7.6035 90.2632C7.37098 90.2167 7.16171 90.1469 6.97569 90.0539L8.02204 94.9367C8.20806 95.0298 8.41733 95.0995 8.64985 95.146C8.88238 95.1925 9.1149 95.2158 9.34742 95.2158C9.57994 95.2623 9.83572 95.2855 10.1147 95.2855C11.2309 95.2855 12.254 95.0995 13.184 94.7275C14.1606 94.3555 15.0442 93.7277 15.8348 92.8441C16.6254 91.9605 17.3695 90.8212 18.067 89.4261C18.7646 87.9845 19.4389 86.2174 20.09 84.1247L31.7394 46.1083L36.2736 44.3644V43.6668H25.81V44.3644L30.3442 46.1083ZM118.056 85.6593C117.265 87.3335 116.87 89.1471 116.87 91.1002H102.919V67.3835H109.546L112.685 73.6615H113.382V59.7105H112.685L109.546 65.9884H102.919V45.0619H116.172C116.172 47.0151 116.568 48.8287 117.358 50.5028C118.149 52.1769 119.149 53.6185 120.358 54.8276H121.055C120.962 54.2231 120.893 53.5953 120.846 52.9442C120.8 52.3862 120.753 51.8049 120.707 51.2004V49.2472V46.9453C120.753 46.2478 120.8 45.6432 120.846 45.1317C120.893 44.5737 120.962 44.0854 121.055 43.6668H92.8039V44.3644L96.9893 45.4107V90.7514L92.8039 91.7978V92.4953H121.753C121.66 92.0768 121.59 91.5885 121.544 91.0305C121.497 90.5189 121.451 89.9376 121.404 89.2866V86.9149V85.0315C121.451 84.3805 121.497 83.7759 121.544 83.2179C121.59 82.5669 121.66 81.9391 121.753 81.3345H121.055C119.846 82.5436 118.846 83.9852 118.056 85.6593ZM140.928 45.1317C142.184 44.3876 143.462 44.0156 144.765 44.0156C146.857 44.0156 148.787 45.0387 150.554 47.0848C152.368 49.0845 153.81 52.0142 154.879 55.874H155.926C155.833 55.1764 155.763 54.4556 155.716 53.7116C155.67 53.0605 155.623 52.363 155.577 51.6189V49.2472V47.1546C155.623 46.4105 155.67 45.713 155.716 45.0619C155.763 44.3644 155.833 43.6668 155.926 42.9693H154.879C154.182 43.1553 153.507 43.5738 152.856 44.2249C152.252 44.8294 151.764 45.4805 151.391 46.178C150.833 45.527 150.182 44.9457 149.438 44.4341C148.787 43.9691 147.997 43.5506 147.067 43.1786C146.183 42.8065 145.183 42.6205 144.067 42.6205C142.067 42.6205 140.091 43.1553 138.138 44.2249C136.184 45.248 134.417 46.8291 132.836 48.9682C131.302 51.0609 130.046 53.7116 129.069 56.9203C128.139 60.0825 127.674 63.8028 127.674 68.0811C127.674 72.3594 128.139 76.1029 129.069 79.3116C130.046 82.4739 131.325 85.1245 132.906 87.2637C134.534 89.3564 136.37 90.9375 138.417 92.007C140.463 93.0301 142.579 93.5416 144.765 93.5416C146.439 93.5416 148.02 93.1929 149.508 92.4953C150.996 91.7978 152.298 90.8212 153.414 89.5656C154.577 88.2635 155.53 86.7522 156.274 85.0315C157.019 83.2644 157.484 81.3345 157.67 79.2419H156.623C156.437 81.0555 155.972 82.7529 155.228 84.334C154.531 85.9151 153.647 87.2869 152.577 88.4495C151.554 89.6121 150.415 90.5189 149.159 91.17C147.904 91.821 146.671 92.1465 145.462 92.1465C143.974 92.1465 142.556 91.7745 141.207 91.0305C139.858 90.2864 138.673 89.0076 137.649 87.1939C136.626 85.3338 135.812 82.8691 135.208 79.7999C134.603 76.6842 134.301 72.7779 134.301 68.0811C134.301 63.3842 134.603 59.5012 135.208 56.432C135.812 53.3163 136.603 50.8516 137.58 49.038C138.556 47.1778 139.672 45.8757 140.928 45.1317ZM183.496 91.7978L179.311 90.7514V45.0619H186.635C186.635 47.0151 187.03 48.8287 187.821 50.5028C188.612 52.1769 189.611 53.6185 190.82 54.8276H191.518C191.425 54.2231 191.355 53.5953 191.309 52.9442C191.262 52.3862 191.216 51.8049 191.169 51.2004V49.2472V46.9453C191.216 46.2478 191.262 45.6432 191.309 45.1317C191.355 44.5737 191.425 44.0854 191.518 43.6668H161.174C161.22 44.0854 161.267 44.5737 161.313 45.1317C161.36 45.6432 161.406 46.2478 161.453 46.9453C161.499 47.5964 161.523 48.3637 161.523 49.2472C161.523 49.8983 161.499 50.5493 161.453 51.2004C161.406 51.8049 161.36 52.3862 161.313 52.9442C161.267 53.5953 161.22 54.2231 161.174 54.8276H161.871C163.081 53.6185 164.08 52.1769 164.871 50.5028C165.661 48.8287 166.057 47.0151 166.057 45.0619H173.381V90.7514L169.196 91.7978V92.4953H183.496V91.7978ZM268.535 79.3116C269.512 76.1029 270 72.3594 270 68.0811C270 63.8028 269.512 60.0825 268.535 56.9203C267.605 53.7116 266.349 51.0609 264.768 48.9682C263.234 46.8291 261.49 45.248 259.536 44.2249C257.583 43.1553 255.607 42.6205 253.607 42.6205C251.607 42.6205 249.631 43.1553 247.678 44.2249C245.725 45.248 243.957 46.8291 242.376 48.9682C240.842 51.0609 239.586 53.7116 238.609 56.9203C237.679 60.0825 237.214 63.8028 237.214 68.0811C237.214 72.3594 237.679 76.1029 238.609 79.3116C239.586 82.4739 240.842 85.1245 242.376 87.2637C243.957 89.3564 245.725 90.9375 247.678 92.007C249.631 93.0301 251.607 93.5416 253.607 93.5416C255.607 93.5416 257.583 93.0301 259.536 92.007C261.49 90.9375 263.234 89.3564 264.768 87.2637C266.349 85.1245 267.605 82.4739 268.535 79.3116ZM262.466 56.2227C263.071 59.3385 263.373 63.2912 263.373 68.0811C263.373 72.8709 263.071 76.847 262.466 80.0092C261.908 83.1249 261.141 85.6128 260.164 87.473C259.234 89.3331 258.188 90.6352 257.025 91.3792C255.863 92.1233 254.723 92.4953 253.607 92.4953C252.491 92.4953 251.352 92.1233 250.189 91.3792C249.026 90.6352 247.957 89.3331 246.98 87.473C246.05 85.6128 245.283 83.1249 244.678 80.0092C244.12 76.847 243.841 72.8709 243.841 68.0811C243.841 63.2912 244.12 59.3385 244.678 56.2227C245.283 53.0605 246.05 50.5493 246.98 48.6892C247.957 46.8291 249.026 45.527 250.189 44.7829C251.352 44.0389 252.491 43.6668 253.607 43.6668C254.723 43.6668 255.863 44.0389 257.025 44.7829C258.188 45.527 259.234 46.8291 260.164 48.6892C261.141 50.5493 261.908 53.0605 262.466 56.2227Z" fill="white"/>
</svg>
