<svg width="116" height="97" viewBox="0 0 116 97" fill="none" xmlns="http://www.w3.org/2000/svg">
<path d="M72.2982 17.357C69.8863 20.6962 65.565 26.5406 63.153 29.6229C60.7411 32.7052 58.5637 35.5306 56.6207 38.0992C54.7448 40.6678 53.2038 42.9474 51.9979 44.9381C50.7919 46.8645 50.1889 48.4057 50.1889 49.5615C50.1889 51.4237 51.1269 52.3549 53.0029 52.3549C54.9458 52.3549 57.1902 51.4558 59.7361 49.6578C62.3491 47.8598 65.096 45.4839 67.9769 42.53C70.8578 39.5119 73.7722 36.0764 76.7201 32.2236C79.735 28.3065 84.9273 19.9745 87.6742 15.7363L92.9533 16.3441C89.0005 21.5455 83.9559 30.554 80.539 36.0764C77.1221 41.5347 73.5377 46.9608 69.7858 52.3549L69.0823 53.5107C66.4694 56.9141 63.7895 60.3496 61.0426 63.8172C58.3627 67.349 55.3813 70.4955 52.0984 73.2567C48.8825 76.0822 45.3316 78.3618 41.4457 80.0956C37.5598 81.8936 33.1715 82.7926 28.2806 82.7926C26.0697 82.7926 23.9928 82.5036 22.0498 81.9257C20.0399 81.412 18.298 80.6735 16.824 79.7103C15.35 78.7471 14.1776 77.5912 13.3066 76.2427C12.4356 74.8942 11.4375 73.4699 11.4375 71.9287C11.4375 68.5896 12.1867 64.6237 12.1867 64.6237C12.1867 64.6237 13.5411 56.7568 16.824 56.7568L13.3066 67.4333L13.3066 73.8018C13.3066 75.4072 17.2441 78.4845 17.2441 78.4845C17.914 79.7688 20.4283 80.1703 20.4283 80.1703C21.5003 81.0051 24.1744 81.2941 24.1744 81.2941C25.5144 81.7436 26.9072 81.6367 28.3811 81.6367C31.53 81.6367 34.5784 80.9304 37.5263 79.5177C40.4743 78.1049 43.3217 76.2427 46.0686 73.931C48.7485 71.6193 51.3279 68.9865 53.8068 66.0326C56.2857 63.1429 58.6307 60.1248 60.8416 56.9783C63.0525 53.896 65.096 50.8779 66.9719 47.924C68.9148 44.906 70.6903 42.2089 72.2982 39.833L72.0972 39.6403C71.0253 40.8604 69.7188 42.3053 68.1779 43.9748C66.6369 45.5802 64.9285 47.1214 63.0525 48.5983C61.2436 50.0752 59.3006 51.3274 57.2237 52.3549C55.1468 53.3823 53.0029 53.896 50.7919 53.896C48.648 53.896 47.107 53.4786 46.1691 52.6438C45.2311 51.809 44.7621 50.6853 44.7621 49.2725C44.7621 47.9883 45.1306 46.6397 45.8676 45.227C46.5376 43.7501 47.643 41.92 49.184 39.7367C50.7249 37.5534 52.6679 34.8885 55.0128 31.7419C57.4247 28.5954 60.3056 24.6783 63.6555 19.9907L72.2982 17.357Z" fill="#204BF1"/>
<path d="M46.1798 29.1801C33.7341 36.6496 23.9061 45.6881 18.0574 54.2107C12.1373 62.8371 10.5722 70.4776 13.5999 75.5224C16.6276 80.5671 24.1063 82.7799 34.5034 81.6133C44.7755 80.4607 57.3745 76.0393 69.8202 68.5698C82.2659 61.1004 92.0938 52.0619 97.9426 43.5393C103.863 34.9129 105.428 27.2724 102.4 22.2276C99.3724 17.1829 91.8937 14.9701 81.4966 16.1367C71.2245 17.2893 58.6255 21.7107 46.1798 29.1801Z" stroke="#004BEF" stroke-width="2.59437"/>
</svg>
