
<svg width="233" height="110" viewBox="0 0 233 110" fill="none" xmlns="http://www.w3.org/2000/svg">
<path fill-rule="evenodd" clip-rule="evenodd" d="M100.98 15.3782C125.841 5.20154 150.175 0.476029 169.408 1.04491C179.025 1.32938 187.344 2.9369 193.809 5.82881C200.272 8.71924 204.858 12.8789 207.081 18.2636C211.112 28.0301 206.755 40.4012 195.981 53.0009V39.0248L199.593 38.1256V37.5262H187.252V38.1256L190.864 39.0248V56.7088H178.524V39.0248L182.135 38.1256V37.5262H169.795V38.1256L173.407 39.0248V73.0867C169.775 75.6621 165.911 78.1802 161.837 80.6164C153.301 85.7205 143.848 90.4642 133.691 94.6219C108.83 104.798 84.496 109.524 65.2625 108.955C55.6451 108.671 47.3271 107.063 40.8612 104.171C34.3985 101.281 29.8128 97.1211 27.59 91.7364C23.8547 82.6873 27.3162 71.4028 36.4337 59.7543V77.3901L32.5208 78.8887V79.4882H41.5505V78.8887L37.6376 77.3901V42.6216L52.085 80.3874H52.988L65.9305 42.6216V77.9895L62.3186 78.8887V79.4882H74.6591V78.8887L71.0473 77.9895V39.0248L74.6591 38.1256V37.5262H66.2315L54.4327 71.995L45.8312 49.5055C59.0974 36.8878 78.2779 24.671 100.98 15.3782ZM45.444 48.4932C58.8052 35.8768 77.9781 23.7135 100.598 14.4541C125.559 4.23687 150.033 -0.527681 169.438 0.0462607C179.139 0.333211 187.598 1.95532 194.22 4.91741C200.847 7.88098 205.662 12.1997 208.009 17.8838C212.36 28.4258 207.373 41.5504 195.981 54.53V77.9895L199.593 78.8887V79.4882H187.252V78.8887L190.864 77.9895V57.9077H178.524V77.9895L182.135 78.8887V79.4882H169.795V78.8887L173.407 77.9895V74.3114C169.923 76.7595 166.232 79.1535 162.353 81.4729C153.773 86.6037 144.274 91.3698 134.072 95.5459C109.112 105.763 84.6371 110.528 65.2327 109.954C55.5312 109.667 47.073 108.045 40.4501 105.083C33.824 102.119 29.0084 97.8003 26.6621 92.1162C22.6073 82.2934 26.6647 70.2277 36.4337 58.1456V39.3246L32.5208 38.1256V37.5262H41.2495L45.444 48.4932ZM26.186 39.6243L18.6011 64.3819L9.02964 39.0248L12.6415 38.1256V37.5262H0V38.1256L3.61186 39.0248L16.133 72.2947C15.5711 73.9732 14.6882 75.292 13.4843 76.2511C12.2803 77.2102 10.3941 77.6898 7.82569 77.6898H7.16351L6.56154 77.5699C6.36088 77.5299 6.18029 77.47 6.01976 77.3901L6.92272 81.5863C7.08325 81.6662 7.26384 81.7261 7.4645 81.7661C7.66516 81.8061 7.86582 81.8261 8.06648 81.8261C8.26714 81.866 8.48786 81.886 8.72865 81.886C9.69181 81.886 10.5747 81.7261 11.3773 81.4064C12.2201 81.0867 12.9826 80.5472 13.6649 79.7879C14.3471 79.0286 14.9892 78.0495 15.5912 76.8506C16.1932 75.6117 16.7751 74.0931 17.3369 72.2947L27.3899 39.6243L31.3028 38.1256V37.5262H22.2731V38.1256L26.186 39.6243ZM101.878 73.6135C101.196 75.0522 100.855 76.6108 100.855 78.2893H88.815V57.9077H94.5338L97.2426 63.3028H97.8446V51.3137H97.2426L94.5338 56.7088H88.815V38.7251H100.253C100.253 40.4036 100.594 41.9622 101.276 43.4009C101.958 44.8396 102.821 46.0784 103.864 47.1175H104.466C104.386 46.598 104.326 46.0585 104.286 45.499C104.246 45.0194 104.206 44.5199 104.165 44.0003V42.3218V40.3436C104.206 39.7442 104.246 39.2247 104.286 38.785C104.326 38.3055 104.386 37.8859 104.466 37.5262H80.0863V38.1256L83.6982 39.0248V77.9895L80.0863 78.8887V79.4882H105.068C104.988 79.1285 104.928 78.7089 104.888 78.2293C104.848 77.7897 104.807 77.2902 104.767 76.7307V74.6925V73.074C104.807 72.5145 104.848 71.995 104.888 71.5154C104.928 70.9559 104.988 70.4164 105.068 69.8969H104.466C103.423 70.9359 102.56 72.1748 101.878 73.6135ZM121.616 38.785C122.699 38.1456 123.803 37.8259 124.926 37.8259C126.732 37.8259 128.398 38.7051 129.923 40.4635C131.488 42.182 132.732 44.6997 133.655 48.0167H134.558C134.478 47.4172 134.418 46.7978 134.378 46.1584C134.337 45.5989 134.297 44.9994 134.257 44.36V42.3218V40.5235C134.297 39.8841 134.337 39.2846 134.378 38.7251C134.418 38.1256 134.478 37.5262 134.558 36.9267H133.655C133.053 37.0866 132.471 37.4463 131.909 38.0058C131.388 38.5253 130.966 39.0848 130.645 39.6842C130.164 39.1247 129.602 38.6252 128.96 38.1856C128.398 37.786 127.716 37.4263 126.913 37.1066C126.15 36.7869 125.288 36.627 124.324 36.627C122.599 36.627 120.893 37.0866 119.208 38.0058C117.522 38.885 115.997 40.2437 114.633 42.0821C113.308 43.8804 112.225 46.1584 111.382 48.9159C110.579 51.6334 110.178 54.8305 110.178 58.5072C110.178 62.1838 110.579 65.4009 111.382 68.1584C112.225 70.876 113.328 73.1539 114.693 74.9922C116.097 76.7906 117.683 78.1494 119.448 79.0686C121.214 79.9478 123.04 80.3874 124.926 80.3874C126.371 80.3874 127.736 80.0876 129.02 79.4882C130.304 78.8887 131.428 78.0495 132.391 76.9705C133.394 75.8515 134.217 74.5526 134.859 73.074C135.501 71.5554 135.903 69.8969 136.063 68.0985H135.16C135 69.6571 134.598 71.1158 133.956 72.4745C133.354 73.8333 132.592 75.0122 131.669 76.0113C130.786 77.0104 129.802 77.7897 128.719 78.3492C127.635 78.9087 126.572 79.1884 125.528 79.1884C124.244 79.1884 123.02 78.8687 121.856 78.2293C120.693 77.5899 119.669 76.4909 118.786 74.9323C117.903 73.3337 117.201 71.2157 116.679 68.5781C116.158 65.9005 115.897 62.5435 115.897 58.5072C115.897 54.4708 116.158 51.1339 116.679 48.4962C117.201 45.8187 117.883 43.7006 118.726 42.142C119.569 40.5435 120.532 39.4245 121.616 38.785ZM158.35 78.8887L154.738 77.9895V38.7251H161.059C161.059 40.4036 161.4 41.9622 162.083 43.4009C162.765 44.8396 163.628 46.0784 164.671 47.1175H165.273C165.193 46.598 165.133 46.0585 165.092 45.499C165.052 45.0194 165.012 44.5199 164.972 44.0003V42.3218V40.3436C165.012 39.7442 165.052 39.2247 165.092 38.785C165.133 38.3055 165.193 37.8859 165.273 37.5262H139.087C139.127 37.8859 139.167 38.3055 139.207 38.785C139.248 39.2247 139.288 39.7442 139.328 40.3436C139.368 40.9031 139.388 41.5625 139.388 42.3218C139.388 42.8813 139.368 43.4408 139.328 44.0003C139.288 44.5199 139.248 45.0194 139.207 45.499C139.167 46.0585 139.127 46.598 139.087 47.1175H139.689C140.732 46.0784 141.595 44.8396 142.278 43.4009C142.96 41.9622 143.301 40.4036 143.301 38.7251H149.622V77.9895L146.01 78.8887V79.4882H158.35V78.8887ZM231.736 68.1584C232.579 65.4009 233 62.1838 233 58.5072C233 54.8305 232.579 51.6334 231.736 48.9159C230.933 46.1584 229.85 43.8804 228.485 42.0821C227.161 40.2437 225.656 38.885 223.97 38.0058C222.285 37.0866 220.579 36.627 218.854 36.627C217.128 36.627 215.422 37.0866 213.737 38.0058C212.051 38.885 210.526 40.2437 209.162 42.0821C207.837 43.8804 206.754 46.1584 205.911 48.9159C205.108 51.6334 204.707 54.8305 204.707 58.5072C204.707 62.1838 205.108 65.4009 205.911 68.1584C206.754 70.876 207.837 73.1539 209.162 74.9922C210.526 76.7906 212.051 78.1494 213.737 79.0686C215.422 79.9478 217.128 80.3874 218.854 80.3874C220.579 80.3874 222.285 79.9478 223.97 79.0686C225.656 78.1494 227.161 76.7906 228.485 74.9922C229.85 73.1539 230.933 70.876 231.736 68.1584ZM226.499 48.3164C227.02 50.994 227.281 54.3909 227.281 58.5072C227.281 62.6234 227.02 66.0404 226.499 68.7579C226.017 71.4355 225.355 73.5735 224.512 75.1721C223.71 76.7706 222.807 77.8896 221.803 78.529C220.8 79.1685 219.817 79.4882 218.854 79.4882C217.89 79.4882 216.907 79.1685 215.904 78.529C214.901 77.8896 213.978 76.7706 213.135 75.1721C212.332 73.5735 211.67 71.4355 211.148 68.7579C210.667 66.0404 210.426 62.6234 210.426 58.5072C210.426 54.3909 210.667 50.994 211.148 48.3164C211.67 45.5989 212.332 43.4408 213.135 41.8423C213.978 40.2437 214.901 39.1247 215.904 38.4853C216.907 37.8459 217.89 37.5262 218.854 37.5262C219.817 37.5262 220.8 37.8459 221.803 38.4853C222.807 39.1247 223.71 40.2437 224.512 41.8423C225.355 43.4408 226.017 45.5989 226.499 48.3164Z" fill="white"/>

<svg width="270" height="128" viewBox="0 0 270 128" fill="none" xmlns="http://www.w3.org/2000/svg">
<path fill-rule="evenodd" clip-rule="evenodd" d="M117.015 17.8946C145.824 6.0527 174.022 0.553925 196.31 1.2159C207.454 1.54691 217.093 3.41749 224.586 6.78261C232.075 10.146 237.389 14.9864 239.965 21.2522C244.636 32.6168 239.588 47.0123 227.102 61.6737V45.4107L231.288 44.3644V43.6668H216.987V44.3644L221.173 45.4107V65.9884H206.873V45.4107L211.058 44.3644V43.6668H196.758V44.3644L200.943 45.4107V85.0464C196.735 88.0432 192.257 90.9733 187.536 93.8082C177.645 99.7475 166.69 105.267 154.921 110.105C126.112 121.947 97.9138 127.446 75.6261 126.784C64.4815 126.453 54.8426 124.583 47.3499 121.217C39.861 117.854 34.547 113.014 31.9713 106.748C27.6428 96.218 31.654 83.0869 42.2193 69.5323V90.0539L37.6851 91.7978V92.4953H48.1486V91.7978L43.6144 90.0539V49.596L60.356 93.5416H61.4024L76.4001 49.596V90.7514L72.2147 91.7978V92.4953H86.5149V91.7978L82.3295 90.7514V45.4107L86.5149 44.3644V43.6668H76.7489L63.0766 83.7759L53.1091 57.6064C68.482 42.924 90.7083 28.708 117.015 17.8946ZM52.6605 56.4285C68.1433 41.7476 90.3609 27.5939 116.573 16.8193C145.497 4.93017 173.859 -0.614029 196.344 0.0538306C207.586 0.387737 217.388 2.27528 225.062 5.72208C232.741 9.1706 238.321 14.196 241.04 20.8102C246.083 33.0773 240.304 48.3496 227.102 63.4531V90.7514L231.288 91.7978V92.4953H216.987V91.7978L221.173 90.7514V67.3835H206.873V90.7514L211.058 91.7978V92.4953H196.758V91.7978L200.943 90.7514V86.4715C196.907 89.3201 192.629 92.1059 188.135 94.8048C178.192 100.775 167.185 106.321 155.363 111.181C126.439 123.07 98.0773 128.614 75.5916 127.946C64.3494 127.612 54.5481 125.725 46.8735 122.278C39.1951 118.829 33.6149 113.804 30.896 107.19C26.1973 95.7596 30.899 81.7195 42.2193 67.6603V45.7595L37.6851 44.3644V43.6668H47.7998L52.6605 56.4285ZM30.3442 46.1083L21.5549 74.9171L10.4635 45.4107L14.6489 44.3644V43.6668H0V44.3644L4.18541 45.4107L18.6948 84.1247C18.0438 86.0779 17.0207 87.6125 15.6255 88.7286C14.2304 89.8446 12.0447 90.4027 9.06839 90.4027H8.30107L7.6035 90.2632C7.37098 90.2167 7.16171 90.1469 6.97569 90.0539L8.02204 94.9367C8.20806 95.0298 8.41733 95.0995 8.64985 95.146C8.88238 95.1925 9.1149 95.2158 9.34742 95.2158C9.57994 95.2623 9.83572 95.2855 10.1147 95.2855C11.2309 95.2855 12.254 95.0995 13.184 94.7275C14.1606 94.3555 15.0442 93.7277 15.8348 92.8441C16.6254 91.9605 17.3695 90.8212 18.067 89.4261C18.7646 87.9845 19.4389 86.2174 20.09 84.1247L31.7394 46.1083L36.2736 44.3644V43.6668H25.81V44.3644L30.3442 46.1083ZM118.056 85.6593C117.265 87.3335 116.87 89.1471 116.87 91.1002H102.919V67.3835H109.546L112.685 73.6615H113.382V59.7105H112.685L109.546 65.9884H102.919V45.0619H116.172C116.172 47.0151 116.568 48.8287 117.358 50.5028C118.149 52.1769 119.149 53.6185 120.358 54.8276H121.055C120.962 54.2231 120.893 53.5953 120.846 52.9442C120.8 52.3862 120.753 51.8049 120.707 51.2004V49.2472V46.9453C120.753 46.2478 120.8 45.6432 120.846 45.1317C120.893 44.5737 120.962 44.0854 121.055 43.6668H92.8039V44.3644L96.9893 45.4107V90.7514L92.8039 91.7978V92.4953H121.753C121.66 92.0768 121.59 91.5885 121.544 91.0305C121.497 90.5189 121.451 89.9376 121.404 89.2866V86.9149V85.0315C121.451 84.3805 121.497 83.7759 121.544 83.2179C121.59 82.5669 121.66 81.9391 121.753 81.3345H121.055C119.846 82.5436 118.846 83.9852 118.056 85.6593ZM140.928 45.1317C142.184 44.3876 143.462 44.0156 144.765 44.0156C146.857 44.0156 148.787 45.0387 150.554 47.0848C152.368 49.0845 153.81 52.0142 154.879 55.874H155.926C155.833 55.1764 155.763 54.4556 155.716 53.7116C155.67 53.0605 155.623 52.363 155.577 51.6189V49.2472V47.1546C155.623 46.4105 155.67 45.713 155.716 45.0619C155.763 44.3644 155.833 43.6668 155.926 42.9693H154.879C154.182 43.1553 153.507 43.5738 152.856 44.2249C152.252 44.8294 151.764 45.4805 151.391 46.178C150.833 45.527 150.182 44.9457 149.438 44.4341C148.787 43.9691 147.997 43.5506 147.067 43.1786C146.183 42.8065 145.183 42.6205 144.067 42.6205C142.067 42.6205 140.091 43.1553 138.138 44.2249C136.184 45.248 134.417 46.8291 132.836 48.9682C131.302 51.0609 130.046 53.7116 129.069 56.9203C128.139 60.0825 127.674 63.8028 127.674 68.0811C127.674 72.3594 128.139 76.1029 129.069 79.3116C130.046 82.4739 131.325 85.1245 132.906 87.2637C134.534 89.3564 136.37 90.9375 138.417 92.007C140.463 93.0301 142.579 93.5416 144.765 93.5416C146.439 93.5416 148.02 93.1929 149.508 92.4953C150.996 91.7978 152.298 90.8212 153.414 89.5656C154.577 88.2635 155.53 86.7522 156.274 85.0315C157.019 83.2644 157.484 81.3345 157.67 79.2419H156.623C156.437 81.0555 155.972 82.7529 155.228 84.334C154.531 85.9151 153.647 87.2869 152.577 88.4495C151.554 89.6121 150.415 90.5189 149.159 91.17C147.904 91.821 146.671 92.1465 145.462 92.1465C143.974 92.1465 142.556 91.7745 141.207 91.0305C139.858 90.2864 138.673 89.0076 137.649 87.1939C136.626 85.3338 135.812 82.8691 135.208 79.7999C134.603 76.6842 134.301 72.7779 134.301 68.0811C134.301 63.3842 134.603 59.5012 135.208 56.432C135.812 53.3163 136.603 50.8516 137.58 49.038C138.556 47.1778 139.672 45.8757 140.928 45.1317ZM183.496 91.7978L179.311 90.7514V45.0619H186.635C186.635 47.0151 187.03 48.8287 187.821 50.5028C188.612 52.1769 189.611 53.6185 190.82 54.8276H191.518C191.425 54.2231 191.355 53.5953 191.309 52.9442C191.262 52.3862 191.216 51.8049 191.169 51.2004V49.2472V46.9453C191.216 46.2478 191.262 45.6432 191.309 45.1317C191.355 44.5737 191.425 44.0854 191.518 43.6668H161.174C161.22 44.0854 161.267 44.5737 161.313 45.1317C161.36 45.6432 161.406 46.2478 161.453 46.9453C161.499 47.5964 161.523 48.3637 161.523 49.2472C161.523 49.8983 161.499 50.5493 161.453 51.2004C161.406 51.8049 161.36 52.3862 161.313 52.9442C161.267 53.5953 161.22 54.2231 161.174 54.8276H161.871C163.081 53.6185 164.08 52.1769 164.871 50.5028C165.661 48.8287 166.057 47.0151 166.057 45.0619H173.381V90.7514L169.196 91.7978V92.4953H183.496V91.7978ZM268.535 79.3116C269.512 76.1029 270 72.3594 270 68.0811C270 63.8028 269.512 60.0825 268.535 56.9203C267.605 53.7116 266.349 51.0609 264.768 48.9682C263.234 46.8291 261.49 45.248 259.536 44.2249C257.583 43.1553 255.607 42.6205 253.607 42.6205C251.607 42.6205 249.631 43.1553 247.678 44.2249C245.725 45.248 243.957 46.8291 242.376 48.9682C240.842 51.0609 239.586 53.7116 238.609 56.9203C237.679 60.0825 237.214 63.8028 237.214 68.0811C237.214 72.3594 237.679 76.1029 238.609 79.3116C239.586 82.4739 240.842 85.1245 242.376 87.2637C243.957 89.3564 245.725 90.9375 247.678 92.007C249.631 93.0301 251.607 93.5416 253.607 93.5416C255.607 93.5416 257.583 93.0301 259.536 92.007C261.49 90.9375 263.234 89.3564 264.768 87.2637C266.349 85.1245 267.605 82.4739 268.535 79.3116ZM262.466 56.2227C263.071 59.3385 263.373 63.2912 263.373 68.0811C263.373 72.8709 263.071 76.847 262.466 80.0092C261.908 83.1249 261.141 85.6128 260.164 87.473C259.234 89.3331 258.188 90.6352 257.025 91.3792C255.863 92.1233 254.723 92.4953 253.607 92.4953C252.491 92.4953 251.352 92.1233 250.189 91.3792C249.026 90.6352 247.957 89.3331 246.98 87.473C246.05 85.6128 245.283 83.1249 244.678 80.0092C244.12 76.847 243.841 72.8709 243.841 68.0811C243.841 63.2912 244.12 59.3385 244.678 56.2227C245.283 53.0605 246.05 50.5493 246.98 48.6892C247.957 46.8291 249.026 45.527 250.189 44.7829C251.352 44.0389 252.491 43.6668 253.607 43.6668C254.723 43.6668 255.863 44.0389 257.025 44.7829C258.188 45.527 259.234 46.8291 260.164 48.6892C261.141 50.5493 261.908 53.0605 262.466 56.2227Z" fill="white"/>

</svg>
