<svg width="141" height="47" viewBox="0 0 141 47" fill="none" xmlns="http://www.w3.org/2000/svg">
<path d="M139.531 23.5C139.531 26.1018 137.951 28.8141 134.551 31.4937C131.167 34.1602 126.18 36.6258 119.887 38.7236C107.315 42.9142 89.8541 45.5312 70.5 45.5312C51.1459 45.5312 33.685 42.9142 21.1134 38.7236C14.82 36.6258 9.8329 34.1602 6.44936 31.4937C3.04926 28.8141 1.46875 26.1018 1.46875 23.5C1.46875 20.8982 3.04926 18.1859 6.44936 15.5063C9.8329 12.8398 14.82 10.3742 21.1134 8.27637C33.685 4.08584 51.1459 1.46875 70.5 1.46875C89.8541 1.46875 107.315 4.08584 119.887 8.27637C126.18 10.3742 131.167 12.8398 134.551 15.5063C137.951 18.1859 139.531 20.8982 139.531 23.5Z" stroke="#004BEF" stroke-width="2.9375"/>
<path d="M71.1756 35.9719L73.6431 36.5887V37H65.2125V36.5887L67.68 35.9719V9.8575H63.5675V9.24062L71.1756 7.59562V35.9719Z" fill="#004BEF"/>
</svg>
