<svg width="44" height="55" viewBox="0 0 44 55" fill="none" xmlns="http://www.w3.org/2000/svg">
<path d="M21.4334 18.4719C20.7543 18.4719 20.2261 18.6681 19.8488 19.0605C19.4715 19.4529 19.2828 20.049 19.2828 20.8489C19.2828 21.0753 19.3206 21.3016 19.396 21.528C19.4262 21.6487 19.464 21.7619 19.5092 21.8676L17.585 22.3203C17.5397 22.26 17.502 22.177 17.4718 22.0713C17.3964 21.8902 17.3586 21.6337 17.3586 21.3016C17.3586 20.8791 17.4492 20.4791 17.6303 20.1018C17.8114 19.7094 18.0755 19.3699 18.4226 19.0831C18.7697 18.7964 19.1923 18.57 19.6903 18.404C20.2035 18.2229 20.7845 18.1323 21.4334 18.1323C22.1126 18.1323 22.7162 18.2304 23.2445 18.4266C23.7878 18.6077 24.2405 18.8643 24.6027 19.1963C24.9649 19.5283 25.2441 19.9207 25.4403 20.3735C25.6365 20.8262 25.7346 21.3243 25.7346 21.8676C25.7346 22.6976 25.5535 23.3466 25.1913 23.8144C24.8442 24.2823 24.4594 24.6445 24.0368 24.901C23.5388 25.1878 22.9728 25.384 22.339 25.4896C23.1237 25.5953 23.818 25.8292 24.4216 26.1914C24.6782 26.3423 24.9347 26.531 25.1913 26.7573C25.4479 26.9837 25.6743 27.2554 25.8704 27.5723C26.0666 27.8741 26.2251 28.2288 26.3458 28.6363C26.4666 29.0438 26.5269 29.5041 26.5269 30.0172C26.5269 30.6661 26.3987 31.2773 26.1421 31.8508C25.9006 32.4092 25.5535 32.8997 25.1008 33.3223C24.648 33.7298 24.0972 34.0543 23.4482 34.2957C22.8143 34.5372 22.105 34.6579 21.3202 34.6579C20.6713 34.6579 20.0752 34.5523 19.5319 34.341C18.9886 34.1297 18.5207 33.843 18.1283 33.4808C17.751 33.1186 17.4492 32.7035 17.2228 32.2357C17.0115 31.7527 16.9059 31.2396 16.9059 30.6963C16.9059 29.5041 17.1247 28.6438 17.5624 28.1156C18.0151 27.5723 18.5509 27.3006 19.1697 27.3006C19.2451 27.3006 19.3206 27.3082 19.396 27.3233C19.4866 27.3384 19.5696 27.3535 19.6451 27.3686C19.7205 27.3837 19.7884 27.3987 19.8488 27.4138L19.396 29.2249C18.0378 29.2249 17.3586 29.8663 17.3586 31.1491C17.3586 31.5113 17.4492 31.881 17.6303 32.2583C17.8265 32.6205 18.0906 32.945 18.4226 33.2317C18.7546 33.5185 19.147 33.7524 19.5998 33.9335C20.0525 34.1146 20.5506 34.2052 21.0939 34.2052C22.1201 34.2052 22.92 33.8807 23.4935 33.2317C24.0821 32.5677 24.3764 31.4962 24.3764 30.0172C24.3764 28.4929 24.0896 27.3987 23.5161 26.7347C22.9426 26.0556 22.1729 25.716 21.2071 25.716H20.3015V25.2632H21.2071C22.0069 25.2632 22.6408 24.9991 23.1086 24.4709C23.5765 23.9276 23.8104 23.0598 23.8104 21.8676C23.8104 21.3092 23.7425 20.8187 23.6067 20.3961C23.4859 19.9585 23.3124 19.6038 23.086 19.3321C22.8747 19.0454 22.6257 18.8341 22.339 18.6983C22.0522 18.5474 21.7504 18.4719 21.4334 18.4719Z" fill="#004BEF"/>
<path d="M15.8762 49.3024C11.9795 48.2459 8.97172 44.9316 7.34642 40.207C5.72328 35.4886 5.52728 29.4669 7.20519 23.2783C8.88311 17.0897 12.094 11.9917 15.8782 8.73939C19.6674 5.48281 23.9374 4.14172 27.8341 5.19824C31.7309 6.25476 34.7386 9.56905 36.3639 14.2937C37.9871 19.012 38.1831 25.0337 36.5051 31.2224C34.8272 37.411 31.6164 42.509 27.8321 45.7613C24.0429 49.0178 19.773 50.3589 15.8762 49.3024Z" stroke="#004BEF" stroke-width="2"/>
</svg>
