<svg width="1687" height="416" viewBox="0 0 1687 416" fill="none" xmlns="http://www.w3.org/2000/svg">
<path d="M815.822 29.1256C1048.41 0.753139 1262.03 -4.73635 1419.38 9.30785C1498.06 16.331 1562.6 28.2328 1608.38 44.562C1631.27 52.7274 1649.4 61.9744 1662.25 72.2166C1675.09 82.4536 1682.58 93.6078 1684.42 105.61C1686.26 117.611 1682.4 130.149 1673.1 143.087C1663.8 156.032 1649.12 169.281 1629.53 182.629C1590.34 209.323 1531.75 236.244 1458.06 261.854C1310.71 313.067 1103.28 358.941 870.688 387.313C638.099 415.685 424.476 421.175 267.131 407.131C188.447 400.108 123.911 388.206 78.1333 371.877C55.2422 363.711 37.1148 354.464 24.262 344.222C11.4158 333.985 3.92888 322.831 2.09049 310.829C0.252096 298.827 4.10991 286.289 13.4062 273.351C22.7074 260.406 37.3888 247.157 56.9846 233.809C96.1724 207.115 154.761 180.194 228.446 154.584C375.796 103.372 583.233 57.4981 815.822 29.1256Z" fill="white" stroke="#004BEF" stroke-width="2.73044"/>
</svg>
