<svg width="160" height="839" viewBox="0 0 160 839" fill="none" xmlns="http://www.w3.org/2000/svg">
<rect x="1.39282" y="0.623291" width="157.069" height="378.961" rx="78.5346" fill="white" stroke="#004BEF" stroke-width="1.24658"/>
<path d="M68.082 254.284C68.082 251.417 69.0793 248.986 71.0738 246.992C73.0683 244.997 75.4992 244 78.3663 244C81.2335 244 83.6643 244.997 85.6588 246.992C87.6533 248.986 88.6506 251.417 88.6506 254.284C88.6506 257.151 87.6533 259.582 85.6588 261.577C83.6643 263.571 81.2335 264.569 78.3663 264.569C75.4992 264.569 73.0683 263.571 71.0738 261.577C69.0793 259.582 68.082 257.151 68.082 254.284ZM118.569 169.205C118.569 174.565 117.634 179.552 115.764 184.164C114.019 188.776 111.588 192.89 108.471 196.505C105.479 199.996 101.989 202.987 98 205.481C94.1356 207.849 90.0842 209.47 85.8458 210.342L81.1711 233.716H75.5615C75.3122 230.475 74.9382 227.233 74.4396 223.992C74.0656 221.25 73.5046 218.32 72.7567 215.204C72.0087 212.088 71.0738 209.22 69.9519 206.603C80.2985 206.603 88.0273 203.798 93.1383 198.188C98.2493 192.454 100.805 182.793 100.805 169.205C100.805 162.474 100.181 156.739 98.9349 152.002C97.6883 147.265 95.9431 143.401 93.6993 140.409C91.4554 137.417 88.7129 135.236 85.4718 133.865C82.2307 132.493 78.6156 131.808 74.6266 131.808C70.6375 131.808 66.8978 132.556 63.4073 134.052C59.9169 135.547 56.8628 137.604 54.245 140.222C51.6271 142.715 49.508 145.582 47.8874 148.824C46.3915 152.065 45.6436 155.43 45.6436 158.921C45.6436 162.162 46.8901 164.842 49.3833 166.961C52.0011 169.08 56.3642 170.14 62.4724 170.14L66.2121 185.099C65.7135 185.348 65.1526 185.535 64.5293 185.66C63.906 185.785 63.2204 185.909 62.4724 186.034C61.8491 186.034 61.2258 186.034 60.6025 186.034C55.3669 186.034 50.9415 183.977 47.3264 179.863C43.7114 175.625 41.9038 169.267 41.9038 160.791C41.9038 156.303 42.7764 152.127 44.5216 148.263C46.2668 144.273 48.6977 140.783 51.8141 137.791C54.9306 134.799 58.608 132.431 62.8464 130.686C67.0848 128.941 71.6348 128.068 76.4964 128.068C82.854 128.068 88.5883 129.065 93.6993 131.06C98.9349 133.054 103.36 135.859 106.975 139.474C110.715 143.089 113.582 147.452 115.577 152.563C117.571 157.55 118.569 163.097 118.569 169.205Z" fill="#004BEF"/>
<rect x="1.39282" y="459.365" width="157.069" height="378.961" rx="78.5346" fill="#004BEF" stroke="#004BEF" stroke-width="1.24658"/>
<path d="M94.8662 559.615C92.2733 557.82 89.7801 556.024 87.3867 554.229C84.9932 552.434 82.7993 550.814 80.8047 549.368C78.8102 547.972 77.04 546.825 75.4943 545.927C73.9984 545.03 72.8017 544.581 71.9041 544.581C70.4581 544.581 69.7351 545.279 69.7351 546.675C69.7351 548.121 70.4332 549.792 71.8293 551.686C73.2255 553.631 75.0704 555.675 77.3642 557.82C79.7077 559.964 82.3754 562.133 85.3672 564.327C88.4089 566.571 91.5752 568.715 94.8662 570.759V575.396C90.8272 572.454 86.6637 569.712 82.3754 567.169C78.137 564.626 73.9236 561.958 69.7351 559.166C70.5828 563.903 72.6521 568.415 75.9431 572.704C79.2839 577.042 83.4225 580.881 88.359 584.222L88.1346 584.746C82.6497 581.156 78.2368 577.067 74.8959 572.479C71.605 567.942 69.5855 563.329 68.8375 558.642C66.1948 556.698 63.5271 554.703 60.8345 552.659C58.092 550.664 55.6487 548.445 53.5046 546.002C51.3106 543.609 49.5405 540.966 48.1942 538.074C46.798 535.182 46.0999 531.916 46.0999 528.276C46.0999 526.63 46.3243 525.084 46.773 523.638C47.172 522.142 47.7454 520.846 48.4933 519.749C49.2413 518.652 50.1388 517.779 51.1859 517.131C52.2331 516.483 53.355 516.159 54.5517 516.159C57.1446 516.159 59.0394 517.031 60.2361 518.777C61.4328 520.472 62.0312 522.541 62.0312 524.985H61.8068C61.4079 523.19 60.6101 521.868 59.4134 521.02C58.1668 520.173 56.621 519.749 54.7761 519.749C53.5295 519.749 52.4325 519.998 51.4851 520.497C50.4879 520.996 49.6651 521.644 49.0169 522.442C48.3687 523.239 47.87 524.162 47.521 525.209C47.172 526.206 46.9974 527.253 46.9974 528.35C46.9974 530.694 47.5459 532.963 48.6429 535.157C49.7399 537.351 51.1859 539.47 52.981 541.514C54.7761 543.509 56.8205 545.429 59.1142 547.273C61.3581 549.118 63.7016 550.864 66.1449 552.509C68.5384 554.155 70.8819 555.675 73.1756 557.072C75.5192 558.518 77.6135 559.839 79.4584 561.036L79.608 560.886C78.6606 560.088 77.5387 559.116 76.2422 557.969C74.9957 556.822 73.7989 555.551 72.6521 554.155C71.5052 552.808 70.5329 551.362 69.7351 549.816C68.9373 548.271 68.5384 546.675 68.5384 545.03C68.5384 543.434 68.8625 542.287 69.5107 541.589C70.1589 540.891 71.0315 540.542 72.1285 540.542C73.1258 540.542 74.1729 540.816 75.2699 541.365C76.4168 541.863 77.8379 542.686 79.5332 543.833C81.2286 544.98 83.2979 546.426 85.7412 548.171C88.1845 549.966 91.2261 552.11 94.8662 554.603V559.615ZM94.8662 622.318C92.6223 620.672 90.553 619.176 88.6582 617.83C86.8132 616.484 85.1179 615.237 83.5721 614.09C80.331 611.747 77.788 610.076 75.9431 609.079C74.0981 608.132 72.677 607.658 71.6797 607.658C70.1838 607.658 69.4359 608.406 69.4359 609.902C69.4359 610.849 70.0093 612.295 71.1562 614.24C72.3529 616.185 74.4472 618.578 77.439 621.42C78.9348 622.816 80.6302 624.312 82.525 625.908C84.4198 627.504 86.539 629.149 88.8826 630.844L88.6582 631.592C83.8713 628.152 79.957 624.961 76.9154 622.019C75.1702 620.323 73.7491 618.827 72.6521 617.531C71.5551 616.235 70.7074 615.063 70.1091 614.016C69.5107 612.969 69.1118 612.021 68.9123 611.173C68.663 610.326 68.5384 609.528 68.5384 608.78C68.5384 607.484 68.9373 606.436 69.7351 605.639C70.5828 604.841 71.6548 604.442 72.9513 604.442C73.6493 604.442 74.3225 604.542 74.9707 604.741C75.6688 604.941 76.5165 605.314 77.5137 605.863L77.5885 605.713C76.4915 604.716 75.4444 603.719 74.4472 602.722C73.4998 601.724 72.6271 600.702 71.8293 599.655C70.8321 598.359 70.0343 597.062 69.4359 595.766C68.8375 594.469 68.5384 593.173 68.5384 591.876C68.5384 590.68 68.9123 589.682 69.6603 588.885C70.4082 588.087 71.4803 587.688 72.8765 587.688C73.5745 587.688 74.2976 587.837 75.0455 588.137C75.8433 588.486 76.5663 588.885 77.2146 589.333L77.2894 589.184C75.8433 587.887 74.5718 586.691 73.4748 585.594C72.3778 584.497 71.4554 583.449 70.7074 582.452C70.0093 581.455 69.4858 580.483 69.1367 579.535C68.7378 578.588 68.5384 577.64 68.5384 576.693C68.5384 574.948 69.0619 573.601 70.1091 572.654C70.6575 572.155 71.3058 571.781 72.0537 571.532C72.8017 571.283 73.5995 571.158 74.4472 571.158C75.7935 571.158 76.9653 571.532 77.9625 572.28C78.9598 573.028 79.4584 573.951 79.4584 575.047C79.4584 575.895 79.2091 576.518 78.7105 576.917C78.2617 577.366 77.7132 577.591 77.065 577.591C75.4694 577.591 74.6715 576.793 74.6715 575.197C74.6715 574.848 74.7463 574.524 74.8959 574.225C75.0954 573.876 75.3696 573.651 75.7187 573.552C75.3198 573.153 74.9209 572.903 74.522 572.804C74.123 572.704 73.774 572.654 73.4748 572.654C73.0261 572.654 72.5274 572.754 71.9789 572.953C71.4803 573.103 71.0315 573.352 70.6326 573.701C69.8348 574.449 69.4359 575.421 69.4359 576.618C69.4359 578.912 70.7074 581.405 73.2504 584.098C75.7935 586.84 79.608 590.081 84.6941 593.821C86.19 594.968 87.7357 596.115 89.3313 597.262C90.9768 598.408 92.747 599.655 94.6418 601.001L94.8662 606.087C92.2234 604.143 89.9297 602.422 87.985 600.927C86.0404 599.48 84.2951 598.209 82.7494 597.112C81.1039 595.965 79.7077 594.993 78.5609 594.195C77.414 593.447 76.4168 592.849 75.5691 592.4C74.7713 591.951 74.0732 591.627 73.4748 591.428C72.8765 591.228 72.328 591.128 71.8293 591.128C71.1312 591.128 70.6077 591.328 70.2586 591.727C69.9096 592.176 69.7351 592.699 69.7351 593.297C69.7351 594.295 70.0343 595.367 70.6326 596.514C71.231 597.66 72.1036 598.907 73.2504 600.253C74.2477 601.4 75.3946 602.597 76.691 603.844C78.0373 605.09 79.5083 606.387 81.1039 607.733C82.9987 609.328 85.1179 610.899 87.4615 612.445C89.8549 613.991 92.3231 615.561 94.8662 617.157V622.318ZM92.4727 644.316C93.1708 644.316 93.6944 644.117 94.0434 643.718C94.3925 643.369 94.567 642.92 94.567 642.372C94.567 641.325 94.1431 640.178 93.2955 638.931C92.4977 637.734 91.4755 636.538 90.2289 635.341C89.0322 634.144 87.7357 633.047 86.3395 632.05C84.9434 631.103 83.6968 630.38 82.5998 629.881C82.7993 630.978 83.1732 632.349 83.7217 633.995C84.3201 635.64 85.0431 637.211 85.8908 638.707C86.7384 640.252 87.7108 641.574 88.8078 642.671C89.9546 643.768 91.1763 644.316 92.4727 644.316ZM88.5086 656.433C87.262 655.685 85.8908 654.738 84.3949 653.591C82.899 652.494 81.4031 651.222 79.9072 649.776C78.4611 648.38 77.04 646.859 75.6439 645.214C74.2976 643.618 73.0759 641.948 71.9789 640.203C70.9318 638.457 70.0841 636.687 69.4359 634.892C68.8375 633.147 68.5384 631.427 68.5384 629.731C68.5384 627.637 69.0619 626.017 70.1091 624.87C71.206 623.723 72.7518 623.149 74.7463 623.149C76.9403 623.149 79.234 623.798 81.6275 625.094C84.0708 626.44 86.3146 628.136 88.359 630.18C90.4034 632.224 92.0987 634.468 93.4451 636.912C94.7914 639.355 95.4645 641.698 95.4645 643.942C95.4645 645.189 95.1903 646.161 94.6418 646.859C94.1431 647.557 93.3952 647.906 92.3979 647.906C91.2012 647.906 90.0294 647.258 88.8826 645.962C87.7856 644.665 86.7634 643.07 85.816 641.175C84.9184 639.33 84.0957 637.335 83.3477 635.191C82.6497 633.047 82.1261 631.152 81.7771 629.507C80.7798 628.958 79.6579 628.51 78.4113 628.161C77.1647 627.812 75.9181 627.637 74.6715 627.637C74.0732 627.637 73.4748 627.687 72.8765 627.787C72.328 627.936 71.8044 628.136 71.3058 628.385C70.857 628.684 70.483 629.058 70.1838 629.507C69.8847 630.006 69.7351 630.604 69.7351 631.302C69.7351 632.947 70.2586 634.867 71.3058 637.061C72.4028 639.305 73.8488 641.574 75.6439 643.868C77.439 646.161 79.4833 648.355 81.7771 650.45C84.0708 652.544 86.4393 654.339 88.8826 655.835L88.5086 656.433ZM87.9102 680.817C86.0653 679.67 84.0708 678.149 81.9266 676.254C79.8324 674.409 77.8628 672.39 76.0178 670.196C73.774 667.503 71.954 664.811 70.5578 662.118C69.2115 659.425 68.5384 656.783 68.5384 654.19C68.5384 652.345 69.0121 650.799 69.9595 649.553C70.9567 648.306 72.4028 647.683 74.2976 647.683C76.691 647.683 79.1343 648.356 81.6275 649.702C84.1206 651.098 86.3894 652.819 88.4338 654.863C90.5281 656.957 92.2234 659.226 93.5199 661.669C94.8163 664.162 95.4645 666.506 95.4645 668.7C95.4645 670.146 95.1903 671.393 94.6418 672.44C94.1431 673.537 93.2456 674.085 91.9492 674.085C91.3508 674.085 90.8522 673.911 90.4533 673.562C90.0544 673.263 89.7302 672.864 89.4809 672.365C89.2316 671.916 89.0322 671.393 88.8826 670.794C88.7828 670.246 88.708 669.747 88.6582 669.298C89.1568 669.498 89.6555 669.672 90.1541 669.822C90.7026 669.972 91.2511 670.046 91.7996 670.046C93.6445 670.046 94.567 669.174 94.567 667.429C94.567 666.132 93.9188 664.586 92.6223 662.791C91.3757 661.046 89.7801 659.376 87.8354 657.78C85.8908 656.234 83.7467 654.913 81.4031 653.816C79.0595 652.719 76.7907 652.17 74.5967 652.17C73.2504 652.17 72.1036 652.47 71.1562 653.068C70.2088 653.716 69.7351 654.688 69.7351 655.985C69.7351 657.73 70.3085 659.725 71.4554 661.968C72.6022 664.262 74.0233 666.481 75.7187 668.625C77.4639 670.869 79.4584 673.013 81.7023 675.058C83.996 677.152 86.2149 678.897 88.359 680.293L87.9102 680.817ZM69.1367 667.354C70.9817 668.451 73.0011 669.723 75.1951 671.169C77.3891 672.565 79.608 673.986 81.8518 675.432C84.1456 676.928 86.3894 678.374 88.5834 679.77C90.8272 681.216 92.9215 682.513 94.8662 683.66V688.222L80.9543 678.349L80.8047 678.499C81.9516 679.446 83.3477 680.593 84.9932 681.939C86.6886 683.286 88.3091 684.757 89.8549 686.352C91.4007 687.998 92.722 689.743 93.819 691.588C94.916 693.433 95.4645 695.328 95.4645 697.272C95.4645 698.469 95.1404 699.441 94.4922 700.189C93.8938 700.987 92.9963 701.386 91.7996 701.386C91.1015 701.386 90.2538 701.137 89.2565 700.638C88.2593 700.139 87.2371 699.541 86.19 698.843C85.1927 698.195 84.2204 697.522 83.273 696.823C82.3256 696.125 81.5527 695.577 80.9543 695.178L80.8047 695.328C82.3006 696.375 83.8962 697.621 85.5916 699.067C87.2869 700.563 88.8576 702.134 90.3037 703.779C91.7996 705.475 93.0212 707.195 93.9686 708.94C94.9659 710.735 95.4645 712.456 95.4645 714.101C95.4645 715.547 95.1155 716.619 94.4174 717.317C93.7193 718.065 92.747 718.439 91.5004 718.439C90.6527 718.439 89.6554 718.14 88.5086 717.542C87.3617 716.993 86.1401 716.27 84.8436 715.373C83.5971 714.525 82.3256 713.602 81.0291 712.605C79.7327 711.608 78.4861 710.661 77.2894 709.763C76.0926 708.915 74.9707 708.192 73.9236 707.594C72.9263 707.045 72.0787 706.771 71.3806 706.771C70.7822 706.771 70.3085 706.946 69.9595 707.295C69.6104 707.694 69.4359 708.167 69.4359 708.716C69.4359 709.913 69.9096 711.309 70.857 712.904C71.8044 714.55 73.1258 716.295 74.8211 718.14C76.5165 720.035 78.5359 722.004 80.8795 724.049C83.273 726.093 85.8908 728.163 88.733 730.257L88.4338 730.855C85.6415 728.811 83.0236 726.766 80.5803 724.722C78.1869 722.678 76.0926 720.683 74.2976 718.738C72.5025 716.844 71.0814 714.999 70.0343 713.204C69.037 711.458 68.5384 709.838 68.5384 708.342C68.5384 706.796 68.9622 705.649 69.8099 704.901C70.7074 704.153 71.8044 703.779 73.1008 703.779C74.0482 703.779 75.0954 704.054 76.2422 704.602C77.439 705.201 78.6606 705.924 79.9072 706.771C81.1538 707.669 82.4003 708.616 83.6469 709.613C84.8935 710.611 86.0902 711.533 87.2371 712.381C88.3839 713.278 89.4311 714.001 90.3785 714.55C91.3259 715.148 92.0987 715.447 92.6971 715.447C93.3952 715.447 93.8689 715.248 94.1182 714.849C94.4174 714.5 94.567 714.051 94.567 713.503C94.567 712.505 94.2179 711.334 93.5199 709.987C92.8716 708.641 91.9242 707.22 90.6776 705.724C89.4809 704.278 88.0598 702.782 86.4143 701.236C84.8187 699.691 83.0735 698.17 81.1787 696.674C79.3338 695.228 77.3642 693.857 75.2699 692.56C73.2255 691.264 71.1811 690.142 69.1367 689.194V684.408C71.6299 685.804 74.123 687.3 76.6162 688.895C79.1094 690.541 81.4031 692.062 83.4973 693.458C85.6415 694.854 87.4864 696.026 89.0322 696.973C90.6278 697.92 91.7996 698.394 92.5475 698.394C93.8938 698.394 94.567 697.696 94.567 696.3C94.567 695.053 94.0933 693.657 93.1459 692.111C92.2483 690.566 91.0516 688.995 89.5557 687.399C88.1097 685.804 86.4393 684.233 84.5445 682.687C82.6995 681.142 80.8297 679.671 78.9348 678.274C77.04 676.928 75.22 675.731 73.4748 674.684C71.7795 673.637 70.3334 672.814 69.1367 672.216V667.354ZM94.8662 733.472V738.184L83.6469 730.78V741.999L94.8662 749.628V754.789L82.0014 745.365C80.1066 744.018 78.5609 742.996 77.3642 742.298C75.6189 741.251 74.3225 740.603 73.4748 740.354C72.6271 740.154 72.0537 740.054 71.7545 740.054C70.9069 740.054 70.3085 740.254 69.9595 740.653C69.6104 741.052 69.4359 741.5 69.4359 741.999C69.4359 742.498 69.5356 743.096 69.7351 743.794C69.9844 744.542 70.4082 745.39 71.0066 746.337C71.6049 747.334 72.4277 748.431 73.4748 749.628C74.522 750.875 75.8683 752.296 77.5137 753.891C80.2064 756.534 83.996 759.651 88.8826 763.241L88.6582 763.989C83.7716 760.498 79.8324 757.282 76.8406 754.34C71.3058 748.955 68.5384 744.692 68.5384 741.55C68.5384 740.004 68.9373 738.783 69.7351 737.885C70.5329 737.038 71.5551 736.614 72.8017 736.614C73.2504 736.614 73.774 736.664 74.3724 736.763C75.0206 736.913 75.6937 737.137 76.3918 737.437C76.8905 737.686 77.5137 738.01 78.2617 738.409C79.0096 738.808 79.6579 739.207 80.2064 739.606L82.7494 741.326V730.256L69.1367 721.58V716.943L94.8662 733.472ZM88.0598 797.08C86.7135 795.883 85.6415 794.537 84.8436 793.041C84.0458 791.545 83.6469 790.074 83.6469 788.628C83.6469 787.232 83.9461 786.035 84.5445 785.038C85.1927 784.041 85.9406 783.268 86.7883 782.72V782.57C84.8935 782.071 82.874 781.149 80.7299 779.803C78.5858 778.456 76.6162 776.836 74.8211 774.941C73.0261 773.096 71.5302 771.052 70.3334 768.808C69.1367 766.564 68.5384 764.27 68.5384 761.927C68.5384 759.782 69.1617 758.162 70.4082 757.065C71.6548 755.968 73.3252 755.419 75.4195 755.419C76.5165 755.419 77.788 755.694 79.234 756.242C80.6801 756.791 82.1261 757.539 83.5721 758.486C85.068 759.483 86.5141 760.63 87.9102 761.927C89.3563 763.273 90.6278 764.719 91.7248 766.265C92.8716 767.81 93.7692 769.431 94.4174 771.126C95.1155 772.872 95.4645 774.617 95.4645 776.362C95.4645 778.406 94.8662 779.977 93.6694 781.074C92.4727 782.221 90.927 782.844 89.0322 782.944C87.8853 783.044 86.8132 783.567 85.816 784.515C84.8686 785.512 84.3949 786.858 84.3949 788.554C84.3949 790.049 84.7689 791.446 85.5168 792.742C86.2647 794.088 87.2371 795.335 88.4338 796.482L88.0598 797.08ZM73.6244 759.458C72.328 759.458 71.3058 759.708 70.5578 760.206C69.8099 760.705 69.4359 761.453 69.4359 762.45C69.4359 763.796 69.7849 765.118 70.483 766.414C71.231 767.761 72.1784 769.032 73.3252 770.229C74.522 771.475 75.8683 772.622 77.3642 773.669C78.8601 774.717 80.4058 775.614 82.0014 776.362C83.5971 777.16 85.1428 777.783 86.6387 778.232C88.1845 778.681 89.5807 778.905 90.8272 778.905C91.8744 778.905 92.747 778.631 93.4451 778.082C94.193 777.584 94.567 776.786 94.567 775.689C94.567 774.642 94.2179 773.52 93.5199 772.323C92.8716 771.126 91.999 769.905 90.902 768.658C89.805 767.461 88.5335 766.315 87.0875 765.218C85.6415 764.121 84.1456 763.123 82.5998 762.226C81.054 761.378 79.5083 760.705 77.9625 760.206C76.4168 759.708 74.9707 759.458 73.6244 759.458Z" fill="white"/>
</svg>
