<svg width="406" height="147" viewBox="0 0 406 147" fill="none" xmlns="http://www.w3.org/2000/svg">
<path d="M403.978 25.4789C405.664 32.5928 402.044 40.8569 393.456 49.8204C384.904 58.7461 371.628 68.144 354.584 77.4486C320.509 96.0507 271.581 114.169 215.88 127.366C160.18 140.564 108.324 146.327 69.5245 144.991C50.1175 144.324 34.0362 141.882 22.3888 137.742C10.6919 133.585 3.74859 127.824 2.063 120.71C0.377412 113.596 3.99756 105.332 12.5855 96.3684C21.1372 87.4427 34.4132 78.0448 51.4573 68.7402C85.5323 50.1381 134.461 32.0202 190.161 18.8223C245.862 5.62448 297.718 -0.13779 336.517 1.19732C355.924 1.86513 372.005 4.30704 383.653 8.44668C395.349 12.6039 402.293 18.365 403.978 25.4789Z" stroke="white" stroke-width="2"/>
</svg>
