<svg width="699" height="367" viewBox="0 0 699 367" fill="none" xmlns="http://www.w3.org/2000/svg">
<path fill-rule="evenodd" clip-rule="evenodd" d="M608.55 129.331C605.558 131.481 602.473 133.07 599.294 134.099C596.116 135.034 593.171 135.501 590.46 135.501C586.907 135.501 584.056 134.426 581.905 132.276C579.849 130.032 578.82 126.9 578.82 122.88C578.82 120.263 579.381 117.598 580.503 114.887C581.625 112.176 582.981 109.605 584.57 107.174C586.253 104.743 587.982 102.546 589.758 100.583C591.535 98.62 593.077 97.0307 594.386 95.8153C598.593 91.9823 602.707 89.2244 606.727 87.5416C610.84 85.8588 614.252 85.0174 616.964 85.0174C617.712 85.0174 618.553 85.1109 619.488 85.2979C620.423 85.4848 621.311 85.9055 622.152 86.56C622.994 87.1209 623.741 87.9623 624.396 89.0841C625.144 90.1125 625.611 91.4681 625.798 93.1509H626.219C627.251 90.6272 628.245 88.7257 629.199 86.899C630.578 84.2598 631.875 81.7768 633.09 77.7988C635.147 71.0676 636.176 64.1495 636.176 57.0443C636.176 51.622 635.1 47.8825 632.95 45.8257C631.267 44.2364 628.883 43.4418 625.798 43.4418C624.396 43.4418 622.853 43.7222 621.171 44.2832C619.488 44.8441 617.852 45.592 616.262 46.5269C614.393 47.7422 612.663 48.9108 611.074 50.0327L610.373 48.7706C612.71 46.9008 615.094 45.3115 617.525 44.0027C619.581 42.9743 621.591 42.1797 623.555 41.6187C625.611 41.0578 627.855 40.7773 630.286 40.7773C633.745 40.7773 636.456 41.6187 638.419 43.3015C641.598 45.9192 643.187 50.8274 643.187 58.026C643.187 60.2697 643 62.6536 642.626 65.1778C642.346 67.702 641.925 70.273 641.364 72.8906C640.803 75.5083 640.149 78.0792 639.401 80.6034C638.559 82.9406 636.636 88.1983 635.514 91.0029C634.682 93.081 633.606 95.4294 632.571 97.6856C632.209 98.4745 631.853 99.2521 631.514 100.003C630.684 101.78 629.662 103.658 628.668 105.486C628.093 106.543 627.528 107.583 627.014 108.576C626.192 110.165 624.965 111.72 623.822 113.168C623.275 113.862 622.747 114.531 622.292 115.167C620.89 117.224 619.301 119.234 617.525 121.197C615.842 123.067 613.785 125.03 611.354 127.087L608.55 129.331ZM607.988 90.0658C611.26 87.8221 614.018 86.7002 616.262 86.7002C620.656 86.7002 622.853 89.2711 622.853 94.413C622.853 95.8153 622.573 97.5916 622.012 99.7418C621.544 101.799 620.796 104.042 619.768 106.473C618.833 108.904 617.571 111.475 615.982 114.186C614.392 116.897 612.569 119.561 610.513 122.179C607.241 126.199 604.015 129.144 600.837 131.014C597.658 132.883 594.713 133.818 592.002 133.818C590.319 133.818 588.963 133.211 587.935 131.995C586.907 130.78 586.393 128.723 586.393 125.825C586.393 121.712 587.561 117.224 589.898 112.363C592.329 107.408 595.321 102.827 598.873 98.62C601.771 95.1609 604.81 92.3095 607.988 90.0658Z" fill="white"/>
<path d="M577.927 86.1383C574.561 90.6258 571.57 94.6458 568.952 98.1984C566.428 101.751 564.184 104.93 562.221 107.734C559.977 111.006 558.061 113.811 556.471 116.148C554.976 118.392 553.76 120.355 552.825 122.038C551.984 123.721 551.376 125.17 551.002 126.385C550.628 127.507 550.441 128.582 550.441 129.61C550.441 132.415 551.75 133.817 554.368 133.817C556.238 133.817 558.855 132.883 562.221 131.013C565.586 129.05 569.98 125.263 575.403 119.654C580.451 114.512 586.621 107.08 593.913 97.357L595.316 97.7777C591.95 102.546 588.631 106.893 585.359 110.819C582.181 114.652 579.142 118.065 576.244 121.056C571.476 126.011 567.129 129.657 563.203 131.994C559.369 134.332 556.097 135.5 553.386 135.5C550.675 135.5 548.572 134.799 547.076 133.397C545.58 131.901 544.832 129.938 544.832 127.507C544.832 124.609 545.58 121.664 547.076 118.672L546.795 118.532C542.682 123.3 538.568 127.18 534.455 130.171C529.5 133.724 524.966 135.5 520.852 135.5C515.43 135.5 512.719 133.07 512.719 128.208C512.719 127.18 512.952 125.777 513.42 124.001C513.887 122.225 515.243 119.42 517.487 115.587C518.422 114.091 519.497 112.455 520.712 110.679C521.927 108.903 523.376 106.846 525.059 104.509L538.241 86.1383H547.496L531.79 107.313C530.201 109.464 528.565 111.754 526.882 114.185C525.199 116.616 523.937 118.579 523.096 120.075C522.068 121.944 521.273 123.44 520.712 124.562C520.245 125.59 519.917 126.432 519.73 127.086C519.543 127.741 519.45 128.255 519.45 128.629C519.45 128.909 519.45 129.19 519.45 129.47C519.45 130.592 519.824 131.527 520.572 132.275C521.32 132.929 522.208 133.257 523.236 133.257C527.443 133.257 533.006 130.031 539.924 123.58C541.046 122.552 542.261 121.337 543.57 119.934C544.972 118.439 546.328 116.943 547.637 115.447C549.039 113.858 550.348 112.315 551.563 110.819C552.779 109.23 553.854 107.781 554.789 106.472C555.443 105.537 556.284 104.275 557.313 102.686C558.435 101.003 559.603 99.2267 560.819 97.357C562.127 95.3937 563.389 93.4304 564.605 91.4672C565.914 89.5039 567.129 87.7276 568.251 86.1383H577.927ZM584.518 59.4941C583.209 61.3639 581.807 63.2337 580.311 65.1034C578.909 66.8797 577.086 68.5158 574.842 70.0116C572.972 71.2269 570.962 72.2086 568.812 72.9565C566.662 73.7044 564.091 74.0783 561.099 74.0783C556.331 74.0783 552.825 73.3772 550.582 71.9748C548.431 70.5725 547.356 68.7028 547.356 66.3655C547.356 64.1218 548.572 62.2988 551.002 60.8965C553.433 59.4941 556.378 58.793 559.837 58.793C561.333 58.793 562.829 58.9799 564.324 59.3539L564.044 60.616C563.576 60.5225 562.922 60.4758 562.081 60.4758C559.93 60.4758 558.107 61.0367 556.612 62.1586C555.116 63.1869 554.368 64.5893 554.368 66.3655C554.368 68.1418 555.022 69.5909 556.331 70.7127C557.733 71.8346 559.556 72.3955 561.8 72.3955C564.418 72.3955 566.708 72.0683 568.672 71.4139C570.728 70.7595 572.551 69.8714 574.141 68.7495C576.01 67.4407 577.646 65.9916 579.049 64.4023C580.451 62.7195 581.807 60.8497 583.116 58.793L584.518 59.4941Z" fill="white"/>
<path d="M506.922 86.1375H516.038C512.578 90.9989 509.26 95.7201 506.081 100.301C502.902 104.882 500.051 109.136 497.527 113.062C495.096 116.895 493.133 120.308 491.637 123.299C490.141 126.197 489.393 128.488 489.393 130.171C489.393 132.601 490.655 133.817 493.18 133.817C495.143 133.817 497.62 132.882 500.612 131.012C503.697 129.049 507.016 126.384 510.568 123.019C514.121 119.653 517.767 115.727 521.507 111.239C525.246 106.752 528.799 101.984 532.164 96.9354L533.006 97.2159C530.481 101.049 527.49 105.209 524.031 109.697C520.665 114.091 517.113 118.204 513.373 122.037C509.634 125.87 505.894 129.095 502.154 131.713C498.415 134.237 494.909 135.499 491.637 135.499C488.926 135.499 486.916 134.845 485.607 133.536C484.392 132.134 483.784 130.498 483.784 128.628C483.784 127.319 483.971 126.057 484.345 124.842C484.812 123.533 485.28 122.224 485.747 120.915L485.467 120.775C484.251 122.084 482.709 123.626 480.839 125.403C479.063 127.085 477.1 128.675 474.949 130.171C472.893 131.666 470.742 132.928 468.499 133.957C466.255 134.985 464.105 135.499 462.048 135.499C458.589 135.499 456.158 134.424 454.756 132.274C453.354 130.124 452.652 127.693 452.652 124.982C452.652 121.149 453.868 116.942 456.298 112.361C458.729 107.687 461.814 103.339 465.554 99.3194C469.293 95.2059 473.36 91.7935 477.754 89.0824C482.148 86.3712 486.308 85.0156 490.235 85.0156C492.104 85.0156 493.741 85.2961 495.143 85.857C496.545 86.3245 497.714 87.0256 498.649 87.9605C499.584 88.8019 500.285 89.7835 500.752 90.9054C501.313 92.0273 501.734 93.1959 502.014 94.4112H502.295L506.922 86.1375ZM461.066 125.403C461.066 127.553 461.487 129.236 462.328 130.451C463.263 131.573 464.525 132.134 466.115 132.134C467.704 132.134 469.574 131.573 471.724 130.451C473.874 129.236 476.118 127.646 478.455 125.683C480.792 123.72 483.083 121.476 485.327 118.952C487.664 116.334 489.721 113.576 491.497 110.678C493.273 107.78 494.722 104.835 495.844 101.844C496.966 98.8519 497.527 96.0005 497.527 93.2894C497.527 91.1391 496.919 89.5031 495.704 88.3812C494.488 87.2594 492.993 86.6984 491.216 86.6984C488.412 86.6984 485.28 87.9138 481.821 90.3445C478.362 92.7752 475.09 95.907 472.004 99.7401C468.919 103.48 466.302 107.64 464.151 112.221C462.095 116.802 461.066 121.196 461.066 125.403Z" fill="white"/>
<path d="M422.35 97.7768C425.248 93.4763 428.239 90.2977 431.324 88.241C434.41 86.0907 437.775 85.0156 441.421 85.0156C444.787 85.0156 447.404 85.7168 449.274 87.1191C451.144 88.428 452.079 90.2977 452.079 92.7284C452.079 95.907 450.677 98.8052 447.872 101.423C445.067 104.041 441.047 106.798 435.812 109.697C431.885 111.847 428.847 114.044 426.697 116.288C424.64 118.438 423.612 121.336 423.612 124.982C423.612 127.413 424.266 129.282 425.575 130.591C426.977 131.807 428.753 132.414 430.904 132.414C435.672 132.414 441.234 129.563 447.591 123.86C454.042 118.157 461.428 109.182 469.748 96.9354L470.73 97.6366C462.316 110.444 454.51 119.98 447.311 126.244C440.112 132.414 433.708 135.499 428.099 135.499C424.36 135.499 421.415 134.565 419.264 132.695C417.114 130.731 416.039 128.254 416.039 125.262C416.039 123.112 416.46 121.196 417.301 119.513C418.236 117.83 419.405 116.334 420.807 115.025C422.303 113.623 423.986 112.314 425.855 111.099C427.725 109.884 429.688 108.668 431.745 107.453C433.334 106.518 434.877 105.49 436.373 104.368C437.962 103.246 439.364 102.077 440.58 100.862C441.889 99.5531 442.917 98.1975 443.665 96.7952C444.413 95.3928 444.787 93.9438 444.787 92.448C444.787 90.7652 444.273 89.4096 443.244 88.3812C442.309 87.2594 441.141 86.6984 439.738 86.6984C436.747 86.6984 433.989 87.7268 431.465 89.7835C428.94 91.7468 426.323 94.6917 423.612 98.6182L422.35 97.7768Z" fill="white"/>
<path d="M407.706 86.1406C399.012 98.2006 392.234 107.69 387.373 114.608C382.605 121.433 380.221 126.434 380.221 129.613C380.221 132.417 381.483 133.82 384.007 133.82C386.064 133.82 388.962 132.698 392.701 130.454C396.441 128.117 401.349 123.723 407.426 117.272C409.857 114.748 412.381 111.85 414.998 108.578C417.71 105.306 420.608 101.566 423.693 97.3592L425.095 97.7799C421.917 102.267 418.925 106.194 416.12 109.559C413.316 112.925 410.698 115.963 408.267 118.675C402.471 124.938 397.516 129.332 393.403 131.856C389.383 134.287 385.83 135.503 382.745 135.503C380.034 135.503 377.93 134.801 376.434 133.399C375.032 131.903 374.331 129.94 374.331 127.509C374.331 126.2 374.611 124.751 375.172 123.162C375.733 121.573 376.434 120.077 377.276 118.675L376.995 118.534C374.845 121.246 372.788 123.583 370.825 125.546C368.955 127.416 367.179 129.005 365.496 130.314C363.159 132.184 361.009 133.539 359.046 134.381C357.176 135.129 355.166 135.503 353.016 135.503C351.613 135.503 350.211 135.175 348.809 134.521C347.313 133.866 346.191 132.978 345.443 131.856C343.947 129.8 343.199 127.229 343.199 124.144C343.199 121.9 343.9 119.843 345.303 117.973C346.612 116.01 348.294 115.029 350.351 115.029C351.94 115.029 353.156 115.449 353.997 116.291C354.839 117.132 355.259 118.16 355.259 119.376C355.259 120.685 354.885 121.806 354.137 122.741C353.483 123.583 352.455 124.003 351.052 124.003C350.398 124.003 349.79 123.91 349.229 123.723C348.575 123.443 348.061 122.882 347.687 122.04C347.126 122.508 346.705 123.209 346.425 124.144C346.144 124.985 346.004 125.686 346.004 126.247C346.004 128.304 346.705 130.127 348.107 131.716C349.323 133.119 351.052 133.82 353.296 133.82C354.698 133.82 356.288 133.539 358.064 132.978C359.934 132.417 362.177 131.062 364.795 128.912C367.787 126.481 370.965 123.209 374.331 119.095C377.79 114.982 381.857 109.793 386.531 103.529C388.401 101.005 390.224 98.3409 392 95.5362C393.87 92.6381 395.786 89.6464 397.75 86.5613L407.706 86.1406Z" fill="white"/>
<path d="M351.282 86.1383C347.917 90.6258 344.925 94.6458 342.308 98.1984C339.783 101.751 337.54 104.93 335.576 107.734C333.333 111.006 331.416 113.811 329.827 116.148C328.331 118.392 327.116 120.355 326.181 122.038C325.339 123.721 324.732 125.17 324.358 126.385C323.984 127.507 323.797 128.582 323.797 129.61C323.797 132.415 325.106 133.817 327.723 133.817C329.593 133.817 332.211 132.883 335.576 131.013C338.942 129.05 343.336 125.263 348.758 119.654C353.807 114.512 343.99 125.871 351.282 116.148L352 118.002C348.634 122.77 355.272 114.075 352 118.002C348.821 121.835 351.398 117.51 348.5 120.502C343.732 125.457 340.485 129.657 336.558 131.994C332.725 134.332 329.453 135.5 326.742 135.5C324.031 135.5 321.927 134.799 320.431 133.397C318.935 131.901 318.188 129.938 318.188 127.507C318.188 124.609 318.935 121.664 320.431 118.672L320.151 118.532C316.037 123.3 311.924 127.18 307.81 130.171C302.855 133.724 298.321 135.5 294.208 135.5C288.785 135.5 286.074 133.07 286.074 128.208C286.074 127.18 286.308 125.777 286.775 124.001C287.243 122.225 288.598 119.42 290.842 115.587C291.777 114.091 292.852 112.455 294.067 110.679C295.283 108.903 296.732 106.846 298.415 104.509L311.597 86.1383H320.852L305.146 107.313C303.557 109.464 301.921 111.754 300.238 114.185C298.555 116.616 297.293 118.579 296.451 120.075C295.423 121.944 294.628 123.44 294.067 124.562C293.6 125.59 293.273 126.432 293.086 127.086C292.899 127.741 292.805 128.255 292.805 128.629C292.805 128.909 292.805 129.19 292.805 129.47C292.805 130.592 293.179 131.527 293.927 132.275C294.675 132.929 295.563 133.257 296.592 133.257C300.799 133.257 306.361 130.031 313.279 123.58C314.401 122.552 315.617 121.337 316.925 119.934C318.328 118.439 319.683 116.943 320.992 115.447C322.395 113.858 323.703 112.315 324.919 110.819C326.134 109.23 327.209 107.781 328.144 106.472C328.798 105.537 329.64 104.275 330.668 102.686C331.79 101.003 332.959 99.2267 334.174 97.357C335.483 95.3937 336.745 93.4304 337.96 91.4672C339.269 89.5039 340.485 87.7276 341.606 86.1383H351.282ZM357.873 59.4941C356.565 61.3639 355.162 63.2337 353.666 65.1034C352.264 66.8797 350.441 68.5158 348.197 70.0116C346.328 71.2269 344.318 72.2086 342.167 72.9565C340.017 73.7044 337.446 74.0783 334.455 74.0783C329.687 74.0783 326.181 73.3772 323.937 71.9748C321.787 70.5725 320.712 68.7028 320.712 66.3655C320.712 64.1218 321.927 62.2988 324.358 60.8965C326.788 59.4941 329.733 58.793 333.192 58.793C334.688 58.793 336.184 58.9799 337.68 59.3539L337.399 60.616C336.932 60.5225 336.278 60.4758 335.436 60.4758C333.286 60.4758 331.463 61.0367 329.967 62.1586C328.471 63.1869 327.723 64.5893 327.723 66.3655C327.723 68.1418 328.378 69.5909 329.687 70.7127C331.089 71.8346 332.912 72.3955 335.156 72.3955C337.773 72.3955 340.064 72.0683 342.027 71.4139C344.084 70.7595 345.907 69.8714 347.496 68.7495C349.366 67.4407 351.002 65.9916 352.404 64.4023C353.807 62.7195 355.162 60.8497 356.471 58.793L357.873 59.4941Z" fill="white"/>
<path d="M280.278 86.1375H289.393C285.934 90.9989 282.615 95.7201 279.436 100.301C276.258 104.882 273.406 109.136 270.882 113.062C268.452 116.895 266.488 120.308 264.993 123.299C263.497 126.197 262.749 128.488 262.749 130.171C262.749 132.601 264.011 133.817 266.535 133.817C268.498 133.817 270.976 132.882 273.967 131.012C277.053 129.049 280.371 126.384 283.924 123.019C287.476 119.653 291.123 115.727 294.862 111.239C298.602 106.752 302.154 101.984 305.52 96.9354L306.361 97.2159C303.837 101.049 300.845 105.209 297.386 109.697C294.021 114.091 290.468 118.204 286.729 122.037C282.989 125.87 279.25 129.095 275.51 131.713C271.77 134.237 268.265 135.499 264.993 135.499C262.281 135.499 260.271 134.845 258.962 133.536C257.747 132.134 257.139 130.498 257.139 128.628C257.139 127.319 257.326 126.057 257.7 124.842C258.168 123.533 258.635 122.224 259.103 120.915L258.822 120.775C257.607 122.084 256.064 123.626 254.195 125.403C252.418 127.085 250.455 128.675 248.305 130.171C246.248 131.666 244.098 132.928 241.854 133.957C239.61 134.985 237.46 135.499 235.403 135.499C231.944 135.499 229.514 134.424 228.111 132.274C226.709 130.124 226.008 127.693 226.008 124.982C226.008 121.149 227.223 116.942 229.654 112.361C232.085 107.687 235.17 103.339 238.909 99.3194C242.649 95.2059 246.716 91.7935 251.109 89.0824C255.503 86.3712 259.664 85.0156 263.59 85.0156C265.46 85.0156 267.096 85.2961 268.498 85.857C269.901 86.3245 271.069 87.0256 272.004 87.9605C272.939 88.8019 273.64 89.7835 274.108 90.9054C274.669 92.0273 275.089 93.1959 275.37 94.4112H275.65L280.278 86.1375ZM234.422 125.403C234.422 127.553 234.842 129.236 235.684 130.451C236.619 131.573 237.881 132.134 239.47 132.134C241.059 132.134 242.929 131.573 245.079 130.451C247.23 129.236 249.473 127.646 251.811 125.683C254.148 123.72 256.438 121.476 258.682 118.952C261.019 116.334 263.076 113.576 264.852 110.678C266.629 107.78 268.078 104.835 269.199 101.844C270.321 98.8519 270.882 96.0005 270.882 93.2894C270.882 91.1391 270.275 89.5031 269.059 88.3812C267.844 87.2594 266.348 86.6984 264.572 86.6984C261.767 86.6984 258.635 87.9138 255.176 90.3445C251.717 92.7752 248.445 95.907 245.36 99.7401C242.275 103.48 239.657 107.64 237.507 112.221C235.45 116.802 234.422 121.196 234.422 125.403Z" fill="white"/>
<path d="M124.34 134.378C126.397 130.918 128.781 127.132 131.492 123.019C134.109 118.905 136.774 114.745 139.485 110.538C142.29 106.238 145.001 102.031 147.618 97.917C150.33 93.7101 152.76 89.7835 154.911 86.1375H163.465L144.954 112.221L145.235 112.501C147.011 110.351 149.161 107.733 151.685 104.648C154.209 101.47 156.967 98.4312 159.959 95.5331C163.044 92.6349 166.316 90.1575 169.775 88.1007C173.234 86.044 176.787 85.0156 180.433 85.0156C182.677 85.0156 184.5 85.6233 185.902 86.8387C187.398 87.9605 188.146 89.6433 188.146 91.887C188.146 93.1959 187.678 94.7852 186.743 96.6549C185.809 98.5247 184.687 100.441 183.378 102.404C182.162 104.274 180.9 106.097 179.592 107.874C178.283 109.65 177.254 111.099 176.506 112.221L176.787 112.501C178.75 109.697 181.087 106.705 183.799 103.526C186.603 100.348 189.548 97.4028 192.633 94.6917C195.812 91.887 199.037 89.5966 202.309 87.8203C205.675 85.9505 208.9 85.0156 211.985 85.0156C214.696 85.0156 216.706 85.67 218.015 86.9789C219.418 88.2877 220.119 90.1108 220.119 92.448C220.119 94.0373 219.558 95.907 218.436 98.0573C217.408 100.208 216.052 102.498 214.369 104.929C212.78 107.266 211.05 109.65 209.181 112.081C207.311 114.511 205.535 116.848 203.852 119.092C202.262 121.336 200.907 123.439 199.785 125.403C198.757 127.272 198.242 128.862 198.242 130.171C198.242 131.292 198.57 132.181 199.224 132.835C199.972 133.489 200.86 133.817 201.889 133.817C204.132 133.817 206.75 132.928 209.742 131.152C212.827 129.376 216.099 126.898 219.558 123.72C223.11 120.541 226.803 116.755 230.636 112.361C234.469 107.874 238.349 102.965 242.276 97.6366L243.397 98.1975C239.564 103.433 235.731 108.341 231.898 112.922C228.065 117.409 224.326 121.336 220.68 124.701C217.127 128.067 213.668 130.731 210.302 132.695C207.03 134.565 203.992 135.499 201.187 135.499C198.289 135.499 196.139 134.705 194.737 133.115C193.334 131.433 192.633 129.376 192.633 126.945C192.633 125.169 193.147 123.206 194.176 121.055C195.298 118.812 196.653 116.521 198.242 114.184C199.925 111.847 201.702 109.51 203.571 107.172C205.441 104.835 207.171 102.591 208.76 100.441C210.443 98.291 211.798 96.3277 212.827 94.5515C213.949 92.7752 214.509 91.3261 214.509 90.2042C214.509 88.8954 214.136 88.0073 213.388 87.5398C212.733 86.9789 211.892 86.6984 210.863 86.6984C208.994 86.6984 206.797 87.3528 204.272 88.6617C201.748 89.877 199.084 91.6533 196.279 93.9905C193.568 96.2342 190.763 98.8987 187.865 101.984C184.967 104.975 182.116 108.248 179.311 111.8C176.6 115.259 174.029 118.952 171.598 122.878C169.168 126.711 167.064 130.545 165.288 134.378H156.313C158.931 129.703 161.735 125.029 164.727 120.354C167.812 115.68 170.663 111.379 173.281 107.453C175.899 103.433 178.096 99.9738 179.872 97.0756C181.648 94.084 182.536 91.887 182.536 90.4847C182.536 87.9605 181.228 86.6984 178.61 86.6984C176.273 86.6984 173.655 87.5866 170.757 89.3628C167.859 91.0456 164.914 93.2894 161.922 96.094C158.931 98.8052 155.986 101.937 153.088 105.49C150.189 108.949 147.431 112.454 144.814 116.007C142.29 119.56 140.046 122.972 138.083 126.244C136.119 129.423 134.577 132.134 133.455 134.378H124.34Z" fill="white"/>
<path d="M149.58 99.1791C147.43 102.638 144.578 106.378 141.026 110.398C137.567 114.324 133.781 118.017 129.667 121.476C124.619 125.683 119.57 129.095 114.522 131.713C109.474 134.237 104.519 135.499 99.6573 135.499C96.1982 135.499 93.3001 134.611 90.9628 132.835C88.6256 130.965 87.457 128.254 87.457 124.701C87.457 120.214 88.7191 115.633 91.2433 110.959C93.861 106.284 97.0863 102.031 100.919 98.1975C104.846 94.271 109.1 91.0924 113.681 88.6617C118.355 86.231 122.749 85.0156 126.862 85.0156C129.574 85.0156 131.911 85.5298 133.874 86.5582C135.931 87.4931 136.959 89.1759 136.959 91.6066C136.959 92.7284 136.632 93.6633 135.978 94.4112C135.417 95.1591 134.669 95.7668 133.734 96.2342C132.892 96.7017 131.911 97.0756 130.789 97.3561C129.761 97.5431 128.826 97.6833 127.984 97.7768C128.358 96.8419 128.685 95.907 128.966 94.9722C129.246 93.9438 129.387 92.9154 129.387 91.887C129.387 88.428 127.751 86.6984 124.478 86.6984C122.048 86.6984 119.15 87.9138 115.784 90.3445C112.512 92.6817 109.38 95.6733 106.388 99.3194C103.49 102.965 101.013 106.985 98.9561 111.379C96.8994 115.773 95.871 120.027 95.871 124.141C95.871 126.665 96.4319 128.815 97.5538 130.591C98.7691 132.368 100.592 133.256 103.023 133.256C106.295 133.256 110.034 132.181 114.241 130.03C118.542 127.88 122.702 125.216 126.722 122.037C130.929 118.765 134.949 115.025 138.782 110.818C142.709 106.518 145.981 102.358 148.598 98.3377L149.58 99.1791Z" fill="white"/>
<path d="M338.525 42.391C431.904 31 517.652 28.7986 580.79 34.4341C612.369 37.2527 638.229 42.0267 656.545 48.5599C665.704 51.8272 672.916 55.5135 678.006 59.5696C683.091 63.6214 685.983 67.9787 686.692 72.6062C687.401 77.2336 685.925 82.1238 682.245 87.2447C678.562 92.371 672.723 97.6493 664.882 102.99C649.203 113.671 625.727 124.463 596.155 134.741C537.028 155.291 453.764 173.707 360.384 185.097C267.004 196.488 181.256 198.69 118.118 193.054C86.54 190.236 60.6795 185.462 42.3639 178.929C33.2043 175.661 25.9923 171.975 20.9023 167.919C15.8178 163.867 12.9252 159.51 12.2164 154.882C11.5076 150.255 12.9837 145.365 16.6632 140.244C20.3466 135.117 26.1854 129.839 34.0264 124.498C49.7053 113.818 73.1814 103.026 102.754 92.7476C161.881 72.1975 245.145 53.7819 338.525 42.391Z" stroke="white" stroke-width="2.25105"/>
<path d="M349.172 242L349.334 366" stroke="white" stroke-width="2.66667"/>
<path d="M349.332 365.641C350.665 338.606 354.665 299.249 380.664 281.664" stroke="white" stroke-width="2.66667"/>
<path d="M349.332 365.996C347.999 338.961 343.999 299.604 318 282.02" stroke="white" stroke-width="2.66667"/>
</svg>
