<svg width="288" height="95" viewBox="0 0 288 95" fill="none" xmlns="http://www.w3.org/2000/svg">
<path d="M16.01 1.79425V20.667H13.5184V3.96779H6.54715L6.17605 14.597C6.10537 16.5761 5.69893 18.1489 4.95675 19.3152C4.23223 20.4814 3.1808 21.0646 1.80245 21.0646C1.23698 21.0646 0.63616 20.9409 0 20.6935V18.573C0.282738 18.7497 0.733351 18.838 1.35184 18.838C1.8643 18.838 2.27074 18.7232 2.57115 18.4934C2.88923 18.2461 3.16313 17.6982 3.39285 16.85C3.64025 16.0018 3.78162 14.8179 3.81696 13.2981L4.16155 1.79425H16.01ZM30.6568 20.667H28.4038V15.0741H25.4085L21.0879 20.667H18.0927L22.8108 14.9946C21.8036 14.8355 20.9819 14.4114 20.3457 13.7222C19.7272 13.0154 19.418 12.1142 19.418 11.0186C19.418 9.74625 19.7979 8.75666 20.5578 8.04982C21.3176 7.34297 22.3691 6.98955 23.7121 6.98955H30.6568V20.667ZM28.4038 8.97755H24.4278C22.6253 8.97755 21.7241 9.65789 21.7241 11.0186C21.7241 12.3969 22.6253 13.0861 24.4278 13.0861H28.4038V8.97755ZM44.6552 20.667H42.4022V14.6235C42.0311 14.7295 41.3772 14.862 40.4407 15.0211C39.5218 15.1624 38.7619 15.2331 38.1611 15.2331C36.7651 15.2331 35.6695 14.9062 34.8743 14.2524C34.0967 13.5809 33.708 12.6001 33.708 11.3101V6.98955H35.9611V10.939C35.9611 12.5294 36.8358 13.3246 38.5852 13.3246C39.8399 13.3246 41.1122 13.1214 42.4022 12.715V6.98955H44.6552V20.667ZM63.7576 1.79425L71.1265 20.667H68.3433L66.2493 14.8885H58.3238L56.1767 20.667H53.5261L60.9479 1.79425H63.7576ZM65.5071 12.9005L62.2998 4.17985L59.0395 12.9005H65.5071ZM74.8755 20.667H72.6225V6.98955H74.8755V12.4234H81.7142V6.98955H83.9673V20.667H81.7142V14.4114H74.8755V20.667ZM99.4648 18.8645V20.614C99.0054 20.7907 98.4929 20.879 97.9274 20.879C96.6374 20.879 95.9748 20.2075 95.9394 18.8645C94.6494 20.3136 92.9972 21.0381 90.9827 21.0381C89.6397 21.0381 88.5706 20.6935 87.7754 20.0043C86.9978 19.3152 86.6091 18.3697 86.6091 17.1681C86.6091 14.7295 88.226 13.307 91.4598 12.9005C91.6719 12.8652 91.9811 12.8299 92.3875 12.7945C93.9249 12.6178 94.8703 12.4146 95.2237 12.1849C95.6302 11.9021 95.8334 11.4162 95.8334 10.727C95.8334 9.22495 94.7996 8.47393 92.7321 8.47393C91.6719 8.47393 90.8678 8.69482 90.32 9.13659C89.7722 9.5607 89.4453 10.2675 89.3393 11.2571H87.1392C87.1746 9.79042 87.6959 8.65064 88.7031 7.83777C89.7104 7.02489 91.0975 6.61846 92.8647 6.61846C94.7908 6.61846 96.2222 7.06024 97.1587 7.94379C97.4591 8.22653 97.68 8.59762 97.8214 9.05707C97.9628 9.51652 98.0423 9.89645 98.06 10.1969C98.0776 10.4796 98.0865 10.9125 98.0865 11.4957C98.0865 12.1672 98.0688 13.1833 98.0335 14.544C97.9981 15.9046 97.9804 16.9207 97.9804 17.5922C97.9804 18.087 98.0423 18.4404 98.166 18.6525C98.3074 18.8469 98.5547 18.9441 98.9082 18.9441C99.0495 18.9441 99.2351 18.9176 99.4648 18.8645ZM95.8334 13.5632C95.6744 13.6869 95.5065 13.7929 95.3298 13.8813C95.1531 13.9696 94.9233 14.0403 94.6406 14.0933C94.3755 14.1464 94.19 14.1905 94.084 14.2259C93.9956 14.2435 93.7659 14.2789 93.3948 14.3319C93.0237 14.3672 92.8293 14.3849 92.8116 14.3849C92.2638 14.4556 91.9016 14.5086 91.7249 14.544C91.5658 14.5616 91.2477 14.6323 90.7706 14.756C90.3112 14.8797 89.9843 15.0211 89.7899 15.1801C89.5955 15.3392 89.4011 15.5777 89.2067 15.8958C89.03 16.1962 88.9417 16.5585 88.9417 16.9826C88.9417 17.6894 89.1802 18.2461 89.6573 18.6525C90.1521 19.0589 90.8236 19.2621 91.6719 19.2621C92.7498 19.2621 93.7129 18.9441 94.5611 18.3079C95.4093 17.6717 95.8334 16.9207 95.8334 16.0548V13.5632ZM113.357 15.6837C113.163 17.3272 112.535 18.6348 111.475 19.6067C110.433 20.5786 109.072 21.0646 107.393 21.0646C105.326 21.0646 103.726 20.4284 102.595 19.1561C101.465 17.8661 100.899 16.152 100.899 14.0138C100.899 11.7342 101.491 9.93179 102.675 8.60646C103.859 7.26346 105.458 6.59195 107.473 6.59195C109.151 6.59195 110.494 7.01606 111.502 7.86427C112.509 8.69482 113.101 9.88761 113.278 11.4427H110.945C110.539 9.46351 109.39 8.47393 107.499 8.47393C106.192 8.47393 105.158 8.95988 104.398 9.93179C103.638 10.886 103.258 12.1849 103.258 13.8283C103.258 15.4894 103.62 16.797 104.345 17.7513C105.069 18.7055 106.068 19.1826 107.34 19.1826C108.365 19.1826 109.196 18.8822 109.832 18.2814C110.486 17.6806 110.901 16.8147 111.078 15.6837H113.357ZM126.295 8.97755H121.392V20.667H119.139V8.97755H114.235V6.98955H126.295V8.97755ZM139.743 18.8645V20.614C139.283 20.7907 138.771 20.879 138.205 20.879C136.915 20.879 136.252 20.2075 136.217 18.8645C134.927 20.3136 133.275 21.0381 131.26 21.0381C129.917 21.0381 128.848 20.6935 128.053 20.0043C127.276 19.3152 126.887 18.3697 126.887 17.1681C126.887 14.7295 128.504 13.307 131.738 12.9005C131.95 12.8652 132.259 12.8299 132.665 12.7945C134.203 12.6178 135.148 12.4146 135.501 12.1849C135.908 11.9021 136.111 11.4162 136.111 10.727C136.111 9.22495 135.077 8.47393 133.01 8.47393C131.95 8.47393 131.146 8.69482 130.598 9.13659C130.05 9.5607 129.723 10.2675 129.617 11.2571H127.417C127.452 9.79042 127.974 8.65064 128.981 7.83777C129.988 7.02489 131.375 6.61846 133.142 6.61846C135.069 6.61846 136.5 7.06024 137.436 7.94379C137.737 8.22653 137.958 8.59762 138.099 9.05707C138.24 9.51652 138.32 9.89645 138.338 10.1969C138.355 10.4796 138.364 10.9125 138.364 11.4957C138.364 12.1672 138.346 13.1833 138.311 14.544C138.276 15.9046 138.258 16.9207 138.258 17.5922C138.258 18.087 138.32 18.4404 138.444 18.6525C138.585 18.8469 138.832 18.9441 139.186 18.9441C139.327 18.9441 139.513 18.9176 139.743 18.8645ZM136.111 13.5632C135.952 13.6869 135.784 13.7929 135.607 13.8813C135.431 13.9696 135.201 14.0403 134.918 14.0933C134.653 14.1464 134.468 14.1905 134.362 14.2259C134.273 14.2435 134.044 14.2789 133.672 14.3319C133.301 14.3672 133.107 14.3849 133.089 14.3849C132.542 14.4556 132.179 14.5086 132.003 14.544C131.844 14.5616 131.525 14.6323 131.048 14.756C130.589 14.8797 130.262 15.0211 130.068 15.1801C129.873 15.3392 129.679 15.5777 129.484 15.8958C129.308 16.1962 129.219 16.5585 129.219 16.9826C129.219 17.6894 129.458 18.2461 129.935 18.6525C130.43 19.0589 131.101 19.2621 131.95 19.2621C133.027 19.2621 133.991 18.9441 134.839 18.3079C135.687 17.6717 136.111 16.9207 136.111 16.0548V13.5632ZM153.635 15.6837C153.441 17.3272 152.813 18.6348 151.753 19.6067C150.71 20.5786 149.35 21.0646 147.671 21.0646C145.603 21.0646 144.004 20.4284 142.873 19.1561C141.742 17.8661 141.177 16.152 141.177 14.0138C141.177 11.7342 141.769 9.93179 142.953 8.60646C144.137 7.26346 145.736 6.59195 147.75 6.59195C149.429 6.59195 150.772 7.01606 151.779 7.86427C152.787 8.69482 153.379 9.88761 153.555 11.4427H151.223C150.816 9.46351 149.668 8.47393 147.777 8.47393C146.469 8.47393 145.436 8.95988 144.676 9.93179C143.916 10.886 143.536 12.1849 143.536 13.8283C143.536 15.4894 143.898 16.797 144.623 17.7513C145.347 18.7055 146.346 19.1826 147.618 19.1826C148.643 19.1826 149.473 18.8822 150.11 18.2814C150.763 17.6806 151.179 16.8147 151.355 15.6837H153.635ZM158.992 20.667H156.103V6.98955H158.356V18.1489H158.409L164.559 6.98955H167.448V20.667H165.195V9.50769H165.142L158.992 20.667ZM181.646 20.667H179.393V15.0741H176.398L172.078 20.667H169.082L173.8 14.9946C172.793 14.8355 171.972 14.4114 171.335 13.7222C170.717 13.0154 170.408 12.1142 170.408 11.0186C170.408 9.74625 170.788 8.75666 171.547 8.04982C172.307 7.34297 173.359 6.98955 174.702 6.98955H181.646V20.667ZM179.393 8.97755H175.417C173.615 8.97755 172.714 9.65789 172.714 11.0186C172.714 12.3969 173.615 13.0861 175.417 13.0861H179.393V8.97755Z" fill="white"/>
<path d="M16.1426 49.4866C16.1426 50.1051 16.0012 50.7501 15.7185 51.4216C15.4357 52.0754 15.0204 52.7116 14.4726 53.3301C13.9248 53.9486 13.1561 54.4522 12.1666 54.841C11.177 55.2297 10.0549 55.4241 8.80021 55.4241C6.43228 55.4241 4.53264 54.8675 3.10128 53.7542C1.68759 52.6232 0.980747 50.9622 0.980747 48.7709H3.39285C3.44587 50.379 3.98484 51.5541 5.00976 52.2963C6.03468 53.0208 7.36885 53.3831 9.01227 53.3831C10.3376 53.3831 11.442 53.0208 12.3256 52.2963C13.2092 51.5718 13.6509 50.6176 13.6509 49.4336C13.6509 48.7798 13.5272 48.2231 13.2798 47.7637C13.0324 47.3042 12.6702 46.9596 12.1931 46.7299C11.7159 46.5002 11.2123 46.3412 10.6822 46.2528C10.1697 46.1644 9.56891 46.1203 8.87973 46.1203C8.27892 46.1203 7.71344 46.1379 7.18331 46.1733V44.1058C7.46604 44.1411 8.03152 44.1588 8.87973 44.1588C11.6188 44.1588 12.9883 43.0278 12.9883 40.7659C12.9883 38.7514 11.6364 37.7442 8.93275 37.7442C6.07003 37.7442 4.50613 39.0253 4.24107 41.5876H1.82896C1.89964 39.6438 2.58882 38.1771 3.89648 37.1875C5.20414 36.1803 6.9094 35.6766 9.01227 35.6766C10.9384 35.6766 12.4935 36.1007 13.6774 36.949C14.8791 37.7972 15.4799 39.0695 15.4799 40.7659C15.4799 41.7202 15.1706 42.586 14.5522 43.3636C13.9337 44.1234 13.2003 44.6271 12.3521 44.8745V44.954C13.5537 45.1837 14.4815 45.7227 15.1353 46.5709C15.8068 47.4191 16.1426 48.391 16.1426 49.4866ZM30.5738 50.6794C29.8846 53.8602 27.8966 55.4506 24.6098 55.4506C22.5953 55.4506 21.0137 54.8233 19.8651 53.5686C18.7341 52.314 18.1687 50.5734 18.1687 48.3468C18.1687 46.1379 18.7518 44.3532 19.9181 42.9925C21.1021 41.6141 22.6395 40.925 24.5303 40.925C26.6331 40.925 28.1882 41.6406 29.1954 43.072C30.2204 44.4857 30.7328 46.2793 30.7328 48.4529V48.7709H20.4482L20.4217 48.93C20.4217 50.379 20.8017 51.5188 21.5615 52.3493C22.3214 53.1799 23.364 53.5951 24.6893 53.5951C25.6789 53.5951 26.4564 53.3654 27.0219 52.906C27.605 52.4465 28.0556 51.7043 28.3737 50.6794H30.5738ZM28.4002 46.942C28.2942 45.6343 27.8966 44.6182 27.2074 43.8937C26.5183 43.1515 25.6082 42.7804 24.4772 42.7804C23.3816 42.7804 22.4716 43.1515 21.7471 43.8937C21.0225 44.6359 20.5896 45.652 20.4482 46.942H28.4002ZM44.0532 41.3226V55H41.8002V43.3106H36.923L36.7374 49.3541C36.6844 51.4393 36.3045 52.9502 35.5976 53.8867C34.8908 54.8233 34.0072 55.2916 32.947 55.2916C32.2931 55.2916 31.7542 55.1944 31.33 55V53.171C31.5598 53.2947 31.9574 53.3566 32.5228 53.3566C33.053 53.3566 33.5036 53.0738 33.8747 52.5084C34.2635 51.9252 34.4755 50.9533 34.5108 49.5926L34.7494 41.3226H44.0532ZM59.0736 50.6794C58.3844 53.8602 56.3964 55.4506 53.1096 55.4506C51.0951 55.4506 49.5136 54.8233 48.3649 53.5686C47.234 52.314 46.6685 50.5734 46.6685 48.3468C46.6685 46.1379 47.2516 44.3532 48.4179 42.9925C49.6019 41.6141 51.1393 40.925 53.0301 40.925C55.133 40.925 56.688 41.6406 57.6953 43.072C58.7202 44.4857 59.2327 46.2793 59.2327 48.4529V48.7709H48.9481L48.9216 48.93C48.9216 50.379 49.3015 51.5188 50.0614 52.3493C50.8212 53.1799 51.8638 53.5951 53.1891 53.5951C54.1787 53.5951 54.9563 53.3654 55.5217 52.906C56.1049 52.4465 56.5555 51.7043 56.8736 50.6794H59.0736ZM56.9001 46.942C56.794 45.6343 56.3964 44.6182 55.7073 43.8937C55.0181 43.1515 54.108 42.7804 52.9771 42.7804C51.8815 42.7804 50.9714 43.1515 50.2469 43.8937C49.5224 44.6359 49.0894 45.652 48.9481 46.942H56.9001ZM63.8742 55H61.6212V41.3226H63.8742V46.7564H70.7129V41.3226H72.966V55H70.7129V48.7444H63.8742V55ZM88.596 55H85.7333L80.7501 48.2673L78.603 50.3613V55H76.35V41.3226H78.603V47.8432L84.8586 41.3226H87.8804L82.367 46.7034L88.596 55ZM91.1819 42.8865C92.3835 41.5788 94.0181 40.925 96.0856 40.925C98.1531 40.925 99.7612 41.5523 100.91 42.8069C102.058 44.0616 102.633 45.8199 102.633 48.0818C102.633 50.3967 102.058 52.1991 100.91 53.4891C99.7612 54.7791 98.1443 55.4241 96.0591 55.4241C93.9739 55.4241 92.3393 54.7879 91.1554 53.5156C89.9714 52.2433 89.3794 50.4762 89.3794 48.2143C89.3794 45.9701 89.9803 44.1941 91.1819 42.8865ZM99.1604 44.2648C98.4005 43.2929 97.3579 42.8069 96.0326 42.8069C94.7073 42.8069 93.6558 43.2929 92.8783 44.2648C92.1008 45.2367 91.712 46.5355 91.712 48.1613C91.712 49.84 92.092 51.1565 92.8518 52.1108C93.6293 53.0473 94.7073 53.5156 96.0856 53.5156C97.411 53.5156 98.4447 53.0385 99.1869 52.0843C99.9468 51.13 100.327 49.8135 100.327 48.1348C100.327 46.509 99.9379 45.219 99.1604 44.2648ZM105.263 55V41.3226H111.598C112.499 41.3226 113.268 41.4021 113.904 41.5611C114.54 41.7025 115.097 42.0294 115.574 42.5419C116.051 43.0543 116.29 43.7523 116.29 44.6359C116.29 45.9789 115.618 46.9596 114.275 47.5781V47.6046C115.088 47.7637 115.724 48.1436 116.183 48.7444C116.643 49.3276 116.873 50.0698 116.873 50.971C116.873 52.1373 116.484 53.1004 115.706 53.8602C114.929 54.6201 113.93 55 112.711 55H105.263ZM111.359 46.8359C112.296 46.8359 112.958 46.6857 113.347 46.3853C113.754 46.0673 113.957 45.6078 113.957 45.007C113.957 44.4062 113.763 43.9644 113.374 43.6817C112.985 43.3989 112.314 43.2575 111.359 43.2575H107.463V46.8359H111.359ZM107.463 48.7444V53.065H112.287C112.994 53.065 113.542 52.853 113.93 52.4289C114.337 52.0047 114.54 51.4569 114.54 50.7854C114.54 49.4248 113.657 48.7444 111.889 48.7444H107.463ZM131.666 53.1975V54.947C131.207 55.1237 130.694 55.2121 130.129 55.2121C128.839 55.2121 128.176 54.5406 128.141 53.1975C126.851 54.6466 125.199 55.3711 123.184 55.3711C121.841 55.3711 120.772 55.0265 119.977 54.3373C119.199 53.6482 118.811 52.7028 118.811 51.5011C118.811 49.0625 120.427 47.64 123.661 47.2335C123.873 47.1982 124.183 47.1629 124.589 47.1275C126.126 46.9508 127.072 46.7476 127.425 46.5179C127.832 46.2351 128.035 45.7492 128.035 45.06C128.035 43.558 127.001 42.8069 124.934 42.8069C123.873 42.8069 123.069 43.0278 122.521 43.4696C121.974 43.8937 121.647 44.6006 121.541 45.5901H119.341C119.376 44.1234 119.897 42.9836 120.905 42.1708C121.912 41.3579 123.299 40.9515 125.066 40.9515C126.992 40.9515 128.424 41.3932 129.36 42.2768C129.661 42.5595 129.881 42.9306 130.023 43.3901C130.164 43.8495 130.244 44.2295 130.261 44.5299C130.279 44.8126 130.288 45.2455 130.288 45.8287C130.288 46.5002 130.27 47.5163 130.235 48.877C130.2 50.2376 130.182 51.2537 130.182 51.9252C130.182 52.42 130.244 52.7734 130.367 52.9855C130.509 53.1799 130.756 53.2771 131.11 53.2771C131.251 53.2771 131.437 53.2506 131.666 53.1975ZM128.035 47.8962C127.876 48.0199 127.708 48.1259 127.531 48.2143C127.355 48.3026 127.125 48.3733 126.842 48.4263C126.577 48.4794 126.391 48.5235 126.285 48.5589C126.197 48.5766 125.967 48.6119 125.596 48.6649C125.225 48.7002 125.031 48.7179 125.013 48.7179C124.465 48.7886 124.103 48.8416 123.926 48.877C123.767 48.8946 123.449 48.9653 122.972 49.089C122.513 49.2127 122.186 49.3541 121.991 49.5131C121.797 49.6722 121.603 49.9107 121.408 50.2288C121.231 50.5292 121.143 50.8915 121.143 51.3156C121.143 52.0224 121.382 52.5791 121.859 52.9855C122.354 53.3919 123.025 53.5951 123.873 53.5951C124.951 53.5951 125.914 53.2771 126.763 52.6409C127.611 52.0047 128.035 51.2537 128.035 50.3878V47.8962ZM149.49 36.1273L156.859 55H154.076L151.982 49.2215H144.056L141.909 55H139.259L146.68 36.1273H149.49ZM151.24 47.2335L148.032 38.5129L144.772 47.2335H151.24ZM169.753 41.3226V55H167.5V43.3106H162.623L162.437 49.3541C162.384 51.4393 162.004 52.9502 161.297 53.8867C160.59 54.8233 159.707 55.2916 158.647 55.2916C157.993 55.2916 157.454 55.1944 157.03 55V53.171C157.259 53.2947 157.657 53.3566 158.222 53.3566C158.753 53.3566 159.203 53.0738 159.574 52.5084C159.963 51.9252 160.175 50.9533 160.21 49.5926L160.449 41.3226H169.753ZM184.773 50.6794C184.084 53.8602 182.096 55.4506 178.809 55.4506C176.795 55.4506 175.213 54.8233 174.065 53.5686C172.934 52.314 172.368 50.5734 172.368 48.3468C172.368 46.1379 172.951 44.3532 174.118 42.9925C175.301 41.6141 176.839 40.925 178.73 40.925C180.833 40.925 182.388 41.6406 183.395 43.072C184.42 44.4857 184.932 46.2793 184.932 48.4529V48.7709H174.648L174.621 48.93C174.621 50.379 175.001 51.5188 175.761 52.3493C176.521 53.1799 177.563 53.5951 178.889 53.5951C179.878 53.5951 180.656 53.3654 181.221 52.906C181.804 52.4465 182.255 51.7043 182.573 50.6794H184.773ZM182.6 46.942C182.494 45.6343 182.096 44.6182 181.407 43.8937C180.718 43.1515 179.808 42.7804 178.677 42.7804C177.581 42.7804 176.671 43.1515 175.946 43.8937C175.222 44.6359 174.789 45.652 174.648 46.942H182.6ZM199.567 55H196.704L191.721 48.2673L189.574 50.3613V55H187.321V41.3226H189.574V47.8432L195.829 41.3226H198.851L193.338 46.7034L199.567 55ZM212.835 50.0167C212.64 51.6602 212.013 52.9678 210.953 53.9397C209.91 54.9116 208.55 55.3976 206.871 55.3976C204.803 55.3976 203.204 54.7614 202.073 53.4891C200.942 52.1991 200.377 50.485 200.377 48.3468C200.377 46.0673 200.969 44.2648 202.153 42.9395C203.337 41.5965 204.936 40.925 206.95 40.925C208.629 40.925 209.972 41.3491 210.979 42.1973C211.987 43.0278 212.579 44.2206 212.755 45.7757H210.423C210.016 43.7965 208.868 42.8069 206.977 42.8069C205.669 42.8069 204.635 43.2929 203.876 44.2648C203.116 45.219 202.736 46.5179 202.736 48.1613C202.736 49.8224 203.098 51.13 203.823 52.0843C204.547 53.0385 205.546 53.5156 206.818 53.5156C207.843 53.5156 208.673 53.2152 209.309 52.6144C209.963 52.0136 210.379 51.1477 210.555 50.0167H212.835ZM227.416 53.1975V54.947C226.957 55.1237 226.445 55.2121 225.879 55.2121C224.589 55.2121 223.926 54.5406 223.891 53.1975C222.601 54.6466 220.949 55.3711 218.934 55.3711C217.591 55.3711 216.522 55.0265 215.727 54.3373C214.949 53.6482 214.561 52.7028 214.561 51.5011C214.561 49.0625 216.178 47.64 219.411 47.2335C219.623 47.1982 219.933 47.1629 220.339 47.1275C221.877 46.9508 222.822 46.7476 223.175 46.5179C223.582 46.2351 223.785 45.7492 223.785 45.06C223.785 43.558 222.751 42.8069 220.684 42.8069C219.623 42.8069 218.819 43.0278 218.272 43.4696C217.724 43.8937 217.397 44.6006 217.291 45.5901H215.091C215.126 44.1234 215.647 42.9836 216.655 42.1708C217.662 41.3579 219.049 40.9515 220.816 40.9515C222.742 40.9515 224.174 41.3932 225.11 42.2768C225.411 42.5595 225.632 42.9306 225.773 43.3901C225.914 43.8495 225.994 44.2295 226.012 44.5299C226.029 44.8126 226.038 45.2455 226.038 45.8287C226.038 46.5002 226.02 47.5163 225.985 48.877C225.95 50.2376 225.932 51.2537 225.932 51.9252C225.932 52.42 225.994 52.7734 226.118 52.9855C226.259 53.1799 226.506 53.2771 226.86 53.2771C227.001 53.2771 227.187 53.2506 227.416 53.1975ZM223.785 47.8962C223.626 48.0199 223.458 48.1259 223.281 48.2143C223.105 48.3026 222.875 48.3733 222.592 48.4263C222.327 48.4794 222.142 48.5235 222.036 48.5589C221.947 48.5766 221.717 48.6119 221.346 48.6649C220.975 48.7002 220.781 48.7179 220.763 48.7179C220.215 48.7886 219.853 48.8416 219.676 48.877C219.517 48.8946 219.199 48.9653 218.722 49.089C218.263 49.2127 217.936 49.3541 217.741 49.5131C217.547 49.6722 217.353 49.9107 217.158 50.2288C216.982 50.5292 216.893 50.8915 216.893 51.3156C216.893 52.0224 217.132 52.5791 217.609 52.9855C218.104 53.3919 218.775 53.5951 219.623 53.5951C220.701 53.5951 221.664 53.2771 222.513 52.6409C223.361 52.0047 223.785 51.2537 223.785 50.3878V47.8962ZM231.793 55H229.54V41.3226H231.793V46.7564H238.632V41.3226H240.885V55H238.632V48.7444H231.793V55ZM257.522 59.3471H255.375V55H244.931V59.3471H242.784V53.012H244.269C244.693 52.1991 245.082 50.9445 245.435 49.2481C245.806 47.534 245.992 45.864 245.992 44.2383V41.3226H255.746V53.012H257.522V59.3471ZM253.493 53.012V43.3106H248.192V44.4503C248.192 46.0584 248.024 47.693 247.688 49.3541C247.37 50.9975 247.008 52.2168 246.601 53.012H253.493ZM261.61 41.3226V43.2575C262.599 41.6848 264.137 40.8985 266.222 40.8985C268.13 40.8985 269.641 41.5434 270.755 42.8334C271.886 44.1234 272.451 45.8729 272.451 48.0818C272.451 50.2906 271.894 52.0578 270.781 53.3831C269.686 54.6908 268.201 55.3446 266.328 55.3446C264.366 55.3446 262.838 54.5936 261.742 53.0915V60.2748H259.489V41.3226H261.61ZM265.877 42.7804C264.57 42.7804 263.536 43.2575 262.776 44.2118C262.034 45.1484 261.663 46.4472 261.663 48.1083C261.663 49.7694 262.043 51.077 262.803 52.0313C263.58 52.9678 264.632 53.4361 265.957 53.4361C267.247 53.4361 268.263 52.959 269.005 52.0047C269.747 51.0505 270.118 49.7517 270.118 48.1083C270.118 46.4472 269.739 45.1484 268.979 44.2118C268.236 43.2575 267.203 42.7804 265.877 42.7804ZM287.315 53.1975V54.947C286.856 55.1237 286.343 55.2121 285.778 55.2121C284.488 55.2121 283.825 54.5406 283.79 53.1975C282.5 54.6466 280.848 55.3711 278.833 55.3711C277.49 55.3711 276.421 55.0265 275.626 54.3373C274.848 53.6482 274.46 52.7028 274.46 51.5011C274.46 49.0625 276.076 47.64 279.31 47.2335C279.522 47.1982 279.832 47.1629 280.238 47.1275C281.775 46.9508 282.721 46.7476 283.074 46.5179C283.481 46.2351 283.684 45.7492 283.684 45.06C283.684 43.558 282.65 42.8069 280.583 42.8069C279.522 42.8069 278.718 43.0278 278.17 43.4696C277.623 43.8937 277.296 44.6006 277.19 45.5901H274.99C275.025 44.1234 275.546 42.9836 276.554 42.1708C277.561 41.3579 278.948 40.9515 280.715 40.9515C282.641 40.9515 284.073 41.3932 285.009 42.2768C285.31 42.5595 285.53 42.9306 285.672 43.3901C285.813 43.8495 285.893 44.2295 285.91 44.5299C285.928 44.8126 285.937 45.2455 285.937 45.8287C285.937 46.5002 285.919 47.5163 285.884 48.877C285.849 50.2376 285.831 51.2537 285.831 51.9252C285.831 52.42 285.893 52.7734 286.016 52.9855C286.158 53.1799 286.405 53.2771 286.759 53.2771C286.9 53.2771 287.086 53.2506 287.315 53.1975ZM283.684 47.8962C283.525 48.0199 283.357 48.1259 283.18 48.2143C283.004 48.3026 282.774 48.3733 282.491 48.4263C282.226 48.4794 282.04 48.5235 281.934 48.5589C281.846 48.5766 281.616 48.6119 281.245 48.6649C280.874 48.7002 280.68 48.7179 280.662 48.7179C280.114 48.7886 279.752 48.8416 279.575 48.877C279.416 48.8946 279.098 48.9653 278.621 49.089C278.162 49.2127 277.835 49.3541 277.64 49.5131C277.446 49.6722 277.252 49.9107 277.057 50.2288C276.88 50.5292 276.792 50.8915 276.792 51.3156C276.792 52.0224 277.031 52.5791 277.508 52.9855C278.003 53.3919 278.674 53.5951 279.522 53.5951C280.6 53.5951 281.563 53.2771 282.412 52.6409C283.26 52.0047 283.684 51.2537 283.684 50.3878V47.8962Z" fill="white"/>
<path d="M16.01 69.9495V88.8223H13.5184V72.1231H6.54715L6.17605 82.7522C6.10537 84.7314 5.69893 86.3041 4.95675 87.4704C4.23223 88.6367 3.1808 89.2199 1.80245 89.2199C1.23698 89.2199 0.63616 89.0962 0 88.8488V86.7282C0.282738 86.905 0.733351 86.9933 1.35184 86.9933C1.8643 86.9933 2.27074 86.8784 2.57115 86.6487C2.88923 86.4013 3.16313 85.8535 3.39285 85.0053C3.64025 84.1571 3.78162 82.9731 3.81696 81.4534L4.16155 69.9495H16.01ZM31.187 74.7472C33.1838 74.7472 34.73 75.3746 35.8256 76.6292C36.9212 77.8838 37.469 79.6421 37.469 81.904C37.469 84.2189 36.9124 86.0214 35.7991 87.3114C34.7035 88.6014 33.1573 89.2464 31.1604 89.2464C29.2343 89.2464 27.7057 88.6632 26.5748 87.4969C25.4438 86.313 24.8342 84.6696 24.7458 82.5667H22.0952V88.8223H19.8421V75.1448H22.0952V80.5787H24.8519C25.0993 78.7586 25.7796 77.336 26.8929 76.3111C28.0062 75.2685 29.4375 74.7472 31.187 74.7472ZM34.0762 78.0871C33.3517 77.1152 32.3709 76.6292 31.1339 76.6292C29.897 76.6292 28.9074 77.1152 28.1652 78.0871C27.4407 79.059 27.0784 80.3578 27.0784 81.9835C27.0784 83.6623 27.4407 84.9788 28.1652 85.933C28.8897 86.8696 29.897 87.3379 31.187 87.3379C32.4239 87.3379 33.3958 86.8608 34.1027 85.9065C34.8095 84.9523 35.163 83.6358 35.163 81.957C35.163 80.3313 34.8007 79.0413 34.0762 78.0871ZM41.4086 73.2363C42.0094 72.2998 42.7339 71.6106 43.5821 71.1688C44.4303 70.7094 45.5083 70.4355 46.8159 70.3471C48.2827 70.2411 49.175 70.0997 49.4931 69.923C49.7052 69.817 49.8642 69.6756 49.9702 69.4989H52.2233C52.1703 69.7816 52.0908 70.0379 51.9847 70.2676C51.8964 70.4973 51.7904 70.7005 51.6667 70.8773C51.5606 71.0363 51.4016 71.1865 51.1895 71.3279C50.9952 71.4692 50.8273 71.5929 50.6859 71.699C50.5446 71.7873 50.3325 71.8757 50.0498 71.964C49.7847 72.0347 49.5726 72.0966 49.4136 72.1496C49.2546 72.1849 49.0072 72.2203 48.6714 72.2556C48.3533 72.2909 48.1236 72.3174 47.9822 72.3351C47.8409 72.3528 47.5846 72.3705 47.2135 72.3881C46.8425 72.4058 46.6039 72.4235 46.4979 72.4411C45.0488 72.5472 43.9179 73.1126 43.105 74.1376C42.2921 75.1448 41.7797 76.4967 41.5676 78.1931H41.6471C42.0359 77.2565 42.6544 76.5055 43.5026 75.94C44.3508 75.3746 45.3316 75.0918 46.4449 75.0918C48.3887 75.0918 49.9084 75.7103 51.004 76.9473C52.1173 78.1666 52.6739 79.8807 52.6739 82.0896C52.6739 84.3691 52.1084 86.1363 50.9775 87.3909C49.8642 88.6456 48.2915 89.2729 46.2593 89.2729C44.5982 89.2729 43.1934 88.7869 42.0447 87.815C40.8961 86.8254 40.1893 85.4117 39.9242 83.5739C39.8182 82.8318 39.7652 82.0012 39.7652 81.0823C39.7652 77.5304 40.313 74.9151 41.4086 73.2363ZM42.0713 82.1691C42.0713 83.7242 42.4423 84.9788 43.1845 85.933C43.9444 86.8873 44.9782 87.3644 46.2858 87.3644C47.5581 87.3644 48.5566 86.905 49.2811 85.9861C50.0056 85.0672 50.3678 83.786 50.3678 82.1426C50.3678 80.5345 49.9967 79.271 49.2546 78.3521C48.5124 77.4332 47.5051 76.9738 46.2328 76.9738C44.9605 76.9738 43.9444 77.4421 43.1845 78.3786C42.4423 79.2975 42.0713 80.561 42.0713 82.1691ZM58.2461 88.8223H55.3569V75.1448H57.61V86.3041H57.663L63.8125 75.1448H66.7017V88.8223H64.4487V77.663H64.3957L58.2461 88.8223ZM70.0327 88.8223V75.1448H76.3678C77.269 75.1448 78.0377 75.2243 78.6739 75.3834C79.31 75.5248 79.8667 75.8517 80.3438 76.3641C80.8209 76.8766 81.0595 77.5746 81.0595 78.4582C81.0595 79.8012 80.388 80.7819 79.0449 81.4004V81.4269C79.8578 81.5859 80.494 81.9659 80.9534 82.5667C81.4129 83.1498 81.6426 83.892 81.6426 84.7933C81.6426 85.9595 81.2538 86.9226 80.4763 87.6825C79.6988 88.4423 78.7004 88.8223 77.4811 88.8223H70.0327ZM76.1292 80.6582C77.0658 80.6582 77.7284 80.508 78.1172 80.2076C78.5236 79.8895 78.7269 79.4301 78.7269 78.8293C78.7269 78.2284 78.5325 77.7867 78.1437 77.5039C77.755 77.2212 77.0835 77.0798 76.1292 77.0798H72.2327V80.6582H76.1292ZM72.2327 82.5667V86.8873H77.0569C77.7638 86.8873 78.3116 86.6752 78.7004 86.2511C79.1068 85.827 79.31 85.2792 79.31 84.6077C79.31 83.247 78.4265 82.5667 76.6593 82.5667H72.2327ZM96.4362 87.0198V88.7693C95.9768 88.946 95.4643 89.0343 94.8988 89.0343C93.6088 89.0343 92.9462 88.3628 92.9108 87.0198C91.6208 88.4688 89.9686 89.1934 87.9541 89.1934C86.6111 89.1934 85.542 88.8488 84.7468 88.1596C83.9692 87.4704 83.5805 86.525 83.5805 85.3234C83.5805 82.8848 85.1974 81.4622 88.4312 81.0558C88.6433 81.0205 88.9525 80.9851 89.3589 80.9498C90.8963 80.7731 91.8417 80.5699 92.1952 80.3401C92.6016 80.0574 92.8048 79.5714 92.8048 78.8823C92.8048 77.3802 91.771 76.6292 89.7035 76.6292C88.6433 76.6292 87.8392 76.8501 87.2914 77.2919C86.7436 77.716 86.4167 78.4228 86.3107 79.4124H84.1106C84.146 77.9457 84.6673 76.8059 85.6745 75.993C86.6818 75.1802 88.0689 74.7737 89.8361 74.7737C91.7622 74.7737 93.1936 75.2155 94.1301 76.0991C94.4305 76.3818 94.6514 76.7529 94.7928 77.2123C94.9342 77.6718 95.0137 78.0517 95.0314 78.3521C95.049 78.6349 95.0579 79.0678 95.0579 79.651C95.0579 80.3225 95.0402 81.3386 95.0049 82.6992C94.9695 84.0599 94.9518 85.076 94.9518 85.7475C94.9518 86.2423 95.0137 86.5957 95.1374 86.8078C95.2788 87.0021 95.5262 87.0993 95.8796 87.0993C96.0209 87.0993 96.2065 87.0728 96.4362 87.0198ZM92.8048 81.7185C92.6458 81.8422 92.4779 81.9482 92.3012 82.0366C92.1245 82.1249 91.8947 82.1956 91.612 82.2486C91.3469 82.3016 91.1614 82.3458 91.0554 82.3811C90.967 82.3988 90.7373 82.4342 90.3662 82.4872C89.9951 82.5225 89.8007 82.5402 89.783 82.5402C89.2352 82.6109 88.873 82.6639 88.6963 82.6992C88.5372 82.7169 88.2192 82.7876 87.742 82.9113C87.2826 83.035 86.9557 83.1763 86.7613 83.3354C86.5669 83.4944 86.3725 83.733 86.1781 84.0511C86.0014 84.3515 85.9131 84.7137 85.9131 85.1378C85.9131 85.8447 86.1516 86.4013 86.6288 86.8078C87.1235 87.2142 87.795 87.4174 88.6433 87.4174C89.7212 87.4174 90.6843 87.0993 91.5325 86.4632C92.3807 85.827 92.8048 85.076 92.8048 84.2101V81.7185ZM109.374 88.8223H107.121V83.2294H104.126L99.8055 88.8223H96.8102L101.528 83.1498C100.521 82.9908 99.6994 82.5667 99.0633 81.8775C98.4448 81.1707 98.1355 80.2694 98.1355 79.1738C98.1355 77.9015 98.5155 76.9119 99.2753 76.2051C100.035 75.4982 101.087 75.1448 102.43 75.1448H109.374V88.8223ZM107.121 77.1328H103.145C101.343 77.1328 100.442 77.8132 100.442 79.1738C100.442 80.5522 101.343 81.2414 103.145 81.2414H107.121V77.1328ZM137.191 93.5139H134.779V88.8223H121.128V93.5139H118.716V86.6487H120.572C121.296 85.3587 121.888 83.5121 122.348 81.1088C122.807 78.6879 123.037 76.1874 123.037 73.6074V69.9495H135.097V86.6487H137.191V93.5139ZM132.606 86.6487V72.1231H125.475V74.6942C125.475 76.9738 125.263 79.2357 124.839 81.4799C124.433 83.7065 123.929 85.4294 123.328 86.6487H132.606ZM151.417 87.0198V88.7693C150.957 88.946 150.445 89.0343 149.879 89.0343C148.589 89.0343 147.927 88.3628 147.891 87.0198C146.601 88.4688 144.949 89.1934 142.935 89.1934C141.592 89.1934 140.523 88.8488 139.727 88.1596C138.95 87.4704 138.561 86.525 138.561 85.3234C138.561 82.8848 140.178 81.4622 143.412 81.0558C143.624 81.0205 143.933 80.9851 144.34 80.9498C145.877 80.7731 146.822 80.5699 147.176 80.3401C147.582 80.0574 147.785 79.5714 147.785 78.8823C147.785 77.3802 146.752 76.6292 144.684 76.6292C143.624 76.6292 142.82 76.8501 142.272 77.2919C141.724 77.716 141.397 78.4228 141.291 79.4124H139.091C139.127 77.9457 139.648 76.8059 140.655 75.993C141.662 75.1802 143.05 74.7737 144.817 74.7737C146.743 74.7737 148.174 75.2155 149.111 76.0991C149.411 76.3818 149.632 76.7529 149.773 77.2123C149.915 77.6718 149.994 78.0517 150.012 78.3521C150.03 78.6349 150.038 79.0678 150.038 79.651C150.038 80.3225 150.021 81.3386 149.985 82.6992C149.95 84.0599 149.932 85.076 149.932 85.7475C149.932 86.2423 149.994 86.5957 150.118 86.8078C150.259 87.0021 150.507 87.0993 150.86 87.0993C151.002 87.0993 151.187 87.0728 151.417 87.0198ZM147.785 81.7185C147.626 81.8422 147.459 81.9482 147.282 82.0366C147.105 82.1249 146.875 82.1956 146.593 82.2486C146.328 82.3016 146.142 82.3458 146.036 82.3811C145.948 82.3988 145.718 82.4342 145.347 82.4872C144.976 82.5225 144.781 82.5402 144.764 82.5402C144.216 82.6109 143.854 82.6639 143.677 82.6992C143.518 82.7169 143.2 82.7876 142.723 82.9113C142.263 83.035 141.936 83.1763 141.742 83.3354C141.548 83.4944 141.353 83.733 141.159 84.0511C140.982 84.3515 140.894 84.7137 140.894 85.1378C140.894 85.8447 141.132 86.4013 141.609 86.8078C142.104 87.2142 142.776 87.4174 143.624 87.4174C144.702 87.4174 145.665 87.0993 146.513 86.4632C147.361 85.827 147.785 85.076 147.785 84.2101V81.7185ZM155.661 75.1448V77.0798C156.65 75.5071 158.188 74.7207 160.273 74.7207C162.181 74.7207 163.692 75.3657 164.806 76.6557C165.937 77.9457 166.502 79.6951 166.502 81.904C166.502 84.1129 165.945 85.88 164.832 87.2054C163.736 88.513 162.252 89.1669 160.379 89.1669C158.417 89.1669 156.889 88.4158 155.793 86.9138V94.0971H153.54V75.1448H155.661ZM159.928 76.6027C158.621 76.6027 157.587 77.0798 156.827 78.0341C156.085 78.9706 155.714 80.2694 155.714 81.9305C155.714 83.5916 156.094 84.8993 156.854 85.8535C157.631 86.7901 158.683 87.2584 160.008 87.2584C161.298 87.2584 162.314 86.7813 163.056 85.827C163.798 84.8728 164.169 83.5739 164.169 81.9305C164.169 80.2694 163.79 78.9706 163.03 78.0341C162.287 77.0798 161.254 76.6027 159.928 76.6027ZM179.537 81.5064C180.35 82.2486 180.757 83.2647 180.757 84.5547C180.757 85.8447 180.359 86.8784 179.564 87.656C178.786 88.4335 177.735 88.8223 176.41 88.8223H169.173V75.1448H171.426V80.3666H176.303C177.646 80.3666 178.724 80.7466 179.537 81.5064ZM175.588 82.3016H171.426V86.8343H175.588C176.507 86.8343 177.205 86.6399 177.682 86.2511C178.177 85.8447 178.424 85.2792 178.424 84.5547C178.424 83.0526 177.479 82.3016 175.588 82.3016ZM193.813 88.8223H191.56V83.2294H188.564L184.244 88.8223H181.248L185.967 83.1498C184.959 82.9908 184.138 82.5667 183.501 81.8775C182.883 81.1707 182.574 80.2694 182.574 79.1738C182.574 77.9015 182.954 76.9119 183.714 76.2051C184.473 75.4982 185.525 75.1448 186.868 75.1448H193.813V88.8223ZM191.56 77.1328H187.584C185.781 77.1328 184.88 77.8132 184.88 79.1738C184.88 80.5522 185.781 81.2414 187.584 81.2414H191.56V77.1328Z" fill="white"/>
</svg>
