<svg width="264" height="95" viewBox="0 0 264 95" fill="none" xmlns="http://www.w3.org/2000/svg">
<path d="M17.7508 36.4612L9.79882 44.0421L18.0689 55.334H14.8881L8.04938 45.7386L4.92159 48.7073V55.334H2.42996V36.4612H4.92159V45.8181L14.4905 36.4612H17.7508ZM31.8256 53.5315V55.281C31.3662 55.4577 30.8537 55.546 30.2883 55.546C28.9983 55.546 28.3356 54.8745 28.3003 53.5315C27.0103 54.9806 25.358 55.7051 23.3435 55.7051C22.0005 55.7051 20.9314 55.3605 20.1362 54.6713C19.3587 53.9821 18.9699 53.0367 18.9699 51.8351C18.9699 49.3965 20.5868 47.974 23.8206 47.5675C24.0327 47.5322 24.3419 47.4968 24.7484 47.4615C26.2858 47.2848 27.2312 47.0816 27.5846 46.8519C27.991 46.5691 28.1942 46.0832 28.1942 45.394C28.1942 43.8919 27.1605 43.1409 25.093 43.1409C24.0327 43.1409 23.2287 43.3618 22.6808 43.8036C22.133 44.2277 21.8061 44.9345 21.7001 45.9241H19.5C19.5354 44.4574 20.0567 43.3176 21.0639 42.5048C22.0712 41.6919 23.4584 41.2855 25.2255 41.2855C27.1516 41.2855 28.583 41.7272 29.5196 42.6108C29.82 42.8935 30.0409 43.2646 30.1822 43.7241C30.3236 44.1835 30.4031 44.5634 30.4208 44.8639C30.4385 45.1466 30.4473 45.5795 30.4473 46.1627C30.4473 46.8342 30.4296 47.8503 30.3943 49.2109C30.3589 50.5716 30.3413 51.5877 30.3413 52.2592C30.3413 52.754 30.4031 53.1074 30.5268 53.3195C30.6682 53.5139 30.9156 53.6111 31.269 53.6111C31.4104 53.6111 31.5959 53.5845 31.8256 53.5315ZM28.1942 48.2302C28.0352 48.3539 27.8673 48.4599 27.6906 48.5483C27.5139 48.6366 27.2842 48.7073 27.0014 48.7603C26.7364 48.8133 26.5508 48.8575 26.4448 48.8929C26.3564 48.9105 26.1267 48.9459 25.7556 48.9989C25.3845 49.0342 25.1901 49.0519 25.1725 49.0519C24.6247 49.1226 24.2624 49.1756 24.0857 49.2109C23.9267 49.2286 23.6086 49.2993 23.1315 49.423C22.672 49.5467 22.3451 49.6881 22.1507 49.8471C21.9563 50.0061 21.762 50.2447 21.5676 50.5628C21.3909 50.8632 21.3025 51.2255 21.3025 51.6496C21.3025 52.3564 21.5411 52.913 22.0182 53.3195C22.513 53.7259 23.1845 53.9291 24.0327 53.9291C25.1106 53.9291 26.0737 53.6111 26.9219 52.9749C27.7701 52.3387 28.1942 51.5877 28.1942 50.7218V48.2302ZM45.6385 51.0134C44.9493 54.1942 42.9613 55.7846 39.6745 55.7846C37.66 55.7846 36.0784 55.1573 34.9298 53.9026C33.7989 52.648 33.2334 50.9074 33.2334 48.6808C33.2334 46.4719 33.8165 44.6871 34.9828 43.3265C36.1668 41.9481 37.7042 41.2589 39.595 41.2589C41.6979 41.2589 43.2529 41.9746 44.2602 43.406C45.2851 44.8197 45.7976 46.6133 45.7976 48.7868V49.1049H35.513L35.4865 49.264C35.4865 50.713 35.8664 51.8528 36.6263 52.6833C37.3861 53.5139 38.4287 53.9291 39.754 53.9291C40.7436 53.9291 41.5211 53.6994 42.0866 53.24C42.6698 52.7805 43.1204 52.0383 43.4385 51.0134H45.6385ZM43.465 47.276C43.3589 45.9683 42.9613 44.9522 42.2722 44.2277C41.583 43.4855 40.6729 43.1144 39.542 43.1144C38.4464 43.1144 37.5363 43.4855 36.8118 44.2277C36.0873 44.9699 35.6543 45.986 35.513 47.276H43.465ZM63.0033 55.334H60.7502V44.5458H60.6707L56.6152 55.334H54.5477L50.4921 44.5458H50.4126V55.334H48.1596V41.6565H51.3934L55.5549 52.7363H55.6079L59.7695 41.6565H63.0033V55.334ZM90.0902 48.2037C89.8781 50.5893 89.0476 52.4536 87.5986 53.7966C86.1672 55.1219 84.2764 55.7846 81.9261 55.7846C79.2401 55.7846 77.1108 54.901 75.538 53.1339C73.9653 51.3491 73.1789 48.9459 73.1789 45.9241C73.1789 43.0967 73.9653 40.7465 75.538 38.8733C77.1284 36.9825 79.3197 36.0371 82.1117 36.0371C84.1085 36.0371 85.8668 36.5761 87.3865 37.654C88.9062 38.732 89.7544 40.2252 89.9312 42.1337H87.4395C87.1568 40.8967 86.5383 39.9336 85.5841 39.2444C84.6298 38.5376 83.4547 38.1842 82.0587 38.1842C79.9558 38.1842 78.3654 38.9264 77.2875 40.4107C76.2272 41.8951 75.6971 43.7241 75.6971 45.8976C75.6971 48.3009 76.2626 50.1917 77.3935 51.57C78.5245 52.9484 80.0707 53.6376 82.0322 53.6376C83.6402 53.6376 84.9214 53.1781 85.8756 52.2592C86.8299 51.3226 87.4042 49.9708 87.5986 48.2037H90.0902ZM93.9252 43.2204C95.1268 41.9128 96.7614 41.2589 98.8289 41.2589C100.896 41.2589 102.504 41.8863 103.653 43.1409C104.802 44.3956 105.376 46.1538 105.376 48.4157C105.376 50.7307 104.802 52.5331 103.653 53.8231C102.504 55.1131 100.888 55.7581 98.8024 55.7581C96.7172 55.7581 95.0826 55.1219 93.8987 53.8496C92.7147 52.5773 92.1227 50.8102 92.1227 48.5483C92.1227 46.304 92.7235 44.5281 93.9252 43.2204ZM101.904 44.5988C101.144 43.6269 100.101 43.1409 98.7759 43.1409C97.4506 43.1409 96.3991 43.6269 95.6216 44.5988C94.8441 45.5707 94.4553 46.8695 94.4553 48.4953C94.4553 50.174 94.8352 51.4905 95.5951 52.4448C96.3726 53.3813 97.4506 53.8496 98.8289 53.8496C100.154 53.8496 101.188 53.3725 101.93 52.4183C102.69 51.464 103.07 50.1475 103.07 48.4688C103.07 46.843 102.681 45.553 101.904 44.5988ZM126.508 48.2832C126.508 49.6439 126.34 50.8544 126.004 51.9146C125.668 52.9749 125.067 53.8673 124.202 54.5918C123.353 55.2986 122.284 55.6521 120.994 55.6521C120.499 55.6521 119.969 55.5107 119.404 55.228C118.838 54.9452 118.414 54.636 118.132 54.3002H118.079V60.6088H115.852V54.3002H115.799C115.516 54.636 115.092 54.9452 114.527 55.228C113.961 55.5107 113.431 55.6521 112.936 55.6521C111.646 55.6521 110.568 55.2986 109.702 54.5918C108.854 53.8673 108.262 52.9749 107.926 51.9146C107.591 50.8544 107.423 49.6439 107.423 48.2832C107.423 46.1273 107.9 44.4309 108.854 43.1939C109.808 41.9393 111.107 41.312 112.751 41.312C113.316 41.312 113.89 41.471 114.474 41.7891C115.074 42.0895 115.507 42.4252 115.772 42.7963H115.852V36.4612H118.079V42.7963H118.158C118.423 42.4252 118.847 42.0895 119.43 41.7891C120.031 41.471 120.614 41.312 121.18 41.312C122.823 41.312 124.122 41.9393 125.076 43.1939C126.031 44.4309 126.508 46.1273 126.508 48.2832ZM124.175 48.3362C124.175 46.7635 123.901 45.5177 123.353 44.5988C122.806 43.6622 121.975 43.1939 120.862 43.1939C120.279 43.1939 119.713 43.3441 119.165 43.6445C118.635 43.945 118.273 44.4309 118.079 45.1024V51.9941C118.167 52.4889 118.458 52.913 118.953 53.2665C119.466 53.6022 120.058 53.7701 120.729 53.7701C121.383 53.7701 121.94 53.6111 122.399 53.293C122.876 52.9749 123.239 52.5419 123.486 51.9941C123.733 51.4287 123.91 50.8544 124.016 50.2712C124.122 49.6704 124.175 49.0254 124.175 48.3362ZM115.852 51.9941V45.1024C115.658 44.4309 115.287 43.945 114.739 43.6445C114.209 43.3441 113.652 43.1939 113.069 43.1939C111.956 43.1939 111.125 43.6622 110.577 44.5988C110.029 45.5177 109.755 46.7635 109.755 48.3362C109.755 49.0254 109.808 49.6704 109.914 50.2712C110.021 50.8544 110.197 51.4287 110.445 51.9941C110.692 52.5419 111.045 52.9749 111.505 53.293C111.982 53.6111 112.547 53.7701 113.201 53.7701C113.873 53.7701 114.456 53.6022 114.951 53.2665C115.463 52.913 115.764 52.4889 115.852 51.9941ZM139.544 48.0181C140.357 48.7603 140.763 49.7764 140.763 51.0664C140.763 52.3564 140.365 53.3902 139.57 54.1677C138.793 54.9452 137.741 55.334 136.416 55.334H129.18V41.6565H131.433V46.8784H136.31C137.653 46.8784 138.731 47.2583 139.544 48.0181ZM135.594 48.8133H131.433V53.346H135.594C136.513 53.346 137.211 53.1516 137.688 52.7628C138.183 52.3564 138.43 51.7909 138.43 51.0664C138.43 49.5644 137.485 48.8133 135.594 48.8133ZM153.819 55.334H151.566V49.7411H148.571L144.25 55.334H141.255L145.973 49.6616C144.966 49.5025 144.144 49.0784 143.508 48.3892C142.889 47.6824 142.58 46.7812 142.58 45.6856C142.58 44.4132 142.96 43.4237 143.72 42.7168C144.48 42.01 145.531 41.6565 146.874 41.6565H153.819V55.334ZM151.566 43.6445H147.59C145.788 43.6445 144.886 44.3249 144.886 45.6856C144.886 47.0639 145.788 47.7531 147.59 47.7531H151.566V43.6445Z" fill="white"/>
<path d="M17.7508 1.79425L9.79882 9.37515L18.0689 20.667H14.8881L8.04938 11.0716L4.92159 14.0403V20.667H2.42996V1.79425H4.92159V11.1511L14.4905 1.79425H17.7508ZM31.0304 6.98955L25.1725 22.4164C24.9427 23.0349 24.7395 23.512 24.5628 23.8478C24.4038 24.2012 24.1652 24.5811 23.8471 24.9876C23.5467 25.4117 23.1756 25.7121 22.7339 25.8888C22.3098 26.0832 21.8061 26.1804 21.223 26.1804C20.7812 26.1804 20.2246 26.1009 19.5531 25.9418V23.9273C20.2069 24.1217 20.6928 24.2189 21.0109 24.2189C21.7531 24.2189 22.2832 23.839 22.6013 23.0791L23.6616 20.5875L18.2277 6.98955H20.7724L24.8279 17.8838L28.6714 6.98955H31.0304ZM35.086 6.98955V8.92454C36.0755 7.35181 37.6129 6.56545 39.6981 6.56545C41.6066 6.56545 43.1175 7.21044 44.2308 8.50043C45.3617 9.79042 45.9272 11.5399 45.9272 13.7488C45.9272 15.9576 45.3706 17.7248 44.2573 19.0501C43.1617 20.3577 41.6773 21.0116 39.8042 21.0116C37.8427 21.0116 36.3141 20.2606 35.2185 18.7585V25.9418H32.9654V6.98955H35.086ZM39.3535 8.44742C38.0459 8.44742 37.0121 8.92454 36.2523 9.87878C35.5101 10.8153 35.139 12.1142 35.139 13.7753C35.139 15.4363 35.5189 16.744 36.2788 17.6982C37.0563 18.6348 38.1077 19.1031 39.4331 19.1031C40.7231 19.1031 41.7391 18.626 42.4813 17.6717C43.2235 16.7175 43.5946 15.4187 43.5946 13.7753C43.5946 12.1142 43.2147 10.8153 42.4548 9.87878C41.7126 8.92454 40.6789 8.44742 39.3535 8.44742ZM60.7914 18.8645V20.614C60.332 20.7907 59.8195 20.879 59.254 20.879C57.964 20.879 57.3014 20.2075 57.266 18.8645C55.976 20.3136 54.3238 21.0381 52.3093 21.0381C50.9663 21.0381 49.8972 20.6935 49.102 20.0043C48.3245 19.3152 47.9357 18.3697 47.9357 17.1681C47.9357 14.7295 49.5526 13.307 52.7864 12.9005C52.9985 12.8652 53.3077 12.8299 53.7141 12.7945C55.2515 12.6178 56.1969 12.4146 56.5504 12.1849C56.9568 11.9021 57.16 11.4162 57.16 10.727C57.16 9.22495 56.1263 8.47393 54.0587 8.47393C52.9985 8.47393 52.1944 8.69482 51.6466 9.13659C51.0988 9.5607 50.7719 10.2675 50.6659 11.2571H48.4658C48.5012 9.79042 49.0225 8.65064 50.0297 7.83777C51.037 7.02489 52.4242 6.61846 54.1913 6.61846C56.1174 6.61846 57.5488 7.06024 58.4853 7.94379C58.7858 8.22653 59.0066 8.59762 59.148 9.05707C59.2894 9.51652 59.3689 9.89645 59.3866 10.1969C59.4042 10.4796 59.4131 10.9125 59.4131 11.4957C59.4131 12.1672 59.3954 13.1833 59.3601 14.544C59.3247 15.9046 59.3071 16.9207 59.3071 17.5922C59.3071 18.087 59.3689 18.4404 59.4926 18.6525C59.634 18.8469 59.8814 18.9441 60.2348 18.9441C60.3762 18.9441 60.5617 18.9176 60.7914 18.8645ZM57.16 13.5632C57.001 13.6869 56.8331 13.7929 56.6564 13.8813C56.4797 13.9696 56.25 14.0403 55.9672 14.0933C55.7021 14.1464 55.5166 14.1905 55.4106 14.2259C55.3222 14.2435 55.0925 14.2789 54.7214 14.3319C54.3503 14.3672 54.1559 14.3849 54.1383 14.3849C53.5904 14.4556 53.2282 14.5086 53.0515 14.544C52.8924 14.5616 52.5744 14.6323 52.0972 14.756C51.6378 14.8797 51.3109 15.0211 51.1165 15.1801C50.9221 15.3392 50.7277 15.5777 50.5333 15.8958C50.3566 16.1962 50.2683 16.5585 50.2683 16.9826C50.2683 17.6894 50.5068 18.2461 50.984 18.6525C51.4788 19.0589 52.1503 19.2621 52.9985 19.2621C54.0764 19.2621 55.0395 18.9441 55.8877 18.3079C56.7359 17.6717 57.16 16.9207 57.16 16.0548V13.5632ZM73.385 8.97755H68.4813V20.667H66.2282V8.97755H61.3245V6.98955H73.385V8.97755ZM75.8054 8.55345C77.007 7.24578 78.6416 6.59195 80.7091 6.59195C82.7766 6.59195 84.3847 7.21928 85.5333 8.47393C86.6819 9.72857 87.2563 11.4869 87.2563 13.7488C87.2563 16.0637 86.6819 17.8661 85.5333 19.1561C84.3847 20.4461 82.7678 21.0911 80.6826 21.0911C78.5974 21.0911 76.9628 20.4549 75.7789 19.1826C74.5949 17.9103 74.0029 16.1432 74.0029 13.8813C74.0029 11.6371 74.6037 9.86111 75.8054 8.55345ZM83.7839 9.93179C83.024 8.95988 81.9814 8.47393 80.6561 8.47393C79.3308 8.47393 78.2793 8.95988 77.5018 9.93179C76.7243 10.9037 76.3355 12.2025 76.3355 13.8283C76.3355 15.507 76.7154 16.8235 77.4753 17.7778C78.2528 18.7143 79.3308 19.1826 80.7091 19.1826C82.0344 19.1826 83.0682 18.7055 83.8104 17.7513C84.5702 16.797 84.9502 15.4805 84.9502 13.8018C84.9502 12.176 84.5614 10.886 83.7839 9.93179ZM92.0598 6.98955V8.92454C93.0493 7.35181 94.5867 6.56545 96.6719 6.56545C98.5804 6.56545 100.091 7.21044 101.205 8.50043C102.336 9.79042 102.901 11.5399 102.901 13.7488C102.901 15.9576 102.344 17.7248 101.231 19.0501C100.135 20.3577 98.6511 21.0116 96.778 21.0116C94.8165 21.0116 93.2879 20.2606 92.1923 18.7585V25.9418H89.9392V6.98955H92.0598ZM96.3273 8.44742C95.0197 8.44742 93.9859 8.92454 93.2261 9.87878C92.4839 10.8153 92.1128 12.1142 92.1128 13.7753C92.1128 15.4363 92.4927 16.744 93.2526 17.6982C94.0301 18.6348 95.0815 19.1031 96.4069 19.1031C97.6968 19.1031 98.7129 18.626 99.4551 17.6717C100.197 16.7175 100.568 15.4187 100.568 13.7753C100.568 12.1142 100.188 10.8153 99.4286 9.87878C98.6864 8.92454 97.6527 8.44742 96.3273 8.44742ZM118.693 6.98955H120.946V20.667H118.693V6.98955ZM115.3 13.3512C116.113 14.0933 116.519 15.1094 116.519 16.3994C116.519 17.6894 116.122 18.7232 115.327 19.5007C114.549 20.2782 113.498 20.667 112.172 20.667H105.572V6.98955H107.825V12.2114H112.066C113.409 12.2114 114.487 12.5913 115.3 13.3512ZM111.351 14.1464H107.825V18.679H111.351C112.27 18.679 112.968 18.4846 113.445 18.0958C113.939 17.6894 114.187 17.1239 114.187 16.3994C114.187 14.8974 113.241 14.1464 111.351 14.1464ZM127.761 17.7248V20.667H124.819V17.7248H127.761ZM127.761 6.98955V9.93179H124.819V6.98955H127.761Z" fill="white"/>
<path d="M17.7508 71.1273L9.79882 78.7082L18.0689 90H14.8881L8.04938 80.4046L4.92159 83.3733V90H2.42996V71.1273H4.92159V80.4841L14.4905 71.1273H17.7508ZM20.7989 77.8865C22.0005 76.5788 23.6351 75.925 25.7026 75.925C27.7701 75.925 29.3782 76.5523 30.5268 77.8069C31.6754 79.0616 32.2498 80.8199 32.2498 83.0818C32.2498 85.3967 31.6754 87.1991 30.5268 88.4891C29.3782 89.7791 27.7613 90.4241 25.6761 90.4241C23.5909 90.4241 21.9563 89.7879 20.7724 88.5156C19.5884 87.2433 18.9964 85.4762 18.9964 83.2143C18.9964 80.9701 19.5972 79.1941 20.7989 77.8865ZM28.7774 79.2648C28.0175 78.2929 26.9749 77.8069 25.6496 77.8069C24.3243 77.8069 23.2728 78.2929 22.4953 79.2648C21.7178 80.2367 21.329 81.5355 21.329 83.1613C21.329 84.84 21.7089 86.1565 22.4688 87.1108C23.2463 88.0473 24.3243 88.5156 25.7026 88.5156C27.0279 88.5156 28.0617 88.0385 28.8039 87.0843C29.5637 86.13 29.9437 84.8135 29.9437 83.1348C29.9437 81.509 29.5549 80.219 28.7774 79.2648ZM49.75 90H47.4969V79.2118H47.4174L43.3618 90H41.2943L37.2388 79.2118H37.1593V90H34.9062V76.3226H38.14L42.3016 87.4023H42.3546L46.5161 76.3226H49.75V90ZM65.3245 90H62.4618L57.4785 83.2673L55.3315 85.3613V90H53.0784V76.3226H55.3315V82.8432L61.587 76.3226H64.6088L59.0954 81.7034L65.3245 90ZM67.9103 77.8865C69.112 76.5788 70.7465 75.925 72.8141 75.925C74.8816 75.925 76.4897 76.5523 77.6383 77.8069C78.7869 79.0616 79.3612 80.8199 79.3612 83.0818C79.3612 85.3967 78.7869 87.1991 77.6383 88.4891C76.4897 89.7791 74.8727 90.4241 72.7876 90.4241C70.7024 90.4241 69.0678 89.7879 67.8838 88.5156C66.6999 87.2433 66.1079 85.4762 66.1079 83.2143C66.1079 80.9701 66.7087 79.1941 67.9103 77.8865ZM75.8888 79.2648C75.129 78.2929 74.0864 77.8069 72.761 77.8069C71.4357 77.8069 70.3843 78.2929 69.6068 79.2648C68.8292 80.2367 68.4405 81.5355 68.4405 83.1613C68.4405 84.84 68.8204 86.1565 69.5802 87.1108C70.3578 88.0473 71.4357 88.5156 72.8141 88.5156C74.1394 88.5156 75.1732 88.0385 75.9153 87.0843C76.6752 86.13 77.0551 84.8135 77.0551 83.1348C77.0551 81.509 76.6664 80.219 75.8888 79.2648ZM81.9912 90V76.3226H88.3263C89.2275 76.3226 89.9962 76.4021 90.6323 76.5611C91.2685 76.7025 91.8251 77.0294 92.3023 77.5419C92.7794 78.0543 93.0179 78.7523 93.0179 79.6359C93.0179 80.9789 92.3464 81.9596 91.0034 82.5781V82.6046C91.8163 82.7637 92.4525 83.1436 92.9119 83.7444C93.3714 84.3276 93.6011 85.0698 93.6011 85.971C93.6011 87.1373 93.2123 88.1004 92.4348 88.8602C91.6573 89.6201 90.6588 90 89.4395 90H81.9912ZM88.0877 81.8359C89.0243 81.8359 89.6869 81.6857 90.0757 81.3853C90.4821 81.0673 90.6854 80.6078 90.6854 80.007C90.6854 79.4062 90.491 78.9644 90.1022 78.6817C89.7134 78.3989 89.0419 78.2575 88.0877 78.2575H84.1912V81.8359H88.0877ZM84.1912 83.7444V88.065H89.0154C89.7223 88.065 90.2701 87.853 90.6588 87.4289C91.0653 87.0047 91.2685 86.4569 91.2685 85.7854C91.2685 84.4248 90.3849 83.7444 88.6178 83.7444H84.1912ZM108.395 88.1975V89.947C107.935 90.1237 107.423 90.2121 106.857 90.2121C105.567 90.2121 104.905 89.5406 104.869 88.1975C103.579 89.6466 101.927 90.3711 99.9126 90.3711C98.5696 90.3711 97.5005 90.0265 96.7053 89.3373C95.9277 88.6482 95.539 87.7028 95.539 86.5011C95.539 84.0625 97.1559 82.64 100.39 82.2335C100.602 82.1982 100.911 82.1629 101.317 82.1275C102.855 81.9508 103.8 81.7476 104.154 81.5179C104.56 81.2351 104.763 80.7492 104.763 80.06C104.763 78.558 103.73 77.8069 101.662 77.8069C100.602 77.8069 99.7977 78.0278 99.2499 78.4696C98.7021 78.8937 98.3752 79.6006 98.2692 80.5901H96.0691C96.1044 79.1234 96.6257 77.9836 97.633 77.1708C98.6403 76.3579 100.027 75.9515 101.795 75.9515C103.721 75.9515 105.152 76.3932 106.089 77.2768C106.389 77.5595 106.61 77.9306 106.751 78.3901C106.893 78.8495 106.972 79.2295 106.99 79.5299C107.008 79.8126 107.016 80.2455 107.016 80.8287C107.016 81.5002 106.999 82.5163 106.963 83.877C106.928 85.2376 106.91 86.2537 106.91 86.9252C106.91 87.42 106.972 87.7734 107.096 87.9855C107.237 88.1799 107.485 88.2771 107.838 88.2771C107.979 88.2771 108.165 88.2506 108.395 88.1975ZM104.763 82.8962C104.604 83.0199 104.436 83.1259 104.26 83.2143C104.083 83.3026 103.853 83.3733 103.57 83.4263C103.305 83.4794 103.12 83.5235 103.014 83.5589C102.925 83.5766 102.696 83.6119 102.325 83.6649C101.954 83.7002 101.759 83.7179 101.742 83.7179C101.194 83.7886 100.831 83.8416 100.655 83.877C100.496 83.8946 100.178 83.9653 99.7005 84.089C99.2411 84.2127 98.9142 84.3541 98.7198 84.5131C98.5254 84.6722 98.331 84.9107 98.1366 85.2288C97.9599 85.5292 97.8716 85.8915 97.8716 86.3156C97.8716 87.0224 98.1101 87.5791 98.5872 87.9855C99.082 88.3919 99.7535 88.5951 100.602 88.5951C101.68 88.5951 102.643 88.2771 103.491 87.6409C104.339 87.0047 104.763 86.2537 104.763 85.3878V82.8962ZM126.219 71.1273L133.587 90H130.804L128.71 84.2215H120.785L118.638 90H115.987L123.409 71.1273H126.219ZM127.968 82.2335L124.761 73.5129L121.5 82.2335H127.968ZM137.336 90H135.083V76.3226H137.336V81.7564H144.175V76.3226H146.428V90H144.175V83.7444H137.336V90ZM152.065 90H149.812V76.3226H152.065V81.7564H158.904V76.3226H161.157V90H158.904V83.7444H152.065V90ZM176.655 88.1975V89.947C176.195 90.1237 175.683 90.2121 175.117 90.2121C173.827 90.2121 173.165 89.5406 173.129 88.1975C171.839 89.6466 170.187 90.3711 168.172 90.3711C166.829 90.3711 165.76 90.0265 164.965 89.3373C164.188 88.6482 163.799 87.7028 163.799 86.5011C163.799 84.0625 165.416 82.64 168.65 82.2335C168.862 82.1982 169.171 82.1629 169.577 82.1275C171.115 81.9508 172.06 81.7476 172.413 81.5179C172.82 81.2351 173.023 80.7492 173.023 80.06C173.023 78.558 171.989 77.8069 169.922 77.8069C168.862 77.8069 168.058 78.0278 167.51 78.4696C166.962 78.8937 166.635 79.6006 166.529 80.5901H164.329C164.364 79.1234 164.886 77.9836 165.893 77.1708C166.9 76.3579 168.287 75.9515 170.054 75.9515C171.981 75.9515 173.412 76.3932 174.348 77.2768C174.649 77.5595 174.87 77.9306 175.011 78.3901C175.153 78.8495 175.232 79.2295 175.25 79.5299C175.267 79.8126 175.276 80.2455 175.276 80.8287C175.276 81.5002 175.259 82.5163 175.223 83.877C175.188 85.2376 175.17 86.2537 175.17 86.9252C175.17 87.42 175.232 87.7734 175.356 87.9855C175.497 88.1799 175.744 88.2771 176.098 88.2771C176.239 88.2771 176.425 88.2506 176.655 88.1975ZM173.023 82.8962C172.864 83.0199 172.696 83.1259 172.52 83.2143C172.343 83.3026 172.113 83.3733 171.83 83.4263C171.565 83.4794 171.38 83.5235 171.274 83.5589C171.185 83.5766 170.956 83.6119 170.585 83.6649C170.213 83.7002 170.019 83.7179 170.001 83.7179C169.454 83.7886 169.091 83.8416 168.915 83.877C168.756 83.8946 168.437 83.9653 167.96 84.089C167.501 84.2127 167.174 84.3541 166.98 84.5131C166.785 84.6722 166.591 84.9107 166.396 85.2288C166.22 85.5292 166.131 85.8915 166.131 86.3156C166.131 87.0224 166.37 87.5791 166.847 87.9855C167.342 88.3919 168.013 88.5951 168.862 88.5951C169.94 88.5951 170.903 88.2771 171.751 87.6409C172.599 87.0047 173.023 86.2537 173.023 85.3878V82.8962Z" fill="white"/>
</svg>
