<svg width="92" height="402" viewBox="0 0 92 402" fill="none" xmlns="http://www.w3.org/2000/svg">
<path d="M47.4143 64.4341L49.8975 65.0549V65.4688H41.4131V65.0549L43.8964 64.4341V38.1531H39.7576V37.5323L47.4143 35.8768V64.4341Z" fill="#004BEF"/>
<path d="M27.3625 89.9278C20.636 86.6911 16.3102 79.6612 14.9605 70.584C13.6124 61.5176 15.2801 50.5893 20.3776 39.9954C25.4751 29.4016 32.9741 21.2792 40.9001 16.6752C48.8355 12.0658 57.0281 11.0594 63.7547 14.2961C70.4812 17.5328 74.8069 24.5627 76.1567 33.6398C77.5048 42.7062 75.8371 53.6346 70.7396 64.2284C65.6421 74.8222 58.143 82.9447 50.2171 87.5486C42.2817 92.158 34.0891 93.1644 27.3625 89.9278Z" stroke="#004BEF" stroke-width="3.26897"/>
<path d="M43.6212 170.498C42.8487 170.498 42.1037 170.663 41.3863 170.994C40.6689 171.325 40.0205 171.781 39.4411 172.36C38.8893 172.912 38.4478 173.546 38.1167 174.264C37.7856 174.981 37.6201 175.726 37.6201 176.499C37.6201 177.216 37.896 177.809 38.4478 178.278C39.0272 178.747 39.9929 178.982 41.3449 178.982L42.1727 182.293C42.0623 182.348 41.9381 182.39 41.8002 182.417C41.6622 182.445 41.5105 182.472 41.3449 182.5C41.207 182.5 41.069 182.5 40.931 182.5C39.7722 182.5 38.7927 182.045 37.9925 181.134C37.1924 180.196 36.7923 178.789 36.7923 176.913C36.7923 175.919 36.9854 174.995 37.3717 174.14C37.758 173.257 38.2823 172.484 38.9444 171.822C39.6066 171.16 40.3654 170.636 41.2208 170.249C42.1037 169.863 43.0418 169.67 44.0351 169.67C45.3319 169.67 46.5183 169.891 47.5944 170.332C48.6981 170.774 49.6362 171.381 50.4087 172.153C51.2089 172.898 51.8297 173.795 52.2712 174.843C52.7126 175.864 52.9334 176.968 52.9334 178.154C52.9334 179.286 52.6988 180.458 52.2298 181.672C51.7607 182.859 51.1261 184.045 50.326 185.232C49.5534 186.418 48.6705 187.577 47.6772 188.708C46.6839 189.839 45.663 190.902 44.6145 191.895C43.566 192.888 42.5451 193.812 41.5519 194.668C40.5586 195.496 39.6618 196.199 38.8617 196.779H51.8987L52.7264 192.847H53.3472V199.469H35.1368C37.0406 197.399 38.8341 195.468 40.5172 193.675C42.2003 191.881 43.6626 190.143 44.9042 188.46C46.1734 186.749 47.1667 185.066 47.8841 183.41C48.6291 181.727 49.0016 179.975 49.0016 178.154C49.0016 176.802 48.8636 175.643 48.5877 174.678C48.3118 173.712 47.9393 172.926 47.4702 172.319C47.0012 171.684 46.4356 171.229 45.7734 170.953C45.1112 170.649 44.3938 170.498 43.6212 170.498Z" fill="#004BEF"/>
<path d="M27.3625 223.928C20.636 220.691 16.3102 213.661 14.9605 204.584C13.6124 195.518 15.2801 184.589 20.3776 173.995C25.4751 163.402 32.9741 155.279 40.9001 150.675C48.8355 146.066 57.0281 145.059 63.7547 148.296C70.4812 151.533 74.8069 158.563 76.1567 167.64C77.5048 176.706 75.8371 187.635 70.7396 198.228C65.6421 208.822 58.143 216.945 50.2171 221.549C42.2817 226.158 34.0891 227.164 27.3625 223.928Z" stroke="#004BEF" stroke-width="3.26897"/>
<path d="M45.1052 333.029C43.8636 333.029 42.8979 333.388 42.2081 334.105C41.5183 334.822 41.1734 335.912 41.1734 337.375C41.1734 337.788 41.2424 338.202 41.3804 338.616C41.4355 338.837 41.5045 339.044 41.5873 339.237L38.0694 340.065C37.9866 339.954 37.9176 339.803 37.8624 339.609C37.7245 339.278 37.6555 338.809 37.6555 338.202C37.6555 337.43 37.821 336.699 38.1521 336.009C38.4832 335.291 38.9661 334.671 39.6007 334.146C40.2353 333.622 41.0079 333.208 41.9184 332.905C42.8565 332.574 43.9188 332.408 45.1052 332.408C46.3468 332.408 47.4505 332.587 48.4162 332.946C49.4095 333.277 50.2372 333.746 50.8994 334.353C51.5616 334.96 52.0721 335.678 52.4308 336.505C52.7895 337.333 52.9688 338.244 52.9688 339.237C52.9688 340.754 52.6377 341.941 51.9755 342.796C51.3409 343.652 50.6373 344.314 49.8648 344.783C48.9542 345.307 47.9196 345.666 46.7607 345.859C48.1955 346.052 49.4647 346.48 50.5683 347.142C51.0374 347.418 51.5065 347.763 51.9755 348.177C52.4446 348.591 52.8584 349.087 53.2171 349.667C53.5758 350.218 53.8655 350.867 54.0863 351.612C54.307 352.357 54.4174 353.198 54.4174 354.136C54.4174 355.323 54.1828 356.44 53.7138 357.489C53.2723 358.51 52.6377 359.406 51.81 360.179C50.9822 360.924 49.9751 361.517 48.7887 361.959C47.6298 362.4 46.333 362.621 44.8983 362.621C43.7118 362.621 42.622 362.428 41.6287 362.041C40.6354 361.655 39.78 361.131 39.0627 360.469C38.3729 359.806 37.821 359.048 37.4072 358.192C37.0209 357.309 36.8277 356.371 36.8277 355.378C36.8277 353.198 37.2278 351.626 38.028 350.66C38.8557 349.667 39.8352 349.17 40.9665 349.17C41.1044 349.17 41.2424 349.184 41.3804 349.211C41.5459 349.239 41.6977 349.266 41.8356 349.294C41.9736 349.322 42.0977 349.349 42.2081 349.377L41.3804 352.688C38.8971 352.688 37.6555 353.86 37.6555 356.206C37.6555 356.868 37.821 357.544 38.1521 358.234C38.5108 358.896 38.9937 359.489 39.6007 360.013C40.2077 360.538 40.9251 360.965 41.7528 361.296C42.5806 361.628 43.4911 361.793 44.4844 361.793C46.3606 361.793 47.823 361.2 48.8715 360.013C49.9475 358.799 50.4856 356.84 50.4856 354.136C50.4856 351.35 49.9613 349.349 48.9128 348.135C47.8644 346.894 46.4572 346.273 44.6913 346.273H43.0358V345.445H44.6913C46.1537 345.445 47.3125 344.962 48.1679 343.997C49.0232 343.003 49.4509 341.417 49.4509 339.237C49.4509 338.216 49.3267 337.319 49.0784 336.547C48.8577 335.747 48.5404 335.098 48.1265 334.602C47.7402 334.077 47.2849 333.691 46.7607 333.443C46.2365 333.167 45.6846 333.029 45.1052 333.029Z" fill="#004BEF"/>
<path d="M27.3625 386.928C20.636 383.691 16.3102 376.661 14.9605 367.584C13.6124 358.518 15.2801 347.589 20.3776 336.995C25.4751 326.402 32.9741 318.279 40.9001 313.675C48.8355 309.066 57.0281 308.059 63.7547 311.296C70.4812 314.533 74.8069 321.563 76.1567 330.64C77.5048 339.706 75.8371 350.635 70.7396 361.228C65.6421 371.822 58.143 379.945 50.2171 384.549C42.2817 389.158 34.0891 390.164 27.3625 386.928Z" stroke="#004BEF" stroke-width="3.26897"/>
</svg>
