<svg width="93" height="277" viewBox="0 0 93 277" fill="none" xmlns="http://www.w3.org/2000/svg">
<path d="M50.4848 56.1566C51.2022 56.1566 51.892 56.1152 52.5542 56.0324C53.244 55.9221 53.851 55.7979 54.3752 55.66C54.9822 55.522 55.5479 55.3426 56.0721 55.1219V55.5358C55.6582 55.9221 55.1892 56.2808 54.6649 56.6119C54.1959 56.9154 53.6165 57.2051 52.9267 57.481C52.2369 57.7293 51.4229 57.9087 50.4848 58.019V64.4341L52.9681 65.0549V65.4688H44.4836V65.0549L46.9669 64.4341V58.019H33.9299C36.8546 55.0943 39.3654 51.8523 41.4624 48.293C43.5593 44.7061 45.3942 40.7743 46.9669 36.4976H50.4848V56.1566ZM46.9669 39.1878C46.3875 40.6501 45.7115 42.1677 44.9389 43.7404C44.1663 45.3131 43.3248 46.8582 42.4143 48.3758C41.5314 49.8933 40.607 51.3281 39.6413 52.6801C38.7032 54.0045 37.7651 55.1633 36.827 56.1566H46.9669V39.1878Z" fill="#004BEF"/>
<path d="M27.3625 89.9278C20.636 86.6911 16.3102 79.6612 14.9605 70.584C13.6124 61.5176 15.2801 50.5893 20.3776 39.9954C25.4751 29.4016 32.9741 21.2792 40.9001 16.6752C48.8355 12.0658 57.0281 11.0594 63.7547 14.2961C70.4812 17.5328 74.8069 24.5627 76.1567 33.6398C77.5048 42.7062 75.8371 53.6346 70.7396 64.2284C65.6421 74.8222 58.143 82.9447 50.2171 87.5486C42.2817 92.158 34.0891 93.1644 27.3625 89.9278Z" stroke="#004BEF" stroke-width="3.26897"/>
<path d="M46.2073 237.262C47.0351 237.262 47.8352 237.069 48.6078 236.682C49.3804 236.296 50.0564 235.717 50.6358 234.944C51.2428 234.172 51.7257 233.206 52.0843 232.047C52.443 230.861 52.6224 229.495 52.6224 227.95C52.6224 226.542 52.4154 225.301 52.0016 224.225C51.6153 223.121 51.0635 222.183 50.3461 221.41C49.6563 220.638 48.8147 220.058 47.8215 219.672C46.8282 219.258 45.7383 219.051 44.5519 219.051C44.0828 219.051 43.6413 219.093 43.2275 219.176C42.8136 219.258 42.4411 219.355 42.11 219.465C41.7237 219.576 41.365 219.714 41.0339 219.879L43.3102 208.456C43.3102 208.456 43.4482 208.484 43.7241 208.539C44 208.594 44.3587 208.649 44.8002 208.705C45.2692 208.76 45.7797 208.815 46.3315 208.87C46.9109 208.898 47.4904 208.911 48.0698 208.911C48.9527 208.911 49.7942 208.87 50.5944 208.787C51.4221 208.705 52.1533 208.608 52.7879 208.498C53.5329 208.387 54.2365 208.249 54.8987 208.084L54.8573 208.498C53.8088 209.656 52.3603 210.539 50.5116 211.146C48.663 211.726 46.3315 212.016 43.5172 212.016L42.2755 218.224C42.5515 218.168 42.855 218.099 43.1861 218.017C43.4896 217.962 43.8483 217.92 44.2621 217.893C44.7036 217.837 45.214 217.81 45.7935 217.81C47.449 217.81 48.9389 218.058 50.2633 218.555C51.5877 219.051 52.719 219.741 53.6571 220.624C54.5952 221.507 55.3126 222.583 55.8092 223.852C56.3059 225.094 56.5542 226.46 56.5542 227.95C56.5542 229.44 56.3059 230.819 55.8092 232.088C55.3126 233.33 54.6228 234.392 53.7398 235.275C52.8845 236.158 51.836 236.848 50.5944 237.345C49.3804 237.841 48.056 238.09 46.6212 238.09C45.5451 238.09 44.5519 237.91 43.6413 237.552C42.7308 237.193 41.9444 236.696 41.2823 236.062C40.6201 235.427 40.0958 234.682 39.7095 233.827C39.3508 232.971 39.1715 232.047 39.1715 231.054C39.1715 229.095 39.5716 227.646 40.3717 226.708C41.1995 225.742 42.179 225.259 43.3102 225.259C43.4482 225.259 43.5861 225.273 43.7241 225.301C43.8897 225.328 44.0414 225.356 44.1794 225.384C44.3173 225.411 44.4415 225.439 44.5519 225.466L43.7241 228.777C42.4825 228.777 41.5444 229.067 40.9098 229.647C40.3028 230.198 39.9992 230.943 39.9992 231.881C39.9992 232.544 40.151 233.206 40.4545 233.868C40.7856 234.503 41.2271 235.082 41.7789 235.606C42.3307 236.103 42.9791 236.503 43.7241 236.807C44.4967 237.11 45.3244 237.262 46.2073 237.262Z" fill="#004BEF"/>
<path d="M28.3625 261.928C21.636 258.691 17.3102 251.661 15.9605 242.584C14.6124 233.518 16.2801 222.589 21.3776 211.995C26.4751 201.402 33.9741 193.279 41.9001 188.675C49.8355 184.066 58.0281 183.059 64.7547 186.296C71.4812 189.533 75.8069 196.563 77.1567 205.64C78.5048 214.706 76.8371 225.635 71.7396 236.228C66.6421 246.822 59.143 254.945 51.2171 259.549C43.2817 264.158 35.0891 265.164 28.3625 261.928Z" stroke="#004BEF" stroke-width="3.26897"/>
</svg>
