<svg width="85" height="24" viewBox="0 0 85 24" fill="none" xmlns="http://www.w3.org/2000/svg">
<path d="M43.2969 17.3268L44.3594 17.5924V17.7695H40.7292V17.5924L41.7917 17.3268V6.08203H40.0208V5.81641L43.2969 5.10807V17.3268Z" fill="#004BEF"/>
<path d="M84.1146 11.9531C84.1146 13.1476 83.2455 14.4883 81.1699 15.8685C79.128 17.2263 76.115 18.4834 72.3123 19.5529C64.7193 21.6884 54.1788 23.0208 42.5 23.0208C30.8212 23.0208 20.2807 21.6884 12.6877 19.5529C8.88505 18.4834 5.87201 17.2263 3.83012 15.8685C1.75451 14.4883 0.885417 13.1476 0.885417 11.9531C0.885417 10.7587 1.75451 9.4179 3.83012 8.03772C5.87201 6.67997 8.88505 5.42283 12.6877 4.35334C20.2807 2.21781 30.8212 0.885417 42.5 0.885417C54.1788 0.885417 64.7193 2.21781 72.3123 4.35334C76.115 5.42283 79.128 6.67997 81.1699 8.03772C83.2455 9.4179 84.1146 10.7587 84.1146 11.9531Z" stroke="#004BEF" stroke-width="1.77083"/>
</svg>
