<svg width="165" height="65" viewBox="0 0 165 65" fill="none" xmlns="http://www.w3.org/2000/svg">
<g clip-path="url(#clip0_973_250)">
<path d="M8.68318 0.275391V12.9843H5.39522V0.275391H0.546875V31.9643H5.39522V18.0345H8.68318V31.9643H13.4758V0.275391H8.68318Z" fill="white"/>
<path d="M21.7217 32.2975H20.7744C16.9291 32.2975 14.8672 30.1886 14.8672 26.3038V19.9771H19.6598V25.5268C19.6598 26.9697 20.1056 27.7467 21.2202 27.7467C22.3905 27.7467 22.7806 26.9697 22.7806 25.0273V24.3059C22.7806 22.0305 22.5577 21.2535 20.8301 18.9781L17.8208 15.0378C15.7588 12.3739 15.1458 10.376 15.1458 7.2127V6.21374C15.1458 1.94045 17.3192 -0.00195312 21.1087 -0.00195312H22.0004C25.9571 -0.00195312 27.5175 1.71846 27.5175 5.49228V10.709H22.8363V6.10275C22.8363 5.0483 22.6134 4.21584 21.4431 4.21584C20.2728 4.21584 20.0499 4.93731 20.0499 6.43573V7.0462C20.0499 8.82212 20.3843 9.82107 22.0004 11.8745L25.0654 15.8148C27.2388 18.6451 27.9076 20.2546 27.9076 23.8064V24.8053C27.9633 29.5226 25.9571 32.2975 21.7217 32.2975Z" fill="white"/>
<path d="M40.3378 0.277344V4.88362H34.2077V13.2082H39.0003V17.981H34.2077V27.138H40.6165V31.9663H29.3594V0.277344H40.3378Z" fill="white"/>
<path d="M53.6582 26.0281H50.1473L49.4786 31.9663H45.1875L49.0885 0.277344H54.8285L58.9523 31.9663H54.2712L53.6582 26.0281ZM53.1009 21.3108L51.8191 9.60089L50.5931 21.3108H53.1009Z" fill="white"/>
<path d="M64.5202 31.9663H59.6719V0.277344H67.4738C70.706 0.277344 72.3222 1.66478 72.3222 5.1611V10.7663C72.3222 13.4302 71.0961 14.4292 70.2045 14.8176C71.2633 15.2616 72.3222 16.1496 72.3222 18.2585V29.3579C72.3222 30.6344 72.6008 31.2448 72.768 31.6888V31.9108H67.9754C67.7525 31.5778 67.5295 31.0228 67.5295 29.3024V19.8124C67.5295 18.425 67.2509 17.8145 65.7462 17.8145H64.5202V31.9663ZM64.5202 13.3192H65.802C67.1394 13.3192 67.5295 12.4867 67.5295 11.0438V6.60403C67.5295 5.2166 67.2509 4.55063 65.802 4.55063H64.5202V13.3192Z" fill="white"/>
<path d="M82.1342 4.88362V31.9663H77.3416V4.88362H73.2734V0.277344H86.1466V4.88362H82.1342Z" fill="white"/>
<path d="M99.1894 26.0281H95.6785L95.0098 31.9663H90.7188L94.6197 0.277344H100.304L104.428 31.9663H99.7467L99.1894 26.0281ZM98.6321 21.3108L97.3504 9.60089L96.1244 21.3108H98.6321Z" fill="white"/>
<path d="M109.606 0.275391L113.73 17.2576V0.275391H118.132V31.9643H114.231L109.606 13.7612V31.9643H105.203V0.275391H109.606Z" fill="white"/>
<path d="M119.914 0.277344H127.326C131.45 0.277344 132.732 2.60823 132.732 6.38204V25.6396C132.732 29.5244 131.283 31.9663 127.326 31.9663H119.914V0.277344ZM124.762 27.36H125.933C127.382 27.36 127.827 26.5831 127.827 24.9181V7.04801C127.827 5.2166 127.382 4.60613 126.156 4.60613H124.762V27.36Z" fill="white"/>
<path d="M0.546875 32.6289H7.95872C12.0826 32.6289 13.3643 34.9598 13.3643 38.7336V57.9912C13.3643 61.876 11.9154 64.3179 7.95872 64.3179H0.546875V32.6289ZM5.39522 59.6561H6.56551C8.01445 59.6561 8.46027 58.8791 8.46027 57.2142V39.3996C8.46027 37.5682 8.01445 36.9577 6.78843 36.9577H5.39522V59.6561Z" fill="white"/>
<path d="M26.0722 32.6289V37.1797H19.8864V45.5043H24.7347V50.3325H19.8864V59.4896H26.3508V64.2624H15.0938V32.6289H26.0722Z" fill="white"/>
<path d="M34.0421 64.5955H33.0947C29.2494 64.5955 27.1875 62.4866 27.1875 58.6018V52.2751H31.9801V57.8248C31.9801 59.2678 32.4259 60.0447 33.5405 60.0447C34.7108 60.0447 35.1009 59.2678 35.1009 57.3253V56.6039C35.1009 54.3285 34.878 53.5515 33.1504 51.2761L30.0854 47.3358C28.0234 44.672 27.4104 42.6741 27.4104 39.5107V38.5118C27.4104 34.294 29.5281 32.3516 33.3733 32.3516H34.265C38.2217 32.3516 39.7821 34.072 39.7821 37.8458V43.0625H35.1009V38.5118C35.1009 37.4573 34.878 36.6249 33.7077 36.6249C32.5374 36.6249 32.3145 37.3463 32.3145 38.8447V39.3997C32.3145 41.1756 32.6489 42.1746 34.265 44.228L37.33 48.1683C39.5034 50.9987 40.1722 52.6081 40.1722 56.1599V57.1589C40.2836 61.8761 38.2774 64.5955 34.0421 64.5955Z" fill="white"/>
<path d="M46.4655 32.6289H41.6172V64.3179H46.4655V32.6289Z" fill="white"/>
<path d="M52.7661 64.7073C49.9239 64.7073 48.1406 62.2099 48.1406 58.9356V39.123C48.1406 35.5712 49.5338 32.2969 54.1035 32.2969H55.0509C60.2336 32.2969 60.8466 35.6822 60.8466 39.4005V42.6194H56.1655V39.0675C56.1655 37.6801 55.8311 36.9032 54.6051 36.9032C53.602 36.9032 53.1004 37.6801 53.1004 39.0675V57.6037C53.1004 59.1021 53.7134 59.879 54.6608 59.879C55.8868 59.879 56.4441 59.0466 56.4441 57.8256V49.8895H54.2707V45.0613H61.0138V64.3188H58.2831C58.2274 64.1523 57.8373 62.5984 57.4472 61.211C57.1128 62.2654 55.4967 64.7628 53.0447 64.7628H52.7661V64.7073Z" fill="white"/>
<path d="M67.0343 32.6289L71.1582 49.6111V32.6289H75.5607V64.2624H71.6597L67.0343 46.0593V64.2624H62.6875V32.6289H67.0343Z" fill="white"/>
<path d="M88.1514 64.5955H87.2041C83.3588 64.5955 81.2969 62.4866 81.2969 58.6018V52.2751H86.0895V57.8248C86.0895 59.2678 86.5353 60.0447 87.6499 60.0447C88.8202 60.0447 89.2103 59.2678 89.2103 57.3253V56.6039C89.2103 54.3285 88.9874 53.5515 87.2598 51.2761L84.1947 47.3358C82.1328 44.672 81.5198 42.6741 81.5198 39.5107V38.5118C81.5198 34.294 83.6375 32.3516 87.4827 32.3516H88.3744C92.3311 32.3516 93.8915 34.072 93.8915 37.8458V43.0625H89.2103V38.5118C89.2103 37.4573 88.9874 36.6249 87.8171 36.6249C86.6468 36.6249 86.4239 37.3463 86.4239 38.8447V39.3997C86.4239 41.1756 86.7582 42.1746 88.3744 44.228L91.4394 48.1683C93.6128 50.9987 94.2815 52.6081 94.2815 56.1599V57.1589C94.393 61.8761 92.3868 64.5955 88.1514 64.5955Z" fill="white"/>
<path d="M103.698 57.8248V50.4992H108.435V57.8248C108.435 61.2101 107.32 64.651 102.639 64.651H101.58C96.7317 64.651 95.6172 61.1546 95.6172 57.9913V38.6783C95.6172 35.4594 97.0104 32.3516 101.413 32.3516H102.527C107.822 32.3516 108.435 35.8479 108.435 38.9557V44.6165H103.698V39.0667C103.698 37.6793 103.252 36.9578 102.082 36.9578C100.911 36.9578 100.577 37.6238 100.577 39.0667V57.8803C100.577 59.2677 101.023 60.0447 102.137 60.0447C103.252 59.9892 103.698 59.1012 103.698 57.8248Z" fill="white"/>
<path d="M118.081 50.3325H114.793V64.2624H110V32.6289H114.793V45.2823H118.081V32.6289H122.929V64.2624H118.081V50.3325Z" fill="white"/>
<path d="M137.809 57.2152C137.809 61.6549 136.304 64.6518 131.679 64.6518H130.843C126.218 64.6518 124.602 61.6549 124.602 57.2152V39.567C124.602 35.1827 126.273 32.2969 130.787 32.2969H131.623C136.304 32.2969 137.809 35.1827 137.809 39.5115V57.2152ZM132.905 39.345C132.905 37.6801 132.348 36.9031 131.233 36.9031C130.007 36.9031 129.506 37.7356 129.506 39.345V57.5481C129.506 58.9356 129.896 59.99 131.233 59.99C132.515 59.99 132.849 58.9356 132.849 57.5481V39.345H132.905Z" fill="white"/>
<path d="M152.575 57.2152C152.575 61.6549 151.07 64.6518 146.445 64.6518H145.609C140.983 64.6518 139.367 61.6549 139.367 57.2152V39.567C139.367 35.1827 141.039 32.2969 145.553 32.2969H146.389C151.07 32.2969 152.575 35.1827 152.575 39.5115V57.2152ZM147.615 39.345C147.615 37.6801 147.058 36.9031 145.943 36.9031C144.717 36.9031 144.216 37.7356 144.216 39.345V57.5481C144.216 58.9356 144.606 59.99 145.943 59.99C147.225 59.99 147.559 58.9356 147.559 57.5481V39.345H147.615Z" fill="white"/>
<path d="M159.036 32.6289V59.3786H164.943V64.2624H154.188V32.6289H159.036Z" fill="white"/>
</g>
<defs>
<clipPath id="clip0_973_250">
<rect width="164.398" height="64.7098" fill="white" transform="translate(0.546875 -0.00195312)"/>
</clipPath>
</defs>
</svg>
