<svg width="116" height="97" viewBox="0 0 116 97" fill="none" xmlns="http://www.w3.org/2000/svg">
<path d="M72.2982 16.6031C69.8863 19.9423 65.565 25.7866 63.153 28.8689C60.7411 31.9513 58.5637 34.7767 56.6207 37.3453C54.7448 39.9139 53.2038 42.1935 51.9979 44.1842C50.7919 46.1106 50.1889 47.6517 50.1889 48.8076C50.1889 50.6698 51.1269 51.6009 53.0029 51.6009C54.9458 51.6009 57.1902 50.7019 59.7361 48.9039C62.3491 47.1059 65.096 44.73 67.9769 41.7761C70.8578 38.758 73.7722 35.3225 76.7201 31.4696C79.735 27.5525 84.9273 19.2206 87.6742 14.9824L92.9533 15.5902C89.0005 20.7916 83.9559 29.8001 80.539 35.3225C77.1221 40.7808 73.5377 46.2069 69.7858 51.6009L69.0823 52.7568C66.4694 56.1602 63.7895 59.5957 61.0426 63.0633C58.3627 66.5951 55.3813 69.7416 52.0984 72.5028C48.8825 75.3283 45.3316 77.6079 41.4457 79.3417C37.5598 81.1397 33.1715 82.0387 28.2806 82.0387C26.0697 82.0387 23.9928 81.7497 22.0498 81.1718C20.0399 80.6581 18.298 79.9196 16.824 78.9564C15.35 77.9932 14.1776 76.8373 13.3066 75.4888C12.4356 74.1403 11.4375 72.716 11.4375 71.1748C11.4375 67.8357 12.1867 63.8698 12.1867 63.8698C12.1867 63.8698 13.5411 56.0029 16.824 56.0029L13.3066 66.6794L13.3066 73.0479C13.3066 74.6533 17.244 77.7306 17.244 77.7306C17.914 79.0149 20.4283 79.4164 20.4283 79.4164C21.5003 80.2512 24.1744 80.5402 24.1744 80.5402C25.5144 80.9897 26.9072 80.8828 28.3811 80.8828C31.53 80.8828 34.5784 80.1765 37.5263 78.7638C40.4743 77.351 43.3217 75.4888 46.0686 73.1771C48.7485 70.8654 51.3279 68.2325 53.8068 65.2787C56.2857 62.389 58.6307 59.3709 60.8416 56.2244C63.0525 53.1421 65.096 50.124 66.9719 47.1701C68.9148 44.152 70.6903 41.455 72.2982 39.0791L72.0972 38.8864C71.0253 40.1065 69.7188 41.5514 68.1779 43.2209C66.6369 44.8263 64.9285 46.3674 63.0525 47.8444C61.2436 49.3213 59.3006 50.5735 57.2237 51.6009C55.1468 52.6284 53.0029 53.1421 50.7919 53.1421C48.648 53.1421 47.107 52.7247 46.1691 51.8899C45.2311 51.0551 44.7621 49.9314 44.7621 48.5186C44.7621 47.2343 45.1306 45.8858 45.8676 44.4731C46.5376 42.9962 47.643 41.1661 49.184 38.9828C50.7249 36.7995 52.6679 34.1346 55.0128 30.988C57.4247 27.8415 60.3056 23.9244 63.6555 19.2367L72.2982 16.6031Z" fill="white"/>
<path d="M46.1798 28.4262C33.7341 35.8957 23.9061 44.9342 18.0574 53.4568C12.1373 62.0832 10.5722 69.7237 13.5999 74.7685C16.6276 79.8132 24.1063 82.026 34.5034 80.8594C44.7755 79.7068 57.3745 75.2854 69.8202 67.8159C82.2659 60.3465 92.0938 51.308 97.9426 42.7854C103.863 34.159 105.428 26.5185 102.4 21.4737C99.3724 16.4289 91.8937 14.2162 81.4966 15.3828C71.2245 16.5354 58.6255 20.9568 46.1798 28.4262Z" stroke="white" stroke-width="2.59437"/>
</svg>
