<svg width="699" height="367" viewBox="0 0 699 367" fill="none" xmlns="http://www.w3.org/2000/svg">
<path fill-rule="evenodd" clip-rule="evenodd" d="M608.55 129.327C605.558 131.477 602.473 133.067 599.294 134.095C596.116 135.03 593.171 135.497 590.46 135.497C586.907 135.497 584.056 134.422 581.905 132.272C579.849 130.028 578.82 126.896 578.82 122.876C578.82 120.259 579.381 117.594 580.503 114.883C581.625 112.172 582.981 109.601 584.57 107.17C586.253 104.74 587.982 102.543 589.758 100.579C591.535 98.6161 593.077 97.0268 594.386 95.8114C598.593 91.9784 602.707 89.2205 606.727 87.5377C610.84 85.8549 614.252 85.0135 616.964 85.0135C617.712 85.0135 618.553 85.107 619.488 85.294C620.423 85.4809 621.311 85.9016 622.152 86.556C622.994 87.117 623.741 87.9584 624.396 89.0802C625.144 90.1086 625.611 91.4642 625.798 93.147H626.219C627.251 90.6232 628.245 88.7218 629.199 86.8951C630.578 84.2559 631.875 81.7729 633.09 77.7949C635.147 71.0637 636.176 64.1456 636.176 57.0404C636.176 51.6181 635.1 47.8786 632.95 45.8218C631.267 44.2325 628.883 43.4379 625.798 43.4379C624.396 43.4379 622.853 43.7183 621.171 44.2793C619.488 44.8402 617.852 45.5881 616.262 46.523C614.393 47.7383 612.663 48.9069 611.074 50.0288L610.373 48.7667C612.71 46.8969 615.094 45.3076 617.525 43.9988C619.581 42.9704 621.591 42.1758 623.555 41.6148C625.611 41.0539 627.855 40.7734 630.286 40.7734C633.745 40.7734 636.456 41.6148 638.419 43.2976C641.598 45.9153 643.187 50.8235 643.187 58.0221C643.187 60.2658 643 62.6497 642.626 65.1739C642.346 67.6981 641.925 70.2691 641.364 72.8867C640.803 75.5044 640.149 78.0753 639.401 80.5995C638.559 82.9367 636.636 88.1944 635.514 90.999C634.682 93.0771 633.606 95.4255 632.571 97.6817C632.209 98.4706 631.853 99.2482 631.514 99.999C630.684 101.776 629.662 103.655 628.668 105.482C628.093 106.539 627.528 107.579 627.014 108.573C626.192 110.161 624.965 111.716 623.822 113.164C623.275 113.858 622.747 114.527 622.292 115.164C620.89 117.22 619.301 119.23 617.525 121.194C615.842 123.063 613.785 125.027 611.354 127.083L608.55 129.327ZM607.988 90.0619C611.26 87.8181 614.018 86.6963 616.262 86.6963C620.656 86.6963 622.853 89.2672 622.853 94.4091C622.853 95.8114 622.573 97.5877 622.012 99.7379C621.544 101.795 620.796 104.038 619.768 106.469C618.833 108.9 617.571 111.471 615.982 114.182C614.392 116.893 612.569 119.557 610.513 122.175C607.241 126.195 604.015 129.14 600.837 131.01C597.658 132.88 594.713 133.814 592.002 133.814C590.319 133.814 588.963 133.207 587.935 131.991C586.907 130.776 586.393 128.719 586.393 125.821C586.393 121.708 587.561 117.22 589.898 112.359C592.329 107.404 595.321 102.823 598.873 98.6161C601.771 95.157 604.81 92.3056 607.988 90.0619Z" fill="white"/>
<path d="M577.927 86.1344C574.561 90.6219 571.57 94.6419 568.952 98.1945C566.428 101.747 564.184 104.926 562.221 107.73C559.977 111.002 558.061 113.807 556.471 116.144C554.976 118.388 553.76 120.351 552.825 122.034C551.984 123.717 551.376 125.166 551.002 126.381C550.628 127.503 550.441 128.578 550.441 129.607C550.441 132.411 551.75 133.814 554.368 133.814C556.238 133.814 558.855 132.879 562.221 131.009C565.586 129.046 569.98 125.259 575.403 119.65C580.451 114.508 586.621 107.076 593.913 97.3531L595.316 97.7738C591.95 102.542 588.631 106.889 585.359 110.815C582.181 114.648 579.142 118.061 576.244 121.052C571.476 126.007 567.129 129.653 563.203 131.991C559.369 134.328 556.097 135.496 553.386 135.496C550.675 135.496 548.572 134.795 547.076 133.393C545.58 131.897 544.832 129.934 544.832 127.503C544.832 124.605 545.58 121.66 547.076 118.668L546.795 118.528C542.682 123.296 538.568 127.176 534.455 130.168C529.5 133.72 524.966 135.496 520.852 135.496C515.43 135.496 512.719 133.066 512.719 128.204C512.719 127.176 512.952 125.774 513.42 123.997C513.887 122.221 515.243 119.416 517.487 115.583C518.422 114.087 519.497 112.451 520.712 110.675C521.927 108.899 523.376 106.842 525.059 104.505L538.241 86.1344H547.496L531.79 107.31C530.201 109.46 528.565 111.75 526.882 114.181C525.199 116.612 523.937 118.575 523.096 120.071C522.068 121.941 521.273 123.436 520.712 124.558C520.245 125.587 519.917 126.428 519.73 127.082C519.543 127.737 519.45 128.251 519.45 128.625C519.45 128.905 519.45 129.186 519.45 129.466C519.45 130.588 519.824 131.523 520.572 132.271C521.32 132.925 522.208 133.253 523.236 133.253C527.443 133.253 533.006 130.027 539.924 123.577C541.046 122.548 542.261 121.333 543.57 119.931C544.972 118.435 546.328 116.939 547.637 115.443C549.039 113.854 550.348 112.311 551.563 110.815C552.779 109.226 553.854 107.777 554.789 106.468C555.443 105.533 556.284 104.271 557.313 102.682C558.435 100.999 559.603 99.2228 560.819 97.3531C562.127 95.3898 563.389 93.4265 564.605 91.4633C565.914 89.5 567.129 87.7237 568.251 86.1344H577.927ZM584.518 59.4902C583.209 61.36 581.807 63.2298 580.311 65.0995C578.909 66.8758 577.086 68.5119 574.842 70.0077C572.972 71.223 570.962 72.2047 568.812 72.9526C566.662 73.7005 564.091 74.0744 561.099 74.0744C556.331 74.0744 552.825 73.3733 550.582 71.9709C548.431 70.5686 547.356 68.6988 547.356 66.3616C547.356 64.1179 548.572 62.2949 551.002 60.8926C553.433 59.4902 556.378 58.7891 559.837 58.7891C561.333 58.7891 562.829 58.976 564.324 59.35L564.044 60.6121C563.576 60.5186 562.922 60.4719 562.081 60.4719C559.93 60.4719 558.107 61.0328 556.612 62.1546C555.116 63.183 554.368 64.5854 554.368 66.3616C554.368 68.1379 555.022 69.587 556.331 70.7088C557.733 71.8307 559.556 72.3916 561.8 72.3916C564.418 72.3916 566.708 72.0644 568.672 71.41C570.728 70.7556 572.551 69.8674 574.141 68.7456C576.01 67.4367 577.646 65.9877 579.049 64.3984C580.451 62.7156 581.807 60.8458 583.116 58.7891L584.518 59.4902Z" fill="white"/>
<path d="M506.922 86.1336H516.038C512.578 90.995 509.26 95.7162 506.081 100.297C502.902 104.878 500.051 109.132 497.527 113.058C495.096 116.891 493.133 120.304 491.637 123.295C490.141 126.193 489.393 128.484 489.393 130.167C489.393 132.597 490.655 133.813 493.18 133.813C495.143 133.813 497.62 132.878 500.612 131.008C503.697 129.045 507.016 126.38 510.568 123.015C514.121 119.649 517.767 115.723 521.507 111.235C525.246 106.748 528.799 101.98 532.164 96.9315L533.006 97.212C530.481 101.045 527.49 105.205 524.031 109.693C520.665 114.087 517.113 118.2 513.373 122.033C509.634 125.866 505.894 129.092 502.154 131.709C498.415 134.233 494.909 135.495 491.637 135.495C488.926 135.495 486.916 134.841 485.607 133.532C484.392 132.13 483.784 130.494 483.784 128.624C483.784 127.315 483.971 126.053 484.345 124.838C484.812 123.529 485.28 122.22 485.747 120.911L485.467 120.771C484.251 122.08 482.709 123.622 480.839 125.399C479.063 127.082 477.1 128.671 474.949 130.167C472.893 131.662 470.742 132.925 468.499 133.953C466.255 134.981 464.105 135.495 462.048 135.495C458.589 135.495 456.158 134.42 454.756 132.27C453.354 130.12 452.652 127.689 452.652 124.978C452.652 121.145 453.868 116.938 456.298 112.357C458.729 107.683 461.814 103.335 465.554 99.3155C469.293 95.202 473.36 91.7896 477.754 89.0785C482.148 86.3673 486.308 85.0117 490.235 85.0117C492.104 85.0117 493.741 85.2922 495.143 85.8531C496.545 86.3206 497.714 87.0217 498.649 87.9566C499.584 88.798 500.285 89.7796 500.752 90.9015C501.313 92.0234 501.734 93.192 502.014 94.4073H502.295L506.922 86.1336ZM461.066 125.399C461.066 127.549 461.487 129.232 462.328 130.447C463.263 131.569 464.525 132.13 466.115 132.13C467.704 132.13 469.574 131.569 471.724 130.447C473.874 129.232 476.118 127.642 478.455 125.679C480.792 123.716 483.083 121.472 485.327 118.948C487.664 116.33 489.721 113.572 491.497 110.674C493.273 107.776 494.722 104.831 495.844 101.84C496.966 98.848 497.527 95.9966 497.527 93.2855C497.527 91.1352 496.919 89.4992 495.704 88.3773C494.488 87.2555 492.993 86.6945 491.216 86.6945C488.412 86.6945 485.28 87.9099 481.821 90.3406C478.362 92.7713 475.09 95.9031 472.004 99.7362C468.919 103.476 466.302 107.636 464.151 112.217C462.095 116.798 461.066 121.192 461.066 125.399Z" fill="white"/>
<path d="M422.35 97.7729C425.248 93.4724 428.239 90.2938 431.324 88.2371C434.41 86.0868 437.775 85.0117 441.421 85.0117C444.787 85.0117 447.404 85.7129 449.274 87.1152C451.144 88.424 452.079 90.2938 452.079 92.7245C452.079 95.9031 450.677 98.8013 447.872 101.419C445.067 104.037 441.047 106.795 435.812 109.693C431.885 111.843 428.847 114.04 426.697 116.284C424.64 118.434 423.612 121.332 423.612 124.978C423.612 127.409 424.266 129.279 425.575 130.587C426.977 131.803 428.753 132.41 430.904 132.41C435.672 132.41 441.234 129.559 447.591 123.856C454.042 118.153 461.428 109.178 469.748 96.9315L470.73 97.6327C462.316 110.441 454.51 119.976 447.311 126.24C440.112 132.41 433.708 135.495 428.099 135.495C424.36 135.495 421.415 134.561 419.264 132.691C417.114 130.728 416.039 128.25 416.039 125.259C416.039 123.108 416.46 121.192 417.301 119.509C418.236 117.826 419.405 116.33 420.807 115.022C422.303 113.619 423.986 112.31 425.855 111.095C427.725 109.88 429.688 108.664 431.745 107.449C433.334 106.514 434.877 105.486 436.373 104.364C437.962 103.242 439.364 102.073 440.58 100.858C441.889 99.5492 442.917 98.1936 443.665 96.7913C444.413 95.3889 444.787 93.9399 444.787 92.4441C444.787 90.7613 444.273 89.4057 443.244 88.3773C442.309 87.2555 441.141 86.6945 439.738 86.6945C436.747 86.6945 433.989 87.7229 431.465 89.7796C428.94 91.7429 426.323 94.6878 423.612 98.6143L422.35 97.7729Z" fill="white"/>
<path d="M407.706 86.1367C399.012 98.1967 392.234 107.686 387.373 114.604C382.605 121.429 380.221 126.43 380.221 129.609C380.221 132.414 381.483 133.816 384.007 133.816C386.064 133.816 388.962 132.694 392.701 130.45C396.441 128.113 401.349 123.719 407.426 117.268C409.857 114.744 412.381 111.846 414.998 108.574C417.71 105.302 420.608 101.562 423.693 97.3553L425.095 97.776C421.917 102.263 418.925 106.19 416.12 109.556C413.316 112.921 410.698 115.96 408.267 118.671C402.471 124.934 397.516 129.328 393.403 131.853C389.383 134.283 385.83 135.499 382.745 135.499C380.034 135.499 377.93 134.797 376.434 133.395C375.032 131.899 374.331 129.936 374.331 127.505C374.331 126.197 374.611 124.747 375.172 123.158C375.733 121.569 376.434 120.073 377.276 118.671L376.995 118.53C374.845 121.242 372.788 123.579 370.825 125.542C368.955 127.412 367.179 129.001 365.496 130.31C363.159 132.18 361.009 133.535 359.046 134.377C357.176 135.125 355.166 135.499 353.016 135.499C351.613 135.499 350.211 135.171 348.809 134.517C347.313 133.863 346.191 132.974 345.443 131.853C343.947 129.796 343.199 127.225 343.199 124.14C343.199 121.896 343.9 119.839 345.303 117.97C346.612 116.006 348.294 115.025 350.351 115.025C351.94 115.025 353.156 115.445 353.997 116.287C354.839 117.128 355.259 118.157 355.259 119.372C355.259 120.681 354.885 121.803 354.137 122.737C353.483 123.579 352.455 124 351.052 124C350.398 124 349.79 123.906 349.229 123.719C348.575 123.439 348.061 122.878 347.687 122.036C347.126 122.504 346.705 123.205 346.425 124.14C346.144 124.981 346.004 125.682 346.004 126.243C346.004 128.3 346.705 130.123 348.107 131.712C349.323 133.115 351.052 133.816 353.296 133.816C354.698 133.816 356.288 133.535 358.064 132.974C359.934 132.414 362.177 131.058 364.795 128.908C367.787 126.477 370.965 123.205 374.331 119.091C377.79 114.978 381.857 109.789 386.531 103.526C388.401 101.001 390.224 98.337 392 95.5323C393.87 92.6342 395.786 89.6425 397.75 86.5574L407.706 86.1367Z" fill="white"/>
<path d="M351.282 86.1344C347.917 90.6219 344.925 94.6419 342.308 98.1945C339.783 101.747 337.54 104.926 335.576 107.73C333.333 111.002 331.416 113.807 329.827 116.144C328.331 118.388 327.116 120.351 326.181 122.034C325.339 123.717 324.732 125.166 324.358 126.381C323.984 127.503 323.797 128.578 323.797 129.607C323.797 132.411 325.106 133.814 327.723 133.814C329.593 133.814 332.211 132.879 335.576 131.009C338.942 129.046 343.336 125.259 348.758 119.65C353.807 114.508 343.99 125.867 351.282 116.144L352 117.998C355.272 114.072 348.634 122.766 352 117.998C348.821 121.831 351.398 117.506 348.5 120.498C343.732 125.453 340.485 129.653 336.558 131.991C332.725 134.328 329.453 135.496 326.742 135.496C324.031 135.496 321.927 134.795 320.431 133.393C318.935 131.897 318.188 129.934 318.188 127.503C318.188 124.605 318.935 121.66 320.431 118.668L320.151 118.528C316.037 123.296 311.924 127.176 307.81 130.168C302.855 133.72 298.321 135.496 294.208 135.496C288.785 135.496 286.074 133.066 286.074 128.204C286.074 127.176 286.308 125.774 286.775 123.997C287.243 122.221 288.598 119.416 290.842 115.583C291.777 114.087 292.852 112.451 294.067 110.675C295.283 108.899 296.732 106.842 298.415 104.505L311.597 86.1344H320.852L305.146 107.31C303.557 109.46 301.921 111.75 300.238 114.181C298.555 116.612 297.293 118.575 296.451 120.071C295.423 121.941 294.628 123.436 294.067 124.558C293.6 125.587 293.273 126.428 293.086 127.082C292.899 127.737 292.805 128.251 292.805 128.625C292.805 128.905 292.805 129.186 292.805 129.466C292.805 130.588 293.179 131.523 293.927 132.271C294.675 132.925 295.563 133.253 296.592 133.253C300.799 133.253 306.361 130.027 313.279 123.577C314.401 122.548 315.617 121.333 316.925 119.931C318.328 118.435 319.683 116.939 320.992 115.443C322.394 113.854 323.703 112.311 324.919 110.815C326.134 109.226 327.209 107.777 328.144 106.468C328.798 105.533 329.64 104.271 330.668 102.682C331.79 100.999 332.959 99.2228 334.174 97.3531C335.483 95.3898 336.745 93.4265 337.96 91.4633C339.269 89.5 340.485 87.7237 341.606 86.1344H351.282ZM357.873 59.4902C356.565 61.36 355.162 63.2298 353.666 65.0995C352.264 66.8758 350.441 68.5119 348.197 70.0077C346.328 71.223 344.318 72.2047 342.167 72.9526C340.017 73.7005 337.446 74.0744 334.455 74.0744C329.687 74.0744 326.181 73.3733 323.937 71.9709C321.787 70.5686 320.712 68.6988 320.712 66.3616C320.712 64.1179 321.927 62.2949 324.358 60.8926C326.788 59.4902 329.733 58.7891 333.192 58.7891C334.688 58.7891 336.184 58.976 337.68 59.35L337.399 60.6121C336.932 60.5186 336.278 60.4719 335.436 60.4719C333.286 60.4719 331.463 61.0328 329.967 62.1546C328.471 63.183 327.723 64.5854 327.723 66.3616C327.723 68.1379 328.378 69.587 329.687 70.7088C331.089 71.8307 332.912 72.3916 335.156 72.3916C337.773 72.3916 340.064 72.0644 342.027 71.41C344.084 70.7556 345.907 69.8674 347.496 68.7456C349.366 67.4367 351.002 65.9877 352.404 64.3984C353.807 62.7156 355.162 60.8458 356.471 58.7891L357.873 59.4902Z" fill="white"/>
<path d="M280.278 86.1336H289.393C285.934 90.995 282.615 95.7162 279.436 100.297C276.258 104.878 273.406 109.132 270.882 113.058C268.452 116.891 266.488 120.304 264.993 123.295C263.497 126.193 262.749 128.484 262.749 130.167C262.749 132.597 264.011 133.813 266.535 133.813C268.498 133.813 270.976 132.878 273.967 131.008C277.053 129.045 280.371 126.38 283.924 123.015C287.476 119.649 291.123 115.723 294.862 111.235C298.602 106.748 302.154 101.98 305.52 96.9315L306.361 97.212C303.837 101.045 300.845 105.205 297.386 109.693C294.021 114.087 290.468 118.2 286.729 122.033C282.989 125.866 279.25 129.092 275.51 131.709C271.77 134.233 268.265 135.495 264.993 135.495C262.281 135.495 260.271 134.841 258.962 133.532C257.747 132.13 257.139 130.494 257.139 128.624C257.139 127.315 257.326 126.053 257.7 124.838C258.168 123.529 258.635 122.22 259.103 120.911L258.822 120.771C257.607 122.08 256.064 123.622 254.195 125.399C252.418 127.082 250.455 128.671 248.305 130.167C246.248 131.662 244.098 132.925 241.854 133.953C239.61 134.981 237.46 135.495 235.403 135.495C231.944 135.495 229.514 134.42 228.111 132.27C226.709 130.12 226.008 127.689 226.008 124.978C226.008 121.145 227.223 116.938 229.654 112.357C232.085 107.683 235.17 103.335 238.909 99.3155C242.649 95.202 246.716 91.7896 251.109 89.0785C255.503 86.3673 259.664 85.0117 263.59 85.0117C265.46 85.0117 267.096 85.2922 268.498 85.8531C269.901 86.3206 271.069 87.0217 272.004 87.9566C272.939 88.798 273.64 89.7796 274.108 90.9015C274.669 92.0234 275.089 93.192 275.37 94.4073H275.65L280.278 86.1336ZM234.422 125.399C234.422 127.549 234.842 129.232 235.684 130.447C236.619 131.569 237.881 132.13 239.47 132.13C241.059 132.13 242.929 131.569 245.079 130.447C247.23 129.232 249.473 127.642 251.811 125.679C254.148 123.716 256.438 121.472 258.682 118.948C261.019 116.33 263.076 113.572 264.852 110.674C266.629 107.776 268.078 104.831 269.199 101.84C270.321 98.848 270.882 95.9966 270.882 93.2855C270.882 91.1352 270.275 89.4992 269.059 88.3773C267.844 87.2555 266.348 86.6945 264.572 86.6945C261.767 86.6945 258.635 87.9099 255.176 90.3406C251.717 92.7713 248.445 95.9031 245.36 99.7362C242.275 103.476 239.657 107.636 237.507 112.217C235.45 116.798 234.422 121.192 234.422 125.399Z" fill="white"/>
<path d="M124.34 134.374C126.397 130.915 128.781 127.128 131.492 123.015C134.109 118.901 136.774 114.741 139.485 110.534C142.29 106.234 145.001 102.027 147.618 97.9131C150.33 93.7062 152.76 89.7796 154.911 86.1336H163.465L144.954 112.217L145.235 112.497C147.011 110.347 149.161 107.729 151.685 104.644C154.209 101.466 156.967 98.4273 159.959 95.5292C163.044 92.631 166.316 90.1536 169.775 88.0968C173.234 86.0401 176.787 85.0117 180.433 85.0117C182.677 85.0117 184.5 85.6194 185.902 86.8347C187.398 87.9566 188.146 89.6394 188.146 91.8831C188.146 93.192 187.678 94.7813 186.743 96.651C185.809 98.5208 184.687 100.437 183.378 102.401C182.162 104.27 180.9 106.093 179.592 107.87C178.283 109.646 177.254 111.095 176.506 112.217L176.787 112.497C178.75 109.693 181.087 106.701 183.799 103.522C186.603 100.344 189.548 97.3989 192.633 94.6878C195.812 91.8831 199.037 89.5927 202.309 87.8164C205.675 85.9466 208.9 85.0117 211.985 85.0117C214.696 85.0117 216.706 85.6661 218.015 86.975C219.418 88.2838 220.119 90.1068 220.119 92.4441C220.119 94.0334 219.558 95.9031 218.436 98.0534C217.408 100.204 216.052 102.494 214.369 104.925C212.78 107.262 211.05 109.646 209.181 112.077C207.311 114.507 205.535 116.845 203.852 119.088C202.262 121.332 200.907 123.435 199.785 125.399C198.757 127.269 198.242 128.858 198.242 130.167C198.242 131.289 198.57 132.177 199.224 132.831C199.972 133.485 200.86 133.813 201.889 133.813C204.132 133.813 206.75 132.925 209.742 131.148C212.827 129.372 216.099 126.895 219.558 123.716C223.11 120.537 226.803 116.751 230.636 112.357C234.469 107.87 238.349 102.962 242.276 97.6327L243.397 98.1936C239.564 103.429 235.731 108.337 231.898 112.918C228.065 117.405 224.326 121.332 220.68 124.698C217.127 128.063 213.668 130.728 210.302 132.691C207.03 134.561 203.992 135.495 201.187 135.495C198.289 135.495 196.139 134.701 194.737 133.112C193.334 131.429 192.633 129.372 192.633 126.941C192.633 125.165 193.147 123.202 194.176 121.052C195.298 118.808 196.653 116.517 198.242 114.18C199.925 111.843 201.702 109.506 203.571 107.168C205.441 104.831 207.171 102.588 208.76 100.437C210.443 98.2871 211.798 96.3238 212.827 94.5475C213.949 92.7713 214.509 91.3222 214.509 90.2003C214.509 88.8915 214.136 88.0034 213.388 87.5359C212.733 86.975 211.892 86.6945 210.863 86.6945C208.994 86.6945 206.797 87.3489 204.272 88.6578C201.748 89.8731 199.084 91.6494 196.279 93.9866C193.568 96.2303 190.763 98.8948 187.865 101.98C184.967 104.972 182.116 108.244 179.311 111.796C176.6 115.255 174.029 118.948 171.598 122.875C169.168 126.708 167.064 130.541 165.288 134.374H156.313C158.931 129.699 161.735 125.025 164.727 120.35C167.812 115.676 170.663 111.375 173.281 107.449C175.899 103.429 178.096 99.9699 179.872 97.0717C181.648 94.0801 182.536 91.8831 182.536 90.4808C182.536 87.9566 181.228 86.6945 178.61 86.6945C176.273 86.6945 173.655 87.5827 170.757 89.3589C167.859 91.0417 164.914 93.2855 161.922 96.0901C158.931 98.8013 155.986 101.933 153.088 105.486C150.189 108.945 147.431 112.451 144.814 116.003C142.29 119.556 140.046 122.968 138.083 126.24C136.119 129.419 134.577 132.13 133.455 134.374H124.34Z" fill="white"/>
<path d="M149.58 99.1752C147.43 102.634 144.578 106.374 141.026 110.394C137.567 114.32 133.781 118.013 129.667 121.472C124.619 125.679 119.57 129.092 114.522 131.709C109.474 134.233 104.519 135.495 99.6573 135.495C96.1982 135.495 93.3001 134.607 90.9628 132.831C88.6256 130.961 87.457 128.25 87.457 124.698C87.457 120.21 88.7191 115.629 91.2433 110.955C93.861 106.28 97.0863 102.027 100.919 98.1936C104.846 94.2671 109.1 91.0885 113.681 88.6578C118.355 86.2271 122.749 85.0117 126.862 85.0117C129.574 85.0117 131.911 85.5259 133.874 86.5543C135.931 87.4892 136.959 89.172 136.959 91.6027C136.959 92.7245 136.632 93.6594 135.978 94.4073C135.417 95.1552 134.669 95.7629 133.734 96.2303C132.892 96.6978 131.911 97.0717 130.789 97.3522C129.761 97.5392 128.826 97.6794 127.984 97.7729C128.358 96.838 128.685 95.9031 128.966 94.9682C129.246 93.9399 129.387 92.9115 129.387 91.8831C129.387 88.4241 127.751 86.6945 124.478 86.6945C122.048 86.6945 119.15 87.9099 115.784 90.3406C112.512 92.6778 109.38 95.6694 106.388 99.3155C103.49 102.962 101.013 106.982 98.9561 111.375C96.8994 115.769 95.871 120.023 95.871 124.137C95.871 126.661 96.4319 128.811 97.5538 130.587C98.7691 132.364 100.592 133.252 103.023 133.252C106.295 133.252 110.034 132.177 114.241 130.026C118.542 127.876 122.702 125.212 126.722 122.033C130.929 118.761 134.949 115.022 138.782 110.815C142.709 106.514 145.981 102.354 148.598 98.3338L149.58 99.1752Z" fill="white"/>
<path d="M338.525 42.3871C431.904 30.9961 517.652 28.7947 580.79 34.4302C612.369 37.2488 638.229 42.0228 656.545 48.556C665.704 51.8233 672.916 55.5096 678.006 59.5657C683.091 63.6175 685.983 67.9748 686.692 72.6023C687.401 77.2297 685.925 82.1199 682.245 87.2408C678.562 92.3671 672.723 97.6454 664.882 102.987C649.203 113.667 625.727 124.459 596.155 134.737C537.028 155.287 453.764 173.703 360.384 185.094C267.004 196.485 181.256 198.686 118.118 193.05C86.5399 190.232 60.6795 185.458 42.3639 178.925C33.2043 175.657 25.9923 171.971 20.9023 167.915C15.8178 163.863 12.9252 159.506 12.2164 154.878C11.5076 150.251 12.9837 145.361 16.6632 140.24C20.3466 135.114 26.1854 129.835 34.0264 124.494C49.7053 113.814 73.1814 103.022 102.754 92.7436C161.881 72.1936 245.145 53.778 338.525 42.3871Z" stroke="white" stroke-width="2.25105"/>
<path d="M349.172 242L349.334 366" stroke="white" stroke-width="2.66667"/>
<path d="M349.332 365.641C350.665 338.606 354.665 299.249 380.664 281.664" stroke="white" stroke-width="2.66667"/>
<path d="M349.332 365.996C347.999 338.961 343.999 299.604 318 282.02" stroke="white" stroke-width="2.66667"/>
</svg>
