<svg width="69" height="58" viewBox="0 0 69 58" fill="none" xmlns="http://www.w3.org/2000/svg">
<path d="M42.6929 10.6872C41.2678 12.6601 38.7146 16.1131 37.2896 17.9342C35.8645 19.7554 34.578 21.4247 33.4301 22.9423C32.3217 24.4599 31.4113 25.8068 30.6988 26.9829C29.9862 28.1211 29.63 29.0317 29.63 29.7146C29.63 30.8149 30.1842 31.365 31.2925 31.365C32.4405 31.365 33.7666 30.8339 35.2708 29.7715C36.8146 28.7092 38.4375 27.3054 40.1397 25.5602C41.8418 23.777 43.5637 21.7472 45.3054 19.4708C47.0867 17.1565 50.1545 12.2337 51.7775 9.72961L54.8966 10.0887C52.5611 13.1618 49.5806 18.4844 47.5618 21.7472C45.543 24.9721 43.4252 28.1781 41.2084 31.365L40.7928 32.0479C39.249 34.0588 37.6656 36.0886 36.0427 38.1373C34.4593 40.224 32.6978 42.0831 30.7581 43.7145C28.8581 45.3839 26.7601 46.7308 24.4642 47.7552C22.1683 48.8175 19.5755 49.3486 16.6858 49.3486C15.3796 49.3486 14.1524 49.1779 13.0045 48.8364C11.817 48.5329 10.7878 48.0966 9.91689 47.5275C9.04603 46.9584 8.35331 46.2755 7.83871 45.4787C7.32411 44.682 6.73437 43.8405 6.73437 42.9299C6.73437 40.957 7.17705 38.6139 7.17705 38.6139C7.17705 38.6139 7.97725 33.9658 9.91689 33.9658L7.83871 40.2739V44.0366C7.83871 44.9851 10.1651 46.8033 10.1651 46.8033C10.5609 47.5621 12.0464 47.7993 12.0464 47.7993C12.6798 48.2925 14.2598 48.4633 14.2598 48.4633C15.0515 48.7289 15.8744 48.6657 16.7452 48.6657C18.6057 48.6657 20.4068 48.2484 22.1485 47.4137C23.8902 46.579 25.5726 45.4787 27.1955 44.1129C28.7789 42.7471 30.3029 41.1915 31.7675 39.4463C33.2322 37.739 34.6176 35.9558 35.9239 34.0967C37.2302 32.2756 38.4375 30.4924 39.5459 28.7472C40.6939 26.964 41.7428 25.3705 42.6929 23.9667L42.5741 23.8529C41.9408 24.5737 41.1689 25.4274 40.2584 26.4138C39.348 27.3623 38.3386 28.2729 37.2302 29.1455C36.1614 30.0182 35.0135 30.758 33.7864 31.365C32.5592 31.9721 31.2925 32.2756 29.9862 32.2756C28.7195 32.2756 27.8091 32.029 27.2549 31.5358C26.7007 31.0425 26.4236 30.3786 26.4236 29.5439C26.4236 28.7851 26.6414 27.9884 27.0768 27.1537C27.4726 26.281 28.1258 25.1998 29.0362 23.9098C29.9467 22.6198 31.0946 21.0453 32.4801 19.1862C33.9051 17.3272 35.6072 15.0128 37.5865 12.2432L42.6929 10.6872Z" fill="#204BF1"/>
<path d="M27.3967 17.8736C20.0656 22.2735 14.2866 27.5921 10.8541 32.5937C7.36656 37.6756 6.51585 42.0774 8.22824 44.9306C9.94063 47.7838 14.2252 49.1036 20.3502 48.4163C26.3786 47.7399 33.7903 45.1418 41.1215 40.742C48.4526 36.3421 54.2316 31.0235 57.6641 26.0219C61.1516 20.94 62.0023 16.5382 60.2899 13.685C58.5775 10.8318 54.2929 9.51202 48.1679 10.1993C42.1395 10.8757 34.7278 13.4737 27.3967 17.8736Z" stroke="#204BF1" stroke-width="2.00443"/>
</svg>
