<svg width="129" height="44" viewBox="0 0 129 44" fill="none" xmlns="http://www.w3.org/2000/svg">
<path d="M69.1532 25.4546C69.1532 24.1604 69.0163 23.0404 68.7425 22.0946C68.4936 21.1489 68.1576 20.3773 67.7345 19.78C67.3363 19.1577 66.8634 18.7097 66.3158 18.436C65.7683 18.1373 65.2207 17.988 64.6732 17.988C64.1505 17.988 63.6278 18.1373 63.1052 18.436C62.6074 18.7097 62.147 19.1329 61.7238 19.7053C61.3256 20.2777 61.0021 21.012 60.7532 21.908C60.5043 22.804 60.3798 23.8493 60.3798 25.044C60.3798 26.6369 60.5043 27.9809 60.7532 29.076C61.027 30.1711 61.3754 31.0671 61.7985 31.764C62.2216 32.436 62.7194 32.9213 63.2918 33.22C63.8643 33.5186 64.4492 33.668 65.0465 33.668C65.5194 33.668 65.9923 33.5186 66.4652 33.22C66.963 32.9213 67.411 32.4484 67.8092 31.8013C68.2074 31.1542 68.531 30.308 68.7798 29.2626C69.0287 28.2173 69.1532 26.948 69.1532 25.4546ZM56.8332 20.6013C56.8332 18.212 57.0696 16.1586 57.5425 14.4413C58.0154 12.724 58.6376 11.3177 59.4092 10.2226C60.2056 9.10264 61.1016 8.2813 62.0972 7.75864C63.1176 7.23597 64.163 6.97464 65.2332 6.97464C66.2536 6.97464 67.1621 7.12397 67.9585 7.42264C68.7798 7.69641 69.4643 8.06975 70.0118 8.54263C70.5843 9.01552 71.0198 9.57552 71.3185 10.2226C71.6172 10.8449 71.7665 11.5044 71.7665 12.2013C71.7665 12.4751 71.7416 12.724 71.6918 12.948C71.667 13.172 71.6296 13.3462 71.5798 13.4706C71.5052 13.6449 71.443 13.7817 71.3932 13.8813L68.2198 13.1346L68.4065 12.5746C68.4563 12.4004 68.4936 12.2262 68.5185 12.052C68.5683 11.8529 68.5932 11.6537 68.5932 11.4546C68.5932 10.1355 68.2945 9.15241 67.6972 8.5053C67.0998 7.85819 66.2785 7.53463 65.2332 7.53463C64.6607 7.53463 64.0758 7.73375 63.4785 8.13197C62.9061 8.5053 62.371 9.13997 61.8732 10.036C61.3754 10.932 60.9647 12.1266 60.6412 13.62C60.3425 15.0884 60.1932 16.9177 60.1932 19.108V20.9746C60.1932 20.9746 60.2678 20.788 60.4172 20.4146C60.5914 20.0164 60.8776 19.5809 61.2758 19.108C61.6741 18.6351 62.1718 18.212 62.7692 17.8386C63.3914 17.4404 64.1505 17.2413 65.0465 17.2413C66.1167 17.2413 67.1123 17.4404 68.0332 17.8386C68.979 18.2369 69.7878 18.7969 70.4598 19.5186C71.1567 20.2404 71.7043 21.1115 72.1025 22.132C72.5007 23.1275 72.6998 24.2351 72.6998 25.4546C72.6998 26.7986 72.5007 28.0182 72.1025 29.1133C71.7043 30.1835 71.1567 31.1044 70.4598 31.876C69.7878 32.6226 68.979 33.2075 68.0332 33.6306C67.1123 34.0289 66.1167 34.228 65.0465 34.228C63.827 34.228 62.707 34.004 61.6865 33.556C60.691 33.108 59.8323 32.3737 59.1105 31.3533C58.3887 30.3329 57.8287 29.0137 57.4305 27.396C57.0323 25.7533 56.8332 23.7373 56.8332 21.348V20.6013Z" fill="#004BEF"/>
<path d="M127.331 22.0013C127.331 24.3632 125.896 26.8255 122.809 29.258C119.738 31.6787 115.21 33.9169 109.497 35.8213C98.0848 39.6255 82.2337 42.0013 64.6641 42.0013C47.0944 42.0013 31.2434 39.6255 19.8309 35.8213C14.1176 33.9169 9.59038 31.6787 6.5188 29.258C3.43219 26.8255 1.9974 24.3632 1.9974 22.0013C1.9974 19.6394 3.43219 17.1771 6.5188 14.7446C9.59038 12.3239 14.1176 10.0857 19.8309 8.18127C31.2434 4.3771 47.0944 2.0013 64.6641 2.0013C82.2337 2.0013 98.0848 4.3771 109.497 8.18127C115.21 10.0857 119.738 12.3239 122.809 14.7446C125.896 17.1771 127.331 19.6394 127.331 22.0013Z" stroke="#004BEF" stroke-width="2.66667"/>
</svg>
