<svg width="78" height="78" viewBox="0 0 78 78" fill="none" xmlns="http://www.w3.org/2000/svg">
<path d="M48.074 35.0187L36.153 28.1548C35.4531 27.7518 34.6595 27.54 33.8519 27.5406C33.0442 27.5412 32.251 27.7541 31.5516 28.1581C30.8523 28.5621 30.2715 29.1429 29.8675 29.8423C29.4635 30.5416 29.2506 31.3349 29.25 32.1425V45.864C29.2402 47.5085 30.1178 49.0295 31.5445 49.842C32.244 50.2506 33.0394 50.4665 33.8495 50.4677C34.6596 50.4688 35.4556 50.2552 36.1562 49.8485L48.074 42.9845C48.7741 42.582 49.3557 42.002 49.7601 41.3031C50.1645 40.6041 50.3775 39.8108 50.3775 39.0033C50.3775 38.1957 50.1645 37.4024 49.7601 36.7034C49.3557 36.0045 48.7741 35.4245 48.074 35.022V35.0187ZM46.449 40.1603L34.5345 47.0275C34.328 47.1486 34.093 47.2125 33.8536 47.2125C33.6143 47.2125 33.3792 47.1486 33.1727 47.0275C32.9661 46.9106 32.7947 46.7403 32.6764 46.5345C32.558 46.3287 32.4971 46.0949 32.5 45.8575V32.1425C32.4977 31.9057 32.5589 31.6725 32.6772 31.4674C32.7955 31.2622 32.9666 31.0924 33.1727 30.9758C33.3774 30.8512 33.6124 30.7853 33.852 30.7853C34.0916 30.7853 34.3266 30.8512 34.5312 30.9758L46.449 37.843C46.6545 37.9591 46.8255 38.1277 46.9445 38.3315C47.0635 38.5354 47.1262 38.7672 47.1262 39.0033C47.1262 39.2393 47.0635 39.4711 46.9445 39.675C46.8255 39.8788 46.6545 40.0442 46.449 40.1603ZM61.75 13H16.25C13.6649 13.0026 11.1865 14.0306 9.35856 15.8586C7.53064 17.6865 6.50258 20.1649 6.5 22.75V55.25C6.50258 57.8351 7.53064 60.3135 9.35856 62.1414C11.1865 63.9694 13.6649 64.9974 16.25 65H61.75C64.3351 64.9974 66.8135 63.9694 68.6414 62.1414C70.4694 60.3135 71.4974 57.8351 71.5 55.25V22.75C71.4974 20.1649 70.4694 17.6865 68.6414 15.8586C66.8135 14.0306 64.3351 13.0026 61.75 13ZM68.25 55.25C68.2474 56.9731 67.5618 58.6249 66.3433 59.8433C65.1249 61.0618 63.4731 61.7474 61.75 61.75H16.25C14.5269 61.7474 12.8751 61.0618 11.6567 59.8433C10.4382 58.6249 9.75258 56.9731 9.75 55.25V22.75C9.75258 21.0269 10.4382 19.3751 11.6567 18.1567C12.8751 16.9382 14.5269 16.2526 16.25 16.25H61.75C63.4731 16.2526 65.1249 16.9382 66.3433 18.1567C67.5618 19.3751 68.2474 21.0269 68.25 22.75V55.25Z" fill="black"/>
</svg>
