<svg width="44" height="55" viewBox="0 0 44 55" fill="none" xmlns="http://www.w3.org/2000/svg">
<path d="M23.8291 29.338C23.8291 28.5533 23.7461 27.8741 23.5801 27.3006C23.4292 26.7272 23.2254 26.2593 22.9689 25.8971C22.7274 25.5198 22.4407 25.2482 22.1086 25.0821C21.7766 24.901 21.4446 24.8105 21.1126 24.8105C20.7956 24.8105 20.4787 24.901 20.1618 25.0821C19.8599 25.2482 19.5807 25.5047 19.3242 25.8518C19.0827 26.1989 18.8865 26.6441 18.7356 27.1875C18.5847 27.7308 18.5092 28.3646 18.5092 29.089C18.5092 30.0549 18.5847 30.8699 18.7356 31.5339C18.9016 32.198 19.1129 32.7413 19.3695 33.1638C19.626 33.5713 19.9279 33.8656 20.275 34.0467C20.6221 34.2278 20.9767 34.3184 21.339 34.3184C21.6257 34.3184 21.9124 34.2278 22.1992 34.0467C22.501 33.8656 22.7727 33.5789 23.0141 33.1865C23.2556 32.7941 23.4518 32.281 23.6027 31.6471C23.7536 31.0132 23.8291 30.2436 23.8291 29.338ZM16.3586 26.3951C16.3586 24.9463 16.502 23.7012 16.7888 22.6599C17.0755 21.6186 17.4528 20.7659 17.9206 20.1018C18.4036 19.4227 18.9469 18.9247 19.5506 18.6077C20.1693 18.2908 20.8032 18.1323 21.4521 18.1323C22.0709 18.1323 22.6218 18.2229 23.1047 18.404C23.6027 18.57 24.0178 18.7964 24.3498 19.0831C24.6969 19.3699 24.961 19.7094 25.1421 20.1018C25.3232 20.4791 25.4138 20.8791 25.4138 21.3016C25.4138 21.4676 25.3987 21.6186 25.3685 21.7544C25.3534 21.8902 25.3307 21.9959 25.3006 22.0713C25.2553 22.177 25.2176 22.26 25.1874 22.3203L23.2632 21.8676L23.3764 21.528C23.4065 21.4224 23.4292 21.3167 23.4443 21.2111C23.4744 21.0903 23.4895 20.9696 23.4895 20.8489C23.4895 20.049 23.3084 19.4529 22.9462 19.0605C22.584 18.6681 22.086 18.4719 21.4521 18.4719C21.105 18.4719 20.7504 18.5926 20.3882 18.8341C20.041 19.0605 19.7166 19.4453 19.4147 19.9886C19.1129 20.5319 18.8639 21.2564 18.6677 22.1619C18.4866 23.0523 18.396 24.1615 18.396 25.4896V26.6215C18.396 26.6215 18.4413 26.5083 18.5319 26.2819C18.6375 26.0405 18.8111 25.7764 19.0525 25.4896C19.294 25.2029 19.5958 24.9463 19.958 24.7199C20.3353 24.4785 20.7956 24.3577 21.339 24.3577C21.9879 24.3577 22.5916 24.4785 23.15 24.7199C23.7235 24.9614 24.2139 25.301 24.6214 25.7386C25.044 26.1763 25.376 26.7045 25.6175 27.3233C25.859 27.927 25.9797 28.5985 25.9797 29.338C25.9797 30.153 25.859 30.8925 25.6175 31.5565C25.376 32.2055 25.044 32.7639 24.6214 33.2317C24.2139 33.6845 23.7235 34.0392 23.15 34.2957C22.5916 34.5372 21.9879 34.6579 21.339 34.6579C20.5994 34.6579 19.9203 34.5221 19.3015 34.2504C18.6979 33.9788 18.1772 33.5336 17.7395 32.9148C17.3019 32.2961 16.9623 31.4962 16.7208 30.5152C16.4794 29.5191 16.3586 28.2967 16.3586 26.8479V26.3951Z" fill="#004BEF"/>
<path d="M15.8762 49.3024C11.9795 48.2459 8.97172 44.9316 7.34642 40.207C5.72328 35.4886 5.52728 29.4669 7.20519 23.2783C8.88311 17.0897 12.094 11.9917 15.8782 8.73939C19.6674 5.48281 23.9374 4.14172 27.8341 5.19824C31.7309 6.25476 34.7386 9.56905 36.3639 14.2937C37.9871 19.012 38.1831 25.0337 36.5051 31.2224C34.8272 37.411 31.6164 42.509 27.8321 45.7613C24.0429 49.0178 19.773 50.3589 15.8762 49.3024Z" stroke="#004BEF" stroke-width="2"/>
</svg>
