<svg width="46" height="39" viewBox="0 0 46 39" fill="none" xmlns="http://www.w3.org/2000/svg">
<path d="M28.5818 6.56509C27.6282 7.88528 25.9197 10.1959 24.9661 11.4146C24.0125 12.6332 23.1516 13.7503 22.3835 14.7658C21.6418 15.7814 21.0325 16.6827 20.5558 17.4697C20.079 18.2314 19.8406 18.8407 19.8406 19.2977C19.8406 20.0339 20.2114 20.4021 20.9531 20.4021C21.7213 20.4021 22.6086 20.0466 23.6152 19.3357C24.6483 18.6249 25.7343 17.6855 26.8733 16.5176C28.0123 15.3244 29.1646 13.9661 30.3301 12.4428C31.5221 10.8941 33.575 7.59995 34.661 5.92432L36.7482 6.1646C35.1853 8.22106 33.1909 11.7827 31.8399 13.9661C30.489 16.1241 29.0719 18.2694 27.5885 20.4021L27.3104 20.859C26.2773 22.2046 25.2178 23.5629 24.1317 24.9339C23.0722 26.3302 21.8934 27.5743 20.5955 28.666C19.324 29.783 17.9201 30.6843 16.3838 31.3698C14.8474 32.0807 13.1124 32.4361 11.1787 32.4361C10.3046 32.4361 9.48347 32.3219 8.71529 32.0934C7.92063 31.8903 7.23192 31.5983 6.64917 31.2175C6.06642 30.8367 5.60287 30.3797 5.25852 29.8465C4.91416 29.3134 4.51953 28.7502 4.51953 28.1409C4.51953 26.8207 4.81575 25.2528 4.81575 25.2528C4.81575 25.2528 5.35123 22.1424 6.64917 22.1424L5.25852 26.3636L5.25852 28.8815C5.25852 29.5162 6.81525 30.7329 6.81525 30.7329C7.08013 31.2406 8.07419 31.3994 8.07419 31.3994C8.49801 31.7294 9.55529 31.8437 9.55529 31.8437C10.0851 32.0214 10.6357 31.9791 11.2185 31.9791C12.4634 31.9791 13.6687 31.6999 14.8342 31.1413C15.9997 30.5828 17.1255 29.8465 18.2115 28.9325C19.271 28.0186 20.2909 26.9776 21.2709 25.8098C22.251 24.6673 23.1781 23.474 24.0523 22.23C24.9264 21.0114 25.7343 19.8181 26.476 18.6503C27.2442 17.457 27.9461 16.3907 28.5818 15.4513L28.5024 15.3752C28.0785 15.8575 27.562 16.4288 26.9528 17.0889C26.3435 17.7236 25.6681 18.3329 24.9264 18.9168C24.2112 19.5008 23.443 19.9958 22.6219 20.4021C21.8007 20.8083 20.9531 21.0114 20.079 21.0114C19.2313 21.0114 18.6221 20.8464 18.2512 20.5163C17.8804 20.1863 17.695 19.742 17.695 19.1834C17.695 18.6756 17.8407 18.1425 18.132 17.584C18.3969 17 18.834 16.2765 19.4432 15.4132C20.0525 14.55 20.8206 13.4964 21.7477 12.2524C22.7013 11.0084 23.8404 9.45968 25.1648 7.60633L28.5818 6.56509Z" fill="white"/>
<path d="M18.2521 11.2279C13.3303 14.1818 9.4431 17.7565 7.12942 21.1279C4.78829 24.5393 4.16546 27.5662 5.36669 29.5677C6.56791 31.5692 9.53204 32.4434 13.6437 31.982C17.7071 31.5261 22.6901 29.7772 27.6119 26.8233C32.5338 23.8694 36.4209 20.2947 38.7346 16.9233C41.0757 13.5119 41.6986 10.485 40.4973 8.48351C39.2961 6.48202 36.332 5.60785 32.2203 6.06919C28.1569 6.52513 23.1739 8.27398 18.2521 11.2279Z" stroke="white"/>
</svg>
