<svg width="698" height="725" viewBox="0 0 698 725" fill="none" xmlns="http://www.w3.org/2000/svg">
<path d="M469.007 470.808C406.243 540.487 335.923 591.323 273.019 617.218C210.016 643.154 154.919 643.911 122.058 614.311C89.1974 584.712 84.2118 529.836 103.446 464.474C122.649 399.215 165.885 323.983 228.649 254.305C291.413 184.626 361.733 133.79 424.637 107.895C487.64 81.9584 542.737 81.2019 575.598 110.801C608.458 140.401 613.444 195.277 594.21 260.638C575.006 325.897 531.77 401.129 469.007 470.808Z" stroke="#004BEF" stroke-width="2.66667"/>
<path d="M337.997 476.333C344.664 476.333 351.109 474.778 357.331 471.667C363.553 468.556 368.997 463.889 373.664 457.667C378.553 451.444 382.442 443.667 385.331 434.333C388.22 424.778 389.664 413.778 389.664 401.333C389.664 390 387.997 380 384.664 371.333C381.553 362.444 377.109 354.889 371.331 348.667C365.775 342.444 358.997 337.778 350.997 334.667C342.997 331.333 334.22 329.667 324.664 329.667C320.886 329.667 317.331 330 313.997 330.667C310.664 331.333 307.664 332.111 304.997 333C301.886 333.889 298.997 335 296.331 336.333L314.664 244.333C314.664 244.333 315.775 244.556 317.997 245C320.22 245.444 323.109 245.889 326.664 246.333C330.442 246.778 334.553 247.222 338.997 247.667C343.664 247.889 348.331 248 352.997 248C360.109 248 366.886 247.667 373.331 247C379.997 246.333 385.886 245.556 390.997 244.667C396.997 243.778 402.664 242.667 407.997 241.333L407.664 244.667C399.22 254 387.553 261.111 372.664 266C357.775 270.667 338.997 273 316.331 273L306.331 323C308.553 322.556 310.997 322 313.664 321.333C316.109 320.889 318.997 320.556 322.331 320.333C325.886 319.889 329.997 319.667 334.664 319.667C347.997 319.667 359.997 321.667 370.664 325.667C381.331 329.667 390.442 335.222 397.997 342.333C405.553 349.444 411.331 358.111 415.331 368.333C419.331 378.333 421.331 389.333 421.331 401.333C421.331 413.333 419.331 424.444 415.331 434.667C411.331 444.667 405.775 453.222 398.664 460.333C391.775 467.444 383.331 473 373.331 477C363.553 481 352.886 483 341.331 483C332.664 483 324.664 481.556 317.331 478.667C309.997 475.778 303.664 471.778 298.331 466.667C292.997 461.556 288.775 455.556 285.664 448.667C282.775 441.778 281.331 434.333 281.331 426.333C281.331 410.556 284.553 398.889 290.997 391.333C297.664 383.556 305.553 379.667 314.664 379.667C315.775 379.667 316.886 379.778 317.997 380C319.331 380.222 320.553 380.444 321.664 380.667C322.775 380.889 323.775 381.111 324.664 381.333L317.997 408C307.997 408 300.442 410.333 295.331 415C290.442 419.444 287.997 425.444 287.997 433C287.997 438.333 289.22 443.667 291.664 449C294.331 454.111 297.886 458.778 302.331 463C306.775 467 311.997 470.222 317.997 472.667C324.22 475.111 330.886 476.333 337.997 476.333Z" fill="#004BEF"/>
</svg>
