<svg width="819" height="753" viewBox="0 0 819 753" fill="none" xmlns="http://www.w3.org/2000/svg">
<path d="M16.832 745H13.376L7.36 736.872L4.768 739.4V745H2.048V728.488H4.768V736.36L12.32 728.488H15.968L9.312 734.984L16.832 745ZM21.2018 728.488V730.824C22.3964 728.925 24.2524 727.976 26.7698 727.976C29.0738 727.976 30.8978 728.755 32.2418 730.312C33.6071 731.869 34.2898 733.981 34.2898 736.648C34.2898 739.315 33.6178 741.448 32.2738 743.048C30.9511 744.627 29.1591 745.416 26.8978 745.416C24.5298 745.416 22.6844 744.509 21.3618 742.696V751.368H18.6418V728.488H21.2018ZM26.3538 730.248C24.7751 730.248 23.5271 730.824 22.6098 731.976C21.7138 733.107 21.2658 734.675 21.2658 736.68C21.2658 738.685 21.7244 740.264 22.6418 741.416C23.5804 742.547 24.8498 743.112 26.4498 743.112C28.0071 743.112 29.2338 742.536 30.1298 741.384C31.0258 740.232 31.4738 738.664 31.4738 736.68C31.4738 734.675 31.0151 733.107 30.0978 731.976C29.2018 730.824 27.9538 730.248 26.3538 730.248ZM52.2345 742.824V744.936C51.6798 745.149 51.0612 745.256 50.3785 745.256C48.8212 745.256 48.0212 744.445 47.9785 742.824C46.4212 744.573 44.4265 745.448 41.9945 745.448C40.3732 745.448 39.0825 745.032 38.1225 744.2C37.1838 743.368 36.7145 742.227 36.7145 740.776C36.7145 737.832 38.6665 736.115 42.5705 735.624C42.8265 735.581 43.1998 735.539 43.6905 735.496C45.5465 735.283 46.6878 735.037 47.1145 734.76C47.6052 734.419 47.8505 733.832 47.8505 733C47.8505 731.187 46.6025 730.28 44.1065 730.28C42.8265 730.28 41.8558 730.547 41.1945 731.08C40.5332 731.592 40.1385 732.445 40.0105 733.64H37.3545C37.3972 731.869 38.0265 730.493 39.2425 729.512C40.4585 728.531 42.1332 728.04 44.2665 728.04C46.5918 728.04 48.3198 728.573 49.4505 729.64C49.8132 729.981 50.0798 730.429 50.2505 730.984C50.4212 731.539 50.5172 731.997 50.5385 732.36C50.5598 732.701 50.5705 733.224 50.5705 733.928C50.5705 734.739 50.5492 735.965 50.5065 737.608C50.4638 739.251 50.4425 740.477 50.4425 741.288C50.4425 741.885 50.5172 742.312 50.6665 742.568C50.8372 742.803 51.1358 742.92 51.5625 742.92C51.7332 742.92 51.9572 742.888 52.2345 742.824ZM47.8505 736.424C47.6585 736.573 47.4558 736.701 47.2425 736.808C47.0292 736.915 46.7518 737 46.4105 737.064C46.0905 737.128 45.8665 737.181 45.7385 737.224C45.6318 737.245 45.3545 737.288 44.9065 737.352C44.4585 737.395 44.2238 737.416 44.2025 737.416C43.5412 737.501 43.1038 737.565 42.8905 737.608C42.6985 737.629 42.3145 737.715 41.7385 737.864C41.1838 738.013 40.7892 738.184 40.5545 738.376C40.3198 738.568 40.0852 738.856 39.8505 739.24C39.6372 739.603 39.5305 740.04 39.5305 740.552C39.5305 741.405 39.8185 742.077 40.3945 742.568C40.9918 743.059 41.8025 743.304 42.8265 743.304C44.1278 743.304 45.2905 742.92 46.3145 742.152C47.3385 741.384 47.8505 740.477 47.8505 739.432V736.424ZM67.438 730.888H61.518V745H58.798V730.888H52.878V728.488H67.438V730.888ZM84.3945 745H80.9385L74.9225 736.872L72.3305 739.4V745H69.6105V728.488H72.3305V736.36L79.8825 728.488H83.5305L76.8745 734.984L84.3945 745ZM100.828 742.824V744.936C100.274 745.149 99.6549 745.256 98.9723 745.256C97.4149 745.256 96.6149 744.445 96.5723 742.824C95.0149 744.573 93.0203 745.448 90.5883 745.448C88.9669 745.448 87.6763 745.032 86.7163 744.2C85.7776 743.368 85.3083 742.227 85.3083 740.776C85.3083 737.832 87.2603 736.115 91.1643 735.624C91.4203 735.581 91.7936 735.539 92.2843 735.496C94.1403 735.283 95.2816 735.037 95.7083 734.76C96.1989 734.419 96.4443 733.832 96.4443 733C96.4443 731.187 95.1963 730.28 92.7003 730.28C91.4203 730.28 90.4496 730.547 89.7883 731.08C89.1269 731.592 88.7323 732.445 88.6043 733.64H85.9483C85.9909 731.869 86.6203 730.493 87.8363 729.512C89.0523 728.531 90.7269 728.04 92.8603 728.04C95.1856 728.04 96.9136 728.573 98.0443 729.64C98.4069 729.981 98.6736 730.429 98.8443 730.984C99.0149 731.539 99.1109 731.997 99.1323 732.36C99.1536 732.701 99.1643 733.224 99.1643 733.928C99.1643 734.739 99.1429 735.965 99.1003 737.608C99.0576 739.251 99.0363 740.477 99.0363 741.288C99.0363 741.885 99.1109 742.312 99.2603 742.568C99.4309 742.803 99.7296 742.92 100.156 742.92C100.327 742.92 100.551 742.888 100.828 742.824ZM96.4443 736.424C96.2523 736.573 96.0496 736.701 95.8363 736.808C95.6229 736.915 95.3456 737 95.0043 737.064C94.6843 737.128 94.4603 737.181 94.3323 737.224C94.2256 737.245 93.9483 737.288 93.5003 737.352C93.0523 737.395 92.8176 737.416 92.7963 737.416C92.1349 737.501 91.6976 737.565 91.4843 737.608C91.2923 737.629 90.9083 737.715 90.3323 737.864C89.7776 738.013 89.3829 738.184 89.1483 738.376C88.9136 738.568 88.6789 738.856 88.4443 739.24C88.2309 739.603 88.1243 740.04 88.1243 740.552C88.1243 741.405 88.4123 742.077 88.9883 742.568C89.5856 743.059 90.3963 743.304 91.4203 743.304C92.7216 743.304 93.8843 742.92 94.9083 742.152C95.9323 741.384 96.4443 740.477 96.4443 739.432V736.424ZM116.448 745H113.728V738.248H110.112L104.896 745H101.28L106.976 738.152C105.76 737.96 104.768 737.448 104 736.616C103.253 735.763 102.88 734.675 102.88 733.352C102.88 731.816 103.338 730.621 104.256 729.768C105.173 728.915 106.442 728.488 108.064 728.488H116.448V745ZM113.728 730.888H108.928C106.752 730.888 105.664 731.709 105.664 733.352C105.664 735.016 106.752 735.848 108.928 735.848H113.728V730.888ZM129.422 745V728.488H137.07C138.158 728.488 139.086 728.584 139.854 728.776C140.622 728.947 141.294 729.341 141.87 729.96C142.446 730.579 142.734 731.421 142.734 732.488C142.734 734.109 141.923 735.293 140.302 736.04V736.072C141.283 736.264 142.051 736.723 142.606 737.448C143.16 738.152 143.438 739.048 143.438 740.136C143.438 741.544 142.968 742.707 142.03 743.624C141.091 744.541 139.886 745 138.414 745H129.422ZM136.782 735.144C137.912 735.144 138.712 734.963 139.182 734.6C139.672 734.216 139.918 733.661 139.918 732.936C139.918 732.211 139.683 731.677 139.214 731.336C138.744 730.995 137.934 730.824 136.782 730.824H132.078V735.144H136.782ZM132.078 737.448V742.664H137.902C138.755 742.664 139.416 742.408 139.886 741.896C140.376 741.384 140.622 740.723 140.622 739.912C140.622 738.269 139.555 737.448 137.422 737.448H132.078ZM160.785 739.784C159.953 743.624 157.553 745.544 153.585 745.544C151.153 745.544 149.244 744.787 147.857 743.272C146.492 741.757 145.809 739.656 145.809 736.968C145.809 734.301 146.513 732.147 147.921 730.504C149.35 728.84 151.206 728.008 153.489 728.008C156.028 728.008 157.905 728.872 159.121 730.6C160.358 732.307 160.977 734.472 160.977 737.096V737.48H148.561L148.529 737.672C148.529 739.421 148.988 740.797 149.905 741.8C150.822 742.803 152.081 743.304 153.681 743.304C154.876 743.304 155.814 743.027 156.497 742.472C157.201 741.917 157.745 741.021 158.129 739.784H160.785ZM158.161 735.272C158.033 733.693 157.553 732.467 156.721 731.592C155.889 730.696 154.79 730.248 153.425 730.248C152.102 730.248 151.004 730.696 150.129 731.592C149.254 732.488 148.732 733.715 148.561 735.272H158.161ZM166.421 728.488V730.824C167.615 728.925 169.471 727.976 171.989 727.976C174.293 727.976 176.117 728.755 177.461 730.312C178.826 731.869 179.509 733.981 179.509 736.648C179.509 739.315 178.837 741.448 177.493 743.048C176.17 744.627 174.378 745.416 172.117 745.416C169.749 745.416 167.903 744.509 166.581 742.696V751.368H163.861V728.488H166.421ZM171.573 730.248C169.994 730.248 168.746 730.824 167.829 731.976C166.933 733.107 166.485 734.675 166.485 736.68C166.485 738.685 166.943 740.264 167.861 741.416C168.799 742.547 170.069 743.112 171.669 743.112C173.226 743.112 174.453 742.536 175.349 741.384C176.245 740.232 176.693 738.664 176.693 736.68C176.693 734.675 176.234 733.107 175.317 731.976C174.421 730.824 173.173 730.248 171.573 730.248ZM197.037 738.984C196.803 740.968 196.045 742.547 194.765 743.72C193.507 744.893 191.864 745.48 189.837 745.48C187.341 745.48 185.411 744.712 184.045 743.176C182.68 741.619 181.997 739.549 181.997 736.968C181.997 734.216 182.712 732.04 184.141 730.44C185.571 728.819 187.501 728.008 189.933 728.008C191.96 728.008 193.581 728.52 194.797 729.544C196.013 730.547 196.728 731.987 196.941 733.864H194.125C193.635 731.475 192.248 730.28 189.965 730.28C188.387 730.28 187.139 730.867 186.221 732.04C185.304 733.192 184.845 734.76 184.845 736.744C184.845 738.749 185.283 740.328 186.157 741.48C187.032 742.632 188.237 743.208 189.773 743.208C191.011 743.208 192.013 742.845 192.781 742.12C193.571 741.395 194.072 740.349 194.285 738.984H197.037ZM203.505 745H200.017V728.488H202.737V741.96H202.801L210.225 728.488H213.713V745H210.993V731.528H210.929L203.505 745ZM230.854 745H228.134V738.248H224.518L219.302 745H215.686L221.382 738.152C220.166 737.96 219.174 737.448 218.406 736.616C217.659 735.763 217.286 734.675 217.286 733.352C217.286 731.816 217.745 730.621 218.662 729.768C219.579 728.915 220.849 728.488 222.47 728.488H230.854V745ZM228.134 730.888H223.334C221.158 730.888 220.07 731.709 220.07 733.352C220.07 735.016 221.158 735.848 223.334 735.848H228.134V730.888Z" fill="#204BF1"/>
<path d="M4.768 500H2.048V483.488H15.744V500H13.024V485.888H4.768V500ZM27.0613 483.008C32.0533 483.008 34.9653 486.176 34.9653 491.648C34.9653 497.248 32.0533 500.512 27.0293 500.512C21.9733 500.512 18.9653 497.248 18.9653 491.808C18.9653 486.368 22.0693 483.008 27.0613 483.008ZM26.9973 485.28C23.7973 485.28 21.7812 487.808 21.7812 491.744C21.7812 495.808 23.7333 498.208 27.0613 498.208C30.2613 498.208 32.1813 495.776 32.1813 491.712C32.1813 487.776 30.1973 485.28 26.9973 485.28ZM51.183 483.488V500H48.463V485.888H42.575L42.351 493.184C42.191 498.592 40.079 500.352 37.775 500.352C36.975 500.352 36.175 500.16 35.823 500V497.792C36.175 497.984 36.911 498.016 37.263 498.016C38.351 498.016 39.567 497.056 39.663 493.472L39.951 483.488H51.183ZM57.9243 500H55.2043V483.488H57.9243V490.048H66.1803V483.488H68.9003V500H66.1803V492.448H57.9243V500ZM88.7295 483.488H91.4495V500H88.7295V483.488ZM86.1055 494.848C86.1055 497.952 84.0895 500 80.8575 500H72.8895V483.488H75.6095V489.792H80.7295C83.9615 489.792 86.1055 491.712 86.1055 494.848ZM79.8655 492.128H75.6095V497.6H79.8655C82.1055 497.6 83.2895 496.608 83.2895 494.848C83.2895 493.088 82.1375 492.128 79.8655 492.128ZM107.197 477.216C106.781 479.776 105.181 481.632 102.397 481.632C99.7408 481.632 97.8528 479.776 97.5328 477.216H99.1648C99.6128 478.752 100.733 479.712 102.365 479.712C104.029 479.712 105.053 478.752 105.565 477.216H107.197ZM99.0048 500H95.5168V483.488H98.2368V496.96H98.3008L105.725 483.488H109.213V500H106.493V486.528H106.429L99.0048 500ZM135.964 483.488V500H133.244V485.888H127.356L127.132 493.184C126.972 498.592 124.86 500.352 122.556 500.352C121.756 500.352 120.956 500.16 120.604 500V497.792C120.956 497.984 121.692 498.016 122.044 498.016C123.132 498.016 124.348 497.056 124.444 493.472L124.732 483.488H135.964ZM147.218 483.008C152.21 483.008 155.122 486.176 155.122 491.648C155.122 497.248 152.21 500.512 147.186 500.512C142.13 500.512 139.122 497.248 139.122 491.808C139.122 486.368 142.226 483.008 147.218 483.008ZM147.154 485.28C143.954 485.28 141.938 487.808 141.938 491.744C141.938 495.808 143.89 498.208 147.218 498.208C150.418 498.208 152.338 495.776 152.338 491.712C152.338 487.776 150.354 485.28 147.154 485.28ZM169.753 485.888H161.145V500H158.424V483.488H169.753V485.888ZM178.249 483.008C183.241 483.008 186.153 486.176 186.153 491.648C186.153 497.248 183.241 500.512 178.217 500.512C173.161 500.512 170.153 497.248 170.153 491.808C170.153 486.368 173.257 483.008 178.249 483.008ZM178.185 485.28C174.985 485.28 172.969 487.808 172.969 491.744C172.969 495.808 174.921 498.208 178.249 498.208C181.449 498.208 183.369 495.776 183.369 491.712C183.369 487.776 181.385 485.28 178.185 485.28ZM201.469 485.888H195.549V500H192.829V485.888H186.909V483.488H201.469V485.888ZM207.13 500H203.642V483.488H206.362V496.96H206.426L213.85 483.488H217.338V500H214.618V486.528H214.554L207.13 500ZM224.143 500H221.423V483.488H235.119V500H232.399V485.888H224.143V500Z" fill="#204BF1"/>
<path fill-rule="evenodd" clip-rule="evenodd" d="M607.723 559.889C563.392 586.558 528.368 618.84 507.512 649.302C486.426 680.101 480.727 707.554 491.636 725.773C492.101 726.55 492.596 727.309 493.119 728.049C504.928 742.907 527.714 747.572 544.515 747.392C544.515 747.392 566.57 744.873 577.061 739.833C587.552 734.793 597.686 728.15 607.461 719.903C616.999 711.656 626.179 702.264 635.001 691.727C643.823 681.418 652.168 670.651 660.036 659.427C667.905 648.431 675.177 637.664 681.853 627.127C688.768 616.36 695.086 606.739 700.809 598.263L700.093 597.576C696.279 601.928 691.629 607.082 686.145 613.038C680.661 618.765 674.581 624.263 667.905 629.532C661.467 634.801 654.552 639.268 647.161 642.933C639.769 646.598 632.139 648.431 624.271 648.431C616.641 648.431 611.157 646.942 607.819 643.964C604.481 640.986 602.812 636.977 602.812 631.937C602.812 627.356 604.123 622.545 606.746 617.505C609.13 612.237 613.065 605.708 618.549 597.919C624.033 590.131 630.947 580.624 639.293 569.399C647.412 558.781 657.025 545.704 668.131 530.167C648.442 537.743 628.023 547.676 607.723 559.889ZM699.493 519.905C690.727 532.024 676.423 551.385 668.262 561.839C659.679 572.835 651.93 582.915 645.015 592.078C638.339 601.241 632.855 609.373 628.563 616.474C624.271 623.347 622.125 628.845 622.125 632.968C622.125 639.611 625.463 642.933 632.139 642.933C639.054 642.933 647.042 639.726 656.102 633.312C665.401 626.897 675.177 618.422 685.43 607.884C695.682 597.117 706.054 584.862 716.546 571.117C725.012 560.091 738.302 539.259 748.336 523.534C751.018 519.33 753.467 515.49 755.53 512.301H757.006C749.757 512.036 741.925 512.363 733.575 513.302C722.849 514.508 711.415 516.716 699.493 519.905ZM771.127 513.686L774.317 514.469C764.141 527.891 751.933 548.419 741.354 566.206C737.308 573.009 733.501 579.411 730.136 584.862C717.976 604.333 705.22 623.69 691.867 642.933L689.364 647.056C680.065 659.197 670.528 671.453 660.752 683.823C651.214 696.423 640.604 707.647 628.921 717.498C617.476 727.577 604.839 735.709 591.009 741.895C588.472 743.072 585.874 744.141 583.216 745.102C616.339 738.66 654.512 723.831 692.277 701.111C736.608 674.442 771.633 642.16 792.488 611.698C813.574 580.899 819.273 553.446 808.365 535.227C801.609 523.945 788.741 516.631 771.127 513.686ZM605.558 556.273C516.104 610.089 463.484 686.948 488.029 727.942C512.573 768.937 604.988 758.543 694.442 704.727C783.896 650.911 836.516 574.052 811.971 533.057C787.427 492.063 695.012 502.457 605.558 556.273Z" fill="#204BF1"/>
<path fill-rule="evenodd" clip-rule="evenodd" d="M355.513 54.2429C442.793 18.3473 528.223 1.67908 595.746 3.6857C629.51 4.68908 658.712 10.3593 681.413 20.5598C704.101 30.7551 720.2 45.4275 728.004 64.4209C742.157 98.8698 726.862 142.506 689.036 186.949V137.651L701.716 134.48V132.365H658.392V134.48L671.072 137.651V200.027H627.748V137.651L640.428 134.48V132.365H597.104V134.48L609.784 137.651V257.797C597.035 266.881 583.468 275.763 569.166 284.356C539.2 302.36 506.01 319.092 470.352 333.757C383.072 369.653 297.642 386.321 230.119 384.314C196.355 383.311 167.153 377.641 144.453 367.44C121.764 357.245 105.665 342.573 97.8611 323.579C84.7473 291.661 96.8999 251.857 128.909 210.77V272.976L115.172 278.262V280.376H146.872V278.262L133.135 272.976V150.338L183.856 283.548H187.027L232.464 150.338V275.09L219.784 278.262V280.376H263.108V278.262L250.428 275.09V137.651L263.108 134.48V132.365H233.521L192.099 253.946L161.901 174.62C208.475 130.113 275.813 87.0212 355.513 54.2429ZM160.542 171.049C207.449 126.547 274.76 83.644 354.174 50.9835C441.802 14.9446 527.727 -1.86127 595.851 0.163174C629.91 1.17533 659.605 6.89696 682.856 17.3451C706.118 27.7984 723.024 43.0315 731.262 63.081C746.539 100.266 729.032 146.56 689.036 192.342V275.09L701.716 278.262V280.376H658.392V278.262L671.072 275.09V204.256H627.748V275.09L640.428 278.262V280.376H597.104V278.262L609.784 275.09V262.117C597.554 270.752 584.596 279.196 570.979 287.377C540.857 305.475 507.508 322.286 471.691 337.017C384.063 373.055 298.138 389.861 230.014 387.837C195.955 386.825 166.26 381.103 143.009 370.655C119.747 360.202 102.841 344.968 94.6033 324.919C80.3682 290.271 94.6126 247.712 128.909 205.095V138.708L115.172 134.48V132.365H145.816L160.542 171.049ZM92.9318 139.766L66.3033 227.092L32.7006 137.651L45.3809 134.48V132.365H1V134.48L13.6802 137.651L57.6385 255.003C55.666 260.924 52.5664 265.575 48.3396 268.958C44.1129 272.342 37.4909 274.033 28.4739 274.033H26.1492L24.0358 273.61C23.3313 273.469 22.6973 273.258 22.1338 272.976L25.3038 287.777C25.8674 288.059 26.5014 288.27 27.2059 288.411C27.9103 288.552 28.6148 288.623 29.3192 288.623C30.0237 288.764 30.7986 288.834 31.6439 288.834C35.0253 288.834 38.125 288.27 40.9428 287.143C43.9015 286.015 46.5785 284.112 48.9736 281.434C51.3688 278.755 53.623 275.302 55.7364 271.073C57.8498 266.703 59.8927 261.346 61.8652 255.003L97.1586 139.766L110.896 134.48V132.365H79.1949V134.48L92.9318 139.766ZM358.666 259.655C356.27 264.73 355.073 270.227 355.073 276.148H312.805V204.256H332.882L342.393 223.286H344.506V180.997H342.393L332.882 200.027H312.805V136.594H352.96C352.96 142.514 354.157 148.012 356.552 153.087C358.947 158.161 361.977 162.531 365.64 166.196H367.753C367.471 164.364 367.26 162.461 367.119 160.487C366.978 158.796 366.837 157.034 366.696 155.201V149.281V142.303C366.837 140.189 366.978 138.356 367.119 136.805C367.26 135.114 367.471 133.634 367.753 132.365H282.161V134.48L294.842 137.651V275.09L282.161 278.262V280.376H369.866C369.585 279.108 369.373 277.628 369.232 275.936C369.092 274.386 368.951 272.624 368.81 270.65V263.461V257.752C368.951 255.778 369.092 253.946 369.232 252.254C369.373 250.281 369.585 248.378 369.866 246.545H367.753C364.09 250.21 361.061 254.58 358.666 259.655ZM427.96 136.805C431.764 134.55 435.638 133.422 439.583 133.422C445.923 133.422 451.77 136.524 457.124 142.726C462.619 148.787 466.987 157.668 470.227 169.368H473.397C473.115 167.253 472.904 165.069 472.763 162.813C472.622 160.84 472.481 158.725 472.34 156.47V149.281V142.937C472.481 140.682 472.622 138.567 472.763 136.594C472.904 134.48 473.115 132.365 473.397 130.251H470.227C468.114 130.815 466.071 132.083 464.098 134.057C462.267 135.889 460.787 137.863 459.66 139.977C457.969 138.004 455.997 136.242 453.743 134.691C451.77 133.281 449.375 132.013 446.557 130.885C443.88 129.757 440.851 129.193 437.47 129.193C431.411 129.193 425.423 130.815 419.506 134.057C413.589 137.158 408.235 141.951 403.444 148.435C398.795 154.778 394.991 162.813 392.032 172.54C389.214 182.125 387.805 193.402 387.805 206.371C387.805 219.339 389.214 230.687 392.032 240.413C394.991 249.999 398.865 258.034 403.656 264.518C408.587 270.861 414.152 275.654 420.351 278.896C426.551 281.998 432.961 283.548 439.583 283.548C444.655 283.548 449.445 282.491 453.954 280.376C458.463 278.262 462.408 275.302 465.789 271.496C469.311 267.549 472.199 262.968 474.454 257.752C476.708 252.395 478.117 246.545 478.681 240.202H475.51C474.947 245.7 473.538 250.845 471.284 255.637C469.17 260.43 466.493 264.589 463.253 268.113C460.153 271.637 456.701 274.386 452.897 276.359C449.093 278.332 445.36 279.319 441.696 279.319C437.188 279.319 432.891 278.192 428.805 275.936C424.719 273.681 421.126 269.804 418.027 264.307C414.927 258.668 412.461 251.197 410.63 241.894C408.798 232.449 407.882 220.608 407.882 206.371C407.882 192.133 408.798 180.363 410.63 171.06C412.461 161.615 414.857 154.144 417.815 148.646C420.774 143.008 424.155 139.061 427.96 136.805ZM556.925 278.262L544.245 275.09V136.594H566.435C566.435 142.514 567.633 148.012 570.028 153.087C572.423 158.161 575.452 162.531 579.115 166.196H581.229C580.947 164.364 580.736 162.461 580.595 160.487C580.454 158.796 580.313 157.034 580.172 155.201V149.281V142.303C580.313 140.189 580.454 138.356 580.595 136.805C580.736 135.114 580.947 133.634 581.229 132.365H489.297C489.438 133.634 489.579 135.114 489.72 136.805C489.861 138.356 490.001 140.189 490.142 142.303C490.283 144.276 490.354 146.602 490.354 149.281C490.354 151.254 490.283 153.228 490.142 155.201C490.001 157.034 489.861 158.796 489.72 160.487C489.579 162.461 489.438 164.364 489.297 166.196H491.41C495.074 162.531 498.103 158.161 500.498 153.087C502.893 148.012 504.091 142.514 504.091 136.594H526.281V275.09L513.601 278.262V280.376H556.925V278.262ZM814.562 240.413C817.521 230.687 819 219.339 819 206.371C819 193.402 817.521 182.125 814.562 172.54C811.744 162.813 807.94 154.778 803.15 148.435C798.5 141.951 793.217 137.158 787.299 134.057C781.382 130.815 775.394 129.193 769.336 129.193C763.277 129.193 757.289 130.815 751.372 134.057C745.454 137.158 740.101 141.951 735.31 148.435C730.661 154.778 726.857 162.813 723.898 172.54C721.08 182.125 719.671 193.402 719.671 206.371C719.671 219.339 721.08 230.687 723.898 240.413C726.857 249.999 730.661 258.034 735.31 264.518C740.101 270.861 745.454 275.654 751.372 278.896C757.289 281.998 763.277 283.548 769.336 283.548C775.394 283.548 781.382 281.998 787.299 278.896C793.217 275.654 798.5 270.861 803.15 264.518C807.94 258.034 811.744 249.999 814.562 240.413ZM796.175 170.425C798.007 179.87 798.923 191.852 798.923 206.371C798.923 220.89 798.007 232.942 796.175 242.528C794.485 251.972 792.16 259.514 789.201 265.152C786.384 270.791 783.213 274.738 779.691 276.993C776.169 279.249 772.717 280.376 769.336 280.376C765.954 280.376 762.502 279.249 758.98 276.993C755.458 274.738 752.217 270.791 749.259 265.152C746.441 259.514 744.116 251.972 742.284 242.528C740.594 232.942 739.748 220.89 739.748 206.371C739.748 191.852 740.594 179.87 742.284 170.425C744.116 160.84 746.441 153.228 749.259 147.589C752.217 141.951 755.458 138.004 758.98 135.748C762.502 133.493 765.954 132.365 769.336 132.365C772.717 132.365 776.169 133.493 779.691 135.748C783.213 138.004 786.384 141.951 789.201 147.589C792.16 153.228 794.485 160.84 796.175 170.425Z" fill="#1F4AF1"/>
</svg>
