<svg width="335" height="170" viewBox="0 0 335 170" fill="none" xmlns="http://www.w3.org/2000/svg">
<rect width="334.999" height="110.39" fill="white"/>
<path d="M26.6024 68.6368L26.6024 69.2589L24.2216 69.2589L23.8732 71.0092C24.1608 70.6996 24.5562 70.5447 25.0594 70.5447C25.6125 70.5447 26.0604 70.7244 26.4033 71.0839C26.7461 71.4378 26.9176 71.8996 26.9176 72.4692C26.9176 73.0665 26.7296 73.5586 26.3535 73.9457C25.9775 74.3329 25.488 74.5264 24.8852 74.5264C24.3267 74.5264 23.8732 74.3716 23.5248 74.0619C23.182 73.7522 23.0022 73.3402 22.9856 72.8259L23.699 72.8259C23.7267 73.1522 23.8511 73.4176 24.0723 73.6222C24.2935 73.8268 24.5673 73.9292 24.8935 73.9292C25.2585 73.9292 25.5627 73.7964 25.806 73.531C26.0493 73.2655 26.171 72.9365 26.171 72.5439C26.171 72.1346 26.0521 71.8028 25.8143 71.5484C25.5765 71.2885 25.2668 71.1586 24.8852 71.1586C24.3986 71.1586 24.0225 71.3493 23.7571 71.7309L23.1515 71.6894L23.699 68.6368L26.6024 68.6368ZM29.6024 68.529C29.9564 68.529 30.2578 68.5953 30.5066 68.7281C30.761 68.8552 30.9546 69.0129 31.0873 69.2009C31.22 69.3889 31.3251 69.635 31.4025 69.9392C31.4799 70.2378 31.5269 70.5088 31.5435 70.7521C31.5601 70.9899 31.5684 71.2775 31.5684 71.6148C31.5684 71.9245 31.5546 72.2037 31.5269 72.4526C31.5048 72.7015 31.4523 72.9614 31.3693 73.2324C31.2919 73.5033 31.1841 73.7301 31.0458 73.9126C30.9076 74.0895 30.7195 74.2361 30.4817 74.3522C30.2439 74.4683 29.9619 74.5264 29.6356 74.5264C29.2928 74.5264 28.9941 74.4683 28.7397 74.3522C28.4909 74.2305 28.2973 74.0812 28.1591 73.9043C28.0208 73.7273 27.9102 73.5033 27.8273 73.2324C27.7498 72.9558 27.7001 72.6959 27.678 72.4526C27.6558 72.2038 27.6448 71.9189 27.6448 71.5982C27.6448 71.3217 27.6503 71.0811 27.6614 70.8765C27.678 70.6719 27.7056 70.4424 27.7443 70.188C27.7886 69.9281 27.8549 69.7097 27.9434 69.5327C28.0319 69.3502 28.1452 69.1788 28.2835 69.0184C28.4218 68.858 28.6015 68.7363 28.8227 68.6534C29.0494 68.5704 29.3093 68.529 29.6024 68.529ZM30.0587 69.2589C29.926 69.1926 29.7739 69.1594 29.6024 69.1594C29.431 69.1594 29.2789 69.1926 29.1462 69.2589C29.0135 69.3198 28.9056 69.3917 28.8227 69.4746C28.7397 69.5576 28.6678 69.682 28.607 69.8479C28.5462 70.0083 28.5019 70.1438 28.4743 70.2544C28.4522 70.365 28.4328 70.5254 28.4162 70.7355C28.3996 70.9401 28.3913 71.0867 28.3913 71.1751C28.3913 71.2581 28.3913 71.3991 28.3913 71.5982C28.3913 71.7918 28.3941 71.9521 28.3996 72.0793C28.4052 72.2065 28.419 72.3724 28.4411 72.577C28.4632 72.7817 28.5019 72.9531 28.5572 73.0913C28.6125 73.2241 28.6817 73.3596 28.7646 73.4978C28.8476 73.6305 28.9609 73.7328 29.1047 73.8047C29.254 73.8711 29.4255 73.9043 29.619 73.9043C29.7849 73.9043 29.9315 73.8739 30.0587 73.813C30.1914 73.7522 30.2992 73.6803 30.3822 73.5973C30.4651 73.5144 30.5343 73.3983 30.5896 73.2489C30.6504 73.0941 30.6946 72.9614 30.7223 72.8508C30.7499 72.7346 30.7693 72.5826 30.7804 72.3945C30.797 72.201 30.8052 72.06 30.8052 71.9715C30.8108 71.8775 30.8135 71.742 30.8135 71.565C30.8135 71.3715 30.8135 71.2332 30.8135 71.1503C30.8135 71.0673 30.8052 70.9235 30.7887 70.7189C30.7721 70.5143 30.7499 70.3567 30.7223 70.2461C30.7002 70.1355 30.6587 70 30.5979 69.8396C30.537 69.6792 30.4651 69.5576 30.3822 69.4746C30.2992 69.3917 30.1914 69.3198 30.0587 69.2589ZM37.9446 68.3465L34.6348 74.6923L34.0708 74.6923L37.3972 68.3465L37.9446 68.3465ZM34.0542 68.5124C34.4745 68.5124 34.7952 68.6479 35.0164 68.9188C35.2432 69.1898 35.3565 69.5825 35.3565 70.0968C35.3565 70.6608 35.2432 71.0922 35.0164 71.3908C34.7897 71.6894 34.4579 71.8388 34.021 71.8388C33.1307 71.8388 32.6855 71.2802 32.6855 70.1631C32.6855 69.6378 32.8044 69.2313 33.0422 68.9437C33.28 68.6562 33.6173 68.5124 34.0542 68.5124ZM34.7344 70.1299C34.7344 69.3723 34.4966 68.9935 34.021 68.9935C33.5454 68.9935 33.3076 69.3972 33.3076 70.2046C33.3076 70.9788 33.5454 71.3659 34.021 71.3659C34.4966 71.3659 34.7344 70.9539 34.7344 70.1299ZM38.1852 71.2083C38.6055 71.2083 38.9262 71.3438 39.1474 71.6148C39.3742 71.8858 39.4876 72.2784 39.4876 72.7927C39.4876 73.3568 39.3742 73.7881 39.1474 74.0868C38.9207 74.3854 38.5889 74.5347 38.152 74.5347C37.2617 74.5347 36.8165 73.9762 36.8165 72.8591C36.8165 72.3337 36.9354 71.9272 37.1732 71.6397C37.411 71.3521 37.7483 71.2083 38.1852 71.2083ZM38.8654 72.8259C38.8654 72.0683 38.6276 71.6894 38.152 71.6894C37.6764 71.6894 37.4386 72.0931 37.4386 72.9005C37.4386 73.6748 37.6764 74.0619 38.152 74.0619C38.6276 74.0619 38.8654 73.6499 38.8654 72.8259Z" fill="black"/>
<rect x="0.178681" y="110.569" width="127.261" height="58.3608" fill="#004BEF" stroke="white" stroke-width="0.357362"/>
<path d="M127.617 110.39H252.521V169.108H127.617V110.39Z" fill="#D9D8FF"/>
<path d="M252.523 110.39H335V169.108H252.523V110.39Z" fill="#EDEDED"/>
<path d="M25.3647 88.3918L24.5766 88.3918L25.0616 85.8337L23.7522 85.8337L23.7522 85.1548L25.1828 85.1548L25.5708 83.1665L24.2614 83.1665L24.2493 82.4997L25.692 82.4997L26.177 79.9537L26.965 79.9537L26.48 82.4997L28.0561 82.4997L28.5532 79.9537L29.3291 79.9537L28.8442 82.4997L30.1536 82.4997L30.1536 83.1665L28.7229 83.1665L28.335 85.1548L29.6444 85.1548L29.6565 85.8337L28.2137 85.8337L27.7288 88.3918L26.9529 88.3918L27.4257 85.8337L25.8496 85.8337L25.3647 88.3918ZM27.5591 85.1548L27.9349 83.1665L26.3467 83.1665L25.9708 85.1548L27.5591 85.1548ZM36.963 79.7597L36.963 80.7539L32.4287 80.7539L32.4287 83.4453L36.4296 83.4453L36.4296 84.4031L32.4287 84.4031L32.4287 88.3918L31.2891 88.3918L31.2891 79.7597L36.963 79.7597ZM43.9247 79.7597L43.9247 80.7539L39.3904 80.7539L39.3904 83.4453L43.3913 83.4453L43.3913 84.4031L39.3904 84.4031L39.3904 88.3918L38.2508 88.3918L38.2508 79.7597L43.9247 79.7597ZM50.8864 79.7597L50.8864 80.7539L46.3521 80.7539L46.3521 83.4453L50.353 83.4453L50.353 84.4031L46.3521 84.4031L46.3521 88.3918L45.2125 88.3918L45.2125 79.7597L50.8864 79.7597ZM57.8481 79.7597L57.8481 80.7539L53.3138 80.7539L53.3138 83.4453L57.3147 83.4453L57.3147 84.4031L53.3138 84.4031L53.3138 88.3918L52.1742 88.3918L52.1742 79.7597L57.8481 79.7597ZM64.8098 79.7597L64.8098 80.7539L60.2755 80.7539L60.2755 83.4453L64.2764 83.4453L64.2764 84.4031L60.2755 84.4031L60.2755 88.3918L59.1359 88.3918L59.1359 79.7597L64.8098 79.7597ZM71.7715 79.7597L71.7715 80.7539L67.2372 80.7539L67.2372 83.4453L71.2381 83.4453L71.2381 84.4031L67.2372 84.4031L67.2372 88.3918L66.0976 88.3918L66.0976 79.7597L71.7715 79.7597Z" fill="black"/>
<path d="M13.9464 155.762L13.1584 155.762L13.6433 153.203L12.3339 153.203L12.3339 152.524L13.7645 152.524L14.1525 150.536L12.8431 150.536L12.831 149.869L14.2737 149.869L14.7587 147.323L15.5467 147.323L15.0618 149.869L16.6379 149.869L17.135 147.323L17.9109 147.323L17.4259 149.869L18.7353 149.869L18.7353 150.536L17.3047 150.536L16.9167 152.524L18.2261 152.524L18.2382 153.203L16.7955 153.203L16.3105 155.762L15.5346 155.762L16.0074 153.203L14.4314 153.203L13.9464 155.762ZM16.1408 152.524L16.5166 150.536L14.9284 150.536L14.5526 152.524L16.1408 152.524ZM24.8052 154.828L24.8052 155.762L19.2041 155.762C19.2283 155.285 19.301 154.868 19.4223 154.513C19.5435 154.157 19.7294 153.838 19.98 153.555C20.2386 153.264 20.4892 153.026 20.7316 152.84C20.9741 152.654 21.3176 152.423 21.7622 152.149C22.4573 151.712 22.9139 151.385 23.1322 151.167C23.5848 150.722 23.8111 150.229 23.8111 149.688C23.8111 149.211 23.6575 148.823 23.3504 148.524C23.0432 148.217 22.6432 148.063 22.1501 148.063C21.5601 148.063 21.1358 148.269 20.8771 148.681C20.6266 149.085 20.4932 149.599 20.477 150.221L19.4344 150.221L19.4344 149.991C19.4344 149.142 19.685 148.459 20.1861 147.942C20.6953 147.424 21.3661 147.166 22.1986 147.166C23.015 147.166 23.6656 147.392 24.1506 147.845C24.6355 148.297 24.878 148.904 24.878 149.663C24.878 149.987 24.8214 150.294 24.7082 150.585C24.6032 150.868 24.4819 151.106 24.3445 151.3C24.2152 151.494 24.0132 151.7 23.7383 151.918C23.4716 152.137 23.2494 152.306 23.0715 152.427C22.8937 152.541 22.6391 152.698 22.3077 152.9C21.645 153.296 21.2045 153.604 20.9862 153.822C20.6791 154.129 20.4811 154.464 20.3922 154.828L24.8052 154.828ZM28.996 147.166C29.5133 147.166 29.9538 147.263 30.3175 147.457C30.6893 147.643 30.9722 147.873 31.1661 148.148C31.3601 148.423 31.5137 148.782 31.6269 149.227C31.74 149.663 31.8087 150.059 31.833 150.415C31.8572 150.762 31.8693 151.183 31.8693 151.676C31.8693 152.128 31.8491 152.537 31.8087 152.9C31.7764 153.264 31.6996 153.644 31.5784 154.04C31.4652 154.436 31.3076 154.767 31.1055 155.034C30.9035 155.293 30.6287 155.507 30.2811 155.677C29.9336 155.846 29.5214 155.931 29.0445 155.931C28.5434 155.931 28.1069 155.846 27.7351 155.677C27.3714 155.499 27.0885 155.281 26.8865 155.022C26.6844 154.763 26.5227 154.436 26.4015 154.04C26.2883 153.636 26.2156 153.256 26.1833 152.9C26.1509 152.537 26.1348 152.12 26.1348 151.652C26.1348 151.247 26.1429 150.896 26.159 150.597C26.1833 150.298 26.2237 149.962 26.2803 149.591C26.3449 149.211 26.4419 148.891 26.5712 148.633C26.7006 148.366 26.8662 148.115 27.0683 147.881C27.2704 147.647 27.5331 147.469 27.8564 147.348C28.1877 147.226 28.5676 147.166 28.996 147.166ZM29.6628 148.233C29.4688 148.136 29.2466 148.087 28.996 148.087C28.7454 148.087 28.5232 148.136 28.3292 148.233C28.1352 148.322 27.9776 148.427 27.8564 148.548C27.7351 148.669 27.63 148.851 27.5411 149.093C27.4522 149.328 27.3876 149.526 27.3472 149.688C27.3148 149.849 27.2865 150.084 27.2623 150.391C27.238 150.69 27.2259 150.904 27.2259 151.033C27.2259 151.154 27.2259 151.361 27.2259 151.652C27.2259 151.934 27.23 152.169 27.238 152.355C27.2461 152.541 27.2663 152.783 27.2987 153.082C27.331 153.381 27.3876 153.632 27.4684 153.834C27.5492 154.028 27.6503 154.226 27.7715 154.428C27.8927 154.622 28.0584 154.771 28.2686 154.876C28.4868 154.973 28.7374 155.022 29.0202 155.022C29.2627 155.022 29.4769 154.978 29.6628 154.889C29.8568 154.8 30.0144 154.695 30.1356 154.573C30.2569 154.452 30.3579 154.282 30.4387 154.064C30.5276 153.838 30.5923 153.644 30.6327 153.482C30.6731 153.313 30.7014 153.09 30.7176 152.815C30.7418 152.533 30.7539 152.326 30.7539 152.197C30.762 152.06 30.7661 151.862 30.7661 151.603C30.7661 151.32 30.7661 151.118 30.7661 150.997C30.7661 150.876 30.7539 150.666 30.7297 150.366C30.7054 150.067 30.6731 149.837 30.6327 149.675C30.6004 149.514 30.5398 149.316 30.4508 149.081C30.3619 148.847 30.2569 148.669 30.1356 148.548C30.0144 148.427 29.8568 148.322 29.6628 148.233ZM38.6182 152.815L38.6182 153.688L37.4543 153.688L37.4543 155.762L36.4844 155.762L36.4844 153.688L32.7139 153.688L32.7139 152.718L36.6178 147.166L37.4543 147.166L37.4543 152.815L38.6182 152.815ZM36.4844 152.815L36.4844 148.681L33.6232 152.815L36.4844 152.815ZM40.069 147.129L43.7546 147.129C44.5467 147.129 45.2014 147.303 45.7187 147.651C46.244 147.998 46.5067 148.544 46.5067 149.287C46.5067 149.716 46.3895 150.1 46.1551 150.439C45.9288 150.771 45.6217 151.005 45.2337 151.142C45.7672 151.264 46.1753 151.514 46.4582 151.894C46.7492 152.274 46.8947 152.751 46.8947 153.325C46.8947 154.949 45.8035 155.762 43.6212 155.762L40.069 155.762L40.069 147.129ZM41.1844 148.099L41.1844 150.827L43.2333 150.827C43.4677 150.827 43.6657 150.823 43.8273 150.815C43.9971 150.799 44.187 150.767 44.3972 150.718C44.6073 150.67 44.773 150.601 44.8942 150.512C45.0236 150.415 45.1327 150.278 45.2216 150.1C45.3186 149.922 45.3671 149.708 45.3671 149.457C45.3671 149.207 45.3267 148.996 45.2458 148.827C45.165 148.649 45.068 148.516 44.9549 148.427C44.8417 148.33 44.6841 148.257 44.482 148.208C44.2881 148.16 44.1102 148.132 43.9486 148.124C43.795 148.107 43.593 148.099 43.3424 148.099L41.1844 148.099ZM41.1844 151.724L41.1844 154.804L43.4636 154.804C43.7465 154.804 43.9769 154.8 44.1547 154.792C44.3325 154.775 44.5305 154.739 44.7488 154.683C44.9751 154.626 45.1529 154.545 45.2822 154.44C45.4115 154.327 45.5206 154.169 45.6095 153.967C45.6985 153.757 45.7429 153.507 45.7429 153.216C45.7429 152.973 45.7106 152.763 45.6459 152.585C45.5893 152.407 45.4883 152.266 45.3428 152.161C45.2054 152.056 45.0721 151.971 44.9427 151.906C44.8215 151.842 44.6437 151.797 44.4093 151.773C44.1749 151.749 43.993 151.736 43.8637 151.736C43.7344 151.728 43.5364 151.724 43.2697 151.724L41.1844 151.724ZM54.0546 147.129L54.0546 148.124L49.5203 148.124L49.5203 150.815L53.5212 150.815L53.5212 151.773L49.5203 151.773L49.5203 155.762L48.3807 155.762L48.3807 147.129L54.0546 147.129ZM58.7128 147.178L58.7128 155.762L57.5853 155.762L57.5853 149.542L55.4272 149.542L55.4272 148.766C56.1223 148.766 56.672 148.653 57.0761 148.427C57.4883 148.2 57.7631 147.784 57.9005 147.178L58.7128 147.178Z" fill="white"/>
<path d="M141.527 155.762L140.739 155.762L141.224 153.203L139.914 153.203L139.914 152.524L141.345 152.524L141.733 150.536L140.423 150.536L140.411 149.869L141.854 149.869L142.339 147.323L143.127 147.323L142.642 149.869L144.218 149.869L144.715 147.323L145.491 147.323L145.006 149.869L146.316 149.869L146.316 150.536L144.885 150.536L144.497 152.524L145.806 152.524L145.818 153.203L144.376 153.203L143.891 155.762L143.115 155.762L143.588 153.203L142.012 153.203L141.527 155.762ZM143.721 152.524L144.097 150.536L142.509 150.536L142.133 152.524L143.721 152.524ZM147.439 147.129L150.252 147.129C151.715 147.129 152.794 147.469 153.489 148.148C154.184 148.827 154.531 149.902 154.531 151.373C154.531 152.819 154.208 153.915 153.561 154.658C152.915 155.394 151.88 155.762 150.458 155.762L147.439 155.762L147.439 147.129ZM148.579 148.111L148.579 154.78L150.312 154.78C151.395 154.78 152.179 154.517 152.664 153.991C153.157 153.458 153.404 152.63 153.404 151.506C153.404 150.326 153.165 149.465 152.689 148.924C152.212 148.382 151.403 148.111 150.264 148.111L148.579 148.111ZM155.624 153.688L156.642 153.688C156.699 154.109 156.864 154.44 157.139 154.683C157.422 154.917 157.782 155.034 158.218 155.034C159.342 155.034 159.98 154.101 160.134 152.234C160.15 152.064 160.158 151.874 160.158 151.664C159.673 152.448 158.974 152.84 158.061 152.84C157.277 152.84 156.642 152.585 156.157 152.076C155.672 151.559 155.43 150.884 155.43 150.051C155.43 149.194 155.692 148.499 156.218 147.966C156.743 147.432 157.426 147.166 158.267 147.166C160.239 147.166 161.225 148.564 161.225 151.361C161.225 151.789 161.197 152.201 161.14 152.597C161.092 152.985 160.999 153.389 160.861 153.81C160.724 154.222 160.546 154.581 160.328 154.889C160.11 155.196 159.815 155.446 159.443 155.64C159.079 155.834 158.659 155.931 158.182 155.931C157.454 155.931 156.856 155.733 156.388 155.337C155.927 154.941 155.672 154.392 155.624 153.688ZM158.218 148.087C157.709 148.087 157.297 148.265 156.982 148.621C156.674 148.968 156.521 149.433 156.521 150.015C156.521 150.564 156.666 151.021 156.957 151.385C157.256 151.74 157.677 151.918 158.218 151.918C158.744 151.918 159.168 151.749 159.491 151.409C159.815 151.062 159.976 150.605 159.976 150.039C159.976 149.449 159.815 148.976 159.491 148.621C159.168 148.265 158.744 148.087 158.218 148.087ZM162.712 147.129L165.525 147.129C166.988 147.129 168.067 147.469 168.762 148.148C169.457 148.827 169.805 149.902 169.805 151.373C169.805 152.819 169.481 153.915 168.835 154.658C168.188 155.394 167.153 155.762 165.731 155.762L162.712 155.762L162.712 147.129ZM163.852 148.111L163.852 154.78L165.585 154.78C166.669 154.78 167.453 154.517 167.937 153.991C168.43 153.458 168.677 152.63 168.677 151.506C168.677 150.326 168.439 149.465 167.962 148.924C167.485 148.382 166.677 148.111 165.537 148.111L163.852 148.111ZM172.291 151.167C171.911 151.005 171.616 150.771 171.406 150.463C171.204 150.148 171.103 149.78 171.103 149.36C171.103 148.714 171.341 148.188 171.818 147.784C172.295 147.372 172.909 147.166 173.661 147.166C174.405 147.166 175.011 147.368 175.48 147.772C175.957 148.168 176.195 148.681 176.195 149.312C176.195 150.185 175.803 150.803 175.019 151.167C176.029 151.522 176.534 152.221 176.534 153.264C176.534 154.08 176.272 154.731 175.746 155.216C175.221 155.693 174.514 155.931 173.625 155.931C172.768 155.931 172.077 155.697 171.552 155.228C171.034 154.751 170.776 154.121 170.776 153.337C170.776 152.819 170.905 152.375 171.164 152.003C171.43 151.623 171.806 151.344 172.291 151.167ZM174.74 148.451C174.473 148.208 174.114 148.087 173.661 148.087C173.208 148.087 172.845 148.212 172.57 148.463C172.295 148.705 172.158 149.029 172.158 149.433C172.158 149.837 172.295 150.164 172.57 150.415C172.845 150.657 173.208 150.779 173.661 150.779C174.106 150.779 174.461 150.657 174.728 150.415C175.003 150.164 175.14 149.837 175.14 149.433C175.14 149.021 175.007 148.693 174.74 148.451ZM173.625 151.615C173.107 151.615 172.683 151.777 172.352 152.1C172.02 152.415 171.855 152.819 171.855 153.313C171.855 153.822 172.02 154.242 172.352 154.573C172.691 154.897 173.124 155.058 173.649 155.058C174.182 155.058 174.615 154.897 174.946 154.573C175.286 154.25 175.455 153.834 175.455 153.325C175.455 152.815 175.286 152.403 174.946 152.088C174.607 151.773 174.166 151.615 173.625 151.615ZM183.671 147.129L183.671 148.124L179.137 148.124L179.137 150.815L183.138 150.815L183.138 151.773L179.137 151.773L179.137 155.762L177.997 155.762L177.997 147.129L183.671 147.129ZM190.633 147.129L190.633 148.124L186.099 148.124L186.099 150.815L190.1 150.815L190.1 151.773L186.099 151.773L186.099 155.762L184.959 155.762L184.959 147.129L190.633 147.129Z" fill="#004BEF"/>
<path d="M264.98 155.762L264.192 155.762L264.677 153.203L263.368 153.203L263.368 152.524L264.798 152.524L265.186 150.536L263.877 150.536L263.865 149.869L265.307 149.869L265.792 147.323L266.58 147.323L266.096 149.869L267.672 149.869L268.169 147.323L268.945 147.323L268.46 149.869L269.769 149.869L269.769 150.536L268.338 150.536L267.95 152.524L269.26 152.524L269.272 153.203L267.829 153.203L267.344 155.762L266.568 155.762L267.041 153.203L265.465 153.203L264.98 155.762ZM267.175 152.524L267.55 150.536L265.962 150.536L265.586 152.524L267.175 152.524ZM276.869 147.129L276.869 148.124L272.032 148.124L272.032 150.827L276.554 150.827L276.554 151.785L272.032 151.785L272.032 154.767L276.93 154.767L276.93 155.762L270.892 155.762L270.892 147.129L276.869 147.129ZM278.304 147.129L281.117 147.129C282.58 147.129 283.659 147.469 284.354 148.148C285.049 148.827 285.396 149.902 285.396 151.373C285.396 152.819 285.073 153.915 284.427 154.658C283.78 155.394 282.745 155.762 281.323 155.762L278.304 155.762L278.304 147.129ZM279.444 148.111L279.444 154.78L281.177 154.78C282.26 154.78 283.044 154.517 283.529 153.991C284.022 153.458 284.269 152.63 284.269 151.506C284.269 150.326 284.031 149.465 283.554 148.924C283.077 148.382 282.269 148.111 281.129 148.111L279.444 148.111ZM292.817 147.129L292.817 148.124L287.98 148.124L287.98 150.827L292.502 150.827L292.502 151.785L287.98 151.785L287.98 154.767L292.878 154.767L292.878 155.762L286.84 155.762L286.84 147.129L292.817 147.129ZM294.252 147.129L297.065 147.129C298.528 147.129 299.607 147.469 300.302 148.148C300.997 148.827 301.344 149.902 301.344 151.373C301.344 152.819 301.021 153.915 300.375 154.658C299.728 155.394 298.693 155.762 297.271 155.762L294.252 155.762L294.252 147.129ZM295.392 148.111L295.392 154.78L297.125 154.78C298.208 154.78 298.992 154.517 299.477 153.991C299.97 153.458 300.217 152.63 300.217 151.506C300.217 150.326 299.979 149.465 299.502 148.924C299.025 148.382 298.217 148.111 297.077 148.111L295.392 148.111ZM308.765 147.129L308.765 148.124L303.928 148.124L303.928 150.827L308.45 150.827L308.45 151.785L303.928 151.785L303.928 154.767L308.826 154.767L308.826 155.762L302.788 155.762L302.788 147.129L308.765 147.129ZM310.2 147.129L313.013 147.129C314.476 147.129 315.555 147.469 316.25 148.148C316.945 148.827 317.292 149.902 317.292 151.373C317.292 152.819 316.969 153.915 316.323 154.658C315.676 155.394 314.641 155.762 313.219 155.762L310.2 155.762L310.2 147.129ZM311.34 148.111L311.34 154.78L313.073 154.78C314.156 154.78 314.94 154.517 315.425 153.991C315.918 153.458 316.165 152.63 316.165 151.506C316.165 150.326 315.926 149.465 315.45 148.924C314.973 148.382 314.165 148.111 313.025 148.111L311.34 148.111Z" fill="#004BEF"/>
<path d="M144.301 141.275L144.301 141.914L140.469 141.914C140.486 141.588 140.535 141.303 140.618 141.06C140.701 140.816 140.829 140.598 141 140.404C141.177 140.205 141.348 140.042 141.514 139.915C141.68 139.788 141.915 139.63 142.219 139.442C142.695 139.143 143.007 138.919 143.157 138.77C143.466 138.466 143.621 138.129 143.621 137.758C143.621 137.432 143.516 137.166 143.306 136.962C143.096 136.752 142.822 136.646 142.485 136.646C142.081 136.646 141.791 136.787 141.614 137.07C141.442 137.346 141.351 137.697 141.34 138.123L140.627 138.123L140.627 137.965C140.627 137.385 140.798 136.917 141.141 136.564C141.489 136.21 141.948 136.033 142.518 136.033C143.077 136.033 143.522 136.187 143.854 136.497C144.185 136.807 144.351 137.222 144.351 137.741C144.351 137.963 144.313 138.173 144.235 138.372C144.163 138.565 144.08 138.729 143.986 138.861C143.898 138.994 143.76 139.135 143.572 139.284C143.389 139.434 143.237 139.55 143.115 139.633C142.994 139.71 142.819 139.818 142.593 139.956C142.139 140.227 141.838 140.437 141.688 140.587C141.478 140.797 141.343 141.026 141.282 141.275L144.301 141.275ZM147.169 136.033C147.523 136.033 147.824 136.099 148.073 136.232C148.327 136.359 148.521 136.517 148.654 136.705C148.786 136.893 148.891 137.139 148.969 137.443C149.046 137.741 149.093 138.012 149.11 138.256C149.127 138.494 149.135 138.781 149.135 139.118C149.135 139.428 149.121 139.707 149.093 139.956C149.071 140.205 149.019 140.465 148.936 140.736C148.858 141.007 148.75 141.234 148.612 141.416C148.474 141.593 148.286 141.74 148.048 141.856C147.81 141.972 147.528 142.03 147.202 142.03C146.859 142.03 146.561 141.972 146.306 141.856C146.057 141.734 145.864 141.585 145.725 141.408C145.587 141.231 145.477 141.007 145.394 140.736C145.316 140.46 145.266 140.2 145.244 139.956C145.222 139.707 145.211 139.423 145.211 139.102C145.211 138.825 145.217 138.585 145.228 138.38C145.244 138.176 145.272 137.946 145.311 137.692C145.355 137.432 145.421 137.213 145.51 137.036C145.598 136.854 145.712 136.682 145.85 136.522C145.988 136.362 146.168 136.24 146.389 136.157C146.616 136.074 146.876 136.033 147.169 136.033ZM147.625 136.763C147.492 136.696 147.34 136.663 147.169 136.663C146.997 136.663 146.845 136.696 146.713 136.763C146.58 136.823 146.472 136.895 146.389 136.978C146.306 137.061 146.234 137.186 146.173 137.352C146.113 137.512 146.068 137.647 146.041 137.758C146.019 137.869 145.999 138.029 145.983 138.239C145.966 138.444 145.958 138.59 145.958 138.679C145.958 138.762 145.958 138.903 145.958 139.102C145.958 139.295 145.961 139.456 145.966 139.583C145.972 139.71 145.985 139.876 146.008 140.081C146.03 140.285 146.068 140.457 146.124 140.595C146.179 140.728 146.248 140.863 146.331 141.001C146.414 141.134 146.527 141.236 146.671 141.308C146.82 141.375 146.992 141.408 147.185 141.408C147.351 141.408 147.498 141.378 147.625 141.317C147.758 141.256 147.866 141.184 147.949 141.101C148.032 141.018 148.101 140.902 148.156 140.753C148.217 140.598 148.261 140.465 148.289 140.354C148.316 140.238 148.336 140.086 148.347 139.898C148.363 139.705 148.372 139.564 148.372 139.475C148.377 139.381 148.38 139.246 148.38 139.069C148.38 138.875 148.38 138.737 148.38 138.654C148.38 138.571 148.372 138.427 148.355 138.223C148.338 138.018 148.316 137.86 148.289 137.75C148.267 137.639 148.225 137.504 148.164 137.343C148.103 137.183 148.032 137.061 147.949 136.978C147.866 136.895 147.758 136.823 147.625 136.763ZM155.511 135.85L152.201 142.196L151.637 142.196L154.964 135.85L155.511 135.85ZM151.621 136.016C152.041 136.016 152.362 136.152 152.583 136.423C152.81 136.693 152.923 137.086 152.923 137.6C152.923 138.165 152.81 138.596 152.583 138.894C152.356 139.193 152.024 139.342 151.587 139.342C150.697 139.342 150.252 138.784 150.252 137.667C150.252 137.141 150.371 136.735 150.609 136.447C150.846 136.16 151.184 136.016 151.621 136.016ZM152.301 137.634C152.301 136.876 152.063 136.497 151.587 136.497C151.112 136.497 150.874 136.901 150.874 137.708C150.874 138.482 151.112 138.87 151.587 138.87C152.063 138.87 152.301 138.458 152.301 137.634ZM155.752 138.712C156.172 138.712 156.493 138.847 156.714 139.118C156.941 139.389 157.054 139.782 157.054 140.296C157.054 140.86 156.941 141.292 156.714 141.59C156.487 141.889 156.155 142.038 155.718 142.038C154.828 142.038 154.383 141.48 154.383 140.363C154.383 139.837 154.502 139.431 154.74 139.143C154.977 138.856 155.315 138.712 155.752 138.712ZM156.432 140.33C156.432 139.572 156.194 139.193 155.718 139.193C155.243 139.193 155.005 139.597 155.005 140.404C155.005 141.178 155.243 141.566 155.718 141.566C156.194 141.566 156.432 141.154 156.432 140.33Z" fill="#004BEF"/>
<path d="M266.286 136.041L266.286 141.914L265.515 141.914L265.515 137.658L264.038 137.658L264.038 137.128C264.514 137.128 264.89 137.05 265.166 136.895C265.448 136.74 265.636 136.456 265.73 136.041L266.286 136.041ZM270.224 136.033C270.577 136.033 270.879 136.099 271.128 136.232C271.382 136.359 271.576 136.517 271.708 136.705C271.841 136.893 271.946 137.139 272.024 137.443C272.101 137.741 272.148 138.012 272.165 138.256C272.181 138.494 272.19 138.781 272.19 139.118C272.19 139.428 272.176 139.707 272.148 139.956C272.126 140.205 272.073 140.465 271.99 140.736C271.913 141.007 271.805 141.234 271.667 141.416C271.529 141.593 271.341 141.74 271.103 141.856C270.865 141.972 270.583 142.03 270.257 142.03C269.914 142.03 269.615 141.972 269.361 141.856C269.112 141.734 268.918 141.585 268.78 141.408C268.642 141.231 268.531 141.007 268.448 140.736C268.371 140.46 268.321 140.2 268.299 139.956C268.277 139.707 268.266 139.423 268.266 139.102C268.266 138.825 268.271 138.585 268.282 138.38C268.299 138.176 268.327 137.946 268.365 137.692C268.41 137.432 268.476 137.213 268.564 137.036C268.653 136.854 268.766 136.682 268.905 136.522C269.043 136.362 269.223 136.24 269.444 136.157C269.671 136.074 269.93 136.033 270.224 136.033ZM270.68 136.763C270.547 136.696 270.395 136.663 270.224 136.663C270.052 136.663 269.9 136.696 269.767 136.763C269.635 136.823 269.527 136.895 269.444 136.978C269.361 137.061 269.289 137.186 269.228 137.352C269.167 137.512 269.123 137.647 269.095 137.758C269.073 137.869 269.054 138.029 269.037 138.239C269.021 138.444 269.012 138.59 269.012 138.679C269.012 138.762 269.012 138.903 269.012 139.102C269.012 139.295 269.015 139.456 269.021 139.583C269.026 139.71 269.04 139.876 269.062 140.081C269.084 140.285 269.123 140.457 269.178 140.595C269.234 140.728 269.303 140.863 269.386 141.001C269.469 141.134 269.582 141.236 269.726 141.308C269.875 141.375 270.047 141.408 270.24 141.408C270.406 141.408 270.553 141.378 270.68 141.317C270.812 141.256 270.92 141.184 271.003 141.101C271.086 141.018 271.155 140.902 271.211 140.753C271.271 140.598 271.316 140.465 271.343 140.354C271.371 140.238 271.39 140.086 271.401 139.898C271.418 139.705 271.426 139.564 271.426 139.475C271.432 139.381 271.435 139.246 271.435 139.069C271.435 138.875 271.435 138.737 271.435 138.654C271.435 138.571 271.426 138.427 271.41 138.223C271.393 138.018 271.371 137.86 271.343 137.75C271.321 137.639 271.28 137.504 271.219 137.343C271.158 137.183 271.086 137.061 271.003 136.978C270.92 136.895 270.812 136.823 270.68 136.763ZM278.566 135.85L275.256 142.196L274.692 142.196L278.018 135.85L278.566 135.85ZM274.675 136.016C275.096 136.016 275.416 136.152 275.638 136.423C275.864 136.693 275.978 137.086 275.978 137.6C275.978 138.165 275.864 138.596 275.638 138.894C275.411 139.193 275.079 139.342 274.642 139.342C273.752 139.342 273.307 138.784 273.307 137.667C273.307 137.141 273.425 136.735 273.663 136.447C273.901 136.16 274.238 136.016 274.675 136.016ZM275.355 137.634C275.355 136.876 275.118 136.497 274.642 136.497C274.167 136.497 273.929 136.901 273.929 137.708C273.929 138.482 274.167 138.87 274.642 138.87C275.118 138.87 275.355 138.458 275.355 137.634ZM278.806 138.712C279.227 138.712 279.547 138.847 279.769 139.118C279.995 139.389 280.109 139.782 280.109 140.296C280.109 140.86 279.995 141.292 279.769 141.59C279.542 141.889 279.21 142.038 278.773 142.038C277.883 142.038 277.438 141.48 277.438 140.363C277.438 139.837 277.556 139.431 277.794 139.143C278.032 138.856 278.369 138.712 278.806 138.712ZM279.487 140.33C279.487 139.572 279.249 139.193 278.773 139.193C278.298 139.193 278.06 139.597 278.06 140.404C278.06 141.178 278.298 141.566 278.773 141.566C279.249 141.566 279.487 141.154 279.487 140.33Z" fill="#004BEF"/>
</svg>
