<svg width="61" height="56" viewBox="0 0 61 56" fill="none" xmlns="http://www.w3.org/2000/svg">
<path d="M14.1731 44.4454C10.7782 41.8195 9.34555 37.6088 9.9309 32.7916C10.5159 27.9775 13.1168 22.6474 17.6449 17.9812C22.173 13.3149 27.7117 10.2571 32.9655 9.05433C38.2228 7.85071 43.0952 8.51682 46.49 11.1426C49.8849 13.7685 51.3175 17.9792 50.7322 22.7964C50.1472 27.6105 47.5463 32.9405 43.0182 37.6068C38.4901 42.2731 32.9514 45.3308 27.6976 46.5337C22.4403 47.7373 17.5679 47.0712 14.1731 44.4454Z" fill="#004BEF" stroke="#004BEF" stroke-width="2"/>
<path d="M31.8356 36.0555L33.3523 36.4347V36.6875H28.1702V36.4347L29.6869 36.0555V20.0036H27.159V19.6244L31.8356 18.6132V36.0555Z" fill="white"/>
</svg>
