<svg width="175" height="83" viewBox="0 0 175 83" fill="none" xmlns="http://www.w3.org/2000/svg">
<path fill-rule="evenodd" clip-rule="evenodd" d="M75.7027 11.5287C94.3405 3.8995 112.583 0.35687 127.002 0.783353C134.212 0.996609 140.448 2.20174 145.295 4.36974C150.14 6.53664 153.578 9.65508 155.244 13.6919C158.267 21.0136 155 30.288 146.923 39.7337V29.2562L149.631 28.5821V28.1327H140.379V28.5821L143.087 29.2562V42.5135H133.836V29.2562L136.543 28.5821V28.1327H127.292V28.5821L130 29.2562V54.7917C127.277 56.7225 124.38 58.6102 121.326 60.4366C114.927 64.263 107.84 67.8193 100.225 70.9362C81.5876 78.5654 63.345 82.108 48.9261 81.6815C41.7161 81.4683 35.4802 80.2632 30.6328 78.0951C25.7879 75.9283 22.3501 72.8098 20.6837 68.773C17.8834 61.9891 20.4785 53.5293 27.3136 44.7967V58.0179L24.3802 59.1414V59.5908H31.1496V59.1414L28.2162 58.0179V31.9526L39.0472 60.2649H39.7241L49.4268 31.9526V58.4673L46.7191 59.1414V59.5908H55.9705V59.1414L53.2628 58.4673V29.2562L55.9705 28.5821V28.1327H49.6525L40.8072 53.9732L34.3588 37.1133C44.3042 27.6541 58.6835 18.4954 75.7027 11.5287ZM34.0685 36.3545C44.0851 26.8962 58.4587 17.7776 75.4167 10.8359C94.1289 3.1763 112.477 -0.395592 127.024 0.0346807C134.297 0.249802 140.638 1.46587 145.603 3.68649C150.571 5.90822 154.181 9.14585 155.94 13.4071C159.202 21.3103 155.464 31.1496 146.923 40.8801V58.4673L149.631 59.1414V59.5908H140.379V59.1414L143.087 58.4673V43.4123H133.836V58.4673L136.543 59.1414V59.5908H127.292V59.1414L130 58.4673V55.7098C127.388 57.5451 124.621 59.3399 121.713 61.0787C115.281 64.9251 108.16 68.4982 100.511 71.629C81.7992 79.2886 63.4508 82.8605 48.9037 82.4302C41.6307 82.2151 35.2897 80.999 30.3247 78.7784C25.3572 76.5567 21.7471 73.319 19.988 69.0578C16.9483 61.6938 19.99 52.6483 27.3136 43.5906V29.4809L24.3802 28.5821V28.1327H30.9239L34.0685 36.3545ZM19.6311 29.7056L13.9449 48.2659L6.76935 29.2562L9.47709 28.5821V28.1327H0V28.5821L2.70774 29.2562L12.0946 54.1979C11.6734 55.4563 11.0115 56.445 10.1089 57.164C9.20632 57.883 7.79227 58.2426 5.86677 58.2426H5.37035L4.91906 58.1527C4.76863 58.1227 4.63324 58.0778 4.5129 58.0179L5.18983 61.1637C5.31018 61.2236 5.44556 61.2685 5.596 61.2985C5.74643 61.3284 5.89685 61.3434 6.04728 61.3434C6.19771 61.3734 6.36319 61.3884 6.5437 61.3884C7.26577 61.3884 7.92766 61.2685 8.52938 61.0288C9.16119 60.7892 9.73282 60.3847 10.2443 59.8155C10.7557 59.2462 11.2371 58.5122 11.6884 57.6134C12.1397 56.6846 12.5759 55.5461 12.9972 54.1979L20.5337 29.7056L23.4671 28.5821V28.1327H16.6977V28.5821L19.6311 29.7056ZM76.3759 55.1866C75.8644 56.2652 75.6087 57.4336 75.6087 58.692H66.5829V43.4123H70.8701L72.901 47.4569H73.3522V38.4689H72.901L70.8701 42.5135H66.5829V29.0315H75.1574C75.1574 30.2898 75.4131 31.4582 75.9246 32.5368C76.4361 33.6154 77.0829 34.5441 77.8651 35.3231H78.3164C78.2563 34.9336 78.2111 34.5291 78.181 34.1097C78.151 33.7502 78.1209 33.3757 78.0908 32.9862V31.7279V30.2449C78.1209 29.7955 78.151 29.406 78.181 29.0764C78.2111 28.7169 78.2563 28.4023 78.3164 28.1327H60.0392V28.5821L62.7469 29.2562V58.4673L60.0392 59.1414V59.5908H78.7677C78.7076 59.3211 78.6624 59.0065 78.6323 58.647C78.6023 58.3175 78.5722 57.943 78.5421 57.5235V55.9956V54.7822C78.5722 54.3627 78.6023 53.9732 78.6323 53.6137C78.6624 53.1943 78.7076 52.7898 78.7677 52.4003H78.3164C77.5342 53.1793 76.8873 54.1081 76.3759 55.1866ZM91.1729 29.0764C91.9852 28.597 92.8126 28.3574 93.655 28.3574C95.0089 28.3574 96.2574 29.0165 97.4007 30.3347C98.5741 31.623 99.5067 33.5105 100.199 35.9972H100.876C100.815 35.5478 100.77 35.0834 100.74 34.604C100.71 34.1846 100.68 33.7352 100.65 33.2558V31.7279V30.3797C100.68 29.9003 100.71 29.4509 100.74 29.0315C100.77 28.5821 100.815 28.1327 100.876 27.6833H100.199C99.7474 27.8031 99.3112 28.0727 98.89 28.4922C98.4988 28.8817 98.1829 29.3011 97.9422 29.7505C97.5812 29.3311 97.16 28.9566 96.6786 28.627C96.2574 28.3274 95.746 28.0578 95.1443 27.8181C94.5726 27.5784 93.9258 27.4586 93.2037 27.4586C91.91 27.4586 90.6314 27.8031 89.3677 28.4922C88.1041 29.1513 86.9609 30.17 85.9379 31.5481C84.9451 32.8963 84.1328 34.604 83.501 36.6713C82.8993 38.7086 82.5984 41.1054 82.5984 43.8617C82.5984 46.618 82.8993 49.0298 83.501 51.0971C84.1328 53.1344 84.9601 54.8421 85.9831 56.2203C87.0361 57.5685 88.2245 58.5871 89.5483 59.2762C90.872 59.9353 92.241 60.2649 93.655 60.2649C94.7381 60.2649 95.761 60.0402 96.7238 59.5908C97.6865 59.1414 98.5289 58.5122 99.251 57.7033C100.003 56.8644 100.62 55.8907 101.101 54.7822C101.583 53.6437 101.884 52.4003 102.004 51.0521H101.327C101.207 52.2206 100.906 53.3141 100.424 54.3328C99.9731 55.3514 99.4014 56.2352 98.7094 56.9842C98.0476 57.7332 97.3104 58.3175 96.4981 58.7369C95.6858 59.1563 94.8885 59.3661 94.1063 59.3661C93.1435 59.3661 92.2259 59.1264 91.3534 58.647C90.4809 58.1677 89.7137 57.3438 89.0518 56.1753C88.39 54.9769 87.8634 53.389 87.4723 51.4117C87.0812 49.4043 86.8856 46.8877 86.8856 43.8617C86.8856 40.8357 87.0812 38.3341 87.4723 36.3567C87.8634 34.3494 88.3749 32.7615 89.0067 31.5931C89.6385 30.3947 90.3606 29.5558 91.1729 29.0764ZM118.712 59.1414L116.004 58.4673V29.0315H120.743C120.743 30.2898 120.999 31.4582 121.51 32.5368C122.022 33.6154 122.668 34.5441 123.451 35.3231H123.902C123.842 34.9336 123.797 34.5291 123.767 34.1097C123.737 33.7502 123.706 33.3757 123.676 32.9862V31.7279V30.2449C123.706 29.7955 123.737 29.406 123.767 29.0764C123.797 28.7169 123.842 28.4023 123.902 28.1327H104.271C104.301 28.4023 104.331 28.7169 104.361 29.0764C104.391 29.406 104.421 29.7955 104.451 30.2449C104.481 30.6643 104.497 31.1586 104.497 31.7279C104.497 32.1473 104.481 32.5668 104.451 32.9862C104.421 33.3757 104.391 33.7502 104.361 34.1097C104.331 34.5291 104.301 34.9336 104.271 35.3231H104.722C105.504 34.5441 106.151 33.6154 106.663 32.5368C107.174 31.4582 107.43 30.2898 107.43 29.0315H112.168V58.4673L109.461 59.1414V59.5908H118.712V59.1414ZM173.728 51.0971C174.36 49.0298 174.676 46.618 174.676 43.8617C174.676 41.1054 174.36 38.7086 173.728 36.6713C173.126 34.604 172.314 32.8963 171.291 31.5481C170.298 30.17 169.17 29.1513 167.906 28.4922C166.643 27.8031 165.364 27.4586 164.07 27.4586C162.777 27.4586 161.498 27.8031 160.234 28.4922C158.971 29.1513 157.827 30.17 156.805 31.5481C155.812 32.8963 154.999 34.604 154.368 36.6713C153.766 38.7086 153.465 41.1054 153.465 43.8617C153.465 46.618 153.766 49.0298 154.368 51.0971C154.999 53.1344 155.812 54.8421 156.805 56.2203C157.827 57.5685 158.971 58.5871 160.234 59.2762C161.498 59.9353 162.777 60.2649 164.07 60.2649C165.364 60.2649 166.643 59.9353 167.906 59.2762C169.17 58.5871 170.298 57.5685 171.291 56.2203C172.314 54.8421 173.126 53.1344 173.728 51.0971ZM169.802 36.2219C170.193 38.2292 170.388 40.7758 170.388 43.8617C170.388 46.9476 170.193 49.5092 169.802 51.5465C169.441 53.5538 168.944 55.1567 168.312 56.3551C167.711 57.5535 167.034 58.3924 166.282 58.8717C165.529 59.3511 164.792 59.5908 164.07 59.5908C163.348 59.5908 162.611 59.3511 161.859 58.8717C161.107 58.3924 160.415 57.5535 159.783 56.3551C159.181 55.1567 158.685 53.5538 158.294 51.5465C157.933 49.5092 157.752 46.9476 157.752 43.8617C157.752 40.7758 157.933 38.2292 158.294 36.2219C158.685 34.1846 159.181 32.5668 159.783 31.3684C160.415 30.17 161.107 29.3311 161.859 28.8517C162.611 28.3723 163.348 28.1327 164.07 28.1327C164.792 28.1327 165.529 28.3723 166.282 28.8517C167.034 29.3311 167.711 30.17 168.312 31.3684C168.944 32.5668 169.441 34.1846 169.802 36.2219Z" fill="#FCFCFC"/>
</svg>
