<svg width="423" height="137" viewBox="0 0 423 137" fill="none" xmlns="http://www.w3.org/2000/svg">
<path d="M216.312 134.085C158.213 138.335 105.111 134.743 66.2323 125.524C46.7873 120.913 30.9578 114.907 19.8471 107.813C8.71746 100.706 2.49581 92.6256 1.85765 83.9018C1.21949 75.1779 6.19899 66.278 16.176 57.6274C26.136 48.9917 40.923 40.7466 59.4901 33.3549C96.6128 18.5761 148.628 7.29402 206.726 3.04402C264.825 -1.20599 317.928 2.38658 356.806 11.6059C376.251 16.217 392.081 22.2224 403.192 29.3168C414.321 36.4233 420.543 44.5039 421.181 53.2277C421.819 61.9516 416.84 70.8515 406.863 79.5021C396.903 88.1378 382.116 96.3828 363.549 103.775C326.426 118.553 274.411 129.835 216.312 134.085Z" stroke="#004BEF" stroke-width="2"/>
</svg>
