<svg width="1440" height="6467" viewBox="0 0 1440 6467" fill="none" xmlns="http://www.w3.org/2000/svg">
<g clip-path="url(#clip0_1666_39498)">
<rect width="1440" height="6467" fill="#FCFCFC"/>
<mask id="path-1-inside-1_1666_39498" fill="white">
<path fill-rule="evenodd" clip-rule="evenodd" d="M1161 5116V1343C1161 1099.44 963.558 902 720 902C476.442 902 279 1099.44 279 1343V5116C279 5359.56 476.442 5557 720 5557C963.558 5557 1161 5359.56 1161 5116ZM720 900C475.338 900 277 1098.34 277 1343V5116C277 5360.66 475.338 5559 720 5559C964.662 5559 1163 5360.66 1163 5116V1343C1163 1098.34 964.662 900 720 900Z"/>
</mask>
<path fill-rule="evenodd" clip-rule="evenodd" d="M1161 5116V1343C1161 1099.44 963.558 902 720 902C476.442 902 279 1099.44 279 1343V5116C279 5359.56 476.442 5557 720 5557C963.558 5557 1161 5359.56 1161 5116ZM720 900C475.338 900 277 1098.34 277 1343V5116C277 5360.66 475.338 5559 720 5559C964.662 5559 1163 5360.66 1163 5116V1343C1163 1098.34 964.662 900 720 900Z" fill="#FCFCFC"/>
<path d="M1159 1343V5116H1163V1343H1159ZM720 904C962.453 904 1159 1100.55 1159 1343H1163C1163 1098.34 964.662 900 720 900V904ZM281 1343C281 1100.55 477.547 904 720 904V900C475.338 900 277 1098.34 277 1343H281ZM281 5116V1343H277V5116H281ZM720 5555C477.547 5555 281 5358.45 281 5116H277C277 5360.66 475.338 5559 720 5559V5555ZM1159 5116C1159 5358.45 962.453 5555 720 5555V5559C964.662 5559 1163 5360.66 1163 5116H1159ZM279 1343C279 1099.44 476.442 902 720 902V898C474.233 898 275 1097.23 275 1343H279ZM279 5116V1343H275V5116H279ZM720 5557C476.442 5557 279 5359.56 279 5116H275C275 5361.77 474.233 5561 720 5561V5557ZM1161 5116C1161 5359.56 963.558 5557 720 5557V5561C965.767 5561 1165 5361.77 1165 5116H1161ZM1161 1343V5116H1165V1343H1161ZM720 902C963.558 902 1161 1099.44 1161 1343H1165C1165 1097.23 965.767 898 720 898V902Z" fill="#204BF1" mask="url(#path-1-inside-1_1666_39498)"/>
<path d="M1287 1003V2540" stroke="#204BF1" stroke-width="2"/>
<path d="M1287 4500V5481" stroke="#204BF1" stroke-width="2"/>
<path d="M153 2690V4500" stroke="#204BF1" stroke-width="2"/>
<path d="M1287 2539C1288.11 2505.52 1291.43 2456.78 1313 2435" stroke="#204BF1" stroke-width="2"/>
<path d="M1287 5478C1288.11 5444.52 1291.43 5395.78 1313 5374" stroke="#204BF1" stroke-width="2"/>
<path d="M1287 2540C1285.94 2506.2 1282.74 2456.99 1262 2435" stroke="#204BF1" stroke-width="2"/>
<path d="M1287 5479C1285.94 5445.2 1282.74 5395.99 1262 5374" stroke="#204BF1" stroke-width="2"/>
<path d="M153 4499C154.106 4465.52 157.426 4416.78 179 4395" stroke="#204BF1" stroke-width="2"/>
<path d="M153 4500C151.936 4466.2 148.745 4416.99 128 4395" stroke="#204BF1" stroke-width="2"/>
</g>
<defs>
<clipPath id="clip0_1666_39498">
<rect width="1440" height="6467" fill="white"/>
</clipPath>
</defs>
</svg>
